<svg xmlns="http://www.w3.org/2000/svg" width="33" height="44" viewBox="0 0 33 44">
  <metadata><?xpacket begin="﻿" id="W5M0MpCehiHzreSzNTczkc9d"?>
<x:xmpmeta xmlns:x="adobe:ns:meta/" x:xmptk="Adobe XMP Core 5.6-c140 79.160451, 2017/05/06-01:08:21        ">
   <rdf:RDF xmlns:rdf="http://www.w3.org/1999/02/22-rdf-syntax-ns#">
      <rdf:Description rdf:about=""/>
   </rdf:RDF>
</x:xmpmeta>
                                                                                                    
                                                                                                    
                                                                                                    
                                                                                                    
                                                                                                    
                                                                                                    
                                                                                                    
                                                                                                    
                                                                                                    
                                                                                                    
                                                                                                    
                                                                                                    
                                                                                                    
                                                                                                    
                                                                                                    
                                                                                                    
                                                                                                    
                                                                                                    
                                                                                                    
                                                                                                    
                           
<?xpacket end="w"?></metadata>
<defs>
    <style>
      .cls-1 {
        fill: #810101;
        fill-rule: evenodd;
      }
    </style>
  </defs>
  <path id="список" class="cls-1" d="M246.375,545.75h-2.987a4.126,4.126,0,0,0-7.779,0h-2.984a1.376,1.376,0,0,0-1.375,1.375v5.5A1.376,1.376,0,0,0,232.625,554h13.75a1.376,1.376,0,0,0,1.375-1.375v-5.5A1.376,1.376,0,0,0,246.375,545.75Zm6.875,2.75H250.5v4.125a4.13,4.13,0,0,1-4.125,4.125h-13.75a4.13,4.13,0,0,1-4.125-4.125V548.5h-2.75a2.755,2.755,0,0,0-2.75,2.75v33a2.72,2.72,0,0,0,2.75,2.75h27.5a2.72,2.72,0,0,0,2.75-2.75v-33A2.72,2.72,0,0,0,253.25,548.5ZM239.1,572.849l-5.5,5.5a1.382,1.382,0,0,1-1.947,0L228.9,575.6a1.375,1.375,0,0,1,1.944-1.944l1.779,1.777,4.526-4.527A1.376,1.376,0,0,1,239.1,572.849Zm0-11-5.5,5.5a1.382,1.382,0,0,1-1.947,0l-2.75-2.75a1.375,1.375,0,0,1,1.944-1.945l1.779,1.777,4.526-4.527A1.376,1.376,0,0,1,239.1,561.848ZM249.125,576h-5.5a1.375,1.375,0,0,1,0-2.75h5.5A1.375,1.375,0,0,1,249.125,576Zm0-11h-5.5a1.375,1.375,0,0,1,0-2.75h5.5A1.375,1.375,0,0,1,249.125,565Z" transform="translate(-223 -543)"/>
</svg>
