<svg xmlns="http://www.w3.org/2000/svg" width="52.22" height="52" viewBox="0 0 52.22 52">
  <metadata><?xpacket begin="﻿" id="W5M0MpCehiHzreSzNTczkc9d"?>
<x:xmpmeta xmlns:x="adobe:ns:meta/" x:xmptk="Adobe XMP Core 5.6-c140 79.160451, 2017/05/06-01:08:21        ">
   <rdf:RDF xmlns:rdf="http://www.w3.org/1999/02/22-rdf-syntax-ns#">
      <rdf:Description rdf:about=""/>
   </rdf:RDF>
</x:xmpmeta>
                                                                                                    
                                                                                                    
                                                                                                    
                                                                                                    
                                                                                                    
                                                                                                    
                                                                                                    
                                                                                                    
                                                                                                    
                                                                                                    
                                                                                                    
                                                                                                    
                                                                                                    
                                                                                                    
                                                                                                    
                                                                                                    
                                                                                                    
                                                                                                    
                                                                                                    
                                                                                                    
                           
<?xpacket end="w"?></metadata>
<defs>
    <style>
      .cls-1 {
        fill: #810101;
        fill-rule: evenodd;
      }
    </style>
  </defs>
  <path id="person" class="cls-1" d="M1765.11,108a26,26,0,1,1,26.12-26A26.083,26.083,0,0,1,1765.11,108Zm0-50.424A24.424,24.424,0,1,0,1789.64,82,24.509,24.509,0,0,0,1765.11,57.576Zm0,50.424a26,26,0,0,1-15.11-4.822,0.783,0.783,0,0,1,.18-1.38c6.57-2.419,7.62-4.382,7.62-8.145a2.7,2.7,0,0,0-.63-1.913,10.381,10.381,0,0,1-1.78-4.631,0.638,0.638,0,0,0-.5-0.605c-0.96-.46-1.84-1.122-2.07-4.141a3.639,3.639,0,0,1,.92-2.691c-0.09-.52-0.24-1.416-0.38-2.393-0.72-4.376-.75-9.735,5.43-12.226,5.39-2.175,9.69-.987,11.04.43a7.112,7.112,0,0,1,5.14,2.266c2.64,3.058,1.8,10.027,1.51,11.916a3.53,3.53,0,0,1,.93,2.639c-0.23,3.079-1.11,3.742-2.07,4.2a0.626,0.626,0,0,0-.5.605,10.351,10.351,0,0,1-1.79,4.631,2.7,2.7,0,0,0-.63,1.913c0,3.763,1.06,5.726,7.62,8.145a0.781,0.781,0,0,1,.51.635,0.8,0.8,0,0,1-.32.745A26.033,26.033,0,0,1,1765.11,108Zm-12.95-5.277a24.507,24.507,0,0,0,25.9,0c-5.49-2.247-7.22-4.513-7.22-9.068a4.2,4.2,0,0,1,.91-2.8,8.859,8.859,0,0,0,1.53-4.028,2.143,2.143,0,0,1,1.37-1.738c0.49-.235,1-0.477,1.18-2.841a1.692,1.692,0,0,0-.57-1.544,0.844,0.844,0,0,1-.42-0.846c0.4-2.094,1.04-8.626-1.07-11.08a5.564,5.564,0,0,0-4.16-1.7,1.343,1.343,0,0,1-.21-0.025,1.226,1.226,0,0,1-.66-0.413c-0.43-.734-4.18-2.21-9.35-0.126-5.12,2.061-5.13,6.48-4.47,10.529,0.22,1.508.46,2.811,0.46,2.818a0.785,0.785,0,0,1-.44.857h0a1.79,1.79,0,0,0-.54,1.589c0.18,2.3.68,2.546,1.17,2.781a2.147,2.147,0,0,1,1.38,1.738,8.861,8.861,0,0,0,1.53,4.028,4.2,4.2,0,0,1,.91,2.8C1759.39,98.211,1757.66,100.478,1752.16,102.723Z" transform="translate(-1739 -56)"/>
</svg>
