<svg xmlns="http://www.w3.org/2000/svg" xmlns:xlink="http://www.w3.org/1999/xlink" width="50" height="29" viewBox="0 0 50 29">
  <metadata><?xpacket begin="﻿" id="W5M0MpCehiHzreSzNTczkc9d"?>
<x:xmpmeta xmlns:x="adobe:ns:meta/" x:xmptk="Adobe XMP Core 5.6-c140 79.160451, 2017/05/06-01:08:21        ">
   <rdf:RDF xmlns:rdf="http://www.w3.org/1999/02/22-rdf-syntax-ns#">
      <rdf:Description rdf:about=""/>
   </rdf:RDF>
</x:xmpmeta>
                                                                                                    
                                                                                                    
                                                                                                    
                                                                                                    
                                                                                                    
                                                                                                    
                                                                                                    
                                                                                                    
                                                                                                    
                                                                                                    
                                                                                                    
                                                                                                    
                                                                                                    
                                                                                                    
                                                                                                    
                                                                                                    
                                                                                                    
                                                                                                    
                                                                                                    
                                                                                                    
                           
<?xpacket end="w"?></metadata>
<defs>
    <style>
      .cls-1 {
        fill: #810101;
        fill-rule: evenodd;
        filter: url(#filter);
      }
    </style>
    <filter id="filter" x="32" y="483" width="50" height="29" filterUnits="userSpaceOnUse">
      <feOffset result="offset" dy="1" in="SourceAlpha"/>
      <feGaussianBlur result="blur" stdDeviation="1.732"/>
      <feFlood result="flood" flood-color="#2f2e2e" flood-opacity="0.2"/>
      <feComposite result="composite" operator="in" in2="blur"/>
      <feBlend result="blend" in="SourceGraphic"/>
    </filter>
  </defs>
  <path id="vk1" class="cls-1" d="M72.81,499.025a58.488,58.488,0,0,1,4.35,4.034,11.745,11.745,0,0,1,1.559,2.072,1.459,1.459,0,0,1-.984,2.312l-6.472,0a5.214,5.214,0,0,1-4.12-1.544c-0.9-.842-1.726-1.738-2.587-2.607a5.972,5.972,0,0,0-1.165-.955,1.406,1.406,0,0,0-2.155.484,5.863,5.863,0,0,0-.681,2.783c-0.069,1.405-.53,1.775-2.061,1.839a17.728,17.728,0,0,1-9.26-1.836A19.887,19.887,0,0,1,43,500.226a71.038,71.038,0,0,1-8.2-13.478c-0.518-1.063-.139-1.633,1.132-1.653q3.167-.057,6.336,0a1.853,1.853,0,0,1,1.757,1.214,35.441,35.441,0,0,0,4.294,7.338,6.492,6.492,0,0,0,1.622,1.644,1.014,1.014,0,0,0,1.675-.454,4.748,4.748,0,0,0,.373-1.54,21.146,21.146,0,0,0-.1-5.393,2.332,2.332,0,0,0-2.076-2.058c-0.619-.108-0.526-0.32-0.227-0.645a2.4,2.4,0,0,1,1.984-.911h7.314a1.649,1.649,0,0,1,1.565,1.754l0.006,7.491a2.134,2.134,0,0,0,1.032,1.915,1.48,1.48,0,0,0,1.461-.66,23.14,23.14,0,0,0,4.118-5.836c0.5-.923.921-1.88,1.334-2.837a1.567,1.567,0,0,1,1.653-1.044l7.039,0a4.012,4.012,0,0,1,.622.036c1.186,0.186,1.511.657,1.145,1.724a15.949,15.949,0,0,1-2.8,4.475c-1.174,1.5-2.43,2.945-3.594,4.451-1.07,1.376-.984,2.069.344,3.265h0Z" transform="translate(-32 -483)"/>
</svg>
