<svg xmlns="http://www.w3.org/2000/svg" xmlns:xlink="http://www.w3.org/1999/xlink" viewBox="0 0 1920 1080"><defs><style>.cls-1{fill:none;}.cls-2{fill:#0d0d0d;}.cls-3{fill:url(#Nueva_muestra_de_motivo_2);}</style><pattern id="Nueva_muestra_de_motivo_2" data-name="Nueva muestra de motivo 2" width="100" height="100" patternUnits="userSpaceOnUse" viewBox="0 0 100 100"><rect class="cls-1" width="100" height="100"/><path class="cls-1" d="M53.55,52.41h0a.77.77,0,0,1,.64.2.78.78,0,0,1,0,1.1.74.74,0,0,1-.64.21h0a.76.76,0,0,0,.65-.21.78.78,0,0,0,0-1.1A.79.79,0,0,0,53.55,52.41Z"/><path class="cls-1" d="M3.11,2.54l.12,0A.1.1,0,0,0,3.11,2.54Z"/><path class="cls-1" d="M99.69,2.54a3,3,0,0,0,.31,0v95a3,3,0,0,0-.31,0A2.54,2.54,0,0,0,97.15,100H2.23A2.52,2.52,0,0,0,0,97.49v-95A2.52,2.52,0,0,0,2.23,0H97.15A2.54,2.54,0,0,0,99.69,2.54Zm-40.11,38a.78.78,0,0,0,1.1,0,.78.78,0,0,0,0-1.1.8.8,0,0,0-1.11,0A.79.79,0,0,0,59.58,40.52Zm-3.34,3.34a.77.77,0,1,0,1.09-1.1.77.77,0,1,0-1.09,1.1Zm-3.16,3.29a.73.73,0,0,0,.45.21.76.76,0,0,0,.64-1.31.76.76,0,0,0-.65-.21.7.7,0,0,0-.45.21A.77.77,0,0,0,53.08,47.15ZM43,43.87a.78.78,0,0,0,1.1,0,.78.78,0,0,0-1.1-1.1A.79.79,0,0,0,43,43.87Zm-3.35-3.35a.78.78,0,0,0,1.11-1.11.78.78,0,0,0-1.1,0A.78.78,0,0,0,39.69,40.52ZM3.53,96.06a.75.75,0,0,0-.31-.18.77.77,0,0,0-.79.17.79.79,0,0,0,0,1.11.77.77,0,0,0,.81.18.82.82,0,0,0,.29-.18A.78.78,0,0,0,3.53,96.06Zm0-93.31a.67.67,0,0,0-.32-.17.1.1,0,0,0-.12,0,.77.77,0,0,0-.67,1.31A.77.77,0,0,0,3.37,4a1,1,0,0,0,.17-.12A.78.78,0,0,0,3.55,2.75Zm3.83,90a.77.77,0,1,0,0,1.1A.78.78,0,0,0,7.38,92.72ZM7.38,6a.78.78,0,0,0-1.1,0,.78.78,0,1,0,1.1,1.1A.78.78,0,0,0,7.38,6Zm3.34,83.38a.77.77,0,1,0-1.1,1.09.77.77,0,1,0,1.1-1.09Zm0-80a.78.78,0,0,0-1.1,1.11.78.78,0,0,0,1.1-1.11ZM14.06,86A.78.78,0,0,0,13,86a.78.78,0,0,0,1.11,1.11A.78.78,0,0,0,14.06,86Zm0-73.36a.79.79,0,0,0-1.11,0,.77.77,0,1,0,1.11,0Zm2.23,4.45a.79.79,0,1,0,0-1.1A.78.78,0,0,0,16.3,17.13Zm1.1,65.56a.78.78,0,0,0-1.1,0,.78.78,0,0,0,0,1.1.77.77,0,1,0,1.09-1.1Zm2.24-62.22a.78.78,0,0,0,1.1,0,.79.79,0,0,0,0-1.11.79.79,0,0,0-1.11,1.11Zm1.1,58.88a.77.77,0,1,0-1.09,1.1.77.77,0,1,0,1.09-1.1ZM23,23.81a.79.79,0,0,0,1.11,0,.78.78,0,1,0-1.11,0ZM24.09,76A.78.78,0,0,0,23,76a.79.79,0,0,0,0,1.11.78.78,0,1,0,1.1-1.1Zm2.24-48.85a.78.78,0,0,0,1.1-1.11.78.78,0,0,0-1.1,1.11Zm1.1,45.51a.77.77,0,1,0,0,1.1A.78.78,0,0,0,27.43,72.67ZM29.67,30.5a.79.79,0,0,0,1.11-1.11.79.79,0,0,0-1.11,0A.78.78,0,0,0,29.67,30.5Zm1.1,38.83a.77.77,0,1,0-1.1,1.09.79.79,0,0,0,1.11,0A.78.78,0,0,0,30.77,69.33ZM33,33.84a.79.79,0,1,0,0-1.1A.78.78,0,0,0,33,33.84ZM34.11,66A.78.78,0,0,0,33,66a.78.78,0,0,0,0,1.1A.77.77,0,1,0,34.11,66Zm2.24-28.8a.77.77,0,0,0,1.1,0,.77.77,0,1,0-1.1,0Zm1.1,25.46a.77.77,0,1,0-1.09,1.1.77.77,0,1,0,1.09-1.1Zm3.34-3.34a.77.77,0,1,0-1.09,1.1.78.78,0,0,0,1.1,0A.77.77,0,0,0,40.79,59.3ZM44.14,56A.78.78,0,0,0,43,56a.78.78,0,0,0,1.1,1.11A.78.78,0,0,0,44.14,56Zm2.24-8.8a.78.78,0,0,0,1.1,0,.77.77,0,0,0,0-1.1.78.78,0,0,0-1.1,0A.79.79,0,0,0,46.38,47.16Zm1.1,5.46a.77.77,0,1,0-1.1,1.09.79.79,0,0,0,1.11,0A.78.78,0,0,0,47.48,52.62Zm5.31-2.68a2.52,2.52,0,0,0-4.3-1.82,2.55,2.55,0,0,0-.74,1.81,2.52,2.52,0,0,0,5,0Zm1.41,2.67a.79.79,0,0,0-.65-.2h0a.7.7,0,0,0-.45.21.77.77,0,0,0,0,1.1.74.74,0,0,0,.45.2h0a.76.76,0,0,0,.65-.21A.78.78,0,0,0,54.2,52.61ZM57.34,56a.79.79,0,0,0-1.11,1.11A.78.78,0,0,0,57.34,56Zm3.34,3.34a.78.78,0,0,0-1.1,0,.78.78,0,0,0,0,1.1.78.78,0,0,0,1.11-1.11ZM64,62.64a.78.78,0,0,0-1.1,0,.78.78,0,1,0,1.1,1.1A.78.78,0,0,0,64,62.64Zm0-26.56a.77.77,0,1,0-1.1,1.09.77.77,0,0,0,1.1,0A.78.78,0,0,0,64,36.08ZM67.36,66a.78.78,0,1,0,0,1.1A.77.77,0,0,0,67.36,66Zm0-33.24a.77.77,0,1,0-1.1,1.09.79.79,0,0,0,1.11,0A.78.78,0,0,0,67.36,32.74Zm3.35,36.58a.78.78,0,0,0-1.1,0,.77.77,0,0,0,0,1.1.79.79,0,0,0,1.11-1.11Zm0-39.92a.78.78,0,0,0-1.1,0,.77.77,0,0,0,0,1.1A.77.77,0,1,0,70.7,29.4Zm3.35,43.26a.79.79,0,1,0,0,1.1A.78.78,0,0,0,74.05,72.66Zm0-46.61a.78.78,0,0,0-1.1,0,.79.79,0,0,0,1.11,1.11A.79.79,0,0,0,74,26.05Zm3.35,50a.78.78,0,1,0,0,1.11A.79.79,0,0,0,77.39,76Zm0-53.29a.77.77,0,1,0,0,1.1A.78.78,0,0,0,77.38,22.71Zm3.35,56.63a.78.78,0,0,0-1.1,0,.78.78,0,0,0,0,1.1.78.78,0,1,0,1.11-1.11Zm0-60a.79.79,0,0,0-1.11,0,.8.8,0,0,0,0,1.11.78.78,0,1,0,1.1-1.1Zm3.34,63.32a.78.78,0,1,0,0,1.1A.78.78,0,0,0,84.07,82.69Zm0-66.66A.77.77,0,1,0,83,17.12.77.77,0,1,0,84.07,16Zm3.35,70a.79.79,0,0,0-1.11,0,.77.77,0,1,0,1.11,0Zm0-73.34a.77.77,0,1,0-1.1,1.09.79.79,0,0,0,1.11,0A.78.78,0,0,0,87.41,12.69Zm3.35,76.68a.79.79,0,1,0,0,1.1A.78.78,0,0,0,90.76,89.37Zm0-80a.78.78,0,0,0-1.1,0,.79.79,0,0,0,1.11,1.11A.79.79,0,0,0,90.75,9.34ZM94.1,92.71a.79.79,0,1,0,0,1.1A.78.78,0,0,0,94.1,92.71ZM94.09,6A.78.78,0,0,0,93,6a.78.78,0,0,0,0,1.1A.77.77,0,1,0,94.09,6Zm1.69-2.15a.74.74,0,0,0,.59.22A.78.78,0,0,0,96.7,4a.71.71,0,0,0,.18-.12.78.78,0,0,0,0-1.1.75.75,0,0,0-.46-.21l-.06,0a.76.76,0,0,0-.58.22A.78.78,0,0,0,95.78,3.85ZM97,96.1a.83.83,0,0,0-.34-.19.86.86,0,0,0-.39,0,.71.71,0,0,0-.37.2.77.77,0,0,0,0,1.1.75.75,0,0,0,.74.18,1,1,0,0,0,.22-.09.71.71,0,0,0,.14-.1A.78.78,0,0,0,97,96.1Z"/><path class="cls-2" d="M53.53,47.36a.76.76,0,0,0,.64-1.31.76.76,0,0,0-.65-.21.7.7,0,0,0-.45.21.77.77,0,0,0,0,1.1A.73.73,0,0,0,53.53,47.36Z"/><path class="cls-2" d="M57.34,43.87a.79.79,0,0,0,0-1.11.77.77,0,1,0-1.09,1.1A.78.78,0,0,0,57.34,43.87Z"/><path class="cls-2" d="M60.68,40.52a.78.78,0,0,0,0-1.1.8.8,0,0,0-1.11,0,.79.79,0,0,0,0,1.11A.78.78,0,0,0,60.68,40.52Z"/><path class="cls-2" d="M62.92,36.07a.78.78,0,0,0,0,1.1.77.77,0,0,0,1.1,0,.78.78,0,0,0-1.1-1.11Z"/><path class="cls-2" d="M66.26,32.73a.78.78,0,0,0,0,1.1.79.79,0,0,0,1.11,0,.79.79,0,0,0-1.11-1.11Z"/><path class="cls-2" d="M69.6,29.39a.77.77,0,0,0,0,1.1.77.77,0,1,0,0-1.1Z"/><path class="cls-2" d="M72.94,26.05a.79.79,0,0,0,1.11,1.11.78.78,0,0,0-1.11-1.11Z"/><path class="cls-2" d="M76.28,22.71a.78.78,0,1,0,1.1,0A.78.78,0,0,0,76.28,22.71Z"/><path class="cls-2" d="M79.62,19.36a.8.8,0,0,0,0,1.11.78.78,0,1,0,1.1-1.1A.79.79,0,0,0,79.62,19.36Z"/><path class="cls-2" d="M83,16a.78.78,0,0,0,0,1.1A.77.77,0,1,0,84.07,16,.78.78,0,0,0,83,16Z"/><path class="cls-2" d="M86.31,12.68a.78.78,0,0,0,0,1.1.79.79,0,0,0,1.11,0,.79.79,0,0,0-1.11-1.11Z"/><path class="cls-2" d="M89.65,9.34a.79.79,0,0,0,1.11,1.11.78.78,0,0,0-1.11-1.11Z"/><path class="cls-2" d="M93,6a.78.78,0,0,0,0,1.1A.77.77,0,1,0,93,6Z"/><path class="cls-2" d="M96.37,4.07A.78.78,0,0,0,96.7,4a.71.71,0,0,0,.18-.12.78.78,0,0,0,0-1.1.75.75,0,0,0-.46-.21l-.06,0a.76.76,0,0,0-.58.22.78.78,0,0,0,0,1.1A.74.74,0,0,0,96.37,4.07Z"/><path class="cls-2" d="M48.49,48.12a2.55,2.55,0,0,0-.74,1.81,2.52,2.52,0,1,0,4.31-1.81A2.53,2.53,0,0,0,48.49,48.12Z"/><path class="cls-2" d="M2.23,0H0V2.51A2.52,2.52,0,0,0,2.23,0Z"/><path class="cls-2" d="M97.15,0a2.54,2.54,0,0,0,2.54,2.54,3,3,0,0,0,.31,0V0Z"/><path class="cls-2" d="M0,97.49V100H2.23A2.52,2.52,0,0,0,0,97.49Z"/><path class="cls-2" d="M97.15,100H100V97.49a3,3,0,0,0-.31,0A2.54,2.54,0,0,0,97.15,100Z"/><path class="cls-2" d="M3.22,95.88a.77.77,0,0,0-.79.17.79.79,0,0,0,0,1.11.77.77,0,0,0,.81.18.82.82,0,0,0,.29-.18.78.78,0,0,0,0-1.1A.75.75,0,0,0,3.22,95.88Z"/><path class="cls-2" d="M6.28,92.71a.78.78,0,1,0,1.1,0A.78.78,0,0,0,6.28,92.71Z"/><path class="cls-2" d="M9.62,89.37a.78.78,0,0,0,0,1.1.77.77,0,1,0,1.1-1.09A.78.78,0,0,0,9.62,89.37Z"/><path class="cls-2" d="M13,86a.78.78,0,0,0,1.11,1.11A.79.79,0,0,0,13,86Z"/><path class="cls-2" d="M16.3,82.69a.78.78,0,0,0,0,1.1.77.77,0,1,0,0-1.1Z"/><path class="cls-2" d="M19.64,79.34a.79.79,0,0,0,0,1.11.77.77,0,1,0,1.09-1.1A.78.78,0,0,0,19.64,79.34Z"/><path class="cls-2" d="M23,76a.79.79,0,0,0,0,1.11A.78.78,0,1,0,23,76Z"/><path class="cls-2" d="M26.33,72.66a.78.78,0,1,0,1.1,0A.78.78,0,0,0,26.33,72.66Z"/><path class="cls-2" d="M29.67,69.32a.78.78,0,0,0,0,1.1.79.79,0,0,0,1.11,0,.79.79,0,0,0-1.11-1.11Z"/><path class="cls-2" d="M33,66a.78.78,0,0,0,0,1.1A.77.77,0,1,0,33,66Z"/><path class="cls-2" d="M36.35,62.64a.78.78,0,0,0,0,1.1.77.77,0,1,0,1.09-1.1A.78.78,0,0,0,36.35,62.64Z"/><path class="cls-2" d="M39.69,59.29a.79.79,0,0,0,0,1.11.78.78,0,0,0,1.1,0,.77.77,0,0,0,0-1.1A.78.78,0,0,0,39.69,59.29Z"/><path class="cls-2" d="M43,56a.78.78,0,0,0,1.1,1.11A.78.78,0,0,0,43,56Z"/><path class="cls-2" d="M46.38,52.61a.78.78,0,0,0,0,1.1.79.79,0,0,0,1.11,0,.79.79,0,0,0-1.11-1.11Z"/><path class="cls-2" d="M47.48,47.15a.77.77,0,0,0,0-1.1.78.78,0,0,0-1.1,0,.78.78,0,1,0,1.1,1.1Z"/><path class="cls-2" d="M44.14,43.86a.78.78,0,0,0-1.1-1.1.78.78,0,1,0,1.1,1.1Z"/><path class="cls-2" d="M40.79,40.52a.77.77,0,1,0-1.1,0A.78.78,0,0,0,40.79,40.52Z"/><path class="cls-2" d="M37.45,37.17a.77.77,0,1,0-1.1,0A.77.77,0,0,0,37.45,37.17Z"/><path class="cls-2" d="M34.11,33.83a.77.77,0,1,0-1.1,0A.78.78,0,0,0,34.11,33.83Z"/><path class="cls-2" d="M30.77,30.49a.78.78,0,0,0,0-1.1.79.79,0,0,0-1.11,0,.77.77,0,1,0,1.1,1.09Z"/><path class="cls-2" d="M27.43,27.15a.78.78,0,0,0,0-1.1.78.78,0,0,0-1.1,1.11A.78.78,0,0,0,27.43,27.15Z"/><path class="cls-2" d="M24.09,23.81a.78.78,0,1,0-1.11,0A.79.79,0,0,0,24.09,23.81Z"/><path class="cls-2" d="M20.74,20.47a.79.79,0,0,0,0-1.11.78.78,0,1,0,0,1.11Z"/><path class="cls-2" d="M17.4,17.12a.77.77,0,1,0-1.1,0A.78.78,0,0,0,17.4,17.12Z"/><path class="cls-2" d="M13,12.69a.77.77,0,1,0,1.11,0A.79.79,0,0,0,13,12.69Z"/><path class="cls-2" d="M9.62,9.34a.79.79,0,0,0,0,1.11.78.78,0,0,0,1.1-1.11A.78.78,0,0,0,9.62,9.34Z"/><path class="cls-2" d="M6.28,6a.78.78,0,1,0,1.1,1.1.78.78,0,0,0,0-1.1A.78.78,0,0,0,6.28,6Z"/><path class="cls-2" d="M3.23,2.58l-.12,0a.77.77,0,0,0-.67,1.31A.77.77,0,0,0,3.37,4a1,1,0,0,0,.17-.12.78.78,0,0,0,0-1.1A.67.67,0,0,0,3.23,2.58Z"/><path class="cls-2" d="M96.61,95.91a.86.86,0,0,0-.39,0,.71.71,0,0,0-.37.2.77.77,0,0,0,0,1.1.75.75,0,0,0,.74.18,1,1,0,0,0,.22-.09.71.71,0,0,0,.14-.1.78.78,0,0,0,0-1.1A.83.83,0,0,0,96.61,95.91Z"/><path class="cls-2" d="M93,92.72a.77.77,0,1,0,1.1,0A.78.78,0,0,0,93,92.72Z"/><path class="cls-2" d="M89.66,89.38a.77.77,0,1,0,1.1,0A.78.78,0,0,0,89.66,89.38Z"/><path class="cls-2" d="M86.31,86a.77.77,0,1,0,1.11,0A.79.79,0,0,0,86.31,86Z"/><path class="cls-2" d="M83,82.69a.78.78,0,1,0,1.1,1.1.78.78,0,0,0,0-1.1A.78.78,0,0,0,83,82.69Z"/><path class="cls-2" d="M79.63,79.35a.78.78,0,0,0,0,1.1.79.79,0,1,0,0-1.1Z"/><path class="cls-2" d="M76.29,76a.77.77,0,1,0,1.09,1.1.79.79,0,0,0,0-1.11A.78.78,0,0,0,76.29,76Z"/><path class="cls-2" d="M73,72.67a.77.77,0,1,0,1.1,0A.78.78,0,0,0,73,72.67Z"/><path class="cls-2" d="M69.61,69.33a.77.77,0,0,0,0,1.1.79.79,0,1,0,0-1.1Z"/><path class="cls-2" d="M66.26,66a.78.78,0,1,0,1.1,1.1.77.77,0,0,0,0-1.1A.78.78,0,0,0,66.26,66Z"/><path class="cls-2" d="M62.92,62.64a.78.78,0,1,0,1.1,1.1.78.78,0,1,0-1.1-1.1Z"/><path class="cls-2" d="M59.58,59.3a.78.78,0,0,0,0,1.1.79.79,0,1,0,0-1.1Z"/><path class="cls-2" d="M56.24,56a.78.78,0,0,0,0,1.1A.78.78,0,0,0,57.34,56,.78.78,0,0,0,56.24,56Z"/><path class="cls-2" d="M54.18,52.61a.77.77,0,0,0-.64-.2h0a.7.7,0,0,0-.45.21.77.77,0,0,0,0,1.1.74.74,0,0,0,.45.2h0a.74.74,0,0,0,.64-.21A.78.78,0,0,0,54.18,52.61Z"/></pattern></defs><title>Asset 2</title><g id="Layer_2" data-name="Layer 2"><g id="Layer_1-2" data-name="Layer 1"><rect class="cls-3" width="1920" height="1080"/></g></g></svg>