<svg xmlns="http://www.w3.org/2000/svg" viewBox="0 0 506.47 506.47"><defs><style>.cls-1{fill:#af1912;}.cls-2{fill:#7a0e0e;}.cls-3{fill:#fff;}</style></defs><title>презерв</title><g id="Layer_2" data-name="Layer 2"><g id="Layer_1-2" data-name="Layer 1"><g id="презерв"><circle class="cls-1" cx="253.23" cy="253.23" r="253.23"/><path class="cls-2" d="M431.79,397.84a3,3,0,0,1-2.13,5.12H106.25v-.1l12.94-12.94a3,3,0,0,0,0-4.24l-8-8a3,3,0,0,1,0-4.24l7.87-7.87a3,3,0,0,0,0-4.24l-7.87-7.87a3,3,0,0,1,0-4.24l7.87-7.88a3,3,0,0,0,0-4.24L111,329a3,3,0,0,1,0-4.24l8.13-8.14a3,3,0,0,0,0-4.24l-8.21-8.21a3,3,0,0,1,0-4.24l8.13-8.14a3,3,0,0,0,0-4.24l-8-8a3,3,0,0,1,0-4.25l8.27-8.27a3,3,0,0,0,0-4.24l-7.92-7.92a3,3,0,0,1,0-4.24l7.83-7.84a3,3,0,0,0,0-4.24l-8.65-8.65a3,3,0,0,1,0-4.24l8.08-8.08a3,3,0,0,0,0-4.25l-7.5-7.5a3,3,0,0,1,0-4.24l7.5-7.52a3,3,0,0,0,0-4.24l-8.06-8.06a3,3,0,0,1,0-4.24l8.07-8.08a3,3,0,0,0,0-4.24l-10.36-10.36-.07-.08.07-.07,10.46-10.47a3,3,0,0,0,0-4.24l-7.31-7.31a3,3,0,0,1,0-4.24l7.81-7.81a3,3,0,0,0,0-4.24l-8.31-8.32a3,3,0,0,1,0-4.24l8.21-8.22a3,3,0,0,0,0-4.24l-7.72-7.72a3,3,0,0,1,2.12-5.12H429.43a3,3,0,0,1,2.12,5.12L424,91.25a3,3,0,0,0,0,4.24l8.32,8.33a3,3,0,0,1,0,4.24l-8.21,8.21a3,3,0,0,0,0,4.24l7.32,7.32a3,3,0,0,1,0,4.24l-7.81,7.81a3,3,0,0,0,0,4.24l8.32,8.32a3,3,0,0,1,0,4.25l-8.41,8.4a3,3,0,0,0,0,4.25l8,8a3,3,0,0,1,0,4.24l-8.08,8.09a3,3,0,0,0,0,4.24l7.51,7.51a3,3,0,0,1,0,4.25l-7.51,7.5a3,3,0,0,0,0,4.24l8.65,8.66a3,3,0,0,1,0,4.24L424,238.44a3,3,0,0,0,0,4.24L432,250.6a3,3,0,0,1,0,4.24l-7.85,7.84a3,3,0,0,0,0,4.24l8.05,8a3,3,0,0,1,0,4.24l-8.27,8.27a3,3,0,0,0,0,4.24l8.22,8.22a3,3,0,0,1,0,4.24L424,312.3a3,3,0,0,0,0,4.24L432,324.6a3,3,0,0,1,0,4.25L423.91,337a3,3,0,0,0,0,4.25l7.88,7.87a3,3,0,0,1,0,4.25l-7.87,7.86a3,3,0,0,0,0,4.25l8,8a3,3,0,0,1,0,4.24l-8,8a3,3,0,0,0,0,4.25Z"/><path class="cls-3" d="M415.39,415.6a3,3,0,0,1-2.12,5.12H89.86v-.09l12.94-12.94a3,3,0,0,0,0-4.25l-8-8a3,3,0,0,1,0-4.24l7.86-7.87a3,3,0,0,0,0-4.24l-7.87-7.87a3,3,0,0,1,0-4.24l7.87-7.88a3,3,0,0,0,0-4.24l-8-8.06a3,3,0,0,1,0-4.24l8.13-8.13a3,3,0,0,0,0-4.25L94.52,322a3,3,0,0,1,0-4.24l8.13-8.14a3,3,0,0,0,0-4.24l-8-8a3,3,0,0,1,0-4.24l8.26-8.28a3,3,0,0,0,0-4.24L95,272.64a3,3,0,0,1,0-4.24l7.84-7.84a3,3,0,0,0,0-4.24l-8.65-8.65a3,3,0,0,1,0-4.24l8.08-8.08a3,3,0,0,0,0-4.24l-7.51-7.51a3,3,0,0,1,0-4.24l7.51-7.51a3,3,0,0,0,0-4.25l-8.07-8.06a3,3,0,0,1,0-4.24l8.08-8.08a3,3,0,0,0,0-4.24L91.87,172.62l-.07-.08.07-.07L102.33,162a3,3,0,0,0,0-4.24L95,150.46a3,3,0,0,1,0-4.25l7.81-7.81a3,3,0,0,0,0-4.24l-8.32-8.32a3,3,0,0,1,0-4.24l8.22-8.22a3,3,0,0,0,0-4.24L95,101.42a3,3,0,0,1,2.12-5.12H413a3,3,0,0,1,2.12,5.12L407.56,109a3,3,0,0,0,0,4.25l8.33,8.32a3,3,0,0,1,0,4.24L407.68,134a3,3,0,0,0,0,4.24l7.31,7.32a3,3,0,0,1,0,4.24l-7.81,7.81a3,3,0,0,0,0,4.24l8.32,8.32a3,3,0,0,1,0,4.25l-8.42,8.4a3,3,0,0,0,0,4.25l8.06,8.05a3,3,0,0,1,0,4.24l-8.08,8.09a3,3,0,0,0,0,4.24l7.51,7.51a3,3,0,0,1,0,4.25l-7.51,7.5a3,3,0,0,0,0,4.24l8.66,8.66a3,3,0,0,1,0,4.24l-8.08,8.08a3,3,0,0,0,0,4.24l7.92,7.92a3,3,0,0,1,0,4.24l-7.84,7.84a3,3,0,0,0,0,4.24l8,8a3,3,0,0,1,0,4.24l-8.26,8.27a3,3,0,0,0,0,4.24l8.22,8.22a3,3,0,0,1,0,4.24l-8.14,8.13a3,3,0,0,0,0,4.24l8.07,8.07a3,3,0,0,1,0,4.24l-8.13,8.13a3,3,0,0,0,0,4.24l7.88,7.87a3,3,0,0,1,0,4.25L407.51,379a3,3,0,0,0,0,4.25l8,8a3,3,0,0,1,0,4.24l-8,8a3,3,0,0,0,0,4.25Z"/><polygon class="cls-3" points="105.85 187.53 105.85 187.67 105.78 187.6 105.85 187.53"/><path class="cls-1" d="M253.22,364.78A108.62,108.62,0,1,1,361.83,256.16,108.73,108.73,0,0,1,253.22,364.78Zm0-214.34A105.73,105.73,0,1,0,358.94,256.16,105.85,105.85,0,0,0,253.22,150.44Z"/><path class="cls-1" d="M253.22,357.51A101.35,101.35,0,1,1,354.56,256.16,101.47,101.47,0,0,1,253.22,357.51Zm0-187.33a86,86,0,1,0,86,86A86.08,86.08,0,0,0,253.22,170.18Z"/><circle class="cls-1" cx="253.22" cy="256.16" r="80.89"/><path class="cls-3" d="M292.89,192.92c-10.07-4.8-21.34-6.88-33.21-7.47-42.31-2.09-78.17,30.48-77.41,77.42a82.39,82.39,0,0,0,2.6,20,73.83,73.83,0,0,1-5-26.68c0-41,29.35-72.06,74-73.45A70.12,70.12,0,0,1,292.89,192.92Z"/></g></g></g></svg>