<?xml version="1.0" encoding="utf-8"?>
<!-- Generator: Adobe Illustrator 22.1.0, SVG Export Plug-In . SVG Version: 6.00 Build 0)  -->
<svg version="1.1" id="Layer_1" xmlns="http://www.w3.org/2000/svg" xmlns:xlink="http://www.w3.org/1999/xlink" x="0px" y="0px"
	 viewBox="0 0 150 150" style="enable-background:new 0 0 150 150;" xml:space="preserve">
<style type="text/css">
	.st0{display:none;opacity:9.000000e-02;fill:none;stroke:#000000;stroke-width:2.4713;stroke-miterlimit:10;}
	.st1{fill:#AF1912;}
	.st2{fill:#7A0E0E;}
	.st3{fill:#FFFFFF;}
	.st4{fill:#C1C1C1;}
</style>
<rect x="0.5" y="0.5" class="st0" width="148.5" height="148.5"/>
<g id="игрушки">
	<circle class="st1" cx="74.8" cy="74.9" r="74.8"/>
	<g>
		<g>
			<path class="st2" d="M119,125.1c-0.8,1.6-3.6,4.8-5.3,6.9c-1,1.1-2.3,1.7-3.8,1.7l-34.7,0.2l-10.7,0c-2.3,0-4.3-1.5-4.9-3.6
				c-0.7-2.5-0.5-5.2,0.8-7.9c1.4-2.8,3.6-5.4,6.3-7.8c0.4-0.3,0.7-0.6,1.1-0.9c2.7-2.1,5.5-4.1,8.5-5.7c6-3.2,12.8-5.4,21.2-5.4
				c6.4,0,11.9,0.8,16.1,3.5c1.2,0.7,2.3,1.6,3.2,2.7C120.1,112,121.9,119.7,119,125.1z"/>
			<path class="st2" d="M110.7,110.4c-5.2,6.6-11,11.3-22.3,11.3c-15.9,0-29-12-20.4-14.8c8.5-2.7,7.9-2.7,8.4-3
				c5.5-3.4,6.6-7.6,13.2-10.3c4.9-2,10.8-1.6,13.8-0.6C115.9,97,113,107.5,110.7,110.4z"/>
			<g>
				<path class="st2" d="M75.8,133.7L44.1,134V37.9c0-9.5,3.7-17.5,13.6-17.5h0c10,0,17,7.8,18,17.2
					C79.8,72.9,75.8,133.7,75.8,133.7z"/>
				<path class="st2" d="M72.2,24.6l-0.4,9.8c-0.5,2.6-7.1,5.4-9.9,4.9l-10.9-2c-2.8-0.5-4.7-3.1-4.2-5.7l2.5-13.2
					c0.9-4.9,6.4-9,11.6-9.1c0.2,0,0.4,0.2,0.4,0.4l0,5l0.3-4.9c0-0.2,0.2-0.4,0.5-0.4c0.1,0,0.3,0,0.4,0l0.5,0.1
					C68.9,10.6,73.2,19.1,72.2,24.6z"/>
			</g>
			<ellipse class="st2" cx="67.5" cy="27" rx="7.8" ry="5.3"/>
		</g>
		<path class="st3" d="M70.5,133.7L41.4,134c-1.4,0-2.6-1.1-2.6-2.5V37.5c0-9.5,3.7-17.6,13.6-17.6h0c10,0,17,7.8,18,17.3
			C74.5,72.7,70.5,133.7,70.5,133.7z"/>
		<path class="st3" d="M109.4,112.8c-3.7,6.3-12.2,10.7-21.2,10.7c-12.8,0-22.8-9.7-16.3-13.3c5.2-2.8,5.5-3,9.2-6
			c3.1-2.5,6-4.9,10.6-6.3c2.9-0.8,7-0.7,10.3,0.5C110.5,101.4,110.9,110.2,109.4,112.8z"/>
		<path class="st4" d="M110.2,133.7l-39.3,0l-1.2,0c-0.4,0-1,0-1-0.1c-2.5-3.6-1-9.5,0.9-13.6c1.2-2.9,1.2-3.5,3.7-5.8
			c6-5.6,11.4-9.2,21.2-9.8c7.5-0.4,15.6,1.8,18.7,8.4c1.3,2.8,1.2,4.5,1.9,8.8c0.6,3.7-0.2,7.2-1.8,10.3
			C112.6,133,111.4,133.7,110.2,133.7z"/>
		<path class="st3" d="M68.8,33.7c0,0.1,0,0.1,0,0.2c-0.7,2.6-9.4,5.5-12.2,5l-10.9-2c-2.8-0.5-5.9-3.2-5.4-5.9
			c0.6-3.3,1.5-9.2,2.5-13.2c1.2-4.9,6.2-8.7,11.3-9c0.3,0,0.5,0.2,0.5,0.4l0.2,2.8L55,9.1c0-0.2,0.2-0.4,0.5-0.4
			c0.4,0,0.9,0.1,1.3,0.1l0.5,0.1c5.8,1.1,10.4,9.3,10.3,15c0,0,0,0,0,0.1L68.8,33.7z"/>
		<ellipse class="st3" cx="46.4" cy="27.2" rx="7.8" ry="5.3"/>
		<path class="st3" d="M109.8,133.7l-42.9,0.1c-1.8-3.2-2.3-6.8-0.7-10.4c1.3-2.9,3.3-5.5,5.9-7.8c6.3-5.6,13.7-10,23.9-10
			c6.6,0,11.1,0.9,15.3,5.1c5.1,4.8,5.8,16,2.2,20.9C112.7,132.8,111.4,133.7,109.8,133.7z"/>
		<path class="st4" d="M45.9,81.5c0,26.6-1,48.2-1.4,48.2c-0.4,0-0.1-21.8-0.1-48.4s-0.3-47.9,0.1-47.9
			C44.8,33.4,45.9,54.9,45.9,81.5z"/>
		<ellipse class="st3" cx="62.5" cy="27" rx="7.8" ry="5.3"/>
	</g>
</g>
</svg>
