<?xml version="1.0" encoding="utf-8"?>
<!-- Generator: Adobe Illustrator 22.1.0, SVG Export Plug-In . SVG Version: 6.00 Build 0)  -->
<svg version="1.1" id="Layer_1" xmlns="http://www.w3.org/2000/svg" xmlns:xlink="http://www.w3.org/1999/xlink" x="0px" y="0px"
	 viewBox="0 0 150 150" style="enable-background:new 0 0 150 150;" xml:space="preserve">
<style type="text/css">
	.st0{display:none;opacity:9.000000e-02;fill:none;stroke:#000000;stroke-width:2.4713;stroke-miterlimit:10;}
	.st1{fill:#AF1912;}
	.st2{fill:#7A0E0E;}
	.st3{fill:#C1C1C1;}
	.st4{fill:#C2C2C2;stroke:#C1C1C1;stroke-width:1.587302e-02;stroke-miterlimit:10;}
	.st5{fill:#C3C3C3;stroke:#C1C1C1;stroke-width:3.174603e-02;stroke-miterlimit:10;}
	.st6{fill:#C4C4C4;stroke:#C1C1C1;stroke-width:4.761905e-02;stroke-miterlimit:10;}
	.st7{fill:#C5C5C5;stroke:#C1C1C1;stroke-width:6.349207e-02;stroke-miterlimit:10;}
	.st8{fill:#C6C6C6;stroke:#C1C1C1;stroke-width:7.936508e-02;stroke-miterlimit:10;}
	.st9{fill:#C7C7C7;stroke:#C1C1C1;stroke-width:9.523810e-02;stroke-miterlimit:10;}
	.st10{fill:#C8C8C8;stroke:#C1C1C1;stroke-width:0.1111;stroke-miterlimit:10;}
	.st11{fill:#C9C9C9;stroke:#C1C1C1;stroke-width:0.127;stroke-miterlimit:10;}
	.st12{fill:#CACACA;stroke:#C1C1C1;stroke-width:0.1429;stroke-miterlimit:10;}
	.st13{fill:#CBCBCB;stroke:#C1C1C1;stroke-width:0.1587;stroke-miterlimit:10;}
	.st14{fill:#CCCCCC;stroke:#C1C1C1;stroke-width:0.1746;stroke-miterlimit:10;}
	.st15{fill:#CDCDCD;stroke:#C1C1C1;stroke-width:0.1905;stroke-miterlimit:10;}
	.st16{fill:#CECECE;stroke:#C1C1C1;stroke-width:0.2063;stroke-miterlimit:10;}
	.st17{fill:#CFCFCF;stroke:#C1C1C1;stroke-width:0.2222;stroke-miterlimit:10;}
	.st18{fill:#D0D0D0;stroke:#C1C1C1;stroke-width:0.2381;stroke-miterlimit:10;}
	.st19{fill:#D1D1D1;stroke:#C1C1C1;stroke-width:0.254;stroke-miterlimit:10;}
	.st20{fill:#D2D2D2;stroke:#C1C1C1;stroke-width:0.2698;stroke-miterlimit:10;}
	.st21{fill:#D3D3D3;stroke:#C1C1C1;stroke-width:0.2857;stroke-miterlimit:10;}
	.st22{fill:#D4D4D4;stroke:#C1C1C1;stroke-width:0.3016;stroke-miterlimit:10;}
	.st23{fill:#D5D5D5;stroke:#C1C1C1;stroke-width:0.3175;stroke-miterlimit:10;}
	.st24{fill:#D6D6D6;stroke:#C1C1C1;stroke-width:0.3333;stroke-miterlimit:10;}
	.st25{fill:#D7D7D7;stroke:#C1C1C1;stroke-width:0.3492;stroke-miterlimit:10;}
	.st26{fill:#D8D8D8;stroke:#C1C1C1;stroke-width:0.3651;stroke-miterlimit:10;}
	.st27{fill:#D9D9D9;stroke:#C1C1C1;stroke-width:0.381;stroke-miterlimit:10;}
	.st28{fill:#DADADA;stroke:#C1C1C1;stroke-width:0.3968;stroke-miterlimit:10;}
	.st29{fill:#DBDBDB;stroke:#C1C1C1;stroke-width:0.4127;stroke-miterlimit:10;}
	.st30{fill:#DCDCDC;stroke:#C1C1C1;stroke-width:0.4286;stroke-miterlimit:10;}
	.st31{fill:#DDDDDD;stroke:#C1C1C1;stroke-width:0.4444;stroke-miterlimit:10;}
	.st32{fill:#DEDEDE;stroke:#C1C1C1;stroke-width:0.4603;stroke-miterlimit:10;}
	.st33{fill:#DFDFDF;stroke:#C1C1C1;stroke-width:0.4762;stroke-miterlimit:10;}
	.st34{fill:#E0E0E0;stroke:#C1C1C1;stroke-width:0.4921;stroke-miterlimit:10;}
	.st35{fill:#E0E0E0;stroke:#C1C1C1;stroke-width:0.5079;stroke-miterlimit:10;}
	.st36{fill:#E1E1E1;stroke:#C1C1C1;stroke-width:0.5238;stroke-miterlimit:10;}
	.st37{fill:#E2E2E2;stroke:#C1C1C1;stroke-width:0.5397;stroke-miterlimit:10;}
	.st38{fill:#E3E3E3;stroke:#C1C1C1;stroke-width:0.5556;stroke-miterlimit:10;}
	.st39{fill:#E4E4E4;stroke:#C1C1C1;stroke-width:0.5714;stroke-miterlimit:10;}
	.st40{fill:#E5E5E5;stroke:#C1C1C1;stroke-width:0.5873;stroke-miterlimit:10;}
	.st41{fill:#E6E6E6;stroke:#C1C1C1;stroke-width:0.6032;stroke-miterlimit:10;}
	.st42{fill:#E7E7E7;stroke:#C1C1C1;stroke-width:0.619;stroke-miterlimit:10;}
	.st43{fill:#E8E8E8;stroke:#C1C1C1;stroke-width:0.6349;stroke-miterlimit:10;}
	.st44{fill:#E9E9E9;stroke:#C1C1C1;stroke-width:0.6508;stroke-miterlimit:10;}
	.st45{fill:#EAEAEA;stroke:#C1C1C1;stroke-width:0.6667;stroke-miterlimit:10;}
	.st46{fill:#EBEBEB;stroke:#C1C1C1;stroke-width:0.6825;stroke-miterlimit:10;}
	.st47{fill:#ECECEC;stroke:#C1C1C1;stroke-width:0.6984;stroke-miterlimit:10;}
	.st48{fill:#EDEDED;stroke:#C1C1C1;stroke-width:0.7143;stroke-miterlimit:10;}
	.st49{fill:#EEEEEE;stroke:#C1C1C1;stroke-width:0.7302;stroke-miterlimit:10;}
	.st50{fill:#EFEFEF;stroke:#C1C1C1;stroke-width:0.746;stroke-miterlimit:10;}
	.st51{fill:#F0F0F0;stroke:#C1C1C1;stroke-width:0.7619;stroke-miterlimit:10;}
	.st52{fill:#F1F1F1;stroke:#C1C1C1;stroke-width:0.7778;stroke-miterlimit:10;}
	.st53{fill:#F2F2F2;stroke:#C1C1C1;stroke-width:0.7937;stroke-miterlimit:10;}
	.st54{fill:#F3F3F3;stroke:#C1C1C1;stroke-width:0.8095;stroke-miterlimit:10;}
	.st55{fill:#F4F4F4;stroke:#C1C1C1;stroke-width:0.8254;stroke-miterlimit:10;}
	.st56{fill:#F5F5F5;stroke:#C1C1C1;stroke-width:0.8413;stroke-miterlimit:10;}
	.st57{fill:#F6F6F6;stroke:#C1C1C1;stroke-width:0.8571;stroke-miterlimit:10;}
	.st58{fill:#F7F7F7;stroke:#C1C1C1;stroke-width:0.873;stroke-miterlimit:10;}
	.st59{fill:#F8F8F8;stroke:#C1C1C1;stroke-width:0.8889;stroke-miterlimit:10;}
	.st60{fill:#F9F9F9;stroke:#C1C1C1;stroke-width:0.9048;stroke-miterlimit:10;}
	.st61{fill:#FAFAFA;stroke:#C1C1C1;stroke-width:0.9206;stroke-miterlimit:10;}
	.st62{fill:#FBFBFB;stroke:#C1C1C1;stroke-width:0.9365;stroke-miterlimit:10;}
	.st63{fill:#FCFCFC;stroke:#C1C1C1;stroke-width:0.9524;stroke-miterlimit:10;}
	.st64{fill:#FDFDFD;stroke:#C1C1C1;stroke-width:0.9683;stroke-miterlimit:10;}
	.st65{fill:#FEFEFE;stroke:#C1C1C1;stroke-width:0.9841;stroke-miterlimit:10;}
	.st66{display:none;fill:#FFFFFF;stroke:#C1C1C1;stroke-miterlimit:10;}
	.st67{fill:#B2B1B1;}
	.st68{fill:#FFFFFF;}
	.st69{fill:#F4F4F4;}
	.st70{opacity:0.75;fill:none;stroke:#FFFFFF;stroke-width:0.75;stroke-linecap:round;stroke-miterlimit:10;}
	.st71{fill:none;stroke:#C1C1C1;stroke-width:5;stroke-linecap:round;stroke-miterlimit:10;}
	.st72{fill:none;stroke:#AF1912;stroke-width:5;stroke-linecap:round;stroke-miterlimit:10;}
</style>
<rect x="1" y="0.4" class="st0" width="148.4" height="148.4"/>
<g id="бады">
	<circle class="st1" cx="74.7" cy="74.9" r="74.9"/>
	<g>
		<g>
			<rect x="21" y="34.9" class="st2" width="83.6" height="59"/>
			<path class="st2" d="M137,96.4H96.3V46.9H137c2.8,0,5,2.2,5,5v39.5C142,94.1,139.8,96.4,137,96.4z"/>
		</g>
		<g>
			<rect x="18.3" y="39.3" class="st3" width="81.5" height="59"/>
			<rect x="18.2" y="39.4" class="st4" width="81.5" height="59"/>
			<rect x="18.1" y="39.5" class="st5" width="81.5" height="59"/>
			<rect x="18" y="39.6" class="st6" width="81.5" height="59"/>
			<rect x="17.8" y="39.8" class="st7" width="81.5" height="59"/>
			<rect x="17.7" y="39.9" class="st8" width="81.5" height="59"/>
			<rect x="17.6" y="40" class="st9" width="81.5" height="59"/>
			<rect x="17.5" y="40.1" class="st10" width="81.5" height="59"/>
			<rect x="17.4" y="40.3" class="st11" width="81.5" height="59"/>
			<rect x="17.3" y="40.4" class="st12" width="81.5" height="59"/>
			<rect x="17.2" y="40.5" class="st13" width="81.5" height="59"/>
			<rect x="17.1" y="40.6" class="st14" width="81.5" height="59"/>
			<rect x="17" y="40.8" class="st15" width="81.5" height="59"/>
			<rect x="16.8" y="40.9" class="st16" width="81.5" height="59"/>
			<rect x="16.7" y="41" class="st17" width="81.5" height="59"/>
			<rect x="16.6" y="41.1" class="st18" width="81.5" height="59"/>
			<rect x="16.5" y="41.3" class="st19" width="81.5" height="59"/>
			<rect x="16.4" y="41.4" class="st20" width="81.5" height="59"/>
			<rect x="16.3" y="41.5" class="st21" width="81.5" height="59"/>
			<rect x="16.2" y="41.6" class="st22" width="81.5" height="59"/>
			<rect x="16.1" y="41.7" class="st23" width="81.5" height="59"/>
			<rect x="16" y="41.9" class="st24" width="81.5" height="59"/>
			<rect x="15.8" y="42" class="st25" width="81.5" height="59"/>
			<rect x="15.7" y="42.1" class="st26" width="81.5" height="59"/>
			<rect x="15.6" y="42.2" class="st27" width="81.5" height="59"/>
			<rect x="15.5" y="42.4" class="st28" width="81.5" height="59"/>
			<rect x="15.4" y="42.5" class="st29" width="81.5" height="59"/>
			<rect x="15.3" y="42.6" class="st30" width="81.5" height="59"/>
			<rect x="15.2" y="42.7" class="st31" width="81.5" height="59"/>
			<rect x="15.1" y="42.9" class="st32" width="81.5" height="59"/>
			<rect x="14.9" y="43" class="st33" width="81.5" height="59"/>
			<rect x="14.8" y="43.1" class="st34" width="81.5" height="59"/>
			<rect x="14.7" y="43.2" class="st35" width="81.5" height="59"/>
			<rect x="14.6" y="43.4" class="st36" width="81.5" height="59"/>
			<rect x="14.5" y="43.5" class="st37" width="81.5" height="59"/>
			<rect x="14.4" y="43.6" class="st38" width="81.5" height="59"/>
			<rect x="14.3" y="43.7" class="st39" width="81.5" height="59"/>
			<rect x="14.2" y="43.9" class="st40" width="81.5" height="59"/>
			<rect x="14.1" y="44" class="st41" width="81.5" height="59"/>
			<rect x="13.9" y="44.1" class="st42" width="81.5" height="59"/>
			<rect x="13.8" y="44.2" class="st43" width="81.5" height="59"/>
			<rect x="13.7" y="44.3" class="st44" width="81.5" height="59"/>
			<rect x="13.6" y="44.5" class="st45" width="81.5" height="59"/>
			<rect x="13.5" y="44.6" class="st46" width="81.5" height="59"/>
			<rect x="13.4" y="44.7" class="st47" width="81.5" height="59"/>
			<rect x="13.3" y="44.8" class="st48" width="81.5" height="59"/>
			<rect x="13.2" y="45" class="st49" width="81.5" height="59"/>
			<rect x="13.1" y="45.1" class="st50" width="81.5" height="59"/>
			<rect x="12.9" y="45.2" class="st51" width="81.5" height="59"/>
			<rect x="12.8" y="45.3" class="st52" width="81.5" height="59"/>
			<rect x="12.7" y="45.5" class="st53" width="81.5" height="59"/>
			<rect x="12.6" y="45.6" class="st54" width="81.5" height="59"/>
			<rect x="12.5" y="45.7" class="st55" width="81.5" height="59"/>
			<rect x="12.4" y="45.8" class="st56" width="81.5" height="59"/>
			<rect x="12.3" y="46" class="st57" width="81.5" height="59"/>
			<rect x="12.2" y="46.1" class="st58" width="81.5" height="59"/>
			<rect x="12.1" y="46.2" class="st59" width="81.5" height="59"/>
			<rect x="11.9" y="46.3" class="st60" width="81.5" height="59"/>
			<rect x="11.8" y="46.5" class="st61" width="81.5" height="59"/>
			<rect x="11.7" y="46.6" class="st62" width="81.5" height="59"/>
			<rect x="11.6" y="46.7" class="st63" width="81.5" height="59"/>
			<rect x="11.5" y="46.8" class="st64" width="81.5" height="59"/>
			<rect x="11.4" y="46.9" class="st65" width="81.5" height="59"/>
			<rect x="11.3" y="47.1" class="st66" width="81.5" height="59"/>
		</g>
		<polygon class="st67" points="98.9,98.3 91.9,106.1 91.9,47.1 98.9,39.3 		"/>
		<path class="st68" d="M132.2,100.7H91.4V51.2h40.8c2.8,0,5,2.2,5,5v39.5C137.2,98.5,135,100.7,132.2,100.7z"/>
		<rect x="91.7" y="51.2" class="st69" width="1.8" height="49.5"/>
		<path class="st67" d="M127.3,64.8h-15.7c-2.4,0-4.4-2-4.4-4.4v0c0-2.4,2-4.4,4.4-4.4h15.7c2.4,0,4.4,2,4.4,4.4v0
			C131.7,62.8,129.7,64.8,127.3,64.8z"/>
		<path class="st67" d="M127.6,95.8h-15.7c-2.4,0-4.4-2-4.4-4.4v0c0-2.4,2-4.4,4.4-4.4h15.7c2.4,0,4.4,2,4.4,4.4v0
			C131.9,93.8,130,95.8,127.6,95.8z"/>
		<path class="st67" d="M114.3,80.3H98.6c-2.4,0-4.4-2-4.4-4.4v0c0-2.4,2-4.4,4.4-4.4h15.7c2.4,0,4.4,2,4.4,4.4v0
			C118.7,78.4,116.7,80.3,114.3,80.3z"/>
		<path class="st1" d="M125.7,63.9h-12.5c-1.9,0-3.5-1.6-3.5-3.5v0c0-1.9,1.6-3.5,3.5-3.5h12.5c1.9,0,3.5,1.6,3.5,3.5v0
			C129.2,62.3,127.6,63.9,125.7,63.9z"/>
		<path class="st1" d="M126,94.9h-12.5c-1.9,0-3.5-1.6-3.5-3.5v0c0-1.9,1.6-3.5,3.5-3.5H126c1.9,0,3.5,1.6,3.5,3.5v0
			C129.5,93.3,127.9,94.9,126,94.9z"/>
		<path class="st1" d="M112.7,79.4h-12.5c-1.9,0-3.5-1.6-3.5-3.5v0c0-1.9,1.6-3.5,3.5-3.5h12.5c1.9,0,3.5,1.6,3.5,3.5v0
			C116.2,77.9,114.6,79.4,112.7,79.4z"/>
		<path class="st2" d="M120.5,60.4c0,1-0.2,1.8-0.6,2.5c-0.3,0.6-0.7,0.9-1.2,1c0.3-0.2,0.5-0.5,0.8-0.9c0.4-0.7,0.6-1.6,0.6-2.5
			c0-1.8-0.7-3.3-1.6-3.6h0.1C119.6,57,120.5,58.5,120.5,60.4z"/>
		<path class="st2" d="M107.5,76c0,1-0.2,1.8-0.6,2.5c-0.3,0.6-0.7,0.9-1.2,1c0.3-0.2,0.5-0.5,0.8-0.9c0.4-0.7,0.6-1.6,0.6-2.5
			c0-1.8-0.7-3.3-1.6-3.6h0.1C106.6,72.5,107.5,74,107.5,76z"/>
		<path class="st2" d="M120.7,91.4c0,1-0.2,1.8-0.6,2.5c-0.3,0.6-0.7,0.9-1.2,1c0.3-0.2,0.5-0.5,0.8-0.9c0.4-0.7,0.6-1.6,0.6-2.5
			c0-1.8-0.7-3.3-1.6-3.6h0.1C119.9,87.9,120.7,89.5,120.7,91.4z"/>
		<line class="st70" x1="99.9" y1="73.6" x2="105.3" y2="73.6"/>
		<line class="st70" x1="112.8" y1="58.1" x2="118.2" y2="58.1"/>
		<line class="st70" x1="113.2" y1="89.1" x2="118.5" y2="89.1"/>
		<g>
			<circle class="st71" cx="39.7" cy="82.2" r="14.2"/>
			<line class="st71" x1="49.5" y1="69.9" x2="64.1" y2="55"/>
			<line class="st71" x1="49.9" y1="53.8" x2="65.3" y2="53.8"/>
			<line class="st71" x1="65.5" y1="53.8" x2="65.3" y2="69.2"/>
			<line class="st71" x1="54.2" y1="86.9" x2="77.8" y2="86.9"/>
			<line class="st71" x1="70.1" y1="78.5" x2="70.1" y2="95.3"/>
		</g>
		<g>
			<circle class="st72" cx="37.9" cy="85.4" r="14.2"/>
			<line class="st72" x1="47.7" y1="73.1" x2="62.3" y2="58.2"/>
			<line class="st72" x1="48.1" y1="57" x2="63.5" y2="57"/>
			<line class="st72" x1="63.7" y1="57" x2="63.5" y2="72.3"/>
			<line class="st72" x1="52.4" y1="90.1" x2="76" y2="90.1"/>
			<line class="st72" x1="68.3" y1="81.7" x2="68.3" y2="98.5"/>
		</g>
	</g>
</g>
</svg>
