<?xml version="1.0" encoding="utf-8"?>
<!-- Generator: Adobe Illustrator 22.1.0, SVG Export Plug-In . SVG Version: 6.00 Build 0)  -->
<svg version="1.1" id="Layer_1" xmlns="http://www.w3.org/2000/svg" xmlns:xlink="http://www.w3.org/1999/xlink" x="0px" y="0px"
	 viewBox="0 0 150 150" style="enable-background:new 0 0 150 150;" xml:space="preserve">
<style type="text/css">
	.st0{display:none;opacity:9.000000e-02;fill:none;stroke:#000000;stroke-width:2.4713;stroke-miterlimit:10;}
	.st1{fill:#AF1912;}
	.st2{fill:#3A3939;}
	.st3{fill:#7A0E0E;}
	.st4{fill:none;stroke:#7A0E0E;stroke-miterlimit:10;}
	.st5{fill:none;stroke:#E0E0E0;stroke-miterlimit:10;}
	.st6{fill:#E0E0E0;stroke:#E0E0E0;stroke-miterlimit:10;}
	.st7{fill:#C1C1C1;}
	.st8{fill:#FFFFFF;}
	.st9{fill:none;stroke:#0A0A0C;stroke-miterlimit:10;}
	.st10{fill:#3F3F3F;}
	.st11{fill:none;stroke:#FFFFFF;stroke-miterlimit:10;}
</style>
<rect x="3.9" y="3.1" class="st0" width="145.2" height="145.2"/>
<g id="нижнее">
	<circle class="st1" cx="75" cy="74.9" r="74.2"/>
	<g>
		<g>
			<path d="M34.5,117.1C34.5,117.1,34.5,117.1,34.5,117.1C34.5,117.1,34.5,117.1,34.5,117.1c-0.2-0.1-0.3-0.1-0.4-0.1H30
				c-0.1,0-0.3,0-0.4,0.1c0,0,0,0,0,0c0,0,0,0,0,0c-0.2,0.1-0.3,0.3-0.3,0.5v1c0,0.2,0.1,0.4,0.3,0.5c0,0,0,0,0,0c0,0,0,0,0,0
				c0.1,0.1,0.2,0.1,0.4,0.1h4.1c0.1,0,0.3,0,0.4-0.1c0,0,0,0,0,0c0,0,0,0,0,0c0.2-0.1,0.3-0.3,0.3-0.5v-1
				C34.9,117.4,34.7,117.2,34.5,117.1z M34.5,118.6C34.5,118.6,34.5,118.7,34.5,118.6L34.5,118.6c0,0.1,0,0.1,0,0.1c0,0,0,0,0,0
				c0,0,0,0,0,0c-0.1,0.1-0.2,0.1-0.3,0.1H30c-0.1,0-0.3-0.1-0.3-0.1c0,0,0,0,0-0.1c0,0,0,0,0,0c0,0,0,0,0,0c0,0,0,0,0,0
				c0,0,0,0,0,0c0,0,0,0,0,0v-1c0,0,0,0,0-0.1c0,0,0,0,0,0c0,0,0,0,0,0c0,0,0,0,0,0c0,0,0,0,0,0c0,0,0,0,0.1-0.1
				c0.1-0.1,0.2-0.1,0.3-0.1h4.1c0.1,0,0.2,0,0.3,0.1c0,0,0,0,0.1,0.1v0c0,0,0,0,0,0l0,0c0,0,0,0,0,0.1c0,0,0,0,0,0c0,0,0,0,0,0
				V118.6z M34.5,117.8v0.5c0,0,0-0.1,0-0.2V118C34.6,117.9,34.6,117.9,34.5,117.8z"/>
		</g>
		<g>
			<path d="M114.1,116.9C114.1,116.9,114.1,116.9,114.1,116.9c-0.1-0.1-0.3-0.1-0.4-0.1h-4.2c-0.1,0-0.3,0-0.4,0.1c0,0,0,0,0,0
				c-0.2,0.1-0.3,0.3-0.3,0.6v1.2c0,0.2,0.1,0.5,0.3,0.6c0,0,0,0,0,0c0.1,0.1,0.3,0.1,0.4,0.1h4.2c0.1,0,0.3,0,0.4-0.1c0,0,0,0,0,0
				c0.2-0.1,0.3-0.3,0.3-0.6v-1.2C114.4,117.2,114.3,117,114.1,116.9z M114.1,118.7C114.1,118.7,114.1,118.7,114.1,118.7
				L114.1,118.7c0,0.1,0,0.1,0,0.2c-0.1,0.2-0.2,0.3-0.4,0.3h-4.2c-0.2,0-0.4-0.1-0.4-0.3v0c0,0,0,0,0,0c0,0,0,0,0,0v-1.2
				c0,0,0,0,0-0.1c0,0,0,0,0,0c0-0.2,0.2-0.3,0.4-0.3h4.2c0.2,0,0.4,0.1,0.4,0.3v0c0,0,0,0,0,0c0,0,0,0,0,0c0,0,0,0,0,0V118.7z
				 M114.1,117.8v0.6c0-0.1,0-0.1,0-0.2V118C114.2,117.9,114.1,117.8,114.1,117.8z"/>
		</g>
		<g>
			<g>
				<g>
					<path class="st2" d="M38.3,117.4C38.3,117.4,38.3,117.4,38.3,117.4C38.3,117.4,38.3,117.4,38.3,117.4c-0.2-0.1-0.3-0.1-0.4-0.1
						h-4.1c-0.1,0-0.3,0-0.4,0.1c0,0,0,0,0,0c0,0,0,0,0,0c-0.2,0.1-0.3,0.3-0.3,0.5v1.1c0,0.2,0.1,0.4,0.3,0.5c0,0,0,0,0,0s0,0,0,0
						c0.1,0.1,0.2,0.1,0.4,0.1h4.1c0.1,0,0.3,0,0.4-0.1c0,0,0,0,0,0c0,0,0,0,0,0c0.2-0.1,0.3-0.3,0.3-0.5v-1.1
						C38.6,117.7,38.5,117.5,38.3,117.4z M38.3,119C38.3,119,38.3,119,38.3,119L38.3,119c0,0.1,0,0.1,0,0.1c0,0,0,0,0,0c0,0,0,0,0,0
						c-0.1,0.1-0.2,0.2-0.3,0.2h-4.1c-0.1,0-0.3-0.1-0.3-0.2c0,0,0,0,0-0.1c0,0,0,0,0,0c0,0,0,0,0,0c0,0,0,0,0,0c0,0,0,0,0-0.1
						c0,0,0,0,0,0v-1.1c0,0,0,0,0-0.1c0,0,0,0,0,0c0,0,0,0,0,0c0,0,0,0,0,0c0,0,0,0,0,0c0,0,0,0,0.1-0.1c0.1-0.1,0.2-0.1,0.3-0.1
						h4.1c0.1,0,0.2,0,0.3,0.1c0,0,0,0,0.1,0.1v0c0,0,0,0,0,0l0,0c0,0,0,0.1,0,0.1c0,0,0,0,0,0c0,0,0,0,0,0V119z M38.3,118.2v0.5
						c0-0.1,0-0.1,0-0.2v-0.2C38.4,118.3,38.3,118.2,38.3,118.2z"/>
				</g>
				<g>
					<path class="st2" d="M117.9,117.2C117.9,117.2,117.9,117.2,117.9,117.2c-0.1-0.1-0.3-0.1-0.4-0.1h-4.2c-0.1,0-0.3,0-0.4,0.1
						c0,0,0,0,0,0c-0.2,0.1-0.3,0.4-0.3,0.6v1.2c0,0.3,0.1,0.5,0.3,0.6c0,0,0,0,0,0c0.1,0.1,0.3,0.1,0.4,0.1h4.2
						c0.1,0,0.3,0,0.4-0.1c0,0,0,0,0,0c0.2-0.1,0.3-0.4,0.3-0.6v-1.2C118.2,117.6,118.1,117.3,117.9,117.2z M117.9,119.1
						C117.9,119.1,117.9,119.1,117.9,119.1L117.9,119.1c0,0.1,0,0.1,0,0.2c-0.1,0.2-0.2,0.3-0.4,0.3h-4.2c-0.2,0-0.4-0.1-0.4-0.3v0
						c0,0,0,0,0-0.1c0,0,0,0,0,0v-1.2c0,0,0-0.1,0-0.1c0,0,0,0,0,0c0-0.2,0.2-0.3,0.4-0.3h4.2c0.2,0,0.4,0.1,0.4,0.3v0c0,0,0,0,0,0
						c0,0,0,0,0,0c0,0,0,0,0,0V119.1z M117.9,118.1v0.6c0-0.1,0-0.1,0-0.2v-0.2C117.9,118.2,117.9,118.2,117.9,118.1z"/>
				</g>
				<g>
					<path class="st3" d="M117.9,119.2L117.9,119.2l0,0.4l-0.1,15.2l-4.9,3.6l0.1-18.8v-0.4c0,0,0,0.1,0,0.1c0.1,0,0.1,0,0.2,0h4.5
						C117.7,119.3,117.8,119.3,117.9,119.2C117.8,119.2,117.9,119.2,117.9,119.2z"/>
					<path class="st3" d="M41.4,69.5c-0.4,0.2-3.2,5.2-3.2,5.6v42.6c0,0,0,0,0,0c-0.1-0.1-0.2-0.1-0.4-0.1h-4.1
						c-0.2,0-0.3,0.1-0.4,0.1c0,0,0,0.1,0,0.1v1.2c0,0,0,0,0,0c0.1,0.1,0.3,0.1,0.4,0.1h4.1c0.2,0,0.3-0.1,0.4-0.1v17.6l-4.9-3.3
						l0-13.8v-2.5l0-44.3"/>
					<path class="st3" d="M118.5,73.1c-0.1,0.2-0.3,1.4-0.3,1.6l-0.3,42.5v0.3l0,0.1c0,0,0-0.1-0.1-0.1c0,0-0.1,0-0.1,0h-4.5
						c0,0-0.1,0-0.1,0c0,0-0.1,0.1-0.1,0.1v-0.1l0-0.3l0.1-42.4c0-0.5-0.3-0.9-0.6-1"/>
				</g>
			</g>
			<path class="st3" d="M133.9,44.4l-18.7,26.3c-0.7,1-0.5,2.4,0.5,3.1L116,74c1,0.7,2.4,0.5,3.1,0.6l19.1-26.9
				c0.6-0.9,0.4-2-0.4-2.5l-0.9-0.6C136,43.9,134.6,43.4,133.9,44.4z"/>
			<path class="st3" d="M137.2,47.5l-1.2,0.2c-0.8,0.1-1.6-0.5-1.7-1.3l-1.5-10.6c0-0.2,0.1-0.5,0.4-0.5l2.2-0.3
				c0.8-0.1,1.6,0.5,1.7,1.3l1.3,9.6C138.6,46.7,138,47.4,137.2,47.5z"/>
			<path class="st3" d="M139.2,62.3c0,0-0.6,0.5-0.6,0.5c-7,2.3-20.7,6-22.5,6.3c-14.7,2.5-26.7,13.6-30.4,28
				c-0.2,0.2-0.4,0.4-0.6,0.7c-1.1,1.2-2.6,1.7-3.6,2.1c-1.7,0.8-5.2,1-7.9-0.1c-1.2-0.5-2.1-0.4-3.4-2c-0.2-0.3-0.5-0.5-0.7-0.8
				c-3.9-13-14.6-23.1-27.9-26.1c-6.2-3-14-5-27.3-8.4c0,0-0.1,0-0.1,0c-0.4-0.1-0.5-0.5-0.4-0.9L17,49.5c0.1-0.3,0.4-0.5,0.6-0.5
				l118.4,0.4c0.3,0,0.6,0.2,0.7,0.5l2.7,11.3C139.6,61.6,139.5,62.2,139.2,62.3z"/>
			<g>
				<ellipse class="st4" cx="86" cy="94.8" rx="2.2" ry="2.4"/>
				<ellipse class="st4" cx="88.1" cy="90" rx="2.2" ry="2.4"/>
				<ellipse class="st4" cx="90.9" cy="85.5" rx="2.2" ry="2.4"/>
				<ellipse class="st4" cx="94.1" cy="81.2" rx="2.2" ry="2.4"/>
				<ellipse class="st4" cx="98" cy="77.6" rx="2.2" ry="2.4"/>
				<ellipse class="st4" cx="102.4" cy="74.8" rx="2.2" ry="2.4"/>
				<ellipse class="st4" cx="107" cy="72.4" rx="2.2" ry="2.4"/>
				<ellipse class="st4" cx="127.5" cy="66.2" rx="2.2" ry="2.4"/>
				<ellipse class="st4" cx="132.3" cy="64.9" rx="2.2" ry="2.4"/>
				<ellipse class="st4" cx="137.2" cy="63.7" rx="2.2" ry="2.4"/>
				<ellipse class="st4" cx="68.5" cy="94.3" rx="2.2" ry="2.4"/>
				<ellipse class="st4" cx="66.5" cy="89.4" rx="2.2" ry="2.4"/>
				<ellipse class="st4" cx="63.6" cy="84.9" rx="2.2" ry="2.4"/>
				<ellipse class="st4" cx="60.5" cy="80.7" rx="2.2" ry="2.4"/>
				<ellipse class="st4" cx="56.5" cy="77.1" rx="2.2" ry="2.4"/>
				<ellipse class="st4" cx="52.1" cy="74.2" rx="2.2" ry="2.4"/>
				<ellipse class="st4" cx="47.5" cy="71.8" rx="2.2" ry="2.4"/>
				<ellipse class="st4" cx="27.1" cy="65.7" rx="2.2" ry="2.4"/>
				<ellipse class="st4" cx="22.3" cy="64.3" rx="2.2" ry="2.4"/>
				<ellipse class="st4" cx="17.4" cy="63.1" rx="2.2" ry="2.4"/>
			</g>
		</g>
		<g>
			<ellipse class="st5" cx="82.8" cy="92.8" rx="2.2" ry="2.4"/>
			<ellipse class="st5" cx="84.9" cy="88" rx="2.2" ry="2.4"/>
			<ellipse class="st5" cx="87.3" cy="83.7" rx="2.2" ry="2.4"/>
			<ellipse class="st5" cx="90.5" cy="79.4" rx="2.2" ry="2.4"/>
			<ellipse class="st5" cx="94.2" cy="75.4" rx="2.2" ry="2.4"/>
			<ellipse class="st5" cx="98.6" cy="72.5" rx="2.2" ry="2.4"/>
			<ellipse class="st5" cx="103.1" cy="70.1" rx="2.2" ry="2.4"/>
			<ellipse class="st5" cx="123.6" cy="64" rx="2.2" ry="2.4"/>
			<ellipse class="st5" cx="128.4" cy="62.7" rx="2.2" ry="2.4"/>
			<ellipse class="st5" cx="133.3" cy="61.5" rx="2.2" ry="2.4"/>
			<ellipse class="st5" cx="64.7" cy="92" rx="2.2" ry="2.4"/>
			<ellipse class="st5" cx="62.3" cy="87.8" rx="2.2" ry="2.4"/>
			<ellipse class="st5" cx="59.5" cy="83.4" rx="2.2" ry="2.4"/>
			<ellipse class="st5" cx="56.3" cy="79.1" rx="2.2" ry="2.4"/>
			<ellipse class="st5" cx="52.4" cy="75.5" rx="2.2" ry="2.4"/>
			<ellipse class="st5" cx="48" cy="72.6" rx="2.2" ry="2.4"/>
			<ellipse class="st5" cx="43.4" cy="70.2" rx="2.2" ry="2.4"/>
			<ellipse class="st5" cx="23.2" cy="63.4" rx="2.2" ry="2.4"/>
			<ellipse class="st5" cx="18.4" cy="62.1" rx="2.2" ry="2.4"/>
			<ellipse class="st5" cx="13.5" cy="60.9" rx="2.2" ry="2.4"/>
		</g>
		<path class="st6" d="M135.3,60.1c0,0-0.6,0.5-0.6,0.5c-7,2.3-20.7,6-22.5,6.3c-14.7,2.5-26.7,13.6-30.4,28
			c-0.2,0.2-0.4,0.4-0.6,0.7c-1.1,1.2-2.6,1.7-3.6,2.1c-1.7,0.8-5.2,1-7.9-0.1c-1.2-0.5-2.1-0.4-3.4-2c-0.2-0.3-0.5-0.5-0.7-0.8
			c-3.9-13-14.6-23.1-27.9-26.1c-6.2-3-14-5-27.3-8.4c0,0-0.1,0-0.1,0c-0.4-0.1-0.5-0.5-0.4-0.9l3.1-12.1c0.1-0.3,0.4-0.5,0.6-0.5
			l118.4,0.4c0.3,0,0.6,0.2,0.7,0.5l2.7,11.3C135.7,59.4,135.6,60,135.3,60.1z"/>
		<path class="st7" d="M111.6,78.9c-5.3-10.9-21-18.8-39.5-18.8S37.9,68,32.5,78.9C36,66.8,52.4,57.6,72.1,57.6
			S108.1,66.8,111.6,78.9z"/>
		<g>
			<path class="st8" d="M114.1,118.8L114.1,118.8l0,0.4l-0.1,14.6l-4.9,3.5l0.1-18.1v-0.4c0,0,0,0.1,0,0.1c0.1,0,0.1,0,0.2,0h4.5
				C113.9,118.9,114,118.9,114.1,118.8C114.1,118.9,114.1,118.8,114.1,118.8z"/>
			<path class="st8" d="M133.9,47.2l-19.2,27.2c-0.1,0.2-0.3,1.4-0.3,1.6l-0.3,41v0.3l0,0.1c0,0,0-0.1-0.1-0.1c0,0-0.1,0-0.1,0h-4.5
				c0,0-0.1,0-0.1,0c0,0-0.1,0.1-0.1,0.1v-0.1l0-0.3l0.1-40.9c0-0.4-0.3-0.8-0.6-1c0,0-9.8-17.1-36.6-16.8c-26,0.4-36.6,16-36.6,16
				c-0.4,0.2-1,1.6-1,2v41.1c0,0,0,0,0,0c-0.1-0.1-0.2-0.1-0.4-0.1H30c-0.2,0-0.3,0-0.4,0.1c0,0,0,0,0,0.1v1.2c0,0,0,0,0,0
				c0.1,0.1,0.3,0.1,0.4,0.1h4.1c0.2,0,0.3,0,0.4-0.1v17l-4.9-3.2l0-13.3v-2.4l0-42.7L10.3,46.4l4.3-11.2c58.9,5.5,58,5.5,117.7-0.2
				c0.5,0,1,0.4,1.1,0.9l1.1,8.8C134.5,45.6,134.4,46.4,133.9,47.2z"/>
		</g>
		<g>
			<path class="st9" d="M33.8,79.3h-3.6c-0.6,0-1.2-0.5-1.2-1.2v-0.9c0-0.6,0.5-1.2,1.2-1.2h3.6c0.6,0,1.2,0.5,1.2,1.2v0.9
				C35,78.8,34.5,79.3,33.8,79.3z"/>
			<line class="st9" x1="29.2" y1="77.6" x2="34.9" y2="77.6"/>
		</g>
		<g>
			<path class="st9" d="M113.6,80.3H110c-0.6,0-1.2-0.5-1.2-1.2v-0.9c0-0.6,0.5-1.2,1.2-1.2h3.6c0.6,0,1.2,0.5,1.2,1.2v0.9
				C114.8,79.7,114.3,80.3,113.6,80.3z"/>
			<line class="st9" x1="109" y1="78.6" x2="114.7" y2="78.6"/>
		</g>
		<g id="бант">
			<path class="st10" d="M30.9,72.2c2.2-0.5-4.4,6.8-5.6,8c-0.1,0.1-0.2,0-0.2-0.1l-0.2-2.3l-2.6-0.1c-0.1,0-0.2-0.1-0.1-0.2
				C23,76.7,26.7,73.1,30.9,72.2z"/>
			<path d="M31.3,72.2C31.3,72.2,31.3,72.2,31.3,72.2c0.7,0.8-4.9,6.9-5.9,8c-0.1,0.1-0.2,0-0.2-0.1l-0.2-2.3L31.3,72.2z"/>
			<path class="st10" d="M32.5,72.2c0.4,2.5,6.6,7.5,7.8,8.5c0.1,0.1,0.2,0,0.2-0.1l-0.1-2.6l2.5-0.3c0.1,0,0.1-0.1,0.1-0.2
				c-1.2-1-7.4-6-10-5.8C32.7,71.6,32.5,71.9,32.5,72.2z"/>
			<path d="M32.8,71.8c-0.1,0.1-0.2,0.3-0.2,0.4c0.4,2.5,6.6,7.5,7.8,8.4c0.1,0.1,0.2,0,0.2-0.1l-0.1-2.7L32.8,71.8z"/>
			<path class="st10" d="M31.4,71.4c0,0-2.6-3-3.7-2.9c-1.3,0.1-4.2,4.3-3,4.1c3.6-0.4,6.7,0.2,6.7,0.2L31.4,71.4z"/>
			<path d="M31.2,72.9C31.2,72.9,31.2,72.9,31.2,72.9c-0.4,0-6.2,0.4-6.7-0.2c-0.9-0.8,3.2-0.4,3.2-0.4S30.3,72.7,31.2,72.9
				C31.2,72.9,31.2,72.9,31.2,72.9z"/>
			<path class="st10" d="M32.6,71.4c0,0,2-2.7,3-2.6c1.5,0.1,4.3,3.3,3.4,4.4c-0.3,0.4-5.5-0.1-6.2-0.2c0,0,0,0,0,0L32.6,71.4z"/>
			<path d="M32.7,73C32.7,73,32.7,73,32.7,73c0.8,0.1,4.4,0.5,5.8,0.4c0.2,0,0.6,0,0.6-0.4c0-0.9-3.1-0.3-3.1-0.3L32.7,73z"/>
			<path d="M31.3,71.3c0,0.7,0.1,0.8-0.1,1.6c0,0.1,1.5,0.2,1.6,0.1c0.2-0.3,0.1-1.2,0-1.5C32.7,71.2,31.3,71.2,31.3,71.3z"/>
		</g>
		<g id="бант_1_">
			<path class="st10" d="M110.6,71.5c2.1-0.5-4.3,6.6-5.5,7.9c-0.1,0.1-0.2,0-0.2-0.1l-0.2-2.3l-2.5-0.1c-0.1,0-0.2-0.1-0.1-0.2
				C102.9,75.9,106.4,72.4,110.6,71.5z"/>
			<path d="M110.9,71.5C110.9,71.5,110.9,71.5,110.9,71.5c0.7,0.8-4.8,6.7-5.8,7.8c-0.1,0.1-0.2,0-0.2-0.1l-0.2-2.3L110.9,71.5z"/>
			<path class="st10" d="M112.2,71.5c0.4,2.5,6.4,7.3,7.6,8.3c0.1,0.1,0.2,0,0.2-0.1l-0.1-2.6l2.5-0.3c0.1,0,0.1-0.1,0.1-0.2
				c-1.2-1-7.3-5.9-9.7-5.7C112.3,70.9,112.1,71.2,112.2,71.5z"/>
			<path d="M112.4,71.1c-0.1,0.1-0.2,0.3-0.2,0.4c0.4,2.5,6.4,7.3,7.6,8.3c0.1,0.1,0.2,0,0.2-0.1l-0.1-2.6L112.4,71.1z"/>
			<path class="st10" d="M111,70.8c0,0-2.5-2.9-3.6-2.8c-1.2,0.1-4.2,4.2-2.9,4c3.6-0.4,6.5,0.2,6.5,0.2L111,70.8z"/>
			<path d="M110.9,72.2C110.9,72.2,110.8,72.2,110.9,72.2c-0.4,0-6,0.4-6.6-0.2c-0.8-0.8,3.2-0.4,3.2-0.4S110,72,110.9,72.2
				C110.8,72.2,110.9,72.2,110.9,72.2z"/>
			<path class="st10" d="M112.2,70.7c0,0,2-2.6,2.9-2.5c1.5,0.1,4.2,3.2,3.3,4.3c-0.3,0.4-5.3,0-6.1-0.2c0,0,0,0,0,0L112.2,70.7z"/>
			<path d="M112.3,72.3C112.3,72.3,112.3,72.3,112.3,72.3c0.7,0.1,4.3,0.5,5.6,0.3c0.2,0,0.6,0,0.6-0.4c0-0.9-3-0.3-3-0.3
				L112.3,72.3z"/>
			<path d="M110.9,70.7c0,0.7,0.1,0.8-0.1,1.5c0,0.1,1.5,0.2,1.6,0.1c0.2-0.3,0.1-1.2,0-1.5C112.3,70.5,110.9,70.5,110.9,70.7z"/>
		</g>
		<g>
			<ellipse class="st11" cx="127.5" cy="35.4" rx="2.1" ry="2.2"/>
			<ellipse class="st11" cx="123.1" cy="35.8" rx="2.1" ry="2.2"/>
			<ellipse class="st11" cx="118.6" cy="36.2" rx="2.1" ry="2.2"/>
			<ellipse class="st11" cx="114.1" cy="36.6" rx="2.1" ry="2.2"/>
			<ellipse class="st11" cx="109.6" cy="37" rx="2.1" ry="2.2"/>
			<ellipse class="st11" cx="105.1" cy="37.5" rx="2.1" ry="2.2"/>
			<ellipse class="st11" cx="100.6" cy="37.8" rx="2.1" ry="2.2"/>
			<ellipse class="st11" cx="96.1" cy="38.2" rx="2.1" ry="2.2"/>
			<ellipse class="st11" cx="91.7" cy="38.6" rx="2.1" ry="2.2"/>
			<ellipse class="st11" cx="87.3" cy="38.9" rx="2.1" ry="2.2"/>
		</g>
		<g>
			<ellipse class="st11" cx="35.3" cy="37.1" rx="2.1" ry="2.2"/>
			<ellipse class="st11" cx="40.3" cy="37.5" rx="2.1" ry="2.2"/>
			<ellipse class="st11" cx="45.2" cy="38.2" rx="2.1" ry="2.2"/>
			<ellipse class="st11" cx="50" cy="38.5" rx="2.1" ry="2.2"/>
			<ellipse class="st11" cx="55.1" cy="38.7" rx="2.1" ry="2.2"/>
			<ellipse class="st11" cx="59.9" cy="38.9" rx="2.1" ry="2.2"/>
			<ellipse class="st11" cx="64.6" cy="39.2" rx="2.1" ry="2.2"/>
			<ellipse class="st11" cx="69.2" cy="39.6" rx="2.1" ry="2.2"/>
			<ellipse class="st11" cx="73.5" cy="39.5" rx="2.1" ry="2.2"/>
			<ellipse class="st11" cx="77.9" cy="39.5" rx="2.1" ry="2.2"/>
			<ellipse class="st11" cx="82.5" cy="39.3" rx="2.1" ry="2.2"/>
			<ellipse class="st11" cx="30.7" cy="36.4" rx="2.1" ry="2.2"/>
			<ellipse class="st11" cx="25.9" cy="36.2" rx="2.1" ry="2.2"/>
			<ellipse class="st11" cx="21.2" cy="35.6" rx="2.1" ry="2.2"/>
			<ellipse class="st11" cx="16.8" cy="35.2" rx="1.8" ry="2.2"/>
			<ellipse class="st11" cx="131.3" cy="35.1" rx="1.6" ry="2"/>
		</g>
		<g id="бант_2_">
			<path class="st10" d="M72.2,40.8c3.4-1.9-3.8,12.3-5.2,14.9c-0.1,0.2-0.3,0.1-0.4,0l-1.5-3.5l-4,0.6c-0.2,0-0.3-0.1-0.2-0.3
				C62.6,49,65.6,44.5,72.2,40.8z"/>
			<path d="M72.8,40.7c0.1,0,0.1,0,0.1,0c1.4,0.9-4.6,12.6-5.8,15c-0.1,0.2-0.3,0.1-0.4,0l-1.5-3.5L72.8,40.7z"/>
			<path class="st10" d="M73.8,40.8C73.1,44.6,79.1,54,80.4,56c0.1,0.1,0.3,0.1,0.3,0l1.2-3.8l3.9,0.9c0.2,0,0.3-0.1,0.2-0.3
				c-1.7-4.5-7.3-11.5-11.1-12.6C74.3,40.1,73.9,40.4,73.8,40.8z"/>
			<path d="M74.3,40.4c-0.3,0.1-0.5,0.3-0.5,0.4C73.1,44.6,79.1,54,80.4,56c0.1,0.1,0.3,0.1,0.3,0l1.2-3.8L74.3,40.4z"/>
			<path class="st10" d="M72.6,40.1c0,0-4.1-4.8-6-4.6c-2,0.2-6.8,6.8-4.8,6.6c5.9-0.6,10.7,0.4,10.7,0.4L72.6,40.1z"/>
			<path d="M72.3,42.4C72.3,42.4,72.3,42.4,72.3,42.4c-0.6,0-9.9,0.6-10.8-0.3c-1.4-1.3,5.2-0.6,5.2-0.6S70.9,42.2,72.3,42.4
				C72.3,42.4,72.3,42.4,72.3,42.4z"/>
			<path class="st10" d="M74.5,40c0,0,3.2-4.3,4.8-4.2c2.5,0.2,6.9,5.3,5.4,7c-0.5,0.6-8.8-0.1-10-0.4c0,0-0.1,0-0.1,0L74.5,40z"/>
			<path d="M74.6,42.6c0,0,0,0,0.1,0c1.1,0.2,6.9,0.7,9.1,0.6c0.4,0,1,0,0.9-0.6C84.8,41,79.9,42,79.9,42L74.6,42.6z"/>
			<path d="M78.8,41.3c0-0.1-2.8,0.6-4,0c-1.2-0.5-0.5,0.4-0.5,0.5s-0.7-0.6,0.5-0.3C76,41.9,78.8,41.3,78.8,41.3z"/>
			<path d="M69.3,41c0-0.1,2.4,0.6,4,0.2c1.3-0.3,1,0.4,1,0.5c0,0.1,0.2-0.5-1.2-0.3C71.8,41.7,69.3,41.1,69.3,41z"/>
			<path d="M69.6,39.2c0-0.1,2.1,1.3,3.7,1.5c1.3,0.1,0.8,0.7,0.8,0.8c0,0.1,0.3-0.4-1-0.6S69.6,39.2,69.6,39.2z"/>
			<path d="M77.9,39.5c0-0.1-2.5,1.5-3.7,1.4c-1.3-0.1-0.3,0.6-0.3,0.7c0,0.1-0.9-0.3,0.4-0.4C75.4,41,77.9,39.6,77.9,39.5z"/>
			<path d="M72.4,39.9c0,1.1,0.2,1.4-0.2,2.5c0,0.1,2.4,0.4,2.6,0.1c0.4-0.5,0.2-2,0-2.4C74.6,39.6,72.4,39.6,72.4,39.9z"/>
		</g>
	</g>
</g>
</svg>
