<svg xmlns="http://www.w3.org/2000/svg" viewBox="0 0 42.01 42.01">
  <defs>
    <style>.cls-1{fill:white;}</style>
  </defs>
  <title>Asset 4</title>
  <g id="Layer_2" data-name="Layer 2">
    <g id="Layer_1-2" data-name="Layer 1">
      <path id="heart" class="cls-1"
            d="M20.78,42A21,21,0,1,1,42,21,21,21,0,0,1,20.78,42Zm0-40.58A19.58,19.58,0,1,0,40.57,21,19.57,19.57,0,0,0,20.78,1.43Zm0,28.89a.75.75,0,0,1-.51-.21L14,23.92c-.08-.07-2.3-2.16-2.3-4.64,0-3.05,1.82-4.87,4.88-4.87,1.74,0,3.37,1.37,4.2,2.19.83-.82,2.46-2.19,4.2-2.19,3.06,0,4.88,1.82,4.88,4.87,0,2.48-2.22,4.57-2.32,4.66l-6.25,6.17A.74.74,0,0,1,20.78,30.32Zm-4.2-14.48c-1.57,0-3.44.6-3.44,3.44,0,1.86,1.84,3.6,1.86,3.62l5.78,5.7,5.76-5.69s1.88-1.77,1.88-3.63c0-2.84-1.87-3.44-3.44-3.44s-3.12,1.63-3.64,2.26a.75.75,0,0,1-1.06.06l-.06-.06C19.7,17.47,18,15.84,16.58,15.84Z"/>
      <path class="cls-1"
            d="M20.17,18c-.56-.67-2.32-2.42-3.88-2.42s-3.66.64-3.66,3.67c0,2,2,3.83,2,3.85l6.15,6.07,6.13-6.05c.05,0,2-1.89,2-3.87,0-3-2-3.67-3.66-3.67S21.91,17.33,21.36,18a.8.8,0,0,1-1.13.05s0,0-.06-.05"/>
    </g>
  </g>
</svg>
