<svg xmlns="http://www.w3.org/2000/svg" width="52" height="52" viewBox="0 0 52 52">
  <metadata><?xpacket begin="﻿" id="W5M0MpCehiHzreSzNTczkc9d"?>
<x:xmpmeta xmlns:x="adobe:ns:meta/" x:xmptk="Adobe XMP Core 5.6-c140 79.160451, 2017/05/06-01:08:21        ">
   <rdf:RDF xmlns:rdf="http://www.w3.org/1999/02/22-rdf-syntax-ns#">
      <rdf:Description rdf:about=""/>
   </rdf:RDF>
</x:xmpmeta>





















<?xpacket end="w"?></metadata>
<defs>
    <style>
      .cls-1 {
        fill: #0d0d0d;
        fill-rule: evenodd;
      }
    </style>
  </defs>
  <path id="heart" class="cls-1" d="M1685,108.008A26.006,26.006,0,1,1,1711.01,82,26.03,26.03,0,0,1,1685,108.008Zm0-50.248A24.243,24.243,0,1,0,1709.24,82,24.272,24.272,0,0,0,1685,57.76Zm0,35.771a0.875,0.875,0,0,1-.62-0.257l-7.68-7.66c-0.1-.089-2.82-2.672-2.82-5.748,0-3.775,2.23-6.028,5.98-6.028,2.14,0,4.13,1.689,5.14,2.708,1.02-1.018,3.01-2.708,5.15-2.708,3.74,0,5.98,2.254,5.98,6.028,0,3.075-2.72,5.658-2.84,5.766l-7.66,7.64A0.893,0.893,0,0,1,1685,93.532ZM1679.86,75.6c-1.93,0-4.22.741-4.22,4.266,0,2.3,2.26,4.456,2.28,4.479l7.08,7.058,7.06-7.04c0.05-.039,2.31-2.194,2.31-4.5,0-3.525-2.3-4.266-4.22-4.266-1.79,0-3.83,2.025-4.46,2.805a0.915,0.915,0,0,1-1.37,0C1683.68,77.628,1681.64,75.6,1679.86,75.6Z" transform="translate(-1659 -56)"/>
</svg>
