<?xml version="1.0" encoding="utf-8"?>
<!-- Generator: Adobe Illustrator 22.1.0, SVG Export Plug-In . SVG Version: 6.00 Build 0)  -->
<svg version="1.1" id="Layer_1" xmlns="http://www.w3.org/2000/svg" xmlns:xlink="http://www.w3.org/1999/xlink" x="0px" y="0px"
	 viewBox="0 0 42.6 42" style="enable-background:new 0 0 42.6 42;" xml:space="preserve">
<style type="text/css">
	.st0{fill:white;}
</style>
<path id="person" class="st0" d="M31.9,37.7L31.9,37.7L31.9,37.7L31.9,37.7C31.9,37.8,31.9,37.8,31.9,37.7z M31.8,37.7 M11,37.6
	c-0.4,0.2-1,0.4-1.4,0.6C10.1,38,10.9,37.6,11,37.6h0.1 M33.3,38.4l0.3-0.2c5.4-3.8,8.9-10,9-17.1C42.6,9.5,33.4,0.2,22,0
	C10.4-0.2,0.8,9.1,0.6,20.7c-0.1,6.7,3,12.7,7.8,16.6l0.3,0.2c0.5,0.4,0.6,0.5,0.9,0.7c0.5-0.2,1.3-0.5,1.3-0.5l0.1,0
	c4.3-1.8,5.6-3.6,5.6-7.2c0-0.8-0.2-1.6-0.7-2.3c-0.7-1-1.1-2.1-1.3-3.2c-0.1-0.6-0.5-1.2-1.1-1.4c-0.4-0.2-0.8-0.4-1-2.2
	c0-0.1,0-0.1,0-0.2c0-0.4,0.2-0.8,0.5-1.1c0.3-0.1,0.4-0.4,0.4-0.7c0,0-0.2-1.1-0.4-2.3c-0.5-3.3-0.5-6.8,3.7-8.5s7.3-0.5,7.6,0.1
	C24.4,8.9,24.6,9,24.8,9c0.1,0,0.1,0,0.2,0c1.3,0,2.5,0.5,3.4,1.4c1.7,2,1.2,7.3,0.9,9c0,0.3,0.1,0.5,0.3,0.7
	c0.4,0.3,0.5,0.8,0.5,1.2c-0.1,1.9-0.6,2.1-1,2.3c-0.6,0.2-1,0.8-1.1,1.4c-0.1,1.2-0.6,2.3-1.2,3.2c-0.5,0.6-0.8,1.4-0.7,2.3
	c0,3.6,1.4,5.5,5.8,7.3c-0.1-0.1-0.1-0.1,0,0 M31.9,37.8L31.9,37.8 M33.3,36.9c-5.2-1.9-6-3.5-6-6.5c0-0.6,0.2-1.1,0.5-1.5
	c0.8-1.1,1.3-2.4,1.5-3.7c0-0.2,0.2-0.4,0.4-0.5c0.8-0.4,1.5-0.9,1.7-3.4c0.1-0.8-0.2-1.6-0.8-2.1c0.2-1.5,0.9-7.1-1.2-9.6
	c-1.1-1.2-2.6-1.8-4.2-1.8c-1.1-1.1-4.6-2.1-9-0.3c-5,2-5,6.3-4.4,9.9c0.1,0.8,0.2,1.5,0.3,1.9c-0.5,0.6-0.8,1.4-0.8,2.2
	c0.2,2.4,0.9,3,1.7,3.4c0.2,0,0.4,0.2,0.4,0.5c0.2,1.3,0.7,2.6,1.5,3.7c0.4,0.4,0.5,1,0.5,1.5c0,2.9-0.8,4.5-5.6,6.4
	c0,0-0.2-0.1-0.5-0.4c-4.4-3.5-7.3-9-7.4-15.1c-0.2-10.9,8.5-19.9,19.4-20c11-0.1,19.9,8.8,20,19.7C41.3,27.5,38.2,33.3,33.3,36.9z
	 M10.8,37.7c4.3-1.8,5.8-3.4,5.8-7c0-0.8-0.2-1.6-0.7-2.3c-0.7-1-1.1-2.1-1.3-3.2c-0.1-0.6-0.5-1.2-1.1-1.4c-0.4-0.2-0.8-0.4-1-2.2
	c0-0.1,0-0.1,0-0.2c0-0.4,0.2-0.8,0.5-1.1c0.3-0.1,0.4-0.4,0.4-0.7c0,0-0.2-1.1-0.4-2.3c-0.5-3.3-0.5-6.8,3.7-8.5s7.3-0.5,7.6,0.1
	c0.1,0.2,0.3,0.3,0.5,0.3c0.1,0,0.1,0,0.2,0c1.3,0,2.5,0.5,3.4,1.4c1.7,2,1.2,7.3,0.9,9c0,0.3,0.1,0.5,0.3,0.7
	c0.4,0.3,0.5,0.8,0.5,1.2c-0.1,1.9-0.6,2.1-1,2.3c-0.6,0.2-1,0.8-1.1,1.4c-0.1,1.2-0.6,2.3-1.2,3.2c-0.5,0.6-0.8,1.4-0.7,2.3
	c0,3.6,2.4,5.1,6.8,6.9c0.1,0,0-0.1,0,0c0.4-0.3,0.1,0,0.5-0.3c-5.3-2.3-6.1-3.9-6.1-6.9c0-0.6,0.2-1.1,0.5-1.5
	c0.8-1.1,1.3-2.4,1.5-3.7c0-0.2,0.2-0.4,0.4-0.5c0.8-0.4,1.5-0.9,1.7-3.4c0.1-0.8-0.2-1.6-0.8-2.1c0.2-1.5,0.9-7.1-1.2-9.6
	c-1.1-1.2-2.6-1.8-4.2-1.8c-1.1-1.1-4.6-2.1-9-0.3c-5,2-5,6.3-4.4,9.9c0.1,0.8,0.2,1.5,0.3,1.9c-0.5,0.6-0.8,1.4-0.8,2.2
	c0.2,2.4,0.9,3,1.7,3.4c0.2,0,0.4,0.2,0.4,0.5c0.2,1.3,0.7,2.6,1.5,3.7c0.4,0.4,0.5,1,0.5,1.5c0,2.9-0.8,4.5-5.6,6.4 M33.3,38.3
	c0.1-0.1,0.1-0.1,0.2-0.1l0.1-0.1l0,0c0.1-0.1,0.2-0.2,0.2-0.3c0.1-0.3-0.1-0.7-0.4-0.8c-0.1,0-0.2-0.1-0.2-0.1
	c-5.2-1.9-6-3.5-6-6.5c0-0.6,0.2-1.1,0.5-1.5c0.8-1.1,1.3-2.4,1.5-3.7c0-0.2,0.2-0.4,0.4-0.5c0.8-0.4,1.5-0.9,1.7-3.4
	c0.1-0.8-0.2-1.6-0.8-2.1c0.2-1.5,0.9-7.1-1.2-9.6c-1.1-1.2-2.6-1.8-4.2-1.8c-1.1-1.1-4.6-2.1-9-0.3c-5,2-5,6.3-4.4,9.9
	c0.1,0.8,0.2,1.5,0.3,1.9c-0.5,0.6-0.8,1.4-0.8,2.2c0.2,2.4,0.9,3,1.7,3.4c0.2,0,0.4,0.2,0.4,0.5c0.2,1.3,0.7,2.6,1.5,3.7
	c0.4,0.4,0.5,1,0.5,1.5c0,2.9-0.8,4.5-5.6,6.4c0,0-0.1,0-0.2,0.1c-0.2,0.1-0.3,0.1-0.5,0.2c-0.1,0-0.2,0.2-0.2,0.2s0.5,0.5,0.8,0.7
	c-0.1,0,1.4-0.6,1.4-0.6l0,0c4.3-1.8,5.6-3.6,5.6-7.2c0-0.8-0.2-1.6-0.7-2.3c-0.7-1-1.1-2.1-1.3-3.2c-0.1-0.6-0.5-1.2-1.1-1.4
	c-0.4-0.2-0.8-0.4-1-2.2c0-0.1,0-0.1,0-0.2c0-0.4,0.2-0.8,0.5-1.1c0.3-0.1,0.4-0.4,0.4-0.7c0,0-0.2-1.1-0.4-2.3
	c-0.5-3.3-0.5-6.8,3.7-8.5S24,8,24.3,8.6c0.1,0.2,0.3,0.3,0.5,0.3c0.1,0,0.1,0,0.2,0c1.3,0,2.5,0.5,3.4,1.4c1.7,2,1.2,7.3,0.9,9
	c0,0.3,0.1,0.5,0.3,0.7c0.4,0.3,0.5,0.8,0.5,1.2c-0.1,1.9-0.6,2.1-1,2.3c-0.6,0.2-1,0.8-1.1,1.4c-0.1,1.2-0.6,2.3-1.2,3.2
	c-0.5,0.6-0.8,1.4-0.7,2.3c0,3.6,1.4,5.5,5.8,7.3c0.1,0,0.2,0.1,0.2,0.1"/>
</svg>
