<?xml version="1.0" encoding="utf-8"?>
<!-- Generator: Adobe Illustrator 22.1.0, SVG Export Plug-In . SVG Version: 6.00 Build 0)  -->
<svg version="1.1" id="Layer_1" xmlns="http://www.w3.org/2000/svg" xmlns:xlink="http://www.w3.org/1999/xlink" x="0px" y="0px"
	 viewBox="0 0 150 150" style="enable-background:new 0 0 150 150;" xml:space="preserve">
<style type="text/css">
	
		.st0{display:none;opacity:9.000000e-02;fill:none;stroke:#000000;stroke-width:2.4713;stroke-miterlimit:10;enable-background:new    ;}
	.st1{fill:#AF1912;}
	.st2{fill:#FFFFFF;stroke:#050505;stroke-width:2;stroke-linecap:round;stroke-linejoin:round;stroke-miterlimit:10;}
	.st3{fill:#FFFFFF;stroke:#050505;stroke-width:2;stroke-linecap:round;stroke-miterlimit:10;}
	.st4{fill:none;stroke:#050505;stroke-width:2;stroke-linecap:round;stroke-linejoin:round;stroke-miterlimit:10;}
	.st5{fill:none;stroke:#020202;stroke-width:2;stroke-linecap:round;stroke-linejoin:round;stroke-miterlimit:10;}
</style>
<rect x="0.5" y="-0.3" class="st0" width="148.7" height="148.7"/>
<g id="презик">
	<circle class="st1" cx="74.3" cy="74.4" r="74.9"/>
	<g>
		<ellipse class="st2" cx="73.4" cy="93.5" rx="62.1" ry="22.2"/>
		<path class="st2" d="M128.7,92.2"/>
		<path class="st2" d="M98.4,73.4"/>
		<path class="st2" d="M124.8,91.7c1,0.5,1.3,1.8,0.4,2.6c-8,6.8-28.2,11.4-53.3,11.4c-22.7,0-41.8-4-51.2-9.8
			c-1.1-0.7-0.9-2.3,0.2-2.7l0,0c12.3-6,24.4-17.1,30.2-25.3c0.3-0.4,0.4-1,0.2-1.4c-1.8-4.8-3.1-9.1-3.1-15c0-2.9,0.2-5.6,0.7-8.3
			c2.6-14.9,12-25,23.2-25c10.9,0,20.1,9.4,23,23.6l0,0c0.6,3.1,1,6.3,1,9.7c0,5.2-0.8,10.1-2.3,14.5c-0.2,0.5-0.1,1.1,0.3,1.5
			C100.5,74.9,113.2,86.3,124.8,91.7z"/>
		<path class="st2" d="M20.9,93.1"/>
		<path class="st3" d="M57.4,62"/>
		<path class="st3" d="M66.5,27"/>
		<path class="st4" d="M73.7,22.2c-0.9-0.1-1.9-0.1-2.8,0C60.2,24,51.7,37.5,52.9,49"/>
	</g>
	<path class="st5" d="M48.7,76.3c-7.3,8-9.3,9.8-18.9,16.3"/>
</g>
</svg>
