<?xml version="1.0" encoding="utf-8"?>
<!-- Generator: Adobe Illustrator 22.1.0, SVG Export Plug-In . SVG Version: 6.00 Build 0)  -->
<svg version="1.1" id="Layer_1" xmlns="http://www.w3.org/2000/svg" xmlns:xlink="http://www.w3.org/1999/xlink" x="0px" y="0px"
	 viewBox="0 0 150 150" style="enable-background:new 0 0 150 150;" xml:space="preserve">
<style type="text/css">
	.st0{display:none;opacity:9.000000e-02;fill:none;stroke:#000000;stroke-width:2.4713;stroke-miterlimit:10;}
	.st1{fill:#AF1912;}
	.st2{fill:#F9F9F9;stroke:#020202;stroke-width:2;stroke-miterlimit:10;}
	.st3{fill:#C1C1C1;stroke:#020202;stroke-width:2;stroke-miterlimit:10;}
	.st4{fill:#020202;}
	.st5{fill:#FFFFFF;stroke:#050505;stroke-width:2;stroke-miterlimit:10;}
	.st6{fill:#0A0A0A;}
	.st7{fill:#141414;}
	.st8{fill:#070707;}
	.st9{fill:#FFFFFF;}
	.st10{fill:#7A0E0E;}
	.st11{fill:#C1C1C1;}
	.st12{fill:none;stroke:#AF1912;stroke-width:5.4628;stroke-linecap:round;stroke-miterlimit:10;}
	.st13{fill:none;stroke:#FFFFFF;stroke-width:0.5463;stroke-linecap:round;stroke-miterlimit:10;}
</style>
<rect x="1" y="0.7" class="st0" width="148.2" height="148.2"/>
<g id="косметика_1_">
	<circle class="st1" cx="74.3" cy="75.3" r="74.3"/>
	<g>
		<g>
			<g>
				<g>
					<path class="st2" d="M119.7,62v56.2c0,7.4-6,13.3-13.3,13.3H86.5c-7.4,0-13.3-6-13.3-13.3V62c0-6.3,4.4-11.6,10.3-13
						c0-0.2-0.1-0.4-0.1-0.6V33.8c0-1.9,1.5-3.4,3.4-3.4h0.6c-0.1-0.2-0.2-0.4-0.2-0.6c0-1.5-0.3-4.4-3-6c0,0,0,0,0,0
						c-0.4-0.2-1-0.3-1.5-0.3c-0.7,0-1.3-0.6-1.3-1.4L81.1,20c0-0.7,0.5-1.3,1.2-1.5c0,0,0,0,0,0c0.8-0.2,2-0.4,2-0.4
						c5.8-1.2,10.2-1.6,14.4-0.5c8.1,2,7.5,9.8,7,12.3c0,0.2-0.1,0.3-0.2,0.5h0.4c1.9,0,3.4,1.5,3.4,3.4v14.7c0,0.2,0,0.4-0.1,0.6
						C115.3,50.4,119.7,55.7,119.7,62z"/>
					<path class="st3" d="M84.1,23.8L84.1,23.8c-0.6-0.3-1.6-0.3-2.4-0.3c-0.3,0-0.5-0.2-0.5-0.4l-0.2-3.9c0-0.3,0.2-0.5,0.4-0.5
						c0.3,0,0.6,0,0.8-0.1c-0.7,0.2-1.3,0.7-1.2,1.5l0.1,2.1c0,0.7,0.6,1.3,1.3,1.4C83.1,23.5,83.7,23.6,84.1,23.8z"/>
				</g>
			</g>
			<path class="st4" d="M78.9,65.6v49.5c0,6.8,3.5,12.4,8.1,13.3v0h-0.1c-5.2,0-9.4-6-9.4-13.4V65.4c0-7.4,4.2-13.4,9.4-13.4H87v0.3
				C82.4,53.2,78.9,58.8,78.9,65.6z"/>
		</g>
		<g>
			<g>
				<g>
					<path class="st5" d="M70.5,42.2l-0.3,4.7l0,0.4l0,0.3l0,0.1L62.3,113c0,0,0.1,14.1-0.2,14.3c-6.6,5.2-24.9,4.8-30.5-0.4
						c-0.3-0.3-0.4-13-0.4-13L21.2,47.6l0-0.2l0-0.1l0-0.4L21,42.5L70.5,42.2z"/>
				</g>
				<path class="st6" d="M62.4,112.5c0,0-6.8,2.1-15.5,2.1s-15.7-2.1-15.7-2.1s7,1.5,15.7,1.5S62.4,112.5,62.4,112.5z"/>
				<path class="st7" d="M62.4,112.5c0,0-6.8,1.8-15.4,1.8s-15.7-1.9-15.7-1.9s7.1,1.3,15.7,1.3S62.4,112.5,62.4,112.5z"/>
				<g>
					<line class="st8" x1="70.2" y1="46.4" x2="21.2" y2="46.3"/>
					<polygon class="st8" points="70.2,46 70.2,46.4 70.2,46.7 70.1,46.7 21.2,46.7 21.2,46.5 21.2,46.3 21.2,46 					"/>
				</g>
			</g>
			<g>
				<g>
					<path class="st1" d="M45.8,102.4c-7.6,0-20-26.5-15.4-32.6c4.6-6.3,26.5-6.3,31.2,0C66.1,75.8,53.4,102.4,45.8,102.4z"/>
					<ellipse class="st9" cx="34.1" cy="72.5" rx="0.9" ry="1.9"/>
					<ellipse class="st9" cx="39.6" cy="79.7" rx="0.9" ry="1.9"/>
					<ellipse class="st9" cx="43.4" cy="73.4" rx="0.9" ry="1.9"/>
					<ellipse class="st9" cx="47.4" cy="82.1" rx="0.9" ry="1.9"/>
					<ellipse class="st9" cx="51.6" cy="75.2" rx="0.9" ry="1.9"/>
					<ellipse class="st9" cx="57.6" cy="71.4" rx="0.9" ry="1.9"/>
					<ellipse class="st9" cx="56" cy="82.6" rx="0.9" ry="1.9"/>
					<ellipse class="st9" cx="60.3" cy="78.4" rx="0.9" ry="1.9"/>
					<ellipse class="st9" cx="35.5" cy="85.9" rx="0.9" ry="1.9"/>
					<ellipse class="st9" cx="42.6" cy="88.8" rx="0.9" ry="1.9"/>
					<ellipse class="st9" cx="51.1" cy="89" rx="0.9" ry="1.9"/>
					<ellipse class="st9" cx="46.2" cy="94.6" rx="0.9" ry="1.9"/>
					<ellipse class="st9" cx="40.3" cy="95.4" rx="0.9" ry="1.9"/>
					<ellipse class="st9" cx="45.5" cy="101.5" rx="0.9" ry="1.9"/>
					<ellipse class="st9" cx="52.4" cy="96.8" rx="0.9" ry="1.9"/>
					<path class="st10" d="M42.1,63.9c0,0-5.1-2.3-11.1-1.9c0,0,0,0,0,0c5.5,1.9,6.2,3.1,6.2,3.1c0.1,0.1,0,0.2-0.1,0.2
						c0,0-6.8,1.3-10.9,0.8c0,0,0,0,0,0.1c6.3,2.2,12.1,2.5,12.1,2.5c0.1,0,0.1,0.1,0.1,0.1c0,0-1,1.1-1.4,3.6c0,0,0,0.1,0,0
						c5-1.6,7.9-4.1,7.9-4.1c0,0,0.1,0,0.1,0c3.4,2,4,2.1,9.5,3.1c0,0,0,0,0,0c-0.7-2.3-2.9-4.4-2.9-4.4c-0.1-0.1,0-0.2,0.1-0.2
						c0,0,4,0.1,9.9-1.5c0,0,0,0,0,0c-8.7-0.2-9.6-0.5-9.6-0.5c0,0,1.9-1.9,6.5-3.8c0.1,0,0-0.1,0-0.1c-5.7,0.3-12.9,3.1-12.9,3.1
						C45.5,63.8,42.1,63.9,42.1,63.9z"/>
					<path class="st11" d="M42.2,63.2c0,0-5.1-2.3-11.1-1.9c0,0,0,0,0,0c5.5,1.9,6.2,3.1,6.2,3.1c0.1,0.1,0,0.2-0.1,0.2
						c0,0-6.8,1.3-10.9,0.8c0,0,0,0,0,0.1c6.3,2.2,12.1,2.5,12.1,2.5c0.1,0,0.1,0.1,0.1,0.1c0,0-1,1.1-1.4,3.6c0,0,0,0.1,0,0
						c5-1.6,7.9-4.1,7.9-4.1c0,0,0.1,0,0.1,0c3.4,2,4,2.1,9.5,3.1c0,0,0,0,0,0c-0.7-2.3-2.9-4.4-2.9-4.4c-0.1-0.1,0-0.2,0.1-0.2
						c0,0,4,0.1,9.9-1.5c0,0,0,0,0,0c-8.7-0.2-9.6-0.5-9.6-0.5c0,0,1.9-1.9,6.5-3.8c0.1,0,0-0.1,0-0.1c-5.7,0.3-12.9,3.1-12.9,3.1
						C45.5,63.2,42.2,63.2,42.2,63.2z"/>
				</g>
				<g>
					<circle class="st1" cx="90.3" cy="97.5" r="8.4"/>
					<circle class="st1" cx="109.1" cy="94.6" r="8.4"/>
					<path class="st9" d="M84.5,97.3c-0.1,3.3,1.7,5.2,1.5,5.2c-0.2,0-2.3-1.9-2.1-5.2c0.2-3.2,2-4.7,2.1-4.7
						C86.2,92.6,84.5,94.6,84.5,97.3z"/>
					<path class="st9" d="M103.2,94.1c-0.1,3.3,1.7,5.2,1.5,5.2c-0.2,0-2.3-1.9-2.1-5.2c0.2-3.2,2-4.7,2.1-4.7
						C104.9,89.4,103.3,91.3,103.2,94.1z"/>
					<path class="st12" d="M96.3,65.7c0,0,12.5,10.3,11.7,26.6"/>
					<path class="st12" d="M96.3,65.7c6.4,13.1-1.1,20.3-5.6,26"/>
					<path class="st1" d="M95.6,65.4c0,0,1.2,6.2-0.8,8.5c-3.1,3.5-8.7,3.2-9.2,3.4c0-0.7,2.2-1.2,3.3-6.5
						C89.5,67.8,95.6,65.4,95.6,65.4z"/>
					<path class="st13" d="M95.6,65.2c-3.5,9.9-10.1,12.1-10.1,12.1"/>
				</g>
			</g>
		</g>
	</g>
</g>
</svg>
