<?xml version="1.0" encoding="utf-8"?>
<!-- Generator: Adobe Illustrator 22.1.0, SVG Export Plug-In . SVG Version: 6.00 Build 0)  -->
<svg version="1.1" id="Layer_1" xmlns="http://www.w3.org/2000/svg" xmlns:xlink="http://www.w3.org/1999/xlink" x="0px" y="0px"
	 viewBox="0 0 150 150" style="enable-background:new 0 0 150 150;" xml:space="preserve">
<style type="text/css">
	.st0{display:none;opacity:9.000000e-02;fill:none;stroke:#000000;stroke-width:2.4713;stroke-miterlimit:10;}
	.st1{fill:#AF1912;}
	.st2{fill:none;stroke:#050505;stroke-width:2;stroke-miterlimit:10;}
	.st3{fill:#FFFFFF;stroke:#000000;stroke-width:2;stroke-miterlimit:10;}
	.st4{fill:none;stroke:#000000;stroke-width:2;stroke-linecap:round;stroke-miterlimit:10;}
	.st5{fill:none;stroke:#000000;stroke-width:2;stroke-miterlimit:10;}
	.st6{fill:#070707;}
</style>
<rect x="2.2" y="0.6" class="st0" width="147" height="147"/>
<g id="bdsm">
	<circle class="st1" cx="75.2" cy="74.4" r="74.6"/>
	<g>
		<path class="st2" d="M105.2,81.8v10.9c0,5.7-4.6,10.4-10.4,10.4H79.1"/>
		<g>
			<path class="st3" d="M75,88.8h-5.9l-9.7,4.2c1.4,2.5,2.1,5.4,2.1,8.5c0,9.9-8,18-18,18c-9.9,0-17.9-8-17.9-18
				c0-9.9,8-17.9,17.9-17.9c5.9,0,11.2,2.9,14.5,7.3l9.1-4c-4.9-7.7-13.5-12.9-23.3-12.9c-15.2,0-27.5,12.3-27.5,27.5
				c0,15.2,12.3,27.5,27.5,27.5c10.4,0,19.5-5.8,24.1-14.3H75c3.2,0,5.8-2.6,5.8-5.8V94.7C80.8,91.5,78.2,88.8,75,88.8z M74.6,104.5
				c-1.5,0-2.7-1.2-2.7-2.7c0-1.5,1.2-2.7,2.7-2.7s2.7,1.2,2.7,2.7C77.3,103.3,76.1,104.5,74.6,104.5z"/>
			<path class="st4" d="M25.7,103.3c0.1,2.5-1.9,4.6-4.4,4.7c-2.5,0.1-4.6-1.9-4.7-4.4"/>
			<circle class="st5" cx="105.8" cy="24.4" r="4.5"/>
			<circle class="st6" cx="20.9" cy="103.8" r="1.5"/>
		</g>
		<g>
			<path class="st3" d="M98.3,84h14.3c3.2,0,5.8-2.6,5.8-5.8v-6.9c8.5-4.7,14.3-13.7,14.3-24.1c0-15.2-12.3-27.5-27.5-27.5
				C90,19.7,77.7,32,77.7,47.2c0,9.8,5.1,18.4,12.9,23.3l4-9.1c-4.4-3.3-7.3-8.5-7.3-14.5c0-9.9,8-17.9,17.9-17.9
				c9.9,0,18,8,18,17.9c0,9.9-8,18-18,18c-3.1,0-6-0.8-8.5-2.1l-4.2,9.7v5.9C92.4,81.4,95,84,98.3,84z M105.4,80.6
				c-1.5,0-2.7-1.2-2.7-2.7s1.2-2.7,2.7-2.7c1.5,0,2.7,1.2,2.7,2.7S106.9,80.6,105.4,80.6z"/>
			<path class="st4" d="M106.9,28.9c2.5,0.1,4.6-1.9,4.7-4.4c0.1-2.5-1.9-4.6-4.4-4.7"/>
			<circle class="st6" cx="107.4" cy="24.1" r="1.5"/>
		</g>
	</g>
</g>
</svg>
