<?xml version="1.0" encoding="utf-8"?>
<!-- Generator: Adobe Illustrator 22.1.0, SVG Export Plug-In . SVG Version: 6.00 Build 0)  -->
<svg version="1.1" id="Layer_1" xmlns="http://www.w3.org/2000/svg" xmlns:xlink="http://www.w3.org/1999/xlink" x="0px" y="0px"
	 viewBox="0 0 150 150" style="enable-background:new 0 0 150 150;" xml:space="preserve">
<style type="text/css">
	
		.st0{display:none;opacity:9.000000e-02;fill:none;stroke:#000000;stroke-width:2.4713;stroke-miterlimit:10;enable-background:new    ;}
	.st1{fill:#AF1912;}
	.st2{fill:#FFFFFF;stroke:#020202;stroke-width:2;stroke-linejoin:round;stroke-miterlimit:10;}
	.st3{fill:#FFFFFF;}
	.st4{fill:#050505;stroke:#020202;stroke-width:0.5;stroke-miterlimit:10;}
	.st5{fill:#070707;stroke:#020202;stroke-width:0.5;stroke-miterlimit:10;}
	.st6{fill:#FFFFFF;stroke:#020202;stroke-width:2;stroke-miterlimit:10;}
	.st7{fill:#FFFFFF;stroke:#070707;stroke-width:2;stroke-linecap:round;stroke-linejoin:round;stroke-miterlimit:10;}
</style>
<rect x="0.9" y="0.5" class="st0" width="149.8" height="149"/>
<g id="brrr">
	<ellipse class="st1" cx="75.1" cy="75.3" rx="75.2" ry="74.8"/>
	<g>
		<g>
			<path class="st2" d="M100.1,35c-4.6,33.3,0,88,0,88c0,6.7-5.4,12.1-12.1,12.1H72.5c-0.2,0-0.4,0-0.7,0L52,134.8h-0.2
				c-10.5-1.1-18.7-10-18.7-20.8c0-11.6,9.3-20.9,20.9-20.9c2.7,0,5.2,0.5,7.6,1.4c0.3,0.1,0.7,0.3,1,0.4c0.5,0.2,1,0.3,1.5,0.3
				c2.1,0,3.8-1.7,3.8-3.8c0,0-3.8-30.2,0-64.6c0.6-5.9,24,0,24,0C96.4,26.8,100.7,30.5,100.1,35z"/>
		</g>
		<g>
			<path class="st3" d="M106.2,42.3c3.3-8.2-7.8-9.4-11.7-26.2C92.9,9.3,87.6,7,80.4,6.7C72.3,6.5,64,14,64.8,22
				C66.7,41.6,104.6,46.3,106.2,42.3z"/>
			<path class="st4" d="M100.6,44.6c-1.6,0-3.2-0.1-4.2-0.3c-12.3-1.4-31-8.4-32.4-22.2c-0.4-3.7,1.1-7.6,4-10.7
				c3.3-3.5,8-5.6,12.3-5.4c8.4,0.3,13.3,3.5,14.8,9.9c1.9,8.2,5.4,12.5,8.3,16c2.8,3.4,5.2,8.6,2.8,11
				C105,44.1,103.4,44.6,100.6,44.6z M80,7.5c-3.9,0-7.9,1.8-10.9,5c-2.7,2.8-4,6.2-3.7,9.6C66.7,35,84.7,41.6,96.5,43
				c6.2,0.8,8.4-0.2,8.9-1.1c1-1.7-0.4-5.6-3.2-9c-2.8-3.4-6.6-8-8.6-16.6c-1.3-5.7-5.6-8.5-13.4-8.8C80.2,7.5,80.1,7.5,80,7.5z"/>
		</g>
		<g>
			<path class="st5" d="M69.3,28.2c-0.2,0-0.5-0.1-0.6-0.3c-2-2.9-2.6-6.5-1.7-9.7c0.7-2.5,2.8-6,8.1-8.3c0.4-0.2,0.8,0,0.9,0.4
				c0.2,0.4,0,0.8-0.4,0.9c-4.9,2.1-6.7,5.2-7.3,7.4c-0.8,2.9-0.3,6,1.5,8.5c0.2,0.3,0.1,0.8-0.2,1C69.6,28.2,69.5,28.2,69.3,28.2z"
				/>
		</g>
		<g>
			<path class="st6" d="M90.3,142.1H50.4c-0.7,0-1.3-0.6-1.3-1.3v-1.6c0-0.7,0.6-1.3,1.3-1.3h39.8c0.7,0,1.3,0.6,1.3,1.3v1.6
				C91.6,141.5,91,142.1,90.3,142.1z"/>
		</g>
		<path class="st7" d="M41.1,123.6c-2.8-2.7-4.5-6.5-4.5-10.7c0-7.3,5.2-13.4,12.2-14.8c1-0.2,2-0.3,3.1-0.3"/>
	</g>
</g>
</svg>
