<?xml version="1.0" encoding="utf-8"?>
<!-- Generator: Adobe Illustrator 22.1.0, SVG Export Plug-In . SVG Version: 6.00 Build 0)  -->
<svg version="1.1" id="Layer_1" xmlns="http://www.w3.org/2000/svg" xmlns:xlink="http://www.w3.org/1999/xlink" x="0px" y="0px"
	 viewBox="0 0 150 150" style="enable-background:new 0 0 150 150;" xml:space="preserve">
<style type="text/css">
	.st0{display:none;opacity:9.000000e-02;fill:none;stroke:#000000;stroke-width:2.4713;stroke-miterlimit:10;}
	.st1{fill:#AF1912;}
	.st2{fill:#FFFFFF;stroke:#020202;stroke-width:3;stroke-miterlimit:10;}
	.st3{fill:#C1C1C1;}
	.st4{fill:none;stroke:#020202;stroke-width:2;stroke-linecap:round;stroke-miterlimit:10;}
	.st5{fill:none;stroke:#F9F7F7;stroke-width:2;stroke-linecap:round;stroke-miterlimit:10;}
	.st6{fill:#FCFCFC;stroke:#050505;stroke-width:2;stroke-linecap:round;stroke-miterlimit:10;}
	.st7{fill:#050505;}
</style>
<rect x="1" y="0.6" class="st0" width="148.6" height="148.6"/>
<g id="бады">
	<circle class="st1" cx="74.3" cy="73.9" r="74"/>
	<g>
		<path class="st2" d="M128.3,58.8c0,2.6-0.5,5.2-1.5,7.8l-10.6,25.9l-0.7,1.8l-8.1,19.8c-4.3,10.5-16.3,15.6-26.8,11.3
			S65,109,69.3,98.5l8-19.6l0.6-1.4L88.7,51c4.3-10.5,16.3-15.6,26.8-11.3C123.5,43,128.3,50.7,128.3,58.8z"/>
		<path class="st3" d="M115.2,91l-0.6,1.7l-8,19.8c-4,10.9-16,15.4-25.7,11.1c-10.1-4.5-14.1-16.1-9.6-26.1l7.9-19.4l0.5-1.3
			l0.4-1.1c2.7-0.8,4.8-1.3,7.7-1.1c10.4,0.5,18.9,4.3,24.3,11.7c0,0,1.7,2.2,2.4,3.7C114.7,90.2,115,90.7,115.2,91z"/>
		<path d="M116.5,90.4C110.4,78.4,96.8,71,83,73.8c-1.7,0.3-3.4,0.5-5,1.2l-0.7,2.4c1.5-0.6,3-1,4.6-1.4
			c13.9-2.8,27.6,4.5,33.6,16.8L116.5,90.4z"/>
		<line class="st4" x1="94.9" y1="49.4" x2="87.2" y2="68.8"/>
		<line class="st5" x1="83.4" y1="80" x2="75.6" y2="99.4"/>
	</g>
	<g>
		<g>
			<ellipse class="st6" cx="43.7" cy="72.6" rx="29.9" ry="14.7"/>
			<ellipse class="st6" cx="43.7" cy="72.2" rx="29.9" ry="14.7"/>
			<ellipse class="st6" cx="43.7" cy="71.8" rx="29.9" ry="14.7"/>
			<ellipse class="st6" cx="43.8" cy="71.3" rx="29.9" ry="14.7"/>
			<ellipse class="st6" cx="43.8" cy="70.9" rx="29.9" ry="14.7"/>
			<ellipse class="st6" cx="43.8" cy="70.5" rx="29.9" ry="14.7"/>
			<ellipse class="st6" cx="43.8" cy="70" rx="29.9" ry="14.7"/>
			<ellipse class="st6" cx="43.9" cy="69.6" rx="29.9" ry="14.7"/>
			<ellipse class="st6" cx="43.9" cy="69.2" rx="29.9" ry="14.7"/>
			<ellipse class="st6" cx="43.9" cy="68.7" rx="29.9" ry="14.7"/>
			<ellipse class="st6" cx="43.9" cy="68.3" rx="29.9" ry="14.7"/>
			<ellipse class="st6" cx="44" cy="67.9" rx="29.9" ry="14.7"/>
			<ellipse class="st6" cx="44" cy="67.4" rx="29.9" ry="14.7"/>
			<ellipse class="st6" cx="44" cy="67" rx="29.9" ry="14.7"/>
			<ellipse class="st6" cx="44" cy="66.5" rx="29.9" ry="14.7"/>
			<ellipse class="st6" cx="44.1" cy="66.1" rx="29.9" ry="14.7"/>
			<ellipse class="st6" cx="44.1" cy="65.7" rx="29.9" ry="14.7"/>
		</g>
		<polygon class="st7" points="54.6,79.3 51.5,80.3 35.2,51.5 38,51 		"/>
	</g>
</g>
</svg>
