<?xml version="1.0" encoding="utf-8"?>
<!-- Generator: Adobe Illustrator 22.1.0, SVG Export Plug-In . SVG Version: 6.00 Build 0)  -->
<svg version="1.1" id="Layer_1" xmlns="http://www.w3.org/2000/svg" xmlns:xlink="http://www.w3.org/1999/xlink" x="0px" y="0px"
	 viewBox="0 0 150 150" style="enable-background:new 0 0 150 150;" xml:space="preserve">
<style type="text/css">
	
		.st0{display:none;opacity:9.000000e-02;fill:none;stroke:#000000;stroke-width:2.4713;stroke-miterlimit:10;enable-background:new    ;}
	.st1{fill:#AF1912;}
	.st2{fill:#FFFFFF;stroke:#000000;stroke-width:2;stroke-miterlimit:10;}
	.st3{fill:none;stroke:#000000;stroke-width:2;stroke-linecap:round;stroke-miterlimit:10;}
	.st4{fill:none;stroke:#000000;stroke-width:2;stroke-miterlimit:10;}
	.st5{fill:#AF1912;stroke:#000000;stroke-width:2;stroke-miterlimit:10;}
</style>
<rect x="-0.4" y="-0.2" class="st0" width="150.1" height="150.1"/>
<g id="bra">
	<ellipse class="st1" cx="75" cy="75.1" rx="75.3" ry="74.5"/>
	<g>
		<path class="st2" d="M41.2,43.6c-7.3-0.6-16.1,24.5-7.3,35c13.1,15.5,35.7,2,40.9-0.3c0.6-0.3,1.3-0.2,1.8,0.1
			c3.9,2.6,18.7,15.2,36.4,3.2c12.1-8.2,4.2-39.5-3.5-38.3c-20.2,3.2-30.4,25.7-33,31.8c-0.2,0.5-1,0.6-1.3,0
			C71.8,68.9,57.5,44.9,41.2,43.6z"/>
		<line class="st3" x1="39.2" y1="15.2" x2="39.2" y2="43.3"/>
		<line class="st3" x1="112" y1="15.1" x2="112" y2="43.2"/>
		<path class="st3" d="M30.2,101c6.6,3,13,5.1,19.2,6.6c40.2,9.9,70.1-6.9,70.1-6.9"/>
		<path class="st2" d="M50,108.5l13.2,21.1c2.2,3.5,3.6,7.9,4,12.2c0.1,1.1,1,1.9,2,1.9h11.6c1,0,1.9-0.7,2-1.7
			c0.7-4.4,1.1-8.4,4.2-13.3l12.9-20.3l-24.4,3.7c-0.6,0.1-1.3,0.1-1.9,0L50,108.5z"/>
		<path class="st4" d="M34.6,68.4c0,0,2.2,11.3,11.7,12"/>
		<path class="st4" d="M114.9,69.2c0,0-2.2,11.3-11.7,12"/>
		<path class="st5" d="M74.2,130.2c0,0,7-5,8.5-7.5c0.6-1,0.9-2.9,0.6-4c-0.4-1.6-2.2-2.4-3.7-2.3s-2.7,1.1-3.6,1.9
			c-0.5,0.5-1.7,2.2-1.7,2.2s-1-1.7-1.5-2.3c-0.9-1.1-2.5-1.9-3.6-1.9c-1.5-0.1-3.2,0.8-3.7,2.1c-0.4,0.9-0.2,3.1,0.6,4
			C67.9,124.6,74.2,130.2,74.2,130.2z"/>
		<line class="st4" x1="62.2" y1="56.3" x2="80.9" y2="65.6"/>
		<line class="st4" x1="70" y1="66" x2="88.5" y2="55.5"/>
	</g>
</g>
</svg>
