<svg xmlns="http://www.w3.org/2000/svg" width="40.25" height="50.281" viewBox="0 0 40.25 50.281">
  <metadata><?xpacket begin="﻿" id="W5M0MpCehiHzreSzNTczkc9d"?>
<x:xmpmeta xmlns:x="adobe:ns:meta/" x:xmptk="Adobe XMP Core 5.6-c140 79.160451, 2017/05/06-01:08:21        ">
   <rdf:RDF xmlns:rdf="http://www.w3.org/1999/02/22-rdf-syntax-ns#">
      <rdf:Description rdf:about=""/>
   </rdf:RDF>
</x:xmpmeta>





















<?xpacket end="w"?></metadata>
<defs>
    <style>
      .cls-1 {
        fill: #d0d0d0;
        fill-rule: evenodd;
      }
    </style>
  </defs>
  <path id="bag" class="cls-1" d="M1840.85,76.146a0.84,0.84,0,0,0,1.68,0,3.355,3.355,0,0,0-6.71,0,0.84,0.84,0,0,0,1.68,0A1.675,1.675,0,1,1,1840.85,76.146Zm11.74-3.353a3.362,3.362,0,0,0-3.36,3.353,0.84,0.84,0,0,0,1.68,0,1.675,1.675,0,1,1,3.35,0,0.84,0.84,0,0,0,1.68,0A3.353,3.353,0,0,0,1852.59,72.793Zm12.57-3.353V57.7H1826.6V69.44h-0.84V108H1866V69.44h-0.84Zm-2.09,0-4.35-5.789,4.27-4.27h0.5V69.44h-0.42Zm-28.09,0V63.573c0-.02-0.01-0.039-0.01-0.059a0.857,0.857,0,0,0-.03-0.157c-0.01-.035-0.01-0.071-0.02-0.105a0.135,0.135,0,0,1-.03-0.051c-0.03-.046-0.06-0.086-0.09-0.128s-0.04-.068-0.06-0.095l-3.6-3.6h29.48l-3.6,3.6c-0.02.027-.04,0.065-0.06,0.095s-0.06.081-.09,0.128a0.141,0.141,0,0,1-.03.051c-0.01.034-.01,0.071-0.02,0.105a0.841,0.841,0,0,0-.03.157c0,0.02-.01.038-0.01,0.059V69.44h-21.8Zm-4.19,0,2.52-3.354V69.44h-2.52Zm27.67-3.354,2.51,3.354h-2.51V66.087Zm-30.18-6.705h0.49l4.27,4.27-4.35,5.789h-0.41V59.381Zm36.04,46.943h-36.88V71.117h36.88v35.207Zm-11.73-31.016a0.835,0.835,0,0,0-.84.838v5.03a5.87,5.87,0,0,1-11.74,0v-5.03a0.835,0.835,0,1,0-1.67,0v5.03a7.545,7.545,0,0,0,15.09,0v-5.03A0.842,0.842,0,0,0,1852.59,75.308Z" transform="translate(-1825.75 -57.719)"/>
</svg>
