<svg xmlns="http://www.w3.org/2000/svg" width="33" height="44" viewBox="0 0 33 44">
  <metadata><?xpacket begin="﻿" id="W5M0MpCehiHzreSzNTczkc9d"?>
<x:xmpmeta xmlns:x="adobe:ns:meta/" x:xmptk="Adobe XMP Core 5.6-c140 79.160451, 2017/05/06-01:08:21        ">
   <rdf:RDF xmlns:rdf="http://www.w3.org/1999/02/22-rdf-syntax-ns#">
      <rdf:Description rdf:about=""/>
   </rdf:RDF>
</x:xmpmeta>
                                                                                                    
                                                                                                    
                                                                                                    
                                                                                                    
                                                                                                    
                                                                                                    
                                                                                                    
                                                                                                    
                                                                                                    
                                                                                                    
                                                                                                    
                                                                                                    
                                                                                                    
                                                                                                    
                                                                                                    
                                                                                                    
                                                                                                    
                                                                                                    
                                                                                                    
                                                                                                    
                           
<?xpacket end="w"?></metadata>
<defs>
    <style>
      .cls-1 {
        fill: #810101;
        fill-rule: evenodd;
      }
    </style>
  </defs>
  <path id="сумка" class="cls-1" d="M223,220.526A6.749,6.749,0,0,0,229.636,227h19.648A6.815,6.815,0,0,0,256,220.526V193.282h-6.52c0-.063.009-0.135,0.009-0.2a9.989,9.989,0,1,0-19.978,0c0,0.063.009,0.135,0.009,0.2H223v27.244Zm16.5-33.809a6.353,6.353,0,0,1,6.315,6.376c0,0.063-.009.135-0.009,0.2H233.194c0-.063-0.009-0.135-0.009-0.2A6.353,6.353,0,0,1,239.5,186.717Zm-6.627,18.229a4.48,4.48,0,0,1,6.378.009l0.249,0.252,0.249-.252a4.48,4.48,0,0,1,6.378-.009,4.585,4.585,0,0,1-.009,6.439l-6.129,6.186a0.7,0.7,0,0,1-.489.207,0.674,0.674,0,0,1-.489-0.207l-6.138-6.2A4.562,4.562,0,0,1,232.873,204.946Z" transform="translate(-223 -183)"/>
</svg>
