<svg xmlns="http://www.w3.org/2000/svg" width="39" height="37" viewBox="0 0 39 37">
  <metadata><?xpacket begin="﻿" id="W5M0MpCehiHzreSzNTczkc9d"?>
<x:xmpmeta xmlns:x="adobe:ns:meta/" x:xmptk="Adobe XMP Core 5.6-c140 79.160451, 2017/05/06-01:08:21        ">
   <rdf:RDF xmlns:rdf="http://www.w3.org/1999/02/22-rdf-syntax-ns#">
      <rdf:Description rdf:about=""/>
   </rdf:RDF>
</x:xmpmeta>
                                                                                                    
                                                                                                    
                                                                                                    
                                                                                                    
                                                                                                    
                                                                                                    
                                                                                                    
                                                                                                    
                                                                                                    
                                                                                                    
                                                                                                    
                                                                                                    
                                                                                                    
                                                                                                    
                                                                                                    
                                                                                                    
                                                                                                    
                                                                                                    
                                                                                                    
                                                                                                    
                           
<?xpacket end="w"?></metadata>
<defs>
    <style>
      .cls-1 {
        fill: #d0d0d0;
        fill-rule: evenodd;
      }
    </style>
  </defs>
  <path id="чат2" class="cls-1" d="M239.145,1115H214.354a3.825,3.825,0,0,0-3.854,3.78v3.88h22.145a5.106,5.106,0,0,1,5.155,5.05v8.34h1.345a3.825,3.825,0,0,0,3.855-3.78v-13.49A3.825,3.825,0,0,0,239.145,1115Zm-6.5,8.93H207.854a3.825,3.825,0,0,0-3.854,3.78v13.49a3.818,3.818,0,0,0,3.854,3.78H211.8v6.38a0.643,0.643,0,0,0,.416.6,0.63,0.63,0,0,0,.234.04,0.641,0.641,0,0,0,.481-0.21l6.306-6.81h13.408a3.818,3.818,0,0,0,3.855-3.78v-13.49A3.825,3.825,0,0,0,232.645,1123.93Zm-20.845,6.39h9.1a0.64,0.64,0,1,1,0,1.28h-9.1A0.64,0.64,0,1,1,211.8,1130.32Zm17.55,8.93H211.8a0.635,0.635,0,1,1,0-1.27h17.55A0.635,0.635,0,1,1,229.35,1139.25Zm0-3.83H211.8a0.635,0.635,0,1,1,0-1.27h17.55A0.635,0.635,0,1,1,229.35,1135.42Z" transform="translate(-204 -1115)"/>
</svg>
