<svg xmlns="http://www.w3.org/2000/svg" width="31.999" height="24.275" viewBox="0 0 29 22">
  <metadata><?xpacket begin="﻿" id="W5M0MpCehiHzreSzNTczkc9d"?>
<x:xmpmeta xmlns:x="adobe:ns:meta/" x:xmptk="Adobe XMP Core 5.6-c140 79.160451, 2017/05/06-01:08:21        ">
   <rdf:RDF xmlns:rdf="http://www.w3.org/1999/02/22-rdf-syntax-ns#">
      <rdf:Description rdf:about=""/>
   </rdf:RDF>
</x:xmpmeta>
                                                                                                    
                                                                                                    
                                                                                                    
                                                                                                    
                                                                                                    
                                                                                                    
                                                                                                    
                                                                                                    
                                                                                                    
                                                                                                    
                                                                                                    
                                                                                                    
                                                                                                    
                                                                                                    
                                                                                                    
                                                                                                    
                                                                                                    
                                                                                                    
                                                                                                    
                                                                                                    
                           
<?xpacket end="w"?></metadata>
<defs>
    <style>
      .cls-1 {
        fill: #d0d0d0;
        fill-rule: evenodd;
      }
    </style>
  </defs>
  <path id="онлайнЧат_copy" data-name="онлайнЧат copy" class="cls-1" d="M1838.97,974.831h-0.79v8.392a2.315,2.315,0,0,1-2.38,2.489h-15.55v0.4a2.757,2.757,0,0,0,2.77,2.322h11.89l4.55,2.569-0.66-2.569h0.17a2.094,2.094,0,0,0,2.04-2.322v-9.288A1.838,1.838,0,0,0,1838.97,974.831Zm-5.49-5.83h-18.06c-1.59,0-3.42,1.356-3.42,2.664v10.518c0,1.2,1.55,2.074,3.03,2.207l-0.96,3.529,6.19-3.5h13.22c1.58,0,3.05-.926,3.05-2.233V971.665A3.072,3.072,0,0,0,1833.48,969Zm-15.31,8.879a1.569,1.569,0,1,1,1.63-1.568A1.6,1.6,0,0,1,1818.17,977.88Zm6.09,0a1.57,1.57,0,1,1,1.64-1.568A1.6,1.6,0,0,1,1824.26,977.88Zm6.1,0a1.569,1.569,0,1,1,1.63-1.568A1.6,1.6,0,0,1,1830.36,977.88Z" transform="translate(-1812 -969)"/>
</svg>
