<svg xmlns="http://www.w3.org/2000/svg" width="18.97" height="19" viewBox="0 0 18.97 19">
  <metadata><?xpacket begin="﻿" id="W5M0MpCehiHzreSzNTczkc9d"?>
<x:xmpmeta xmlns:x="adobe:ns:meta/" x:xmptk="Adobe XMP Core 5.6-c140 79.160451, 2017/05/06-01:08:21        ">
   <rdf:RDF xmlns:rdf="http://www.w3.org/1999/02/22-rdf-syntax-ns#">
      <rdf:Description rdf:about=""/>
   </rdf:RDF>
</x:xmpmeta>
                                                                                                    
                                                                                                    
                                                                                                    
                                                                                                    
                                                                                                    
                                                                                                    
                                                                                                    
                                                                                                    
                                                                                                    
                                                                                                    
                                                                                                    
                                                                                                    
                                                                                                    
                                                                                                    
                                                                                                    
                                                                                                    
                                                                                                    
                                                                                                    
                                                                                                    
                                                                                                    
                           
<?xpacket end="w"?></metadata>
<defs>
    <style>
      .cls-1 {
        fill: #810101;
        fill-rule: evenodd;
      }
    </style>
  </defs>
  <path id="chekMark" class="cls-1" d="M1352.08,436.538h-14.6V421.923h10.77l0.91-1.461h-11.68a1.459,1.459,0,0,0-1.46,1.461v14.615a1.459,1.459,0,0,0,1.46,1.462h14.6a1.459,1.459,0,0,0,1.46-1.462v-9.65l-1.46,2.343v7.307Zm2.46-17.371a1.02,1.02,0,0,0-.56-0.167,1.007,1.007,0,0,0-.85.463l-7.94,11.462-3.07-3.508a1.023,1.023,0,1,0-1.39,1.5l3.69,4.216,0.09,0.1,0.09,0.107,0.04,0.023,0.08,0.077,0.2,0.091,0.04,0.022,0.32,0.054,0.01,0a1.007,1.007,0,0,0,.76-0.321l0.08-.134v-0.006l8.71-12.564A1.026,1.026,0,0,0,1354.54,419.167Z" transform="translate(-1336.03 -419)"/>
</svg>
