<svg xmlns="http://www.w3.org/2000/svg" viewBox="0 0 151.7 17.62"><defs><style>.cls-1{fill: white;}</style></defs><title>Asset 1</title><g id="Layer_2" data-name="Layer 2"><g id="Layer_1-2" data-name="Layer 1"><path class="cls-1" d="M0,17.23c.35-.59.76-1.24,1.21-1.94L2.6,13.14c.48-.73.94-1.45,1.4-2.16S4.86,9.6,5.23,9H6.7L3.53,13.44l.05.05,1.1-1.36a17.15,17.15,0,0,1,1.43-1.55A9.21,9.21,0,0,1,7.78,9.31,3.54,3.54,0,0,1,9.6,8.78a1.48,1.48,0,0,1,1,.3,1.07,1.07,0,0,1,.37.88,1.93,1.93,0,0,1-.24.82,10.92,10.92,0,0,1-.56,1c-.22.33-.44.64-.66.95s-.4.55-.53.74l.05.05A19.09,19.09,0,0,1,10.19,12a15.48,15.48,0,0,1,1.51-1.52,9.38,9.38,0,0,1,1.66-1.18A3.39,3.39,0,0,1,15,8.78a1.46,1.46,0,0,1,1,.34,1.22,1.22,0,0,1,.35.94,2.27,2.27,0,0,1-.27,1,11.93,11.93,0,0,1-.7,1.16c-.28.41-.58.82-.9,1.24s-.62.81-.9,1.2-.51.74-.7,1.06a1.84,1.84,0,0,0-.27.83.6.6,0,0,0,.18.46.64.64,0,0,0,.44.17,2.84,2.84,0,0,0,1.36-.46,10.29,10.29,0,0,0,1.68-1.27,22.46,22.46,0,0,0,1.88-2c.66-.76,1.32-1.59,2-2.51l.2.1c-.66.9-1.32,1.73-2,2.51a25.59,25.59,0,0,1-1.91,2,10.32,10.32,0,0,1-1.78,1.35,3.13,3.13,0,0,1-1.57.49,1.37,1.37,0,0,1-1.1-.42,1.53,1.53,0,0,1-.36-1,2.43,2.43,0,0,1,.27-1,9.17,9.17,0,0,1,.7-1.16q.42-.6.9-1.2c.32-.4.62-.79.9-1.16s.51-.7.7-1a1.63,1.63,0,0,0,.27-.75.56.56,0,0,0-.18-.47.79.79,0,0,0-.44-.13,2.57,2.57,0,0,0-1.13.33,7.32,7.32,0,0,0-1.36.91,17.93,17.93,0,0,0-1.45,1.37c-.49.52-1,1.08-1.45,1.68a21.31,21.31,0,0,0-1.33,1.89,17.71,17.71,0,0,0-1.08,2H5.47c.45-.8.93-1.6,1.45-2.4l1.46-2.22c.44-.68.82-1.27,1.12-1.77A2.55,2.55,0,0,0,10,9.72a.58.58,0,0,0-.67-.65,2.69,2.69,0,0,0-1.35.45,9.16,9.16,0,0,0-1.51,1.15,16.88,16.88,0,0,0-1.51,1.61c-.5.6-1,1.2-1.4,1.81s-.83,1.19-1.17,1.74-.6,1-.79,1.4Z"/><path class="cls-1" d="M31.06,11.16a4.69,4.69,0,0,1-1.3,1,3,3,0,0,1-1.42.39,2.14,2.14,0,0,1-1.15-.3,2.3,2.3,0,0,1-.74-.71H26.4a7.17,7.17,0,0,1-.89,1.94A10,10,0,0,1,24,15.41a9.28,9.28,0,0,1-2,1.44,4.65,4.65,0,0,1-2.2.57,2,2,0,0,1-1.56-.6,2.29,2.29,0,0,1-.53-1.6A3.67,3.67,0,0,1,18,14a7.52,7.52,0,0,1,.73-1.4,10.73,10.73,0,0,1,1.11-1.39A8.93,8.93,0,0,1,21.17,10a6.69,6.69,0,0,1,1.57-.86,4.48,4.48,0,0,1,1.67-.33,2,2,0,0,1,1.52.58,2.26,2.26,0,0,1,.59,1.49,1.58,1.58,0,0,0,.52,1,1.74,1.74,0,0,0,1.28.47A2.74,2.74,0,0,0,29.68,12,5.19,5.19,0,0,0,30.86,11ZM19,15.79a1.77,1.77,0,0,0,.24,1,.81.81,0,0,0,.72.36,2.69,2.69,0,0,0,1.29-.35,6,6,0,0,0,1.22-.91,8.63,8.63,0,0,0,1.09-1.29,10.22,10.22,0,0,0,.88-1.49A10.11,10.11,0,0,0,25,11.6a4.81,4.81,0,0,0,.21-1.33A1.4,1.4,0,0,0,25,9.42a.91.91,0,0,0-.78-.35,2.23,2.23,0,0,0-1.08.33,6.45,6.45,0,0,0-1.16.85,8.82,8.82,0,0,0-1.12,1.22,14.3,14.3,0,0,0-.95,1.44,8.08,8.08,0,0,0-.66,1.49A4.57,4.57,0,0,0,19,15.79Z"/><path class="cls-1" d="M37.85,9q-2.24,3.09-3.47,4.86a5.57,5.57,0,0,0-1.24,2.58c0,.48.22.72.65.72a3.27,3.27,0,0,0,1.49-.59A13.69,13.69,0,0,0,37.8,14.3c.42-.43.85-.92,1.31-1.48s1-1.2,1.47-1.92l.24.07q-.81,1.15-1.53,2t-1.35,1.56a12.83,12.83,0,0,1-2.53,2.25,3.67,3.67,0,0,1-1.83.63,1.44,1.44,0,0,1-1.07-.37,1.34,1.34,0,0,1-.37-1,2.14,2.14,0,0,1,.14-.75,4.93,4.93,0,0,1,.36-.77l0,0a15,15,0,0,1-1,1.19,10.77,10.77,0,0,1-.93.83,4.74,4.74,0,0,1-1.09.68,2.6,2.6,0,0,1-1,.2,1.75,1.75,0,0,1-.73-.16,1.4,1.4,0,0,1-.57-.46,2.22,2.22,0,0,1-.38-1.32,1.78,1.78,0,0,1,.35-1.07,1,1,0,0,1,.87-.49.85.85,0,0,1,.63.22.72.72,0,0,1,.21.52.88.88,0,0,1-.18.57.65.65,0,0,1-.54.23.87.87,0,0,1-.32-.06.47.47,0,0,1-.25-.28.73.73,0,0,0-.22.35,1.18,1.18,0,0,0-.07.37,1.4,1.4,0,0,0,.36.94,1.11,1.11,0,0,0,.89.36,2.7,2.7,0,0,0,.82-.15,3.47,3.47,0,0,0,1.14-.69,12.59,12.59,0,0,0,1.65-1.68Q33,13.56,34.22,12c.32-.43.64-.89,1-1.38s.64-1,1-1.52Z"/><path class="cls-1" d="M49.06,10.85a6.61,6.61,0,0,1-1.13,1.23,13,13,0,0,1-1.25.93,6.8,6.8,0,0,1-1.38.69,8.27,8.27,0,0,1-1.19.34,5.76,5.76,0,0,1-.41,1.09,3.91,3.91,0,0,1-1.15,1.38,4.09,4.09,0,0,1-2.71.91,1.94,1.94,0,0,1-1.44-.52,1.92,1.92,0,0,1-.53-1.4,4.15,4.15,0,0,1,.23-1.21,5,5,0,0,1,.78-1.45L41.64,9h1.58L41,12a15.64,15.64,0,0,0-1.48,2.31A3.72,3.72,0,0,0,39.07,16a1.29,1.29,0,0,0,.28.82.88.88,0,0,0,.75.36A3,3,0,0,0,41,17a2.5,2.5,0,0,0,1-.79,3.28,3.28,0,0,0,.6-1.06,6.5,6.5,0,0,0,.24-1.06.77.77,0,0,1-.37-.42,1.62,1.62,0,0,1-.14-.68,1.26,1.26,0,0,1,.3-1,.93.93,0,0,1,.62-.27.78.78,0,0,1,.64.32,1.4,1.4,0,0,1,.27.92c0,.21,0,.36,0,.44s0,.2,0,.38a4.93,4.93,0,0,0,1.13-.31,8.4,8.4,0,0,0,1.2-.6,11,11,0,0,0,1.31-1,7.59,7.59,0,0,0,1.11-1.2Z"/><path class="cls-1" d="M49.82,9.05,51.38,9c-.69,1-1.25,1.76-1.7,2.4s-.76,1.08-.94,1.32l0,0c.46-.51.91-1,1.33-1.4s.84-.8,1.24-1.12a5.23,5.23,0,0,1,3.26-1.44,1.81,1.81,0,0,1,1.09.3,1.07,1.07,0,0,1,.43.93,1.16,1.16,0,0,1-.16.59,1.49,1.49,0,0,1-.41.42,2.18,2.18,0,0,1-.56.25,2.61,2.61,0,0,1-.6.08,3.47,3.47,0,0,0,.31-.71,2.24,2.24,0,0,0,.12-.7.91.91,0,0,0-.2-.64.72.72,0,0,0-.54-.2A2.49,2.49,0,0,0,53,9.41a8.18,8.18,0,0,0-1.62,1.15,21.86,21.86,0,0,0-2.63,2.69,23.54,23.54,0,0,0-2.68,4H44.62Zm9.77,2a35.55,35.55,0,0,1-2.48,3.16,17.48,17.48,0,0,1-2,1.94,6.47,6.47,0,0,1-1.62,1,3.73,3.73,0,0,1-1.29.27,1.58,1.58,0,0,1-1.12-.33,1.3,1.3,0,0,1-.35-1,1.93,1.93,0,0,1,.14-.69c.1-.23.23-.5.39-.82s.29-.58.4-.77a1.2,1.2,0,0,0,.15-.55.31.31,0,0,0-.18-.32,1.16,1.16,0,0,0-.37-.07,2.79,2.79,0,0,0-.47.05,3,3,0,0,1-.52,0c-.22,0-.34,0-.37-.09a.39.39,0,0,1,0-.13q0-.21.45-.21h.24l.36,0,.43.05.44.07a1.2,1.2,0,0,1,1,1.2,2.67,2.67,0,0,1-.11.75c-.08.24-.16.47-.26.71s-.19.45-.26.66a1.59,1.59,0,0,0-.11.6.59.59,0,0,0,.09.37.57.57,0,0,0,.41.11,2.71,2.71,0,0,0,1.05-.32,7.3,7.3,0,0,0,1.53-1,18.87,18.87,0,0,0,2-1.91,32,32,0,0,0,2.33-3Z"/><path class="cls-1" d="M70.22,11.16a4.51,4.51,0,0,1-1.29,1,3,3,0,0,1-1.42.39,2.12,2.12,0,0,1-1.15-.3,2.44,2.44,0,0,1-.75-.71h0a7.17,7.17,0,0,1-.89,1.94,10,10,0,0,1-1.55,1.9,9.28,9.28,0,0,1-2,1.44,4.69,4.69,0,0,1-2.21.57,2,2,0,0,1-1.56-.6,2.34,2.34,0,0,1-.53-1.6A3.48,3.48,0,0,1,57.12,14a7,7,0,0,1,.73-1.4A9.94,9.94,0,0,1,59,11.2,9.35,9.35,0,0,1,60.33,10a6.75,6.75,0,0,1,1.58-.86,4.43,4.43,0,0,1,1.66-.33,2,2,0,0,1,1.53.58,2.31,2.31,0,0,1,.59,1.49,1.61,1.61,0,0,0,.51,1,1.76,1.76,0,0,0,1.29.47A2.68,2.68,0,0,0,68.84,12,5.24,5.24,0,0,0,70,11ZM58.15,15.79a1.77,1.77,0,0,0,.24,1,.81.81,0,0,0,.72.36,2.72,2.72,0,0,0,1.29-.35,6,6,0,0,0,1.22-.91,8.63,8.63,0,0,0,1.09-1.29,10.22,10.22,0,0,0,.88-1.49,10,10,0,0,0,.58-1.5,4.5,4.5,0,0,0,.22-1.33,1.4,1.4,0,0,0-.25-.85.91.91,0,0,0-.78-.35,2.17,2.17,0,0,0-1.08.33,6.87,6.87,0,0,0-1.17.85A8.77,8.77,0,0,0,60,11.47a14.3,14.3,0,0,0-1,1.44,8.08,8.08,0,0,0-.66,1.49A4.57,4.57,0,0,0,58.15,15.79Z"/><path class="cls-1" d="M86.49,11.11c-.56.61-1.12,1.17-1.68,1.69a16.82,16.82,0,0,1-1.75,1.43,16,16,0,0,1-4.46,2.14,5.4,5.4,0,0,1-1.59.8,5,5,0,0,1-1.51.25,1.89,1.89,0,0,1-1.45-.56,2.23,2.23,0,0,1-.54-1.6,3.58,3.58,0,0,1,.29-1.36,7,7,0,0,1,.71-1.32,9.59,9.59,0,0,1,.87-1.13c.31-.34.57-.61.79-.82A7.34,7.34,0,0,1,78.3,9.22,4.7,4.7,0,0,1,80,8.78a2.37,2.37,0,0,1,.43.05,1.12,1.12,0,0,1,.46.21,1.5,1.5,0,0,1,.39.43,1.57,1.57,0,0,1,.23.71h.07c.43-1.06.83-2.16,1.18-3.32a12.11,12.11,0,0,0,.53-3.55,2.6,2.6,0,0,0-.56-1.92A1.7,1.7,0,0,0,81.55,1a2.43,2.43,0,0,0-.79.15,4,4,0,0,0-.84.38l-.89.6-.12-.21a8.14,8.14,0,0,1,1.22-.82A6,6,0,0,1,81.18.67,4.45,4.45,0,0,1,82.32.53,2.06,2.06,0,0,1,83.71,1a3.17,3.17,0,0,1,.82,2.52,8.88,8.88,0,0,1-.09,1.22A12.16,12.16,0,0,1,84.21,6q-.13.68-.33,1.32c-.13.44-.26.84-.39,1.23s-.31.84-.5,1.32-.4,1-.62,1.45-.46,1-.7,1.42A10.17,10.17,0,0,1,81,13.94a8.76,8.76,0,0,1-.8,1,11.84,11.84,0,0,1-1.07,1,13.54,13.54,0,0,0,2-.85A18.34,18.34,0,0,0,83,14c.57-.42,1.14-.88,1.69-1.37S85.77,11.6,86.33,11Zm-6.57-2a2.62,2.62,0,0,0-1.41.58,8.18,8.18,0,0,0-1.57,1.46,11.18,11.18,0,0,0-1.52,2.34,5.32,5.32,0,0,0-.61,2.32,1.6,1.6,0,0,0,.26,1.05.88.88,0,0,0,.7.32,3,3,0,0,0,1.51-.48,6.49,6.49,0,0,0,1.65-1.52,10.68,10.68,0,0,0,.94-1.36,11.58,11.58,0,0,0,.66-1.32,7.51,7.51,0,0,0,.38-1.17,3.89,3.89,0,0,0,.14-.9C81.05,9.51,80.67,9.07,79.92,9.07Z"/><path class="cls-1" d="M93.31,9c-1.49,2.06-2.64,3.68-3.47,4.86a5.52,5.52,0,0,0-1.23,2.58c0,.48.21.72.64.72a3.23,3.23,0,0,0,1.49-.59,13.69,13.69,0,0,0,2.52-2.25c.42-.43.85-.92,1.31-1.48s1-1.2,1.48-1.92l.24.07c-.55.77-1.06,1.44-1.54,2s-.93,1.1-1.34,1.56a13.12,13.12,0,0,1-2.54,2.25,3.64,3.64,0,0,1-1.83.63A1.44,1.44,0,0,1,88,17.05a1.34,1.34,0,0,1-.37-1,2.4,2.4,0,0,1,.14-.75,4.93,4.93,0,0,1,.36-.77l0,0a13.19,13.19,0,0,1-1,1.19c-.33.33-.64.6-.92.83a4.78,4.78,0,0,1-1.1.68,2.57,2.57,0,0,1-1,.2,1.79,1.79,0,0,1-.73-.16,1.4,1.4,0,0,1-.57-.46,2.22,2.22,0,0,1-.38-1.32,1.85,1.85,0,0,1,.35-1.07,1,1,0,0,1,.87-.49.83.83,0,0,1,.63.22.72.72,0,0,1,.21.52.88.88,0,0,1-.18.57.65.65,0,0,1-.54.23.87.87,0,0,1-.32-.06.5.5,0,0,1-.25-.28.73.73,0,0,0-.22.35,1.18,1.18,0,0,0-.07.37,1.4,1.4,0,0,0,.36.94,1.11,1.11,0,0,0,.89.36,2.81,2.81,0,0,0,.83-.15A3.69,3.69,0,0,0,86,16.3a12.58,12.58,0,0,0,1.64-1.68c.58-.71,1.28-1.6,2.08-2.67.32-.43.63-.89.94-1.38l1-1.52Z"/><path class="cls-1" d="M103,9c-.47.65-.88,1.24-1.25,1.76s-.71,1-1,1.5-.61.91-.88,1.33l-.68,1.12a5.8,5.8,0,0,0-.59,1.2,2.33,2.33,0,0,0-.13.62.68.68,0,0,0,.15.45.54.54,0,0,0,.42.18,3,3,0,0,0,1.49-.59,13.32,13.32,0,0,0,2.19-1.89A21.2,21.2,0,0,0,104.16,13c.49-.61,1-1.33,1.56-2.15l.21.08c-.52.78-1.05,1.49-1.57,2.13s-1,1.24-1.57,1.8a12.22,12.22,0,0,1-2.29,2,3.42,3.42,0,0,1-1.69.61,1.51,1.51,0,0,1-1.06-.33,1.17,1.17,0,0,1-.36-.89,2.58,2.58,0,0,1,.29-1.15c.19-.39.42-.81.69-1.27l.32-.56h-.08a1.75,1.75,0,0,1-.34.26,3.89,3.89,0,0,0-.42.25c-.47.67-.88,1.22-1.24,1.65a6.64,6.64,0,0,1-1.07,1.06,3.86,3.86,0,0,1-2.37,1,1.81,1.81,0,0,1-1.38-.56,2.06,2.06,0,0,1-.54-1.48,1.59,1.59,0,0,1,.34-1,1.11,1.11,0,0,1,.88-.42.81.81,0,0,1,.62.22.71.71,0,0,1,.22.55.84.84,0,0,1-.18.54.65.65,0,0,1-.54.23.74.74,0,0,1-.34-.08.56.56,0,0,1-.24-.26.61.61,0,0,0-.22.29.89.89,0,0,0-.06.31,1.42,1.42,0,0,0,1.46,1.42,2.75,2.75,0,0,0,1.12-.24,4.29,4.29,0,0,0,1-.65c.2-.18.41-.38.62-.6l.59-.66c.18-.22.35-.42.49-.61s.26-.35.34-.46a2.47,2.47,0,0,1-.53.19,3.79,3.79,0,0,1-.7.05,1.47,1.47,0,0,1-1-.35,1.27,1.27,0,0,1-.42-1,2.91,2.91,0,0,1,.36-1.29,5.43,5.43,0,0,1,1.06-1.38,5.88,5.88,0,0,1,1.44-1,3.1,3.1,0,0,1,1.22-.35,1.52,1.52,0,0,1,1.14.46,2.1,2.1,0,0,1,.57,1.15h0L101.4,9Zm-3.15,1.27a1.31,1.31,0,0,0-.25-.89.85.85,0,0,0-.66-.29,2.13,2.13,0,0,0-.91.29,3.25,3.25,0,0,0-1.06.94,4.23,4.23,0,0,0-.67,1.18,3,3,0,0,0-.19.93c0,.81.32,1.22,1,1.22a1.87,1.87,0,0,0,.94-.3,3.59,3.59,0,0,0,.91-.8,5,5,0,0,0,.67-1.12A2.85,2.85,0,0,0,99.81,10.25Z"/><path class="cls-1" d="M119.93,6.46c0,.33.08.62.09.85s0,.47,0,.73a6.8,6.8,0,0,1-.3,2,5.55,5.55,0,0,1-.86,1.7A4,4,0,0,1,117.54,13a4,4,0,0,1-3.39.11A3.57,3.57,0,0,1,113,12.2a3.72,3.72,0,0,1-.71-1.24,4.71,4.71,0,0,1-.24-1.5,6.21,6.21,0,0,1,.41-2.16,9.08,9.08,0,0,1,1.15-2.14,10.66,10.66,0,0,1,1.82-1.94,12.38,12.38,0,0,1,2.4-1.6A13,13,0,0,1,120.71.54,13.31,13.31,0,0,1,124,.14a11.45,11.45,0,0,1,2.57.27,7.53,7.53,0,0,1,2,.74,10.27,10.27,0,0,1,1.76-.78A10.58,10.58,0,0,1,131.93,0V.29a9,9,0,0,0-1.49.35,5.84,5.84,0,0,0-1.49.73,4.75,4.75,0,0,1,1.18,1.31,3.25,3.25,0,0,1,.4,1.69A3.26,3.26,0,0,1,130.12,6a4.38,4.38,0,0,1-1.05,1.29,6,6,0,0,1-1.47.9,6.78,6.78,0,0,1-1.63.5v0a4.47,4.47,0,0,1,1.29.23,3.12,3.12,0,0,1,1,.57,2.55,2.55,0,0,1,.7.94,3.39,3.39,0,0,1,.25,1.33,4.63,4.63,0,0,1-.55,2.2,6.56,6.56,0,0,1-1.4,1.77A6.46,6.46,0,0,1,125.42,17a5.16,5.16,0,0,1-2,.43,3.72,3.72,0,0,1-2.2-.58,1.8,1.8,0,0,1-.83-1.5,1.55,1.55,0,0,1,.38-1,1.28,1.28,0,0,1,1-.43,1,1,0,0,1,.68.29.73.73,0,0,0-.59.47,2.55,2.55,0,0,0-.17,1,1.37,1.37,0,0,0,.48,1.08,1.76,1.76,0,0,0,1.22.44,3.86,3.86,0,0,0,1.93-.47,4.12,4.12,0,0,0,1.38-1.24,5.34,5.34,0,0,0,.83-1.75,7.24,7.24,0,0,0,.28-2,2.73,2.73,0,0,0-.27-1.28,2.14,2.14,0,0,0-.72-.83,2.79,2.79,0,0,0-1.06-.43A6.86,6.86,0,0,0,124.44,9V8.71a5.06,5.06,0,0,0,2-.36,4.14,4.14,0,0,0,1.5-1,4.67,4.67,0,0,0,1-1.53,5.24,5.24,0,0,0,.34-1.92A2.88,2.88,0,0,0,129,2.81a3.28,3.28,0,0,0-.6-.94,12.29,12.29,0,0,0-2.17,2.57c-.68,1-1.36,2.14-2,3.31s-1.38,2.34-2.09,3.51a22.56,22.56,0,0,1-2.31,3.16,11.21,11.21,0,0,1-2.7,2.31,6.16,6.16,0,0,1-3.26.89,3.29,3.29,0,0,1-2-.53,1.55,1.55,0,0,1-.72-1.27,1,1,0,0,1,.28-.76.94.94,0,0,1,.68-.28.73.73,0,0,1,.61.26.94.94,0,0,1,.21.63.79.79,0,0,1-.23.57.76.76,0,0,1-.56.22.7.7,0,0,0,.24.41,1.51,1.51,0,0,0,.44.28,1.91,1.91,0,0,0,.52.14,2.57,2.57,0,0,0,.45,0,4.56,4.56,0,0,0,2.11-.46,6.1,6.1,0,0,0,1.72-1.31,13.36,13.36,0,0,0,1.58-2.06c.52-.81,1.09-1.72,1.7-2.72s1.23-2,1.78-2.94,1.11-1.78,1.67-2.56a21.26,21.26,0,0,1,1.74-2.14,9.87,9.87,0,0,1,2-1.63,4.29,4.29,0,0,0-1.87-.85,12,12,0,0,0-6.55.53,12.07,12.07,0,0,0-3.48,2A9.94,9.94,0,0,0,113.79,6a6.84,6.84,0,0,0-.87,3.3,5.16,5.16,0,0,0,.17,1.33,4,4,0,0,0,.51,1.23,3.11,3.11,0,0,0,.88.89,2.23,2.23,0,0,0,1.25.34,3.46,3.46,0,0,0,1.63-.38,3.92,3.92,0,0,0,1.27-1.06,5,5,0,0,0,.83-1.62,6.73,6.73,0,0,0,.3-2c0-.25,0-.51,0-.75s0-.5-.07-.76Z"/><path class="cls-1" d="M139.41,9H141c-.59.83-1.16,1.64-1.7,2.42s-1,1.51-1.45,2.17a19.43,19.43,0,0,0-1,1.75,2.87,2.87,0,0,0-.39,1.19.57.57,0,0,0,.65.63,2.61,2.61,0,0,0,1.29-.5A11.16,11.16,0,0,0,140,15.29a23.57,23.57,0,0,0,1.87-2,26.83,26.83,0,0,0,1.82-2.45l.15,0q-.65,1-1.53,2.13a23.62,23.62,0,0,1-1.83,2.12,12.71,12.71,0,0,1-1.92,1.64,3.23,3.23,0,0,1-1.8.66,1.32,1.32,0,0,1-1-.34,1.18,1.18,0,0,1-.33-.83,2.08,2.08,0,0,1,.11-.66c.07-.22.15-.44.23-.66l0,0q-.31.35-.78.78a8.11,8.11,0,0,1-1,.83,7,7,0,0,1-1.11.65,2.6,2.6,0,0,1-1.11.26,1.36,1.36,0,0,1-1.24-.55,2.23,2.23,0,0,1-.36-1.25,4.68,4.68,0,0,1,.62-2.17,10.79,10.79,0,0,1,1.58-2.23,9.72,9.72,0,0,1,2.09-1.74,4.15,4.15,0,0,1,2.14-.7,2.38,2.38,0,0,1,.84.14,1.51,1.51,0,0,1,.6.36,1.67,1.67,0,0,1,.37.51,2.49,2.49,0,0,1,.2.6h.05Zm-7.84,6.72a1.41,1.41,0,0,0,.22.85.77.77,0,0,0,.64.3,2.1,2.1,0,0,0,1-.3,6.78,6.78,0,0,0,1.15-.81,10.74,10.74,0,0,0,1.19-1.16,10,10,0,0,0,1-1.4,8.24,8.24,0,0,0,.75-1.52,4.21,4.21,0,0,0,.29-1.46,1,1,0,0,0-1.08-1.13,2.87,2.87,0,0,0-1.61.63,8.3,8.3,0,0,0-1.68,1.59,10,10,0,0,0-1.33,2.15A5.41,5.41,0,0,0,131.57,15.7Z"/><path class="cls-1" d="M151.7,11.21a14.85,14.85,0,0,1-1.45,1.91,17.62,17.62,0,0,1-2,1.9,13.66,13.66,0,0,1-2.59,1.74,5.56,5.56,0,0,1-2.54.66,2.36,2.36,0,0,1-1.49-.46,1.66,1.66,0,0,1-.6-1.38,4.88,4.88,0,0,1,.66-2.36A9.69,9.69,0,0,1,143.38,11a8.87,8.87,0,0,1,2.19-1.62,4.8,4.8,0,0,1,2.24-.63A2.74,2.74,0,0,1,149,9a.89.89,0,0,1,.51.87.71.71,0,0,1-.16.48,1.15,1.15,0,0,1-.38.31,2,2,0,0,1-.5.18L148,11a4.75,4.75,0,0,0,.17-.49,1.82,1.82,0,0,0,.08-.52c0-.59-.29-.89-.84-.89a2.74,2.74,0,0,0-1.48.61,8.66,8.66,0,0,0-1.61,1.55A10.11,10.11,0,0,0,143,13.3a5.16,5.16,0,0,0-.53,2.18,2,2,0,0,0,.3,1.1,1,1,0,0,0,.92.46,4.39,4.39,0,0,0,1.94-.55,13.38,13.38,0,0,0,2.12-1.37,16.94,16.94,0,0,0,2.08-1.93,17.23,17.23,0,0,0,1.66-2.13Z"/></g></g></svg>
