<svg xmlns="http://www.w3.org/2000/svg" width="38" height="28.031" viewBox="0 0 38 28.031">
  <metadata><?xpacket begin="﻿" id="W5M0MpCehiHzreSzNTczkc9d"?>
<x:xmpmeta xmlns:x="adobe:ns:meta/" x:xmptk="Adobe XMP Core 5.6-c140 79.160451, 2017/05/06-01:08:21        ">
   <rdf:RDF xmlns:rdf="http://www.w3.org/1999/02/22-rdf-syntax-ns#">
      <rdf:Description rdf:about=""/>
   </rdf:RDF>
</x:xmpmeta>
                                                                                                    
                                                                                                    
                                                                                                    
                                                                                                    
                                                                                                    
                                                                                                    
                                                                                                    
                                                                                                    
                                                                                                    
                                                                                                    
                                                                                                    
                                                                                                    
                                                                                                    
                                                                                                    
                                                                                                    
                                                                                                    
                                                                                                    
                                                                                                    
                                                                                                    
                                                                                                    
                           
<?xpacket end="w"?></metadata>
<defs>
    <style>
      .cls-1 {
        fill: #810101;
        fill-rule: evenodd;
      }
    </style>
  </defs>
  <path id="Forma_1" data-name="Forma 1" class="cls-1" d="M1480,726.472V738.2s-2.46.494-2.97,0.559-2.09.588-3.24-.54c-1.78-1.735-8.09-8.13-8.09-8.13a2.355,2.355,0,0,0-2.83-.148c-1.6.861-3.98,2.124-4.97,2.615a2.289,2.289,0,0,1-3.44-1.827,2.389,2.389,0,0,1,1.42-2.079c2.27-1.4,7.04-4.129,9.03-5.205,1.2-.655,2.07-0.711,3.73.713,2.04,1.751,3.86,3.347,3.86,3.347a1.861,1.861,0,0,0,1.54.3C1476.36,727.3,1480,726.472,1480,726.472Zm-25.11,19.867a2.179,2.179,0,0,0-.38-2.309,2.1,2.1,0,0,0-2.03-.523,2.131,2.131,0,0,0-.44-2.086,2.074,2.074,0,0,0-2.02-.522,2.148,2.148,0,0,0-.44-2.083,2.264,2.264,0,0,0-3.21.085c-0.94.917-1.54,2.578-.7,3.555s1.8,0.381,2.53.211c-0.21.74-.82,1.428-0.07,2.4s1.8,0.381,2.53.213c-0.2.737-.79,1.494-0.06,2.392s1.92,0.42,2.71.171c-0.31.8-.96,1.656-0.12,2.619s2.76,0.521,3.7-.4a2.33,2.33,0,0,0,.21-3.239A2.115,2.115,0,0,0,1454.89,746.339Zm17.2-6.1c-6.81-6.947-3.61-3.678-7.27-7.424a2.37,2.37,0,0,0-2.56-.469c-1.02.456-2.33,1.076-3.32,1.55a5.438,5.438,0,0,1-2.23.757,3.844,3.844,0,0,1-3.8-3.87,3.884,3.884,0,0,1,1.79-3.278c1.52-1.068,5-2.958,5-2.958a4.331,4.331,0,0,0-3.38-1.371c-2.33,0-7.19,3.244-7.19,3.244a3.73,3.73,0,0,1-3.34.089l-3.79-1.344v13.417s1.08,0.319,2.06.724a4.438,4.438,0,0,1,1.06-1.714,4.133,4.133,0,0,1,5.75-.042,3.767,3.767,0,0,1,.91,1.643,10.521,10.521,0,0,0,4.02,3.576,3.768,3.768,0,0,1,.96,1.8,3.7,3.7,0,0,1,1.62.992,3.931,3.931,0,0,1,1.01,3.383v0c0.02,0.02.55,0.624,0.88,0.965a1.65,1.65,0,0,0,2.36,0,1.731,1.731,0,0,0,0-2.408c-0.02-.024-2.34-2.5-2.15-2.69s3.14,2.945,3.19,3a1.652,1.652,0,0,0,2.36,0,1.729,1.729,0,0,0,0-2.407c-0.03-.031-0.16-0.161-0.21-0.213,0,0-2.93-2.661-2.71-2.889s3.87,3.235,3.88,3.235a1.64,1.64,0,0,0,2.29-.046,1.721,1.721,0,0,0,.08-2.278c-0.01-.035-2.77-2.979-2.56-3.2s2.95,2.645,2.96,2.651a1.65,1.65,0,0,0,2.36,0,1.732,1.732,0,0,0,0-2.409Z" transform="translate(-1442 -722.969)"/>
</svg>
