<svg xmlns="http://www.w3.org/2000/svg" width="58" height="48" viewBox="0 0 58 48">
  <metadata><?xpacket begin="﻿" id="W5M0MpCehiHzreSzNTczkc9d"?>
<x:xmpmeta xmlns:x="adobe:ns:meta/" x:xmptk="Adobe XMP Core 5.6-c140 79.160451, 2017/05/06-01:08:21        ">
   <rdf:RDF xmlns:rdf="http://www.w3.org/1999/02/22-rdf-syntax-ns#">
      <rdf:Description rdf:about=""/>
   </rdf:RDF>
</x:xmpmeta>
                                                                                                    
                                                                                                    
                                                                                                    
                                                                                                    
                                                                                                    
                                                                                                    
                                                                                                    
                                                                                                    
                                                                                                    
                                                                                                    
                                                                                                    
                                                                                                    
                                                                                                    
                                                                                                    
                                                                                                    
                                                                                                    
                                                                                                    
                                                                                                    
                                                                                                    
                                                                                                    
                           
<?xpacket end="w"?></metadata>
<defs>
    <style>
      .cls-1 {
        fill: #810101;
        fill-rule: evenodd;
      }
    </style>
  </defs>
  <path id="СЕРДЦА" class="cls-1" d="M214.831,219.739A16.921,16.921,0,0,0,211.3,211.4a13.874,13.874,0,0,0-6.4-4.554,16.869,16.869,0,0,0-5.15-.849,13.734,13.734,0,0,0-10.656,5.069,14,14,0,0,0-10.575-5.014,15.794,15.794,0,0,0-4.813.793,13.878,13.878,0,0,0-6.4,4.554,16.908,16.908,0,0,0-3.534,8.337,18.532,18.532,0,0,0-.161,1.949,9.758,9.758,0,0,0-4.124,3.062,11.487,11.487,0,0,0-2.387,5.713A15.836,15.836,0,0,0,159.883,241c2.508,3.9,6.614,7.7,12.206,11.283a3.121,3.121,0,0,0,3.367,0,57.415,57.415,0,0,0,4.863-3.468q2.751,2.157,5.935,4.267a5.519,5.519,0,0,0,6.1,0c8.538-5.656,14.77-11.6,18.522-17.655C214.144,230.143,215.513,224.718,214.831,219.739Zm-49.91,4.818a7.615,7.615,0,0,1,2.333-.389c3.011,0,5.082,2.106,6.519,4.486,1.172-2.607,3.329-4.52,6.316-4.52a8.307,8.307,0,0,1,2.537.423c5.12,1.646,10.482,12.684-8.853,25.075C154.436,237.242,159.8,226.2,164.921,224.557Z" transform="translate(-157 -206)"/>
</svg>
