<svg xmlns="http://www.w3.org/2000/svg" width="31" height="30" viewBox="0 0 31 30">
  <metadata><?xpacket begin="﻿" id="W5M0MpCehiHzreSzNTczkc9d"?>
<x:xmpmeta xmlns:x="adobe:ns:meta/" x:xmptk="Adobe XMP Core 5.6-c140 79.160451, 2017/05/06-01:08:21        ">
   <rdf:RDF xmlns:rdf="http://www.w3.org/1999/02/22-rdf-syntax-ns#">
      <rdf:Description rdf:about=""/>
   </rdf:RDF>
</x:xmpmeta>
                                                                                                    
                                                                                                    
                                                                                                    
                                                                                                    
                                                                                                    
                                                                                                    
                                                                                                    
                                                                                                    
                                                                                                    
                                                                                                    
                                                                                                    
                                                                                                    
                                                                                                    
                                                                                                    
                                                                                                    
                                                                                                    
                                                                                                    
                                                                                                    
                                                                                                    
                                                                                                    
                           
<?xpacket end="w"?></metadata>
<defs>
    <style>
      .cls-1 {
        fill: #d0d0d0;
        fill-rule: evenodd;
      }
    </style>
  </defs>
  <path id="Forma_1" data-name="Forma 1" class="cls-1" d="M1689.81,1236.88h-10.63a3.027,3.027,0,0,0-3.07,2.98v10.29a3.025,3.025,0,0,0,3.07,2.97h10.63a3.027,3.027,0,0,0,3.08-2.97v-10.29A3.029,3.029,0,0,0,1689.81,1236.88Zm-5.31,13.47a5.353,5.353,0,1,1,5.52-5.35A5.448,5.448,0,0,1,1684.5,1250.35Zm5.7-9.59a1.266,1.266,0,1,1,1.31-1.27A1.294,1.294,0,0,1,1690.2,1240.76Zm-5.7,1.15a3.092,3.092,0,1,0,3.19,3.09A3.147,3.147,0,0,0,1684.5,1241.91ZM1670.45,1230a1.433,1.433,0,0,0-1.45,1.49v26.94a1.543,1.543,0,0,0,1.62,1.57h27.59a1.6,1.6,0,0,0,1.78-1.73c0.01-3.73,0-22.89,0-26.78a1.456,1.456,0,0,0-1.7-1.49h-27.84Zm24.78,20.15a5.335,5.335,0,0,1-5.42,5.23h-10.63a5.333,5.333,0,0,1-5.41-5.23v-10.29a5.335,5.335,0,0,1,5.41-5.24h10.63a5.337,5.337,0,0,1,5.42,5.24v10.29Z" transform="translate(-1669 -1230)"/>
</svg>
