<?xml version="1.0" encoding="utf-8"?>
<!-- Generator: Adobe Illustrator 22.1.0, SVG Export Plug-In . SVG Version: 6.00 Build 0)  -->
<svg version="1.1" id="Layer_1" xmlns="http://www.w3.org/2000/svg" xmlns:xlink="http://www.w3.org/1999/xlink" x="0px" y="0px"
	 viewBox="0 0 2000 2000" style="enable-background:new 0 0 2000 2000;" xml:space="preserve">
<style type="text/css">
	.st0{display:none;}
	.st1{display:inline;}
	
		.st2{display:inline;clip-path:url(#SVGID_2_);fill:#171717;stroke:#010101;stroke-width:2.8056;stroke-linecap:round;stroke-linejoin:round;stroke-miterlimit:10;}
	.st3{fill:#FDFEFF;stroke:#010101;stroke-width:2.8056;stroke-linecap:round;stroke-linejoin:round;stroke-miterlimit:10;}
	.st4{fill:#FDFEFF;}
	.st5{clip-path:url(#SVGID_4_);}
	.st6{clip-path:url(#SVGID_6_);}
	.st7{fill:#FFFFFF;}
	.st8{fill:#EE2D24;}
	.st9{fill:#010101;}
	.st10{clip-path:url(#SVGID_8_);}
	.st11{clip-path:url(#SVGID_10_);}
	.st12{fill:#3B140F;stroke:#010101;stroke-width:2;stroke-miterlimit:10;}
	.st13{fill:#EA3C27;stroke:#0E0E0E;stroke-width:2;stroke-miterlimit:10;}
	.st14{fill:#181818;}
	.st15{fill:#181818;stroke:#181818;stroke-width:2.8056;stroke-linecap:round;stroke-linejoin:round;stroke-miterlimit:10;}
	.st16{fill:#282828;stroke:#010101;stroke-width:2.8251;stroke-miterlimit:10;}
	.st17{fill:#181818;stroke:#030303;stroke-width:2.8056;stroke-miterlimit:10;}
	.st18{fill:none;stroke:#E5E5E5;stroke-width:11;stroke-miterlimit:10;}
	.st19{fill:#E5E5E5;}
	.st20{fill:#E5E5E5;stroke:#6D6E6E;stroke-width:2.6201;stroke-linejoin:round;stroke-miterlimit:10;}
	.st21{fill:#E5E5E5;stroke:#6D6E6E;stroke-width:2.6201;stroke-linecap:round;stroke-miterlimit:10;}
	.st22{fill:#171717;}
	.st23{fill:none;stroke:#181818;stroke-width:2.5417;stroke-miterlimit:10;}
	.st24{fill:#171717;stroke:#6D6E6E;stroke-width:2.4941;stroke-linejoin:round;stroke-miterlimit:10;}
	.st25{display:none;fill:#2D2E2D;}
	.st26{display:none;fill:#E5E5E5;stroke:#6D6E6E;stroke-width:2.4688;stroke-miterlimit:10;}
	.st27{fill:#FFFFFF;stroke:#181818;stroke-width:2.6188;stroke-linejoin:round;stroke-miterlimit:10;}
	.st28{fill:#EA3C27;}
	.st29{fill:none;stroke:#181818;stroke-width:2.6188;stroke-linejoin:round;stroke-miterlimit:10;}
	.st30{fill:none;}
</style>
<g>
	<g id="костюм_1_">
		<g id="костюм">
			<g class="st0">
				<defs>
					<circle id="SVGID_1_" cx="1007" cy="1024.5" r="857"/>
				</defs>
				<clipPath id="SVGID_2_" class="st1">
					<use xlink:href="#SVGID_1_"  style="overflow:visible;"/>
				</clipPath>
				<path class="st2" d="M637.8,233.4c-103.7,40-242.3,174.3-242.3,174.3c-188.7,191.4-288.8,473.2-244.2,744.2l0.2,1.1
					c37.7,226.5,176.4,429.2,311.6,538.1c166.8,134.3,355.5,194,546,194c287.1,0,501.7-112.8,668-308.1
					c101-118.5,158-240.5,192.2-411.7l5.3-30.7c35.1-270.4-78.7-561.2-245.9-726.2c-54.7-54-128-137-253.5-174
					c-4.9-1.5-9.3-4.4-14.1-2.7l-353.9,122.8c-0.1,0-0.3,0-0.4,0L651.6,230.6C646.8,229.1,642.5,231.6,637.8,233.4z"/>
			</g>
			<g id="white">
				<path class="st3" d="M993.5,313.2l-316.1-186c-0.3-0.2-0.8,0-0.9,0.3l-41.4,123.7c-0.1,0.2,0,0.4,0.1,0.6l227.1,254.9
					c0.3,0.3,0.7,0.3,0.9-0.1l130.4-192.5C993.9,313.8,993.8,313.4,993.5,313.2z"/>
				<path class="st3" d="M1019.9,313.2l316.2-186.4c0.3-0.2,0.8,0,0.9,0.3l40.7,123.3c0.1,0.2,0,0.4-0.1,0.6l-226.5,255.3
					c-0.3,0.3-0.7,0.3-0.9-0.1l-130.4-192.2C1019.5,313.8,1019.6,313.4,1019.9,313.2z"/>
				<path class="st4" d="M1006.5,396.5L875.8,585.8c-0.2,0.3-0.7,0.3-0.9,0.1L693.7,392.6c-0.5-0.5-1.3,0.1-0.9,0.7l315.8,449.4
					c0.2,0.3,0.7,0.3,1,0L1328.4,391c0.4-0.6-0.4-1.3-0.9-0.7l-180.9,193.5c-0.3,0.3-0.7,0.2-0.9-0.1l-138.1-187.2
					C1007.2,396.2,1006.8,396.2,1006.5,396.5z"/>
			</g>
			<g id="узор">
				<g>
					<defs>
						<path id="SVGID_3_" d="M633.1,252c0.3-0.5,0.9-0.4,1.1,0.1l376.9,1134.1c0,0,0,0,0,0L472.6,619.6
							c-0.1-0.2,119.1-97.8,119.1-97.8c0.4-0.4,0.1-1-0.4-1l-167.1,43.5c-0.5,0-0.7-0.5-0.5-0.9L633.1,252z"/>
					</defs>
					<clipPath id="SVGID_4_">
						<use xlink:href="#SVGID_3_"  style="overflow:visible;"/>
					</clipPath>
					<g class="st5">
						<g>
							<defs>
								<rect id="SVGID_5_" x="120.9" y="258.1" width="1141.2" height="1141.2"/>
							</defs>
							<clipPath id="SVGID_6_">
								<use xlink:href="#SVGID_5_"  style="overflow:visible;"/>
							</clipPath>
							<g class="st6">
								<rect x="120.9" y="258.1" class="st7" width="1141.2" height="1141.2"/>
								<g>
									<g>
										<g>
											
												<rect x="152.8" y="121.5" transform="matrix(0.7071 -0.7071 0.7071 0.7071 -97.7338 181.5185)" class="st8" width="34.9" height="174.5"/>
											
												<rect x="54.1" y="220.2" transform="matrix(0.7071 -0.7071 0.7071 0.7071 -196.4449 140.63)" class="st9" width="34.9" height="174.5"/>
											
												<rect x="83" y="290" transform="matrix(0.7071 -0.7071 0.7071 0.7071 -167.5397 210.4491)" class="st9" width="174.5" height="34.9"/>
											
												<rect x="-15.7" y="191.3" transform="matrix(0.7071 -0.7071 0.7071 0.7071 -126.6502 111.7304)" class="st8" width="174.5" height="34.9"/>
										</g>
									</g>
									<g>
										<g>
											
												<rect x="438.1" y="121.5" transform="matrix(0.7071 -0.7071 0.7071 0.7071 -14.1758 383.2537)" class="st8" width="34.9" height="174.5"/>
											
												<rect x="339.4" y="220.2" transform="matrix(0.7071 -0.7071 0.7071 0.7071 -112.8869 342.3652)" class="st9" width="34.9" height="174.5"/>
											
												<rect x="368.3" y="290" transform="matrix(0.7071 -0.7071 0.7071 0.7071 -83.9701 412.196)" class="st9" width="174.5" height="34.9"/>
											
												<rect x="269.6" y="191.3" transform="matrix(0.7071 -0.7071 0.7071 0.7071 -43.0805 313.4772)" class="st8" width="174.5" height="34.9"/>
										</g>
									</g>
									<g>
										<g>
											
												<rect x="723.4" y="121.5" transform="matrix(0.7071 -0.7071 0.7071 0.7071 69.3823 584.989)" class="st8" width="34.9" height="174.5"/>
											
												<rect x="624.7" y="220.2" transform="matrix(0.7071 -0.7071 0.7071 0.7071 -29.3288 544.1004)" class="st9" width="34.9" height="174.5"/>
											
												<rect x="653.6" y="290" transform="matrix(0.7071 -0.7071 0.7071 0.7071 -0.4003 613.9428)" class="st9" width="174.5" height="34.9"/>
											
												<rect x="554.9" y="191.3" transform="matrix(0.7071 -0.7071 0.7071 0.7071 40.4892 515.2241)" class="st8" width="174.5" height="34.9"/>
										</g>
									</g>
									<g>
										<g>
											
												<rect x="1008.7" y="121.5" transform="matrix(0.7071 -0.7071 0.7071 0.7071 152.9403 786.7241)" class="st8" width="34.9" height="174.5"/>
											
												<rect x="910" y="220.2" transform="matrix(0.7071 -0.7071 0.7071 0.7071 54.2292 745.8356)" class="st9" width="34.9" height="174.5"/>
											
												<rect x="938.9" y="290" transform="matrix(0.7071 -0.7071 0.7071 0.7071 83.1694 815.6897)" class="st9" width="174.5" height="34.9"/>
											
												<rect x="840.2" y="191.3" transform="matrix(0.7071 -0.7071 0.7071 0.7071 124.0589 716.971)" class="st8" width="174.5" height="34.9"/>
										</g>
									</g>
									<g>
										<g>
											
												<rect x="1294" y="121.5" transform="matrix(0.7071 -0.7071 0.7071 0.7071 236.4984 988.4594)" class="st8" width="34.9" height="174.5"/>
											
												<rect x="1195.3" y="220.2" transform="matrix(0.7071 -0.7071 0.7071 0.7071 137.7873 947.5708)" class="st9" width="34.9" height="174.5"/>
											
												<rect x="1224.2" y="290" transform="matrix(0.7071 -0.7071 0.7071 0.7071 166.7391 1017.4366)" class="st9" width="174.5" height="34.9"/>
											
												<rect x="1125.5" y="191.3" transform="matrix(0.7071 -0.7071 0.7071 0.7071 207.6286 918.7178)" class="st8" width="174.5" height="34.9"/>
										</g>
									</g>
									<g>
										<g>
											
												<rect x="152.8" y="1262.7" transform="matrix(0.7071 -0.7071 0.7071 0.7071 -904.6746 515.7507)" class="st8" width="34.9" height="174.5"/>
											
												<rect x="54.1" y="1361.4" transform="matrix(0.7071 -0.7071 0.7071 0.7071 -1003.4136 474.8931)" class="st9" width="34.9" height="174.5"/>
											
												<rect x="83" y="1431.2" transform="matrix(0.7071 -0.7071 0.7071 0.7071 -974.5269 544.7278)" class="st9" width="174.5" height="34.9"/>
											
												<rect x="-15.7" y="1332.5" transform="matrix(0.7071 -0.7071 0.7071 0.7071 -933.6376 446.0092)" class="st8" width="174.5" height="34.9"/>
										</g>
									</g>
									<g>
										<g>
											
												<rect x="438.1" y="1262.7" transform="matrix(0.7071 -0.7071 0.7071 0.7071 -821.1166 717.4859)" class="st8" width="34.9" height="174.5"/>
											
												<rect x="339.4" y="1361.4" transform="matrix(0.7071 -0.7071 0.7071 0.7071 -919.8497 676.6342)" class="st9" width="34.9" height="174.5"/>
											
												<rect x="368.3" y="1431.2" transform="matrix(0.7071 -0.7071 0.7071 0.7071 -890.9572 746.4747)" class="st9" width="174.5" height="34.9"/>
											
												<rect x="269.6" y="1332.5" transform="matrix(0.7071 -0.7071 0.7071 0.7071 -850.0679 647.756)" class="st8" width="174.5" height="34.9"/>
										</g>
									</g>
									<g>
										<g>
											
												<rect x="723.4" y="1262.7" transform="matrix(0.7071 -0.7071 0.7071 0.7071 -737.5585 919.2211)" class="st8" width="34.9" height="174.5"/>
											
												<rect x="624.7" y="1361.4" transform="matrix(0.7071 -0.7071 0.7071 0.7071 -836.2858 878.3752)" class="st9" width="34.9" height="174.5"/>
											
												<rect x="653.6" y="1431.2" transform="matrix(0.7071 -0.7071 0.7071 0.7071 -807.3875 948.2216)" class="st9" width="174.5" height="34.9"/>
											
												<rect x="554.9" y="1332.5" transform="matrix(0.7071 -0.7071 0.7071 0.7071 -766.4982 849.5029)" class="st8" width="174.5" height="34.9"/>
										</g>
									</g>
									<g>
										<g>
											
												<rect x="1008.7" y="1262.7" transform="matrix(0.7071 -0.7071 0.7071 0.7071 -654.0005 1120.9563)" class="st8" width="34.9" height="174.5"/>
											
												<rect x="910" y="1361.4" transform="matrix(0.7071 -0.7071 0.7071 0.7071 -752.722 1080.1162)" class="st9" width="34.9" height="174.5"/>
											
												<rect x="938.9" y="1431.2" transform="matrix(0.7071 -0.7071 0.7071 0.7071 -723.8178 1149.9684)" class="st9" width="174.5" height="34.9"/>
											
												<rect x="840.2" y="1332.5" transform="matrix(0.7071 -0.7071 0.7071 0.7071 -682.9285 1051.2498)" class="st8" width="174.5" height="34.9"/>
										</g>
									</g>
									<g>
										<g>
											
												<rect x="1294" y="1262.7" transform="matrix(0.7071 -0.7071 0.7071 0.7071 -570.4424 1322.6915)" class="st8" width="34.9" height="174.5"/>
											
												<rect x="1195.3" y="1361.4" transform="matrix(0.7071 -0.7071 0.7071 0.7071 -669.1581 1281.8573)" class="st9" width="34.9" height="174.5"/>
											
												<rect x="1224.2" y="1431.2" transform="matrix(0.7071 -0.7071 0.7071 0.7071 -640.2481 1351.7152)" class="st9" width="174.5" height="34.9"/>
											
												<rect x="1125.5" y="1332.5" transform="matrix(0.7071 -0.7071 0.7071 0.7071 -599.3588 1252.9967)" class="st8" width="174.5" height="34.9"/>
										</g>
									</g>
									<g>
										<g>
											
												<rect x="295.5" y="264.1" transform="matrix(0.7071 -0.7071 0.7071 0.7071 -156.8224 324.1651)" class="st8" width="34.9" height="174.5"/>
											
												<rect x="196.7" y="362.9" transform="matrix(0.7071 -0.7071 0.7071 0.7071 -255.5335 283.2766)" class="st9" width="34.9" height="174.5"/>
											
												<rect x="225.7" y="432.7" transform="matrix(0.7071 -0.7071 0.7071 0.7071 -226.6283 353.1074)" class="st9" width="174.5" height="34.9"/>
											
												<rect x="126.9" y="333.9" transform="matrix(0.7071 -0.7071 0.7071 0.7071 -185.7388 254.3887)" class="st8" width="174.5" height="34.9"/>
										</g>
									</g>
									<g>
										<g>
											
												<rect x="580.8" y="264.1" transform="matrix(0.7071 -0.7071 0.7071 0.7071 -73.2644 525.9003)" class="st8" width="34.9" height="174.5"/>
											
												<rect x="482" y="362.9" transform="matrix(0.7071 -0.7071 0.7071 0.7071 -171.9754 485.0118)" class="st9" width="34.9" height="174.5"/>
											
												<rect x="511" y="432.7" transform="matrix(0.7071 -0.7071 0.7071 0.7071 -143.0586 554.8542)" class="st9" width="174.5" height="34.9"/>
											
												<rect x="412.2" y="333.9" transform="matrix(0.7071 -0.7071 0.7071 0.7071 -102.169 456.136)" class="st8" width="174.5" height="34.9"/>
										</g>
									</g>
									<g>
										<g>
											
												<rect x="866.1" y="264.1" transform="matrix(0.7071 -0.7071 0.7071 0.7071 10.2937 727.6356)" class="st8" width="34.9" height="174.5"/>
											
												<rect x="767.4" y="362.9" transform="matrix(0.7071 -0.7071 0.7071 0.7071 -88.4174 686.747)" class="st9" width="34.9" height="174.5"/>
											
												<rect x="796.3" y="432.7" transform="matrix(0.7071 -0.7071 0.7071 0.7071 -59.4889 756.6011)" class="st9" width="174.5" height="34.9"/>
											
												<rect x="697.5" y="333.9" transform="matrix(0.7071 -0.7071 0.7071 0.7071 -18.5993 657.8824)" class="st8" width="174.5" height="34.9"/>
										</g>
									</g>
									<g>
										<g>
											
												<rect x="1151.4" y="264.1" transform="matrix(0.7071 -0.7071 0.7071 0.7071 93.8517 929.3707)" class="st8" width="34.9" height="174.5"/>
											
												<rect x="1052.7" y="362.9" transform="matrix(0.7071 -0.7071 0.7071 0.7071 -4.8593 888.4822)" class="st9" width="34.9" height="174.5"/>
											
												<rect x="1081.6" y="432.7" transform="matrix(0.7071 -0.7071 0.7071 0.7071 24.0808 958.348)" class="st9" width="174.5" height="34.9"/>
											
												<rect x="982.9" y="333.9" transform="matrix(0.7071 -0.7071 0.7071 0.7071 64.9704 859.6293)" class="st8" width="174.5" height="34.9"/>
										</g>
									</g>
									<g>
										<g>
											
												<rect x="152.8" y="406.8" transform="matrix(0.7071 -0.7071 0.7071 0.7071 -299.469 265.0765)" class="st8" width="34.9" height="174.5"/>
											
												<rect x="54.1" y="505.5" transform="matrix(0.7071 -0.7071 0.7071 0.7071 -398.1834 224.1922)" class="st9" width="34.9" height="174.5"/>
											
												<rect x="83" y="575.3" transform="matrix(0.7071 -0.7071 0.7071 0.7071 -369.2867 294.0188)" class="st9" width="174.5" height="34.9"/>
											
												<rect x="-15.7" y="476.6" transform="matrix(0.7071 -0.7071 0.7071 0.7071 -328.397 195.3001)" class="st8" width="174.5" height="34.9"/>
										</g>
									</g>
									<g>
										<g>
											
												<rect x="438.1" y="406.8" transform="matrix(0.7071 -0.7071 0.7071 0.7071 -215.911 466.8118)" class="st8" width="34.9" height="174.5"/>
											
												<rect x="339.4" y="505.5" transform="matrix(0.7071 -0.7071 0.7071 0.7071 -314.6236 425.9291)" class="st9" width="34.9" height="174.5"/>
											
												<rect x="368.3" y="575.3" transform="matrix(0.7071 -0.7071 0.7071 0.7071 -285.717 495.7657)" class="st9" width="174.5" height="34.9"/>
											
												<rect x="269.6" y="476.6" transform="matrix(0.7071 -0.7071 0.7071 0.7071 -244.8273 397.0469)" class="st8" width="174.5" height="34.9"/>
										</g>
									</g>
									<g>
										<g>
											
												<rect x="723.4" y="406.8" transform="matrix(0.7071 -0.7071 0.7071 0.7071 -132.3529 668.5469)" class="st8" width="34.9" height="174.5"/>
											
												<rect x="624.7" y="505.5" transform="matrix(0.7071 -0.7071 0.7071 0.7071 -231.0638 627.6661)" class="st9" width="34.9" height="174.5"/>
											
												<rect x="653.6" y="575.3" transform="matrix(0.7071 -0.7071 0.7071 0.7071 -202.1473 697.5126)" class="st9" width="174.5" height="34.9"/>
											
												<rect x="554.9" y="476.6" transform="matrix(0.7071 -0.7071 0.7071 0.7071 -161.2576 598.7938)" class="st8" width="174.5" height="34.9"/>
										</g>
									</g>
									<g>
										<g>
											
												<rect x="1008.7" y="406.8" transform="matrix(0.7071 -0.7071 0.7071 0.7071 -48.7949 870.2822)" class="st8" width="34.9" height="174.5"/>
											
												<rect x="910" y="505.5" transform="matrix(0.7071 -0.7071 0.7071 0.7071 -147.504 829.403)" class="st9" width="34.9" height="174.5"/>
											
												<rect x="938.9" y="575.3" transform="matrix(0.7071 -0.7071 0.7071 0.7071 -118.5776 899.2594)" class="st9" width="174.5" height="34.9"/>
											
												<rect x="840.2" y="476.6" transform="matrix(0.7071 -0.7071 0.7071 0.7071 -77.6879 800.5407)" class="st8" width="174.5" height="34.9"/>
										</g>
									</g>
									<g>
										<g>
											
												<rect x="1294" y="406.8" transform="matrix(0.7071 -0.7071 0.7071 0.7071 34.7631 1072.0173)" class="st8" width="34.9" height="174.5"/>
											
												<rect x="1195.3" y="505.5" transform="matrix(0.7071 -0.7071 0.7071 0.7071 -63.9442 1031.14)" class="st9" width="34.9" height="174.5"/>
											
												<rect x="1224.2" y="575.3" transform="matrix(0.7071 -0.7071 0.7071 0.7071 -35.0079 1101.0063)" class="st9" width="174.5" height="34.9"/>
											
												<rect x="1125.5" y="476.6" transform="matrix(0.7071 -0.7071 0.7071 0.7071 5.8818 1002.2875)" class="st8" width="174.5" height="34.9"/>
										</g>
									</g>
									<g>
										<g>
											
												<rect x="295.5" y="549.4" transform="matrix(0.7071 -0.7071 0.7071 0.7071 -358.5578 407.7232)" class="st8" width="34.9" height="174.5"/>
											
												<rect x="196.7" y="648.2" transform="matrix(0.7071 -0.7071 0.7071 0.7071 -457.2742 366.8445)" class="st9" width="34.9" height="174.5"/>
											
												<rect x="225.7" y="718" transform="matrix(0.7071 -0.7071 0.7071 0.7071 -428.3754 436.6771)" class="st9" width="174.5" height="34.9"/>
											
												<rect x="126.9" y="619.2" transform="matrix(0.7071 -0.7071 0.7071 0.7071 -387.4858 337.9584)" class="st8" width="174.5" height="34.9"/>
										</g>
									</g>
									<g>
										<g>
											
												<rect x="580.8" y="549.4" transform="matrix(0.7071 -0.7071 0.7071 0.7071 -274.9997 609.4584)" class="st8" width="34.9" height="174.5"/>
											
												<rect x="482" y="648.2" transform="matrix(0.7071 -0.7071 0.7071 0.7071 -373.7132 568.5826)" class="st9" width="34.9" height="174.5"/>
											
												<rect x="511" y="718" transform="matrix(0.7071 -0.7071 0.7071 0.7071 -344.8057 638.424)" class="st9" width="174.5" height="34.9"/>
											
												<rect x="412.2" y="619.2" transform="matrix(0.7071 -0.7071 0.7071 0.7071 -303.9161 539.7059)" class="st8" width="174.5" height="34.9"/>
										</g>
									</g>
									<g>
										<g>
											
												<rect x="866.1" y="549.4" transform="matrix(0.7071 -0.7071 0.7071 0.7071 -191.4417 811.1937)" class="st8" width="34.9" height="174.5"/>
											
												<rect x="767.4" y="648.2" transform="matrix(0.7071 -0.7071 0.7071 0.7071 -290.1523 770.3207)" class="st9" width="34.9" height="174.5"/>
											
												<rect x="796.3" y="718" transform="matrix(0.7071 -0.7071 0.7071 0.7071 -261.236 840.1709)" class="st9" width="174.5" height="34.9"/>
											
												<rect x="697.5" y="619.2" transform="matrix(0.7071 -0.7071 0.7071 0.7071 -220.3464 741.4521)" class="st8" width="174.5" height="34.9"/>
										</g>
									</g>
									<g>
										<g>
											
												<rect x="1151.4" y="549.4" transform="matrix(0.7071 -0.7071 0.7071 0.7071 -107.8836 1012.9288)" class="st8" width="34.9" height="174.5"/>
											
												<rect x="1052.7" y="648.2" transform="matrix(0.7071 -0.7071 0.7071 0.7071 -206.5913 972.0588)" class="st9" width="34.9" height="174.5"/>
											
												<rect x="1081.6" y="718" transform="matrix(0.7071 -0.7071 0.7071 0.7071 -177.6663 1041.9177)" class="st9" width="174.5" height="34.9"/>
											
												<rect x="982.9" y="619.2" transform="matrix(0.7071 -0.7071 0.7071 0.7071 -136.7767 943.199)" class="st8" width="174.5" height="34.9"/>
										</g>
									</g>
									<g>
										<g>
											
												<rect x="152.8" y="692.1" transform="matrix(0.7071 -0.7071 0.7071 0.7071 -501.2061 348.6368)" class="st8" width="34.9" height="174.5"/>
											
												<rect x="54.1" y="790.8" transform="matrix(0.7071 -0.7071 0.7071 0.7071 -599.916 307.7464)" class="st9" width="34.9" height="174.5"/>
											
												<rect x="83" y="860.6" transform="matrix(0.7071 -0.7071 0.7071 0.7071 -571.0342 377.5888)" class="st9" width="174.5" height="34.9"/>
											
												<rect x="-15.7" y="761.9" transform="matrix(0.7071 -0.7071 0.7071 0.7071 -530.1431 278.8683)" class="st8" width="174.5" height="34.9"/>
										</g>
									</g>
									<g>
										<g>
											
												<rect x="438.1" y="692.1" transform="matrix(0.7071 -0.7071 0.7071 0.7071 -417.6474 550.3726)" class="st8" width="34.9" height="174.5"/>
											
												<rect x="339.4" y="790.8" transform="matrix(0.7071 -0.7071 0.7071 0.7071 -516.358 509.4816)" class="st9" width="34.9" height="174.5"/>
											
												<rect x="368.3" y="860.6" transform="matrix(0.7071 -0.7071 0.7071 0.7071 -487.4645 579.3356)" class="st9" width="174.5" height="34.9"/>
											
												<rect x="269.6" y="761.9" transform="matrix(0.7071 -0.7071 0.7071 0.7071 -446.5739 480.6146)" class="st8" width="174.5" height="34.9"/>
										</g>
									</g>
									<g>
										<g>
											
												<rect x="723.4" y="692.1" transform="matrix(0.7071 -0.7071 0.7071 0.7071 -334.0888 752.1083)" class="st8" width="34.9" height="174.5"/>
											
												<rect x="624.7" y="790.8" transform="matrix(0.7071 -0.7071 0.7071 0.7071 -432.7999 711.2168)" class="st9" width="34.9" height="174.5"/>
											
												<rect x="653.6" y="860.6" transform="matrix(0.7071 -0.7071 0.7071 0.7071 -403.8948 781.0825)" class="st9" width="174.5" height="34.9"/>
											
												<rect x="554.9" y="761.9" transform="matrix(0.7071 -0.7071 0.7071 0.7071 -363.0048 682.3609)" class="st8" width="174.5" height="34.9"/>
										</g>
									</g>
									<g>
										<g>
											
												<rect x="1008.7" y="692.1" transform="matrix(0.7071 -0.7071 0.7071 0.7071 -250.5302 953.8441)" class="st8" width="34.9" height="174.5"/>
											
												<rect x="910" y="790.8" transform="matrix(0.7071 -0.7071 0.7071 0.7071 -349.2419 912.952)" class="st9" width="34.9" height="174.5"/>
											
												<rect x="938.9" y="860.6" transform="matrix(0.7071 -0.7071 0.7071 0.7071 -320.3251 982.8294)" class="st9" width="174.5" height="34.9"/>
											
												<rect x="840.2" y="761.9" transform="matrix(0.7071 -0.7071 0.7071 0.7071 -279.4357 884.1072)" class="st8" width="174.5" height="34.9"/>
										</g>
									</g>
									<g>
										<g>
											
												<rect x="1294" y="692.1" transform="matrix(0.7071 -0.7071 0.7071 0.7071 -166.9716 1155.58)" class="st8" width="34.9" height="174.5"/>
											
												<rect x="1195.3" y="790.8" transform="matrix(0.7071 -0.7071 0.7071 0.7071 -265.6838 1114.6871)" class="st9" width="34.9" height="174.5"/>
											
												<rect x="1224.2" y="860.6" transform="matrix(0.7071 -0.7071 0.7071 0.7071 -236.7554 1184.5763)" class="st9" width="174.5" height="34.9"/>
											
												<rect x="1125.5" y="761.9" transform="matrix(0.7071 -0.7071 0.7071 0.7071 -195.8666 1085.8534)" class="st8" width="174.5" height="34.9"/>
										</g>
									</g>
									<g>
										<g>
											
												<rect x="295.5" y="834.7" transform="matrix(0.7071 -0.7071 0.7071 0.7071 -560.2926 491.2811)" class="st8" width="34.9" height="174.5"/>
											
												<rect x="196.7" y="933.5" transform="matrix(0.7071 -0.7071 0.7071 0.7071 -659.0199 450.4178)" class="st9" width="34.9" height="174.5"/>
											
												<rect x="225.7" y="1003.3" transform="matrix(0.7071 -0.7071 0.7071 0.7071 -630.1216 520.2466)" class="st9" width="174.5" height="34.9"/>
											
												<rect x="126.9" y="904.6" transform="matrix(0.7071 -0.7071 0.7071 0.7071 -589.2322 421.528)" class="st8" width="174.5" height="34.9"/>
										</g>
									</g>
									<g>
										<g>
											
												<rect x="580.8" y="834.7" transform="matrix(0.7071 -0.7071 0.7071 0.7071 -476.7346 693.0164)" class="st8" width="34.9" height="174.5"/>
											
												<rect x="482" y="933.5" transform="matrix(0.7071 -0.7071 0.7071 0.7071 -575.4561 652.1588)" class="st9" width="34.9" height="174.5"/>
											
												<rect x="511" y="1003.3" transform="matrix(0.7071 -0.7071 0.7071 0.7071 -546.5519 721.9935)" class="st9" width="174.5" height="34.9"/>
											
												<rect x="412.2" y="904.6" transform="matrix(0.7071 -0.7071 0.7071 0.7071 -505.6628 623.2756)" class="st8" width="174.5" height="34.9"/>
										</g>
									</g>
									<g>
										<g>
											
												<rect x="866.1" y="834.7" transform="matrix(0.7071 -0.7071 0.7071 0.7071 -393.1765 894.7515)" class="st8" width="34.9" height="174.5"/>
											
												<rect x="767.4" y="933.5" transform="matrix(0.7071 -0.7071 0.7071 0.7071 -491.8922 853.8998)" class="st9" width="34.9" height="174.5"/>
											
												<rect x="796.3" y="1003.3" transform="matrix(0.7071 -0.7071 0.7071 0.7071 -462.9822 923.7404)" class="st9" width="174.5" height="34.9"/>
											
												<rect x="697.5" y="904.6" transform="matrix(0.7071 -0.7071 0.7071 0.7071 -422.0929 825.0217)" class="st8" width="174.5" height="34.9"/>
										</g>
									</g>
									<g>
										<g>
											
												<rect x="1151.4" y="834.7" transform="matrix(0.7071 -0.7071 0.7071 0.7071 -309.6185 1096.4867)" class="st8" width="34.9" height="174.5"/>
											
												<rect x="1052.7" y="933.5" transform="matrix(0.7071 -0.7071 0.7071 0.7071 -408.3283 1055.6409)" class="st9" width="34.9" height="174.5"/>
											
												<rect x="1081.6" y="1003.3" transform="matrix(0.7071 -0.7071 0.7071 0.7071 -379.4125 1125.4872)" class="st9" width="174.5" height="34.9"/>
											
												<rect x="982.9" y="904.6" transform="matrix(0.7071 -0.7071 0.7071 0.7071 -338.5232 1026.7686)" class="st8" width="174.5" height="34.9"/>
										</g>
									</g>
									<g>
										<g>
											
												<rect x="152.8" y="977.4" transform="matrix(0.7071 -0.7071 0.7071 0.7071 -702.9392 432.1926)" class="st8" width="34.9" height="174.5"/>
											
												<rect x="54.1" y="1076.1" transform="matrix(0.7071 -0.7071 0.7071 0.7071 -801.6769 391.3343)" class="st9" width="34.9" height="174.5"/>
											
												<rect x="83" y="1145.9" transform="matrix(0.7071 -0.7071 0.7071 0.7071 -772.7799 461.158)" class="st9" width="174.5" height="34.9"/>
											
												<rect x="-15.7" y="1047.2" transform="matrix(0.7071 -0.7071 0.7071 0.7071 -731.8906 362.4394)" class="st8" width="174.5" height="34.9"/>
										</g>
									</g>
									<g>
										<g>
											
												<rect x="438.1" y="977.4" transform="matrix(0.7071 -0.7071 0.7071 0.7071 -619.3812 633.9277)" class="st8" width="34.9" height="174.5"/>
											
												<rect x="339.4" y="1076.1" transform="matrix(0.7071 -0.7071 0.7071 0.7071 -718.1118 593.0764)" class="st9" width="34.9" height="174.5"/>
											
												<rect x="368.3" y="1145.9" transform="matrix(0.7071 -0.7071 0.7071 0.7071 -689.2102 662.9049)" class="st9" width="174.5" height="34.9"/>
											
												<rect x="269.6" y="1047.2" transform="matrix(0.7071 -0.7071 0.7071 0.7071 -648.3209 564.1863)" class="st8" width="174.5" height="34.9"/>
										</g>
									</g>
									<g>
										<g>
											
												<rect x="723.4" y="977.4" transform="matrix(0.7071 -0.7071 0.7071 0.7071 -535.8231 835.663)" class="st8" width="34.9" height="174.5"/>
											
												<rect x="624.7" y="1076.1" transform="matrix(0.7071 -0.7071 0.7071 0.7071 -634.5468 794.8187)" class="st9" width="34.9" height="174.5"/>
											
												<rect x="653.6" y="1145.9" transform="matrix(0.7071 -0.7071 0.7071 0.7071 -605.6405 864.6518)" class="st9" width="174.5" height="34.9"/>
											
												<rect x="554.9" y="1047.2" transform="matrix(0.7071 -0.7071 0.7071 0.7071 -564.7512 765.9332)" class="st8" width="174.5" height="34.9"/>
										</g>
									</g>
									<g>
										<g>
											
												<rect x="1008.7" y="977.4" transform="matrix(0.7071 -0.7071 0.7071 0.7071 -452.2651 1037.3982)" class="st8" width="34.9" height="174.5"/>
											
												<rect x="910" y="1076.1" transform="matrix(0.7071 -0.7071 0.7071 0.7071 -550.9818 996.5609)" class="st9" width="34.9" height="174.5"/>
											
												<rect x="938.9" y="1145.9" transform="matrix(0.7071 -0.7071 0.7071 0.7071 -522.0708 1066.3987)" class="st9" width="174.5" height="34.9"/>
											
												<rect x="840.2" y="1047.2" transform="matrix(0.7071 -0.7071 0.7071 0.7071 -481.1815 967.68)" class="st8" width="174.5" height="34.9"/>
										</g>
									</g>
									<g>
										<g>
											
												<rect x="1294" y="977.4" transform="matrix(0.7071 -0.7071 0.7071 0.7071 -368.7071 1239.1334)" class="st8" width="34.9" height="174.5"/>
											
												<rect x="1195.3" y="1076.1" transform="matrix(0.7071 -0.7071 0.7071 0.7071 -467.4167 1198.303)" class="st9" width="34.9" height="174.5"/>
											
												<rect x="1224.2" y="1145.9" transform="matrix(0.7071 -0.7071 0.7071 0.7071 -438.5011 1268.1455)" class="st9" width="174.5" height="34.9"/>
											
												<rect x="1125.5" y="1047.2" transform="matrix(0.7071 -0.7071 0.7071 0.7071 -397.6118 1169.4269)" class="st8" width="174.5" height="34.9"/>
										</g>
									</g>
									<g>
										<g>
											
												<rect x="295.5" y="1120.1" transform="matrix(0.7071 -0.7071 0.7071 0.7071 -762.0279 574.8392)" class="st8" width="34.9" height="174.5"/>
											
												<rect x="196.7" y="1218.8" transform="matrix(0.7071 -0.7071 0.7071 0.7071 -860.7612 533.9817)" class="st9" width="34.9" height="174.5"/>
											
												<rect x="225.7" y="1288.6" transform="matrix(0.7071 -0.7071 0.7071 0.7071 -831.8687 603.8163)" class="st9" width="174.5" height="34.9"/>
											
												<rect x="126.9" y="1189.9" transform="matrix(0.7071 -0.7071 0.7071 0.7071 -790.9792 505.0977)" class="st8" width="174.5" height="34.9"/>
										</g>
									</g>
									<g>
										<g>
											
												<rect x="580.8" y="1120.1" transform="matrix(0.7071 -0.7071 0.7071 0.7071 -678.4698 776.5744)" class="st8" width="34.9" height="174.5"/>
											
												<rect x="482" y="1218.8" transform="matrix(0.7071 -0.7071 0.7071 0.7071 -777.1973 735.7227)" class="st9" width="34.9" height="174.5"/>
											
												<rect x="511" y="1288.6" transform="matrix(0.7071 -0.7071 0.7071 0.7071 -748.299 805.5632)" class="st9" width="174.5" height="34.9"/>
											
												<rect x="412.2" y="1189.9" transform="matrix(0.7071 -0.7071 0.7071 0.7071 -707.4099 706.8455)" class="st8" width="174.5" height="34.9"/>
										</g>
									</g>
									<g>
										<g>
											
												<rect x="866.1" y="1120.1" transform="matrix(0.7071 -0.7071 0.7071 0.7071 -594.9118 978.3096)" class="st8" width="34.9" height="174.5"/>
											
												<rect x="767.4" y="1218.8" transform="matrix(0.7071 -0.7071 0.7071 0.7071 -693.6334 937.4638)" class="st9" width="34.9" height="174.5"/>
											
												<rect x="796.3" y="1288.6" transform="matrix(0.7071 -0.7071 0.7071 0.7071 -664.7292 1007.3101)" class="st9" width="174.5" height="34.9"/>
											
												<rect x="697.5" y="1189.9" transform="matrix(0.7071 -0.7071 0.7071 0.7071 -623.8398 908.5915)" class="st8" width="174.5" height="34.9"/>
										</g>
									</g>
									<g>
										<g>
											
												<rect x="1151.4" y="1120.1" transform="matrix(0.7071 -0.7071 0.7071 0.7071 -511.3538 1180.0448)" class="st8" width="34.9" height="174.5"/>
											
												<rect x="1052.7" y="1218.8" transform="matrix(0.7071 -0.7071 0.7071 0.7071 -610.0695 1139.2048)" class="st9" width="34.9" height="174.5"/>
											
												<rect x="1081.6" y="1288.6" transform="matrix(0.7071 -0.7071 0.7071 0.7071 -581.1595 1209.057)" class="st9" width="174.5" height="34.9"/>
											
												<rect x="982.9" y="1189.9" transform="matrix(0.7071 -0.7071 0.7071 0.7071 -540.2701 1110.3384)" class="st8" width="174.5" height="34.9"/>
										</g>
									</g>
								</g>
							</g>
						</g>
					</g>
				</g>
				<g>
					<defs>
						<path id="SVGID_7_" d="M1379.6,251.1L1601,555.9c0.2,0.4-148.9-24.6-148.7-24.2l95.7,81.8c0.1,0.2-535.5,771.5-535.5,771.5
							c0,0-0.1,0-0.1,0l366-1133.8C1378.6,250.7,1379.3,250.6,1379.6,251.1z"/>
					</defs>
					<clipPath id="SVGID_8_">
						<use xlink:href="#SVGID_7_"  style="overflow:visible;"/>
					</clipPath>
					<g class="st10">
						<g>
							<defs>
								<rect id="SVGID_9_" x="801.1" y="266.2" width="1141.2" height="1141.2"/>
							</defs>
							<clipPath id="SVGID_10_">
								<use xlink:href="#SVGID_9_"  style="overflow:visible;"/>
							</clipPath>
							<g class="st11">
								<rect x="801.1" y="266.2" class="st7" width="1141.2" height="1141.2"/>
								<g>
									<g>
										<g>
											
												<rect x="833" y="129.5" transform="matrix(0.7071 -0.7071 0.7071 0.7071 95.7899 664.8605)" class="st8" width="34.9" height="174.5"/>
											
												<rect x="734.3" y="228.3" transform="matrix(0.7071 -0.7071 0.7071 0.7071 -2.9212 623.972)" class="st9" width="34.9" height="174.5"/>
											
												<rect x="763.2" y="298.1" transform="matrix(0.7071 -0.7071 0.7071 0.7071 26.0114 693.8192)" class="st9" width="174.5" height="34.9"/>
											
												<rect x="664.5" y="199.3" transform="matrix(0.7071 -0.7071 0.7071 0.7071 66.901 595.1005)" class="st8" width="174.5" height="34.9"/>
										</g>
									</g>
									<g>
										<g>
											
												<rect x="1118.3" y="129.5" transform="matrix(0.7071 -0.7071 0.7071 0.7071 179.3479 866.5956)" class="st8" width="34.9" height="174.5"/>
											
												<rect x="1019.6" y="228.3" transform="matrix(0.7071 -0.7071 0.7071 0.7071 80.6368 825.7072)" class="st9" width="34.9" height="174.5"/>
											
												<rect x="1048.5" y="298.1" transform="matrix(0.7071 -0.7071 0.7071 0.7071 109.5811 895.566)" class="st9" width="174.5" height="34.9"/>
											
												<rect x="949.8" y="199.3" transform="matrix(0.7071 -0.7071 0.7071 0.7071 150.4707 796.8474)" class="st8" width="174.5" height="34.9"/>
										</g>
									</g>
									<g>
										<g>
											
												<rect x="1403.6" y="129.5" transform="matrix(0.7071 -0.7071 0.7071 0.7071 262.9059 1068.3309)" class="st8" width="34.9" height="174.5"/>
											
												<rect x="1304.9" y="228.3" transform="matrix(0.7071 -0.7071 0.7071 0.7071 164.1949 1027.4424)" class="st9" width="34.9" height="174.5"/>
											
												<rect x="1333.8" y="298.1" transform="matrix(0.7071 -0.7071 0.7071 0.7071 193.1508 1097.3129)" class="st9" width="174.5" height="34.9"/>
											
												<rect x="1235.1" y="199.3" transform="matrix(0.7071 -0.7071 0.7071 0.7071 234.0404 998.5942)" class="st8" width="174.5" height="34.9"/>
										</g>
									</g>
									<g>
										<g>
											
												<rect x="1688.9" y="129.5" transform="matrix(0.7071 -0.7071 0.7071 0.7071 346.464 1270.066)" class="st8" width="34.9" height="174.5"/>
											
												<rect x="1590.2" y="228.3" transform="matrix(0.7071 -0.7071 0.7071 0.7071 247.7529 1229.1776)" class="st9" width="34.9" height="174.5"/>
											
												<rect x="1619.1" y="298.1" transform="matrix(0.7071 -0.7071 0.7071 0.7071 276.7205 1299.0598)" class="st9" width="174.5" height="34.9"/>
											
												<rect x="1520.4" y="199.3" transform="matrix(0.7071 -0.7071 0.7071 0.7071 317.6101 1200.3411)" class="st8" width="174.5" height="34.9"/>
										</g>
									</g>
									<g>
										<g>
											
												<rect x="1974.3" y="129.5" transform="matrix(0.7071 -0.7071 0.7071 0.7071 430.022 1471.8013)" class="st8" width="34.9" height="174.5"/>
											
												<rect x="1875.5" y="228.3" transform="matrix(0.7071 -0.7071 0.7071 0.7071 331.311 1430.9127)" class="st9" width="34.9" height="174.5"/>
											
												<rect x="1904.5" y="298.1" transform="matrix(0.7071 -0.7071 0.7071 0.7071 360.2902 1500.8066)" class="st9" width="174.5" height="34.9"/>
											
												<rect x="1805.7" y="199.3" transform="matrix(0.7071 -0.7071 0.7071 0.7071 401.1798 1402.0879)" class="st8" width="174.5" height="34.9"/>
										</g>
									</g>
									<g>
										<g>
											
												<rect x="833" y="1270.8" transform="matrix(0.7071 -0.7071 0.7071 0.7071 -711.1509 999.0927)" class="st8" width="34.9" height="174.5"/>
											
												<rect x="734.3" y="1369.5" transform="matrix(0.7071 -0.7071 0.7071 0.7071 -809.8762 958.2491)" class="st9" width="34.9" height="174.5"/>
											
												<rect x="763.2" y="1439.3" transform="matrix(0.7071 -0.7071 0.7071 0.7071 -780.9758 1028.0979)" class="st9" width="174.5" height="34.9"/>
											
												<rect x="664.5" y="1340.6" transform="matrix(0.7071 -0.7071 0.7071 0.7071 -740.0864 929.3793)" class="st8" width="174.5" height="34.9"/>
										</g>
									</g>
									<g>
										<g>
											
												<rect x="1118.3" y="1270.8" transform="matrix(0.7071 -0.7071 0.7071 0.7071 -627.5929 1200.8279)" class="st8" width="34.9" height="174.5"/>
											
												<rect x="1019.6" y="1369.5" transform="matrix(0.7071 -0.7071 0.7071 0.7071 -726.3123 1159.9902)" class="st9" width="34.9" height="174.5"/>
											
												<rect x="1048.5" y="1439.3" transform="matrix(0.7071 -0.7071 0.7071 0.7071 -697.4061 1229.8447)" class="st9" width="174.5" height="34.9"/>
											
												<rect x="949.8" y="1340.6" transform="matrix(0.7071 -0.7071 0.7071 0.7071 -656.5167 1131.1261)" class="st8" width="174.5" height="34.9"/>
										</g>
									</g>
									<g>
										<g>
											
												<rect x="1403.6" y="1270.8" transform="matrix(0.7071 -0.7071 0.7071 0.7071 -544.0349 1402.563)" class="st8" width="34.9" height="174.5"/>
											
												<rect x="1304.9" y="1369.5" transform="matrix(0.7071 -0.7071 0.7071 0.7071 -642.7484 1361.7312)" class="st9" width="34.9" height="174.5"/>
											
												<rect x="1333.8" y="1439.3" transform="matrix(0.7071 -0.7071 0.7071 0.7071 -613.8364 1431.5917)" class="st9" width="174.5" height="34.9"/>
											
												<rect x="1235.1" y="1340.6" transform="matrix(0.7071 -0.7071 0.7071 0.7071 -572.947 1332.873)" class="st8" width="174.5" height="34.9"/>
										</g>
									</g>
									<g>
										<g>
											
												<rect x="1688.9" y="1270.8" transform="matrix(0.7071 -0.7071 0.7071 0.7071 -460.4768 1604.2982)" class="st8" width="34.9" height="174.5"/>
											
												<rect x="1590.2" y="1369.5" transform="matrix(0.7071 -0.7071 0.7071 0.7071 -559.1846 1563.4723)" class="st9" width="34.9" height="174.5"/>
											
												<rect x="1619.1" y="1439.3" transform="matrix(0.7071 -0.7071 0.7071 0.7071 -530.2667 1633.3385)" class="st9" width="174.5" height="34.9"/>
											
												<rect x="1520.4" y="1340.6" transform="matrix(0.7071 -0.7071 0.7071 0.7071 -489.3773 1534.6199)" class="st8" width="174.5" height="34.9"/>
										</g>
									</g>
									<g>
										<g>
											
												<rect x="1974.3" y="1270.8" transform="matrix(0.7071 -0.7071 0.7071 0.7071 -376.9188 1806.0334)" class="st8" width="34.9" height="174.5"/>
											
												<rect x="1875.5" y="1369.5" transform="matrix(0.7071 -0.7071 0.7071 0.7071 -475.6207 1765.2133)" class="st9" width="34.9" height="174.5"/>
											
												<rect x="1904.5" y="1439.3" transform="matrix(0.7071 -0.7071 0.7071 0.7071 -446.697 1835.0853)" class="st9" width="174.5" height="34.9"/>
											
												<rect x="1805.7" y="1340.6" transform="matrix(0.7071 -0.7071 0.7071 0.7071 -405.8076 1736.3667)" class="st8" width="174.5" height="34.9"/>
										</g>
									</g>
									<g>
										<g>
											
												<rect x="975.7" y="272.2" transform="matrix(0.7071 -0.7071 0.7071 0.7071 36.7013 807.5071)" class="st8" width="34.9" height="174.5"/>
											
												<rect x="877" y="370.9" transform="matrix(0.7071 -0.7071 0.7071 0.7071 -62.0098 766.6186)" class="st9" width="34.9" height="174.5"/>
											
												<rect x="905.9" y="440.7" transform="matrix(0.7071 -0.7071 0.7071 0.7071 -33.0772 836.4774)" class="st9" width="174.5" height="34.9"/>
											
												<rect x="807.2" y="342" transform="matrix(0.7071 -0.7071 0.7071 0.7071 7.8124 737.7587)" class="st8" width="174.5" height="34.9"/>
										</g>
									</g>
									<g>
										<g>
											
												<rect x="1261" y="272.2" transform="matrix(0.7071 -0.7071 0.7071 0.7071 120.2593 1009.2423)" class="st8" width="34.9" height="174.5"/>
											
												<rect x="1162.3" y="370.9" transform="matrix(0.7071 -0.7071 0.7071 0.7071 21.5483 968.3538)" class="st9" width="34.9" height="174.5"/>
											
												<rect x="1191.2" y="440.7" transform="matrix(0.7071 -0.7071 0.7071 0.7071 50.4925 1038.2244)" class="st9" width="174.5" height="34.9"/>
											
												<rect x="1092.5" y="342" transform="matrix(0.7071 -0.7071 0.7071 0.7071 91.3825 939.5064)" class="st8" width="174.5" height="34.9"/>
										</g>
									</g>
									<g>
										<g>
											
												<rect x="1546.3" y="272.2" transform="matrix(0.7071 -0.7071 0.7071 0.7071 203.8174 1210.9775)" class="st8" width="34.9" height="174.5"/>
											
												<rect x="1447.6" y="370.9" transform="matrix(0.7071 -0.7071 0.7071 0.7071 105.1063 1170.089)" class="st9" width="34.9" height="174.5"/>
											
												<rect x="1476.5" y="440.7" transform="matrix(0.7071 -0.7071 0.7071 0.7071 134.0622 1239.9712)" class="st9" width="174.5" height="34.9"/>
											
												<rect x="1377.8" y="342" transform="matrix(0.7071 -0.7071 0.7071 0.7071 174.9518 1141.2524)" class="st8" width="174.5" height="34.9"/>
										</g>
									</g>
									<g>
										<g>
											
												<rect x="1831.6" y="272.2" transform="matrix(0.7071 -0.7071 0.7071 0.7071 287.3754 1412.7126)" class="st8" width="34.9" height="174.5"/>
											
												<rect x="1732.9" y="370.9" transform="matrix(0.7071 -0.7071 0.7071 0.7071 188.6643 1371.8242)" class="st9" width="34.9" height="174.5"/>
											
												<rect x="1761.8" y="440.7" transform="matrix(0.7071 -0.7071 0.7071 0.7071 217.6319 1441.718)" class="st9" width="174.5" height="34.9"/>
											
												<rect x="1663.1" y="342" transform="matrix(0.7071 -0.7071 0.7071 0.7071 258.5215 1342.9994)" class="st8" width="174.5" height="34.9"/>
										</g>
									</g>
									<g>
										<g>
											
												<rect x="833" y="414.8" transform="matrix(0.7071 -0.7071 0.7071 0.7071 -105.9453 748.4185)" class="st8" width="34.9" height="174.5"/>
											
												<rect x="734.3" y="513.6" transform="matrix(0.7071 -0.7071 0.7071 0.7071 -204.6556 707.5383)" class="st9" width="34.9" height="174.5"/>
											
												<rect x="763.2" y="583.4" transform="matrix(0.7071 -0.7071 0.7071 0.7071 -175.7355 777.3889)" class="st9" width="174.5" height="34.9"/>
											
												<rect x="664.5" y="484.7" transform="matrix(0.7071 -0.7071 0.7071 0.7071 -134.8459 678.6702)" class="st8" width="174.5" height="34.9"/>
										</g>
									</g>
									<g>
										<g>
											
												<rect x="1118.3" y="414.8" transform="matrix(0.7071 -0.7071 0.7071 0.7071 -22.3873 950.1537)" class="st8" width="34.9" height="174.5"/>
											
												<rect x="1019.6" y="513.6" transform="matrix(0.7071 -0.7071 0.7071 0.7071 -121.0958 909.2753)" class="st9" width="34.9" height="174.5"/>
											
												<rect x="1048.5" y="583.4" transform="matrix(0.7071 -0.7071 0.7071 0.7071 -92.1658 979.1358)" class="st9" width="174.5" height="34.9"/>
											
												<rect x="949.8" y="484.7" transform="matrix(0.7071 -0.7071 0.7071 0.7071 -51.2762 880.4171)" class="st8" width="174.5" height="34.9"/>
										</g>
									</g>
									<g>
										<g>
											
												<rect x="1403.6" y="414.8" transform="matrix(0.7071 -0.7071 0.7071 0.7071 61.1708 1151.8889)" class="st8" width="34.9" height="174.5"/>
											
												<rect x="1304.9" y="513.6" transform="matrix(0.7071 -0.7071 0.7071 0.7071 -37.536 1111.0122)" class="st9" width="34.9" height="174.5"/>
											
												<rect x="1333.8" y="583.4" transform="matrix(0.7071 -0.7071 0.7071 0.7071 -8.5961 1180.8827)" class="st9" width="174.5" height="34.9"/>
											
												<rect x="1235.1" y="484.7" transform="matrix(0.7071 -0.7071 0.7071 0.7071 32.2935 1082.1639)" class="st8" width="174.5" height="34.9"/>
										</g>
									</g>
									<g>
										<g>
											
												<rect x="1688.9" y="414.8" transform="matrix(0.7071 -0.7071 0.7071 0.7071 144.7288 1353.6241)" class="st8" width="34.9" height="174.5"/>
											
												<rect x="1590.2" y="513.6" transform="matrix(0.7071 -0.7071 0.7071 0.7071 46.0238 1312.7491)" class="st9" width="34.9" height="174.5"/>
											
												<rect x="1619.1" y="583.4" transform="matrix(0.7071 -0.7071 0.7071 0.7071 74.9736 1382.6295)" class="st9" width="174.5" height="34.9"/>
											
												<rect x="1520.4" y="484.7" transform="matrix(0.7071 -0.7071 0.7071 0.7071 115.8632 1283.9108)" class="st8" width="174.5" height="34.9"/>
										</g>
									</g>
									<g>
										<g>
											
												<rect x="1974.3" y="414.8" transform="matrix(0.7071 -0.7071 0.7071 0.7071 228.2868 1555.3594)" class="st8" width="34.9" height="174.5"/>
											
												<rect x="1875.5" y="513.6" transform="matrix(0.7071 -0.7071 0.7071 0.7071 129.5836 1514.4861)" class="st9" width="34.9" height="174.5"/>
											
												<rect x="1904.5" y="583.4" transform="matrix(0.7071 -0.7071 0.7071 0.7071 158.5433 1584.3763)" class="st9" width="174.5" height="34.9"/>
											
												<rect x="1805.7" y="484.7" transform="matrix(0.7071 -0.7071 0.7071 0.7071 199.4329 1485.6576)" class="st8" width="174.5" height="34.9"/>
										</g>
									</g>
									<g>
										<g>
											
												<rect x="975.7" y="557.5" transform="matrix(0.7071 -0.7071 0.7071 0.7071 -165.0341 891.0652)" class="st8" width="34.9" height="174.5"/>
											
												<rect x="877" y="656.2" transform="matrix(0.7071 -0.7071 0.7071 0.7071 -263.7436 850.1934)" class="st9" width="34.9" height="174.5"/>
											
												<rect x="905.9" y="726" transform="matrix(0.7071 -0.7071 0.7071 0.7071 -234.8242 920.0472)" class="st9" width="174.5" height="34.9"/>
											
												<rect x="807.2" y="627.3" transform="matrix(0.7071 -0.7071 0.7071 0.7071 -193.9346 821.3285)" class="st8" width="174.5" height="34.9"/>
										</g>
									</g>
									<g>
										<g>
											
												<rect x="1261" y="557.5" transform="matrix(0.7071 -0.7071 0.7071 0.7071 -81.476 1092.8004)" class="st8" width="34.9" height="174.5"/>
											
												<rect x="1162.3" y="656.2" transform="matrix(0.7071 -0.7071 0.7071 0.7071 -180.1827 1051.9315)" class="st9" width="34.9" height="174.5"/>
											
												<rect x="1191.2" y="726" transform="matrix(0.7071 -0.7071 0.7071 0.7071 -151.2545 1121.7941)" class="st9" width="174.5" height="34.9"/>
											
												<rect x="1092.5" y="627.3" transform="matrix(0.7071 -0.7071 0.7071 0.7071 -110.3646 1023.0764)" class="st8" width="174.5" height="34.9"/>
										</g>
									</g>
									<g>
										<g>
											
												<rect x="1546.3" y="557.5" transform="matrix(0.7071 -0.7071 0.7071 0.7071 2.082 1294.5356)" class="st8" width="34.9" height="174.5"/>
											
												<rect x="1447.6" y="656.2" transform="matrix(0.7071 -0.7071 0.7071 0.7071 -96.6217 1253.6697)" class="st9" width="34.9" height="174.5"/>
											
												<rect x="1476.5" y="726" transform="matrix(0.7071 -0.7071 0.7071 0.7071 -67.6848 1323.541)" class="st9" width="174.5" height="34.9"/>
											
												<rect x="1377.8" y="627.3" transform="matrix(0.7071 -0.7071 0.7071 0.7071 -26.7952 1224.8223)" class="st8" width="174.5" height="34.9"/>
										</g>
									</g>
									<g>
										<g>
											
												<rect x="1831.6" y="557.5" transform="matrix(0.7071 -0.7071 0.7071 0.7071 85.6401 1496.2708)" class="st8" width="34.9" height="174.5"/>
											
												<rect x="1732.9" y="656.2" transform="matrix(0.7071 -0.7071 0.7071 0.7071 -13.0607 1455.4078)" class="st9" width="34.9" height="174.5"/>
											
												<rect x="1761.8" y="726" transform="matrix(0.7071 -0.7071 0.7071 0.7071 15.8849 1525.2878)" class="st9" width="174.5" height="34.9"/>
											
												<rect x="1663.1" y="627.3" transform="matrix(0.7071 -0.7071 0.7071 0.7071 56.7745 1426.5691)" class="st8" width="174.5" height="34.9"/>
										</g>
									</g>
									<g>
										<g>
											
												<rect x="833" y="700.2" transform="matrix(0.7071 -0.7071 0.7071 0.7071 -307.681 831.9802)" class="st8" width="34.9" height="174.5"/>
											
												<rect x="734.3" y="798.9" transform="matrix(0.7071 -0.7071 0.7071 0.7071 -406.3923 791.0883)" class="st9" width="34.9" height="174.5"/>
											
												<rect x="763.2" y="868.7" transform="matrix(0.7071 -0.7071 0.7071 0.7071 -377.483 860.9589)" class="st9" width="174.5" height="34.9"/>
											
												<rect x="664.5" y="770" transform="matrix(0.7071 -0.7071 0.7071 0.7071 -336.5933 762.237)" class="st8" width="174.5" height="34.9"/>
										</g>
									</g>
									<g>
										<g>
											
												<rect x="1118.3" y="700.2" transform="matrix(0.7071 -0.7071 0.7071 0.7071 -224.1224 1033.7159)" class="st8" width="34.9" height="174.5"/>
											
												<rect x="1019.6" y="798.9" transform="matrix(0.7071 -0.7071 0.7071 0.7071 -322.8343 992.8235)" class="st9" width="34.9" height="174.5"/>
											
												<rect x="1048.5" y="868.7" transform="matrix(0.7071 -0.7071 0.7071 0.7071 -293.9133 1062.7057)" class="st9" width="174.5" height="34.9"/>
											
												<rect x="949.8" y="770" transform="matrix(0.7071 -0.7071 0.7071 0.7071 -253.0242 963.9832)" class="st8" width="174.5" height="34.9"/>
										</g>
									</g>
									<g>
										<g>
											
												<rect x="1403.6" y="700.2" transform="matrix(0.7071 -0.7071 0.7071 0.7071 -140.5638 1235.4518)" class="st8" width="34.9" height="174.5"/>
											
												<rect x="1304.9" y="798.9" transform="matrix(0.7071 -0.7071 0.7071 0.7071 -239.2762 1194.5587)" class="st9" width="34.9" height="174.5"/>
											
												<rect x="1333.8" y="868.7" transform="matrix(0.7071 -0.7071 0.7071 0.7071 -210.3436 1264.4526)" class="st9" width="174.5" height="34.9"/>
											
												<rect x="1235.1" y="770" transform="matrix(0.7071 -0.7071 0.7071 0.7071 -169.455 1165.7296)" class="st8" width="174.5" height="34.9"/>
										</g>
									</g>
									<g>
										<g>
											
												<rect x="1688.9" y="700.2" transform="matrix(0.7071 -0.7071 0.7071 0.7071 -57.0051 1437.1875)" class="st8" width="34.9" height="174.5"/>
											
												<rect x="1590.2" y="798.9" transform="matrix(0.7071 -0.7071 0.7071 0.7071 -155.7182 1396.2939)" class="st9" width="34.9" height="174.5"/>
											
												<rect x="1619.1" y="868.7" transform="matrix(0.7071 -0.7071 0.7071 0.7071 -126.7739 1466.1995)" class="st9" width="174.5" height="34.9"/>
											
												<rect x="1520.4" y="770" transform="matrix(0.7071 -0.7071 0.7071 0.7071 -85.8859 1367.4758)" class="st8" width="174.5" height="34.9"/>
										</g>
									</g>
									<g>
										<g>
											
												<rect x="1974.3" y="700.2" transform="matrix(0.7071 -0.7071 0.7071 0.7071 26.5535 1638.9233)" class="st8" width="34.9" height="174.5"/>
											
												<rect x="1875.5" y="798.9" transform="matrix(0.7071 -0.7071 0.7071 0.7071 -72.1601 1598.0292)" class="st9" width="34.9" height="174.5"/>
											
												<rect x="1904.5" y="868.7" transform="matrix(0.7071 -0.7071 0.7071 0.7071 -43.2042 1667.9463)" class="st9" width="174.5" height="34.9"/>
											
												<rect x="1805.7" y="770" transform="matrix(0.7071 -0.7071 0.7071 0.7071 -2.3168 1569.2222)" class="st8" width="174.5" height="34.9"/>
										</g>
									</g>
									<g>
										<g>
											
												<rect x="975.7" y="842.8" transform="matrix(0.7071 -0.7071 0.7071 0.7071 -366.7689 974.6231)" class="st8" width="34.9" height="174.5"/>
											
												<rect x="877" y="941.5" transform="matrix(0.7071 -0.7071 0.7071 0.7071 -465.4825 933.7738)" class="st9" width="34.9" height="174.5"/>
											
												<rect x="905.9" y="1011.3" transform="matrix(0.7071 -0.7071 0.7071 0.7071 -436.5704 1003.6166)" class="st9" width="174.5" height="34.9"/>
											
												<rect x="807.2" y="912.6" transform="matrix(0.7071 -0.7071 0.7071 0.7071 -395.6811 904.8981)" class="st8" width="174.5" height="34.9"/>
										</g>
									</g>
									<g>
										<g>
											
												<rect x="1261" y="842.8" transform="matrix(0.7071 -0.7071 0.7071 0.7071 -283.2108 1176.3583)" class="st8" width="34.9" height="174.5"/>
											
												<rect x="1162.3" y="941.5" transform="matrix(0.7071 -0.7071 0.7071 0.7071 -381.9186 1135.5148)" class="st9" width="34.9" height="174.5"/>
											
												<rect x="1191.2" y="1011.3" transform="matrix(0.7071 -0.7071 0.7071 0.7071 -353.0007 1205.3635)" class="st9" width="174.5" height="34.9"/>
											
												<rect x="1092.5" y="912.6" transform="matrix(0.7071 -0.7071 0.7071 0.7071 -312.1113 1106.646)" class="st8" width="174.5" height="34.9"/>
										</g>
									</g>
									<g>
										<g>
											
												<rect x="1546.3" y="842.8" transform="matrix(0.7071 -0.7071 0.7071 0.7071 -199.6528 1378.0935)" class="st8" width="34.9" height="174.5"/>
											
												<rect x="1447.6" y="941.5" transform="matrix(0.7071 -0.7071 0.7071 0.7071 -298.3547 1337.2559)" class="st9" width="34.9" height="174.5"/>
											
												<rect x="1476.5" y="1011.3" transform="matrix(0.7071 -0.7071 0.7071 0.7071 -269.431 1407.1105)" class="st9" width="174.5" height="34.9"/>
											
												<rect x="1377.8" y="912.6" transform="matrix(0.7071 -0.7071 0.7071 0.7071 -228.5417 1308.3918)" class="st8" width="174.5" height="34.9"/>
										</g>
									</g>
									<g>
										<g>
											
												<rect x="1831.6" y="842.8" transform="matrix(0.7071 -0.7071 0.7071 0.7071 -116.0948 1579.8287)" class="st8" width="34.9" height="174.5"/>
											
												<rect x="1732.9" y="941.5" transform="matrix(0.7071 -0.7071 0.7071 0.7071 -214.7909 1538.9968)" class="st9" width="34.9" height="174.5"/>
											
												<rect x="1761.8" y="1011.3" transform="matrix(0.7071 -0.7071 0.7071 0.7071 -185.8613 1608.8573)" class="st9" width="174.5" height="34.9"/>
											
												<rect x="1663.1" y="912.6" transform="matrix(0.7071 -0.7071 0.7071 0.7071 -144.972 1510.1387)" class="st8" width="174.5" height="34.9"/>
										</g>
									</g>
									<g>
										<g>
											
												<rect x="833" y="985.5" transform="matrix(0.7071 -0.7071 0.7071 0.7071 -509.4155 915.5345)" class="st8" width="34.9" height="174.5"/>
											
												<rect x="734.3" y="1084.2" transform="matrix(0.7071 -0.7071 0.7071 0.7071 -608.1367 874.6931)" class="st9" width="34.9" height="174.5"/>
											
												<rect x="763.2" y="1154" transform="matrix(0.7071 -0.7071 0.7071 0.7071 -579.2288 944.5281)" class="st9" width="174.5" height="34.9"/>
											
												<rect x="664.5" y="1055.3" transform="matrix(0.7071 -0.7071 0.7071 0.7071 -538.3394 845.8095)" class="st8" width="174.5" height="34.9"/>
										</g>
									</g>
									<g>
										<g>
											
												<rect x="1118.3" y="985.5" transform="matrix(0.7071 -0.7071 0.7071 0.7071 -425.8575 1117.2697)" class="st8" width="34.9" height="174.5"/>
											
												<rect x="1019.6" y="1084.2" transform="matrix(0.7071 -0.7071 0.7071 0.7071 -524.5717 1076.4353)" class="st9" width="34.9" height="174.5"/>
											
												<rect x="1048.5" y="1154" transform="matrix(0.7071 -0.7071 0.7071 0.7071 -495.6591 1146.275)" class="st9" width="174.5" height="34.9"/>
											
												<rect x="949.8" y="1055.3" transform="matrix(0.7071 -0.7071 0.7071 0.7071 -454.7697 1047.5564)" class="st8" width="174.5" height="34.9"/>
										</g>
									</g>
									<g>
										<g>
											
												<rect x="1403.6" y="985.5" transform="matrix(0.7071 -0.7071 0.7071 0.7071 -342.2994 1319.0049)" class="st8" width="34.9" height="174.5"/>
											
												<rect x="1304.9" y="1084.2" transform="matrix(0.7071 -0.7071 0.7071 0.7071 -441.0066 1278.1775)" class="st9" width="34.9" height="174.5"/>
											
												<rect x="1333.8" y="1154" transform="matrix(0.7071 -0.7071 0.7071 0.7071 -412.0894 1348.0219)" class="st9" width="174.5" height="34.9"/>
											
												<rect x="1235.1" y="1055.3" transform="matrix(0.7071 -0.7071 0.7071 0.7071 -371.2 1249.3032)" class="st8" width="174.5" height="34.9"/>
										</g>
									</g>
									<g>
										<g>
											
												<rect x="1688.9" y="985.5" transform="matrix(0.7071 -0.7071 0.7071 0.7071 -258.7414 1520.7401)" class="st8" width="34.9" height="174.5"/>
											
												<rect x="1590.2" y="1084.2" transform="matrix(0.7071 -0.7071 0.7071 0.7071 -357.4416 1479.9197)" class="st9" width="34.9" height="174.5"/>
											
												<rect x="1619.1" y="1154" transform="matrix(0.7071 -0.7071 0.7071 0.7071 -328.5197 1549.7687)" class="st9" width="174.5" height="34.9"/>
											
												<rect x="1520.4" y="1055.3" transform="matrix(0.7071 -0.7071 0.7071 0.7071 -287.6303 1451.05)" class="st8" width="174.5" height="34.9"/>
										</g>
									</g>
									<g>
										<g>
											
												<rect x="1974.3" y="985.5" transform="matrix(0.7071 -0.7071 0.7071 0.7071 -175.1834 1722.4753)" class="st8" width="34.9" height="174.5"/>
											
												<rect x="1875.5" y="1084.2" transform="matrix(0.7071 -0.7071 0.7071 0.7071 -273.8765 1681.6619)" class="st9" width="34.9" height="174.5"/>
											
												<rect x="1904.5" y="1154" transform="matrix(0.7071 -0.7071 0.7071 0.7071 -244.95 1751.5156)" class="st9" width="174.5" height="34.9"/>
											
												<rect x="1805.7" y="1055.3" transform="matrix(0.7071 -0.7071 0.7071 0.7071 -204.0606 1652.797)" class="st8" width="174.5" height="34.9"/>
										</g>
									</g>
									<g>
										<g>
											
												<rect x="975.7" y="1128.1" transform="matrix(0.7071 -0.7071 0.7071 0.7071 -568.5042 1058.1812)" class="st8" width="34.9" height="174.5"/>
											
												<rect x="877" y="1226.8" transform="matrix(0.7071 -0.7071 0.7071 0.7071 -667.2237 1017.3378)" class="st9" width="34.9" height="174.5"/>
											
												<rect x="905.9" y="1296.6" transform="matrix(0.7071 -0.7071 0.7071 0.7071 -638.3175 1087.1864)" class="st9" width="174.5" height="34.9"/>
											
												<rect x="807.2" y="1197.9" transform="matrix(0.7071 -0.7071 0.7071 0.7071 -597.4281 988.4678)" class="st8" width="174.5" height="34.9"/>
										</g>
									</g>
									<g>
										<g>
											
												<rect x="1261" y="1128.1" transform="matrix(0.7071 -0.7071 0.7071 0.7071 -484.9462 1259.9164)" class="st8" width="34.9" height="174.5"/>
											
												<rect x="1162.3" y="1226.8" transform="matrix(0.7071 -0.7071 0.7071 0.7071 -583.6599 1219.0787)" class="st9" width="34.9" height="174.5"/>
											
												<rect x="1191.2" y="1296.6" transform="matrix(0.7071 -0.7071 0.7071 0.7071 -554.7478 1288.9333)" class="st9" width="174.5" height="34.9"/>
											
												<rect x="1092.5" y="1197.9" transform="matrix(0.7071 -0.7071 0.7071 0.7071 -513.8584 1190.2159)" class="st8" width="174.5" height="34.9"/>
										</g>
									</g>
									<g>
										<g>
											
												<rect x="1546.3" y="1128.1" transform="matrix(0.7071 -0.7071 0.7071 0.7071 -401.3881 1461.6516)" class="st8" width="34.9" height="174.5"/>
											
												<rect x="1447.6" y="1226.8" transform="matrix(0.7071 -0.7071 0.7071 0.7071 -500.0959 1420.8198)" class="st9" width="34.9" height="174.5"/>
											
												<rect x="1476.5" y="1296.6" transform="matrix(0.7071 -0.7071 0.7071 0.7071 -471.1781 1490.6802)" class="st9" width="174.5" height="34.9"/>
											
												<rect x="1377.8" y="1197.9" transform="matrix(0.7071 -0.7071 0.7071 0.7071 -430.2887 1391.9615)" class="st8" width="174.5" height="34.9"/>
										</g>
									</g>
									<g>
										<g>
											
												<rect x="1831.6" y="1128.1" transform="matrix(0.7071 -0.7071 0.7071 0.7071 -317.8301 1663.3868)" class="st8" width="34.9" height="174.5"/>
											
												<rect x="1732.9" y="1226.8" transform="matrix(0.7071 -0.7071 0.7071 0.7071 -416.5321 1622.5608)" class="st9" width="34.9" height="174.5"/>
											
												<rect x="1761.8" y="1296.6" transform="matrix(0.7071 -0.7071 0.7071 0.7071 -387.6084 1692.4271)" class="st9" width="174.5" height="34.9"/>
											
												<rect x="1663.1" y="1197.9" transform="matrix(0.7071 -0.7071 0.7071 0.7071 -346.719 1593.7084)" class="st8" width="174.5" height="34.9"/>
										</g>
									</g>
								</g>
							</g>
						</g>
					</g>
				</g>
			</g>
			<g id="бант">
				<path id="_x31_.1" class="st12" d="M1028.8,339.4c0-0.2,0.1-0.3,0.2-0.4c1.7-1.5,13.4-14.6,23.1-25.2
					c27.1-29.5,46.4-44.5,74.7-55.3c17.4-6.6,42.8-14.5,63.3-18.4c26.1-5,27.9-5.6,48.6-7.7c1.4-0.1,3.1,0.4,3.7,1.7
					c21.4,40.7,40.7,91.3,34.7,131.1c-4.2,27.8-5.1,37.1-7.1,66.9c-1.5,22.7-17.3,60.9-27.6,85.8c-1.1,2.6-4,3.9-6.7,3.1
					c-20-6.5-95.2-24.9-122-39.2c-40.9-21.8-82.5-76.2-84.9-79.4c-0.1-0.1-0.1-0.2-0.1-0.3V339.4z"/>
				<path id="_x31__1_" class="st13" d="M1029,339.5c0-0.2,0.1-0.3,0.2-0.4c9.7-9.4,10.2-10,24-25.1c26.3-28.7,46.8-44.8,73.8-54.7
					c24-8.7,39.5-7.6,74.7-19.3c20.8-6.9,29.6-7.6,37-8.1c1.5-0.1,2.9,0.1,3.6,1.4c21.5,40.8,41.2,92.1,35.1,132
					c-4.2,27.8-5.1,37.1-7.1,66.9c-1.5,22.7-11.5,58-21.8,82.9c-1.1,2.6-4,4-6.7,3.1c-20-6.6-98.4-33-125.2-47.3
					c-40.7-21.7-84.4-65.3-87.4-68.3c-0.1-0.1-0.2-0.2-0.2-0.4V339.5z"/>
				<path id="_x32_.1" class="st12" d="M982.1,338.5c0-0.1,0-0.2-0.1-0.3c-1.1-1.6-11.3-16-21.1-26.8
					c-27.1-29.5-46.3-43.3-74.7-54.1c-17.4-6.6-56.7-17.5-65.5-18c-28.1-1.7-43-6.2-48.3-8.2c-1.4-0.5-2.9,0.1-3.6,1.4
					c-21.4,40.7-32.8,86.4-30.7,134.2c1.2,28,0.8,34.8,2.7,64.7c1.5,22.7,38.5,67.1,49,92.1c1.1,2.6,4,3.8,6.6,2.9
					c19.3-6.5,59.5-22.6,87.8-45.4c36-28.9,93.8-76.2,97.6-79.3c0.1-0.1,0.2-0.3,0.2-0.4V338.5z"/>
				<path id="_x32__1_" class="st13" d="M981.5,338.7c0-0.1,0-0.2-0.1-0.3c-1.1-1.6-12.2-15.6-22-26.3
					c-27.1-29.5-46.3-43.3-74.7-54.1c-17.4-6.6-55.9-17.9-64.6-18.4c-28.1-1.7-43-6.2-48.3-8.2c-1.4-0.5-2.9,0.1-3.6,1.4
					c-21.4,40.7-31.3,84.5-22.7,131.6c5.1,27.6-7.3,37.5-5.4,67.3c1.5,22.7,22.1,59.1,32.6,84c1.1,2.6,3.9,3.9,6.6,3
					c19.5-6.4,73-18.8,104.3-37.4c60.7-36,95.4-76.5,97.7-79.3c0.1-0.1,0.1-0.2,0.1-0.4V338.7z"/>
				<g id="полосы">
					<path class="st14" d="M771,250.8c0.1-1.2,2-6.4,2-6.4c0.7-2.2,3-3.5,5.3-3.1c0,0,7.3,1,7.9,1.6c0.3,0.3-1.1,1-1.9,0.9
						c-2.1-0.3-6-0.5-6-0.5c-1.3-0.1-2.5,0.6-3.1,1.7c0,0-1.9,4.2-2.9,5.2C772,250.7,771,251.3,771,250.8z"/>
					<path class="st14" d="M792.7,506.1c-1.2,0.4-6.6,0.9-6.6,0.9c-2.3,0.3-4.5-1.2-5-3.4c0,0-2.3-7-1.9-7.8
						c0.2-0.4,1.4,0.6,1.7,1.3c0.7,2,2.1,5.6,2.1,5.6c0.4,1.2,1.6,2.1,2.9,2.1c0,0,4.6-0.1,6,0.4
						C792.1,505.3,793.2,505.9,792.7,506.1z"/>
					<path class="st14" d="M1229.5,243.8c1.1-0.5,6.6-1.2,6.6-1.2c2.3-0.4,4.5,0.9,5.2,3.2c0,0,2.6,6.9,2.3,7.7
						c-0.2,0.4-1.4-0.5-1.7-1.2c-0.8-2-2.4-5.5-2.4-5.5c-0.5-1.2-1.7-2-3-1.9c0,0-4.6,0.4-6-0.1C1230.1,244.6,1229,244,1229.5,243.8
						z"/>
					<path class="st14" d="M751,350.6c3.4,4.6,4.9,11.8,5.3,16.2c0.3,3.6-0.6,10.4-2.1,14.3c-1,2.5-2.4,2.5-2.1,0
						c0.5-3.5,1.8-9.6,1.6-12.8c-0.3-4.4-1.4-9.8-4.4-16.5C748.3,349.4,750,349.4,751,350.6z"/>
					<path class="st14" d="M1262.7,411c-2.8-5-1.8-16.4,0.1-20.5c1.1-2.5,3.5-4.2,2.7-1.8c-1.2,3.6-2.1,5.5-2.3,8.7
						c-0.3,4.4-0.6,9.8,1.7,14.3C1266.1,414,1263.5,412.4,1262.7,411z"/>
				</g>
				<g>
					<path class="st15" d="M973.7,353.1c0-0.3-0.2-0.5-0.4-0.6c-3.6-1-29.1-8.2-37.9-11.3c-16.8-6-40.6-28.3-40.6-28.3
						s8.5,10.6,11.8,14c2,2,7.6,6.7,10.5,9.1c0.5,0.4,0.1,1.2-0.5,1c-4.8-1-15.8-3.2-19.9-4.8c-5.5-2-21.5-10.7-21.5-10.7
						s12.7,10.4,17,13.2c2.3,1.5,7.8,4.2,11.1,5.7c0.6,0.3,0.4,1.1-0.3,1.1c-6.5-0.1-22.5-0.4-28.8-1c-8.3-0.9-33.2-5.8-33.2-5.8
						s47.1,13.9,66,17.1c15.4,2.6,62,6.6,66,7c0.3,0,0.6-0.2,0.6-0.6V353.1z"/>
					<path class="st15" d="M973,383.6c0-0.3-0.3-0.6-0.6-0.6c-3.8,0.3-23.8,2.1-30.9,2.3c-6,0.2-18.1-0.7-24.2-0.2
						c-10.8,0.9-24,5.2-34.6,7c-3.7,0.6-14.4,2.1-22.6,3.1c-5.6,0.7-10.1,1.3-10.1,1.3l19.9,0.5c0.6,0,0.8,0.9,0.2,1.1l-21.4,10.6
						c0,0,18.8-6.7,24.9-8.2c5.8-1.4,20.4-3.4,26.2-4.2c0.6-0.1,0.9,0.7,0.4,1.1l-14.1,9.6c0,0,7.1-2.5,9.5-3
						c2.4-0.5,9.7-1.1,9.7-1.1s-19.3,10.8-25.7,14.8c-7.9,5-31.3,21.6-31.3,21.6s27.7-16.2,35.8-20c5.6-2.6,17.7-6.6,23.4-8.4
						c0.6-0.2,1.1,0.6,0.5,1L876.8,437c0,0,27.7-18.2,37.4-23.6c7.2-4,30.1-13.9,30.1-13.9s-5.4,5.5-7,8.2
						c-2.2,3.6-8.2,16.9-8.2,16.9s10.7-14.5,16.2-19.5c3.4-3.1,16.5-11.8,20.8-14.6c0.5-0.3,1,0.1,0.9,0.7l-3.2,11.3l6-9
						c0.3-0.4,0.9-0.3,1.1,0.1l2.2,6.6L973,383.6z"/>
					<path class="st15" d="M1036.8,352.3c0-0.3,0.2-0.5,0.4-0.6c3.6-1,29.1-8.2,37.9-11.3c16.8-6,40.6-28.3,40.6-28.3
						s-8.5,10.6-11.8,14c-2,2-7.6,6.7-10.5,9.1c-0.5,0.4-0.1,1.2,0.5,1c4.8-1,15.8-3.2,19.9-4.8c5.5-2,21.5-10.7,21.5-10.7
						s-12.7,10.4-17,13.2c-2.3,1.5-7.8,4.2-11.1,5.7c-0.6,0.3-0.4,1.1,0.3,1.1c6.5-0.1,22.5-0.4,28.8-1c8.3-0.9,33.2-5.8,33.2-5.8
						s-47.1,13.9-66,17.1c-13.5,2.3-60.1,6.4-66,7c-0.3,0-0.6-0.2-0.6-0.6V352.3z"/>
					<path id="складка" class="st15" d="M1037.4,382.9c0-0.3,0.3-0.6,0.6-0.6c3.8,0.3,23.8,2,30.9,2.2
						c6,0.2,18.1-0.7,24.2-0.2c10.8,0.9,24,5.2,34.6,6.9c3.7,0.6,14.4,2,22.6,3.1c5.6,0.7,10.1,1.3,10.1,1.3l-19.9,0.6
						c-0.6,0-0.8,0.9-0.2,1.1l21.4,10.6c0,0-18.8-6.7-24.9-8.1c-5.8-1.4-20.4-3.4-26.2-4.2c-0.6-0.1-0.9,0.7-0.4,1.1l14.2,9.5
						c0,0-7.1-2.5-9.5-3c-2.4-0.5-9.8-1-9.8-1s19.3,10.7,25.7,14.7c7.9,5,31.4,21.5,31.4,21.5s-27.7-16.1-35.9-19.9
						c-5.6-2.6-17.7-6.5-23.4-8.3c-0.6-0.2-1.1,0.6-0.5,1l31.5,24.9c0,0-27.7-18.1-37.5-23.5c-7.2-3.9-30.2-13.8-30.2-13.8
						s5.4,5.5,7.1,8.2c2.2,3.6,8.2,16.9,8.2,16.9s-10.7-14.4-16.3-19.5c-3.4-3.1-16.6-11.8-20.8-14.6c-0.5-0.3-1,0.1-0.9,0.7
						l3.2,11.3l-6.1-9c-0.3-0.4-0.9-0.3-1.1,0.2l-2.1,6.7L1037.4,382.9z"/>
				</g>
				<g id="узел_1_">
					<path id="узел" class="st16" d="M974.8,338.4c0-0.4,0.4-0.6,0.8-0.5c4.2,0.9,24.1,4.9,30.6,5.2c7.4,0.3,25.6-2.4,29.5-3
						c0.4-0.1,0.7,0.2,0.7,0.6l-4.6,34.3l3,33.8c0,0.3-0.3,0.5-0.6,0.5c-3.8,0.2-25.5,0.9-33.1-0.3c-3.5-0.6-9.6-1.7-13.2-1.7
						c-2.9,0-10.4,0.8-12.7,1c-0.4,0-0.7-0.2-0.7-0.6l4.3-34.9L974.8,338.4z"/>
					<path id="узел1" class="st17" d="M973.8,327.7c0-0.4,0.3-0.7,0.7-0.6c4.1,0.9,24.5,5.8,31.3,6.1c7.7,0.4,28.7-5.1,32.6-5.7
						c0.4-0.1,0.7,0.2,0.7,0.6c0,0-2.7,29.6-2.8,38.8c-0.1,9.3,0.2,37.8,0.2,37.8c0,0.3-0.2,0.6-0.6,0.6c-3.8,0.2-26.6,1-34.5-0.3
						c-3.7-0.6-10.8-3.6-14.6-3.6c-3,0-10.7,2.7-13.2,3.6c-0.4,0.1-0.8-0.2-0.8-0.6c0,0,2.3-28,2.3-37.5
						C975.1,357.2,973.8,327.7,973.8,327.7z"/>
				</g>
			</g>
		</g>
		<g id="рука_2_">
			<g id="кольца">
				<path id="кольцо3" class="st18" d="M1476.3,1083l-13.5,0.5c-12,0.4-22.1-9-22.5-20.9l-1.8-51.1c-0.4-12,9-22.1,20.9-22.5
					l13.5-0.5c12-0.4,22.1,9,22.5,20.9l1.8,51.1C1497.7,1072.5,1488.3,1082.6,1476.3,1083z"/>
				<path id="кольцо4_1_" class="st19" d="M1476,1171.6l-3.8,0.1c-3.4,0.1-6.2-2.5-6.4-5.9l-3.1-87.6
					c-0.1-3.4,2.5-6.2,5.9-6.4l3.8-0.1c3.4-0.1,6.2,2.5,6.4,5.9l3.1,87.6C1482,1168.6,1479.4,1171.5,1476,1171.6z"/>
				
					<ellipse id="кольцо_1_" transform="matrix(0.1767 -0.9843 0.9843 0.1767 335.1252 2171.4194)" class="st18" cx="1465.6" cy="885.4" rx="28.7" ry="22.9"/>
				<path id="кольцо4_2_" class="st19" d="M1469.7,1001.9l-3.8,0.1c-3.4,0.1-6.2-2.5-6.4-5.9l-3.1-87.6
					c-0.1-3.4,2.5-6.2,5.9-6.4l3.8-0.1c3.4-0.1,6.2,2.5,6.4,5.9l3.1,87.6C1475.7,999,1473.1,1001.8,1469.7,1001.9z"/>
				
					<ellipse id="кольцо_2_" transform="matrix(0.9995 -3.255266e-02 3.255266e-02 0.9995 -37.97 48.6141)" class="st18" cx="1474" cy="1190.4" rx="22.9" ry="28.7"/>
			</g>
			<g>
				<path class="st20" d="M1492.6,1238.7l-32.8,1.2l-1.1-32.6c-0.1-2.1,1.6-3.9,3.7-4l25.1-0.9c2.1-0.1,3.9,1.6,4,3.7L1492.6,1238.7
					z"/>
				<path class="st20" d="M1573.1,1339.8c-1-0.9-1.9-1.8-3.1-2.8c-10.7-9.7-19.8-19.6-20.8-38.9c-0.5-9.9-1.4-39.6-1.4-39.6
					c-0.5-13.6-11.9-24.3-25.5-23.8l-93.4,3.3c-13.6,0.5-24.3,11.9-23.8,25.6l2,56c-1.3,0.6-2.6,1.3-3.8,2l-7.1-1.8
					c-0.3-0.1-0.7,0.1-0.7,0.4l-1.7,6.9c-1.7,1.1-3.3,2.1-5,3.3l-6.6-1.2c-0.3-0.1-0.6,0.2-0.7,0.5l-1.3,7.1
					c-1.2,0.9-2.4,1.9-3.6,2.9l-7.3-1.3c-0.3-0.1-0.7,0.2-0.7,0.5l-1.7,9.4c0,0.1,0,0.2,0,0.3c-29.1,29-46.4,69.5-44.9,113.7
					c3,84.4,73.8,150.4,158.2,147.4c84.4-3,150.4-73.8,147.4-158.2C1625.8,1406.4,1604.6,1367.6,1573.1,1339.8z M1473.7,1281.8
					c4.2-0.1,7.6,3.1,7.8,7.2c0.1,3.2-1.7,5.9-4.5,7.1c0.1,0.2,0.1,0.3,0.1,0.5l0.5,14.2c0,0.7-0.5,1.3-1.3,1.4l-3.2,0.1
					c-0.7,0-1.3-0.5-1.4-1.3l-0.5-14.2c0-0.2,0-0.4,0.1-0.5c-2.8-1-4.9-3.6-5-6.8C1466.3,1285.5,1469.5,1282,1473.7,1281.8z
					 M1478.4,1564.5c-59.5,2.1-109.4-44.4-111.5-103.9c-2.1-59.5,44.4-109.4,103.9-111.5c59.5-2.1,109.4,44.4,111.5,103.9
					S1537.9,1562.4,1478.4,1564.5z"/>
				<path class="st21" d="M1489,1608.9c-14.5,2-24.1-8.6-24.5-20.6l-0.1-1.6c-0.6-15.4,9.1-22.3,21.6-22.8"/>
				<circle class="st22" cx="1432" cy="1266.2" r="15"/>
				<circle class="st22" cx="1521.7" cy="1263" r="14.3"/>
				<circle class="st23" cx="1524.7" cy="1304" r="9.7"/>
				<path class="st24" d="M1477,1296.2c0.1,0.2,0.1,0.3,0.1,0.5l0.5,14.2c0,0.7-0.5,1.3-1.3,1.4l-3.2,0.1c-0.7,0-1.3-0.5-1.4-1.3
					l-0.5-14.2c0-0.2,0-0.4,0.1-0.5c-2.8-1-4.9-3.6-5-6.8c-0.1-4.2,3.1-7.6,7.2-7.8c4.2-0.1,7.6,3.1,7.8,7.2
					C1481.5,1292.2,1479.7,1295,1477,1296.2z"/>
			</g>
			<g>
				<path class="st25" d="M1479.3,1060.8l-0.1-6.8l0-15.7c0-1-0.5-3.5-1.5-3.7c-4.6-0.8-21.5-7.6-29.1-11.8
					c-9.3-5.2-8.1-22.7-7.9-27.3c0.8-19.4,3.1-40.1,7.1-65.4c1.1-7,4.3-18,17.6-20.4c5.6-1,9.6,1.2,16.6,2.5
					c14.1,2.8,34,10.9,52.3,10.3c17.1-0.6,29.9-7.1,39.8-17.5c15.1-15.9,22.9-28.2,27.4-45.1c3-11.5,5.8-24.9,3.9-44.6
					c-1.7-17.7-7.7-31.5-14.3-43.3c-3.6-6.6-11.1-16.8-17.4-22.5c-0.1-0.1-3.6-1.9-3.6-2c-3.1-2.8-6.3-4.1-12.5-7.5
					c-0.6-0.4-1.3-0.7-1.9-1c-0.7-0.4-1.5-0.8-2.2-1.1c-1.4-0.7-2.9-1.3-4.3-2c-1.2-0.5-2.5-1-3.8-1.5c-1.2-0.5-2.4-0.9-3.6-1.4
					c-0.3-0.1-0.6-0.2-0.9-0.3c-10.5-3.8-22.5-7.1-31.8-9.8c-4.3-1.2-8-2.3-10.9-3.2c-7.6-2.5-7.7-12.5-8.1-17.2
					c-0.3-3.9,1-11.8,3-15.2c2.3-3.9,4.9-8.1,14-12.7c3.3-1.7,8.4-4.2,13.3-6.5c12.6-6,14.9-9.7,20.2-15.1
					c5.9-6.1,9.9-16.6,16.3-21.8c2.3-1.9,2-0.5,2.3-2.1c3.1-16.6,8-64.4,8-64.4l-36.5-62.8c0,0-1.8-1-4.5-2.5
					c-7.1-3.8-20.6-10.9-26.7-11.9c-9.6-1.6-26.2-0.6-38,2.1c-0.1,0-0.1,0-0.2,0c-2.6,0.6-4.9,1.3-6.9,2
					c-15.3,5.8-17.1,10.6-21.7,14.3c-0.9,0.8-2.1,1.2-3.3,1.4l-48.8,6.9c-0.9,0.1-1.8-0.7-1.6-1.6c0.3-3.4,1.2-9.4,5.3-16.2
					c11.4-18.6,37.6-29,55.4-35.5c9.4-3.4,24.4-6,39.6-6.7c17.2-0.8,34.7,0.8,44.5,6.4c36,20.3,71.9,141,73,144.7c0,0.1,0,0.1,0,0.1
					s-5.5,34.2-13.7,54.8c-4.2,10.7-22.1,29.2-25.8,34.7c-0.5,0.8-0.3,1.8,0.5,2.3c7.5,5,42.7,30.4,52.3,42.5
					c22.7,28.4,38.3,55.3,39.6,78.5c1.9,33.1-11.1,70.8-36.3,104.8c-19.3,26-35.3,32-48.2,40.5c-3.8,2.6-6.3,13.6-9.2,17.2
					c-9.3,11.7-6.6,54.7-16.3,58.4c-6,2.3-30-0.6-37.5-1.6c-0.9-0.1-1.6,0.3-2.1,1c-0.2,0.3-0.3,0.6-0.4,1l-2.7,4.9l-0.5,9.6
					c0,0-0.3,7-0.3,9.2L1479.3,1060.8z"/>
				<path class="st26" d="M1482.1,1052c-1.6-0.1-3-1.4-3-3l0-3.8l0.5-11.4c0,0,0,0,0-0.1l0-6.4l0-2.6c0-1-0.7-1.9-1.7-2
					c-4.3-0.8-15.7-3.4-20.9-9.6c-2.8-3.3-3.5-14.4-3.4-18.8c0.7-18.3,2.9-37.8,6.7-61.6c1.1-6.6,4-17,16.6-19.3
					c5.3-1,9,1.1,15.7,2.4c13.2,2.6,27.7,8.7,44.9,8.2c16.1-0.5,31.8-9.2,39.6-16.3c15.5-14.2,24.5-36.3,27.6-50.6
					c2.4-10.6,3.9-27.7-0.1-46.6c-2.1-9.8-8.3-25.2-15.1-35c-4.3-6.1-11.9-15-20-21.4c-2.3-1.8-12-9.4-24.1-13.3
					c-3.7-1.5-9.3-2.9-11.5-3.3c-11.5-2.3-12.7-1-20.6-3.7c-1-0.3-4-1.9-4.8-2.5c-6.5-5.8-5.8-10.5-6-15.1c-0.1-3.7,2-10.9,3.8-14.1
					c2.1-3.7,4.6-7.7,13.2-12c3.1-1.6,8.3-3.3,12.5-6.1c8.6-5.8,12.8-11.3,15.6-16.2c2.2-3.8,8.8-22.1,10-27.9
					c0.3-1.5,0.6-2.9,0.8-4c2.9-15.7,7.6-37,4-52.6c-3.8-16.7-4.3-22.7-8.6-31.4c-3.3-6.8-14.9-25.1-15.5-26.9
					c-1.5-4.2-18.5-15.6-24-16.5c-11.1-1.8-22.5-5.5-47.5,1.7c-1.1,0.3-2.2,0.7-3.3,1.1c0,0-0.1,0-0.1,0
					c-12.3,4.2-21.8,11.2-26.2,14.8c-0.3,0.2-0.6,0.5-0.8,0.7c-0.9,0.7-2,1.2-3.1,1.3l-36.7,4.2c-0.9,0.1-1.6-0.6-1.6-1.5
					c0.3-3.2,4.4-11.9,5.6-13.7c11.2-17.2,35.5-27.3,52.2-33.4c6.8-2.5,16.7-4.5,27.5-5.6c19.1-2,41.4-2.2,51.9,5.3
					c35.2,25.2,47.3,39.2,57.7,71.5c9.8,30.3,4.7,57.2,5.1,59c0,0-0.6,7-0.6,7s-5.6,34.9-13.3,54.3c-4,10.1-18.8,29.3-25.6,33.6
					c-0.5,0.7-0.3,1.7,0.4,2.1c18.3,5.9,37.3,17.2,54.2,34.7c21.2,22,31.5,50.5,33.7,74.1c2.9,31.1-3,65.5-25.7,96.3
					c-17.5,23.7-42.4,35.7-52.8,40c-4,1.7-8.9,17.2-10.3,21.3c-4.9,14.6-7.4,46.7-16.5,50.3c-6.5,2.6-29.4-0.5-36.5-1.4
					c-0.8-0.1-1.6,0.3-2,0.9c-0.2,0.3-0.3,0.6-0.3,0.9l-0.5,6.5l-0.6,8.9l-0.4,5.9c0,1.7-1.5,3.1-3.2,3L1482.1,1052z"/>
				<path class="st20" d="M1455.4,871.9l24.5,5.3c2.1,0.4,4.1-0.9,4.6-3l8.2-37.9c0.4-2.1-0.9-4.1-3-4.6l-24.5-5.3
					c-2.1-0.4-4.1,0.9-4.6,3l-8.2,37.9C1452,869.4,1453.3,871.5,1455.4,871.9z"/>
				<path class="st20" d="M1654.5,645.4c12.5-83.5-45-161.3-128.5-173.8c-83.5-12.5-161.3,45-173.8,128.5c-6.6,43.8,6.1,86,31.7,118
					c-0.1,0.1-0.1,0.2-0.1,0.3l0.7,9.5c0,0.3,0.3,0.6,0.6,0.6l7.4-0.5c1.1,1.1,2.1,2.2,3.2,3.3l0.5,7.2c0,0.3,0.3,0.6,0.7,0.6
					l6.7-0.5c1.5,1.3,3,2.6,4.6,3.8l0.9,7c0,0.3,0.4,0.6,0.7,0.5l7.3-1c1.2,0.8,2.4,1.6,3.6,2.4l-8.3,55.5
					c-2,13.5,7.3,26.1,20.8,28.1l92.4,13.9c13.5,2,26.1-7.3,28.1-20.8c0,0,4.2-29.4,5.9-39.1c3.2-19.1,13.3-27.9,25.1-36.3
					c1.2-0.9,2.3-1.7,3.4-2.4C1622.4,726.1,1647.9,689.9,1654.5,645.4z M1476.3,787.9c0.5-3.1,2.8-5.5,5.7-6.2
					c-0.1-0.2-0.1-0.4,0-0.5l2.1-14.1c0.1-0.7,0.8-1.2,1.5-1.1l3.1,0.5c0.7,0.1,1.2,0.8,1.1,1.5l-2.1,14.1c0,0.2-0.1,0.4-0.2,0.5
					c2.6,1.5,4.1,4.5,3.6,7.6c-0.6,4.1-4.4,6.9-8.5,6.3C1478.5,795.8,1475.7,792,1476.3,787.9z M1609.9,638.8
					c-8.8,58.9-63.7,99.4-122.5,90.6c-58.9-8.8-99.4-63.7-90.6-122.5c8.8-58.9,63.7-99.4,122.5-90.6
					C1578.2,525,1618.7,579.9,1609.9,638.8z"/>
				<circle class="st22" cx="1438.3" cy="811.1" r="15"/>
				<circle class="st22" cx="1527.1" cy="823.6" r="14.3"/>
				<circle class="st23" cx="1534.4" cy="783.1" r="9.7"/>
			</g>
			<g>
				<path class="st27" d="M1455.7,430.5c28.7,28.8,39,37.2,66.3,44.9c7.9,2.2,103.8-152.4,103.8-152.4l-53-14
					C1572.8,309,1450.5,425.3,1455.7,430.5z"/>
				<path id="рука" class="st7" d="M1376.4,240.4c0,0,50.7,11.4,92.3,12.2c111.9,2.3,126.2,6,173.4,11.8
					c6.6,0.8,19.7,4,25.7,6.9c5.3,2.6,15.1,7.6,18.8,14.3c3.2,5.9,4.2,9.7,5.8,15.5c1.7,6.3,6.3,11.4,12.4,13.7
					c2.7,1,5.5,1.7,10.9,4.1c8,3.5,12.3,6.7,16.7,14.8c4.3,7.9,3.9,15.8,3,21c-1.7,10.1-18.7,25.1-19.7,35.1
					c-1.3,13.4,6.7,14,5.5,24.5c-1.9,15.9-16.4,43.6-16.4,43.6s-15.8,48.8-24.4,63.5c-9.3,15.8-33.7,43.1-41.3,59.8
					c-2.4,5.2-8.9,12-10.2,21.2c0,0,3.1,22,2.8,19.7l0.4,19.8c0,2.5-1.6,4.7-3.9,5.4l0.4,2.5c-2.6,0.8-7.8-3.7-9.4-5.9
					c0,0-2.9-4.8-4.3-5.8c-1.8-1.3-5.5-0.4-7.4-1.5c-1.4-0.8-8.5-6.7-9.6-9c-0.7-1.6-0.2-3.3,1.5-5.3c3.9-4.3,13.9-12.4,13.9-12.4
					s-8.8,4.6-13.7,9.4c-2.6,2.6-6.6,6.9-8,8.7c-4.5,5.7-9.7,10.5-14.4,13.8c-4,2.8-7.3,4.7-13.9,7.6c-6.1,2.6-10.8,3.3-14,1.2
					l-0.3-0.2c-3.4-2.3-3.3-9.2-1.3-13.8l1.8-6.1c0,0-7.5-4.7-7.1-13.5c0.3-6,3.5-11.9,8.7-21.4c7.5-13.7,37.3-28,49.4-37.7
					c18.4-14.8,49.6-50.7,63.4-69.8c11.4-15.9,38.2-68.2,38.2-68.2s-17.1,22.6-22.3,30.5c-5.8,8.9-14.8,28.2-21,36.7
					c-13.5,18.7-44.2,53.8-61.8,68.8c-10.2,8.7-37,21.1-44.6,32.1c-5.6,8.2-9.7,15.3-21.2,22.3c-7.2,4.4-25,13.9-35.9,16.7
					c-5.6,1.5-9.5-5.9-9.1-9.1c1-7.1,9.3-23.1,9.3-23.1s-1.1-10.2,0-13.4c1.4-4,7.6-10.3,10.5-13.4c10-10.5,33.3-27.8,43.7-37.9
					c4.2-4,11.7-12.8,15.2-17.5c7.6-10.2,19.2-33.3,27.4-43.1c6-7.2,21.4-18.4,27.4-25.6c15.7-19.1,39.4-62.3,52.5-83.9
					c1.4-2.4,3.8-6.5,5-8.9c2.7-5.2,9.6-21.5,9.6-21.5s-8.3,12.3-11.1,16.3c-2.3,3.4-6.3,9.6-8.3,13.1
					c-12.2,21.6-34.8,61.1-50.5,80.7c-4.7,5.8-20.9,19.4-25.7,25.1c-8.4,10.2-21.4,33.4-29.7,43.7c-5.2,6.4-15.8,19.2-21.7,25
					c-3.4,3.3-7,4.1-10.1,7.7c-21.3,24.6-38.7,37.5-39.4,38c-2.2,1.6-3,2-5.4,2.4c-2.7,0.4-6.1-0.4-7.7-2.6l0,0
					c-1.4-1.8-1.7-5.9-1.2-8.1c0,0,1.5-5.9,2.5-8c1.8-3.9,8.5-15.9,8.5-15.9s-3.1,2.1-3.6,2.5c-2.9,1.9-5.6,3.3-9,3.3
					c-2.8,0-8.4-5.9-8.1-8.4c0.4-3.3,0.6-7.4,0.6-7.4s-3.9,1.5-7,3.4c-3.1,1.9-5,2.8-6.7,2.6c-1.5-0.1-3.2-1.6-2.5-3.6
					c0,0,1.3-5,7.1-11.2c3.9-4.2,10.3-10.1,15-13.4c2.3-1.6,13.8-6.9,13.8-6.9c1.5,1-4.4,15.2-8.2,19.1c-0.3,0.3-1.4,1.5-1.4,2.1
					c-0.1,3.8,4.4,10.1,6.5,14c0.3,0.5,1.4-0.1,1.3-0.7c-0.7-4-5-8.1-4.7-11.8c0.7-8,9.8-25.4,13.6-32.4c1-1.8,3.4-5.1,4.5-6.8
					c2.9-4.4,8.4-13.2,11.6-17.4c3.8-5,12.6-14,16.1-19.1c14.5-21.2,36.2-68,49-90.3c6.3-10.9,26.3-43.1,26.3-43.1
					s-22.7,28.7-28.8,39.6c-13.7,24.5-22.1,48.1-37.7,67.9c-2.5,3.1-16,0-32.9,5.1c-19.2,5.8-26.5,11.2-34.7,10.1
					c-8.4-1.1-22-11.1-28.9-16.8c-8.7-7.1-17.8-17.6-24.4-26.6c-9.5-13-17.3-20.3-21.2-44.5c-2.9-17.9-2.9-25.5-3.6-34.1
					c-0.4-4.9-0.6-14.8-1.2-19.7C1385.9,286.8,1376.4,240.4,1376.4,240.4z"/>
			</g>
			<g id="ногти">
				<path class="st28" d="M1584.5,634.5c-7.4,8-24.3,16.4-32.3,16.2c-2.6-0.1-4.8-2.8-4.7-5.1c0.1-7,2.4-20.6,15.6-37.4
					c11.9-15.2,26.5-18.6,34.2-10.2C1606.5,608.1,1597.5,620.3,1584.5,634.5z"/>
				<path class="st28" d="M1530.4,609.7c-10.7,6.9-31.6,17.6-38,16.6c-2.9-0.4-6.1-4.4-5.9-6.7c0.9-7.8,7-24.6,24.1-41.6
					c15.4-15.3,32.1-17.4,39.4-7.2C1558.7,583.2,1543.9,601.1,1530.4,609.7z"/>
				<path class="st28" d="M1513.5,557.2c-9.4,8.5-19.8,21.8-29.6,24.2c-2.6,0.7-7.4-2.7-7.4-5c0-7.2,4-19.5,16.9-39.8
					c11.7-18.3,26.1-25.4,33.7-18.6C1539.4,529,1522.6,548.9,1513.5,557.2z"/>
				<path class="st28" d="M1614.4,639.7l12.7,11.7l2.5-1.4c0,0,0.1-21.9-0.6-20.9c-2.4,3.4-6,6.5-8.9,8.6
					C1617.5,639.5,1614.4,639.7,1614.4,639.7z"/>
				<path class="st28" d="M1630.6,623.1c3.6,25-2.8,27-2.8,27s0.7-9.1,0.3-16.1c-0.6-11-1-12-1.7-16c-0.9-5-1.5-12.7-3.3-15.8
					c-0.6-1.1,6.1-5.2,6.3-4.3C1630.3,602.6,1629.8,617.5,1630.6,623.1z"/>
				<path class="st28" d="M1453.2,541.9c-1.1,0-1.7-1.4-1.7-2c0.7-11.1,22.8-26.3,33.6-31.3c5.7-2.7-5,16.7-8.1,20.6
					c-1.9,2.4-6.8,5.4-9.4,7C1464.1,538.3,1456.1,541.8,1453.2,541.9z"/>
			</g>
			<g>
				<path class="st14" d="M1627.1,595.5c2-1.3,4.9-5.5,4.9-5.5l-2.4,5.8C1629.6,595.8,1626.7,595.9,1627.1,595.5z"/>
				<polygon class="st29" points="1479,527.3 1477,529.9 1479.2,533.5 1479.4,529.1 				"/>
				<path class="st14" d="M1483.4,508.5c3.8-1.5,4.1-1.8,5.9-4.8l-1.2,4.9L1483.4,508.5z"/>
				<path id="рука_1_" class="st29" d="M1376.4,240.4c0,0,50.7,11.4,92.3,12.2c111.9,2.3,126.2,6,173.4,11.8
					c6.6,0.8,19.7,4,25.7,6.9c5.3,2.6,15.1,7.6,18.8,14.3c3.2,5.9,4.2,9.7,5.8,15.5c1.7,6.3,6.3,11.4,12.4,13.7
					c2.7,1,5.5,1.7,10.9,4.1c8,3.5,12.3,6.7,16.7,14.8c4.3,7.9,3.9,15.8,3,21c-1.7,10.1-18.7,25.1-19.7,35.1
					c-1.3,13.4,6.7,14,5.5,24.5c-1.9,15.9-16.4,43.6-16.4,43.6s-15.8,48.8-24.4,63.5c-9.3,15.8-31.7,44.1-41.3,59.8
					c-2.3,3.8-5.9,8.7-8.4,14c-1.1,2.4-1.8,4.3-1.8,7.2c0,5,2.6,17.4,2.8,19.7c0.3,4.9,0.2,18.7,0.2,18.7c0,2.5-0.7,9.2-3.1,9.9l0,0
					c-2.6,0.8-8.3-3.8-9.9-5.9c0,0-5.8-5.8-3.5-6.1c2.5-0.4,8.6-5.5,7.6-5.2c-0.5,0.1-6.7,3.7-8.8,4.2c-2,0.4-5,0-6.7-1.1
					c-2.4-1.7-11-8.1-10.4-11.3c0.9-4.6,18-18.4,24.5-23.4c1.4-1.1,8.9-6.9,8.9-6.9c0.4-1.1-25,18.2-30.5,24.1
					c-2.3,2.5-7.1,7.1-8.5,8.9c-4.5,5.7-9.7,10.5-14.4,13.8c-4,2.8-7.3,4.7-13.9,7.6c-6.1,2.6-10.8,3.3-14,1.2l-0.3-0.2
					c-3.4-2.3-3.3-9.2-1.3-13.8l1.8-6.1c0,0-7.5-4.7-7.1-13.5c0.3-6,3.5-11.9,8.7-21.4c7.5-13.7,37.3-28,49.4-37.7
					c18.4-14.8,49.6-50.7,63.4-69.8c11.4-15.9,38.2-68.2,38.2-68.2s-17.1,22.6-22.3,30.5c-5.8,8.9-14.8,28.2-21,36.7
					c-13.5,18.7-44.2,53.8-61.8,68.8c-10.2,8.7-37,21.1-44.6,32.1c-5.6,8.2-9.7,15.3-21.2,22.3c-7.2,4.4-22.8,14.3-35.9,16.7
					c-5.7,1.1-10.3-3.6-9.1-9.1c2.5-11.1,9.3-23.1,9.3-23.1s-1.1-10.2,0-13.4c1.4-4,7.6-10.3,10.5-13.4c10-10.5,33.3-27.8,43.7-37.9
					c4.2-4,11.7-12.8,15.2-17.5c7.6-10.2,19.2-33.3,27.4-43.1c6-7.2,21.4-18.4,27.4-25.6c15.7-19.1,39.4-62.3,52.5-83.9
					c1.4-2.4,3.8-6.5,5-8.9c2.7-5.2,9.6-21.5,9.6-21.5s-8.3,12.3-11.1,16.3c-2.3,3.4-6.3,9.6-8.3,13.1
					c-12.2,21.6-34.8,61.1-50.5,80.7c-4.7,5.8-20.9,19.4-25.7,25.1c-8.4,10.2-21.4,33.4-29.7,43.7c-5.2,6.4-15.8,19.2-21.7,25
					c-3.4,3.3-7,4.1-10.1,7.7c-21.3,24.6-38.7,37.5-39.4,38c-2.2,1.6-3,2-5.4,2.4c-2.7,0.4-6.1-0.4-7.7-2.6l0,0
					c-1.4-1.8-1.7-5.9-1.2-8.1c0,0,1.5-5.9,2.5-8c1.8-3.9,8.5-15.9,8.5-15.9s-3.1,2.1-3.6,2.5c-2.9,1.9-5.6,3.3-9,3.3
					c-2.8,0-7.6-5.9-8.1-8.4c-0.9-4.2,0.6-7.4,0.6-7.4s-3.9,1.5-7,3.4c-3.1,1.9-5,2.8-6.7,2.6c-1.5-0.1-3.2-1.6-2.5-3.6
					c0,0,1.6-4.5,6.7-11.3c3.4-4.4,9.6-10,15.4-13.3c2.5-1.4,14.6-6.7,14.6-6.7c1.5,1-5.2,15-8.9,18.9c-0.3,0.3-1.4,1.5-1.4,2.1
					c-0.1,3.8,4.4,10.1,6.5,14c0.3,0.5,1.6-0.1,1.3-0.7c-2.7-5.3-5-8.7-4.7-12.4c0.7-8,9.9-24.7,13.6-31.8c1-1.8,3.4-5.1,4.5-6.8
					c2.9-4.4,8.4-13.2,11.6-17.4c3.8-5,12.6-14,16.1-19.1c14.5-21.2,36.2-68,49-90.3c6.3-10.9,26.3-43.1,26.3-43.1
					s-22.7,28.7-28.8,39.6c-13.7,24.5-22.1,48.1-37.7,67.9c-2.5,3.1-16,0-32.9,5.1c-19.2,5.8-26.5,11.2-34.7,10.1
					c-8.4-1.1-22-11.1-28.9-16.8c-8.7-7.1-17.8-17.6-24.4-26.6c-9.5-13-17.3-20.3-21.2-44.5c-2.9-17.9-2.9-25.5-3.6-34.1
					c-0.4-4.9-0.6-14.8-1.2-19.7C1385.9,286.8,1376.4,240.4,1376.4,240.4z"/>
			</g>
		</g>
	</g>
	<rect x="71.9" y="71.1" class="st30" width="1872.7" height="1873.2"/>
</g>
</svg>
