<svg xmlns="http://www.w3.org/2000/svg" viewBox="0 0 199.44 61.7">
  <defs>
    <style>.cls-1{fill:#810101;}</style>
  </defs>
  <title>Asset 1</title>
  <g id="Layer_2" data-name="Layer 2">
    <g id="Layer_1-2" data-name="Layer 1">
      <path class="cls-1"
            d="M13.25,0A13.18,13.18,0,0,1,26.49,13.1,13.18,13.18,0,0,1,13.25,26.2,13.18,13.18,0,0,1,0,13.1,13.18,13.18,0,0,1,13.25,0Zm0,23.61A10.51,10.51,0,1,0,2.74,13.1,10.48,10.48,0,0,0,13.25,23.61Z"/>
      <path class="cls-1" d="M26.28.5h10.8V3.1h-4V25.7H30.31V3.1h-4Z"/>
      <path class="cls-1"
            d="M39.1.5h2.73v3l-.21,8.89L46.66.5h2.8L44,13.32,49.46,25.7H46.62l-5-11.41.18,8.06V25.7H39.1Z"/>
      <path class="cls-1"
            d="M51.12.5h1.66a10.12,10.12,0,0,1,1.08,20.2v5H51.12Zm2.74,2.67v14.9c3.74-.22,6.4-3.67,6.4-7.45A7.21,7.21,0,0,0,53.86,3.17Z"/>
      <path class="cls-1"
            d="M77.65,0A13.18,13.18,0,0,1,90.9,13.1a13.25,13.25,0,0,1-26.5,0A13.18,13.18,0,0,1,77.65,0Zm0,23.61A10.51,10.51,0,1,0,67.14,13.1,10.47,10.47,0,0,0,77.65,23.61Z"/>
      <path class="cls-1"
            d="M93.13,25.7V.5h1.19a6.38,6.38,0,0,1,6.33,6.3,5.22,5.22,0,0,1-1.51,3.85,7.85,7.85,0,0,1,4.5,7,8.1,8.1,0,0,1-8.13,8ZM95.87,3.38v6.84a3.83,3.83,0,0,0,2-3.42A3.88,3.88,0,0,0,95.87,3.38Zm0,8.86V23.15a5.58,5.58,0,0,0,5-5.48A5.56,5.56,0,0,0,95.87,12.24Z"/>
      <path class="cls-1"
            d="M127.51,19l2.16,1.59a12.56,12.56,0,0,1-10.8,5.57c-8.28,0-13.89-5.86-13.89-13.1a13.27,13.27,0,0,1,24.87-6.26l-19.4,13.39a11.23,11.23,0,0,0,8.42,3.38A10.17,10.17,0,0,0,127.51,19Zm-18.57-1,17.2-11.84a10.51,10.51,0,0,0-18.43,6.91A10.21,10.21,0,0,0,108.94,18Z"/>
      <path class="cls-1" d="M138.45,18.39H134.5V25.7h-2.74V.5h2.74V15.8h3.95V.5h2.74V25.7h-2.74Z"/>
      <path class="cls-1" d="M150.62,18.39h-4V25.7h-2.73V.5h2.73V15.8h4V.5h2.74V25.7h-2.74Z"/>
      <path class="cls-1"
            d="M158.83,5.51A10.11,10.11,0,0,1,158,25.7h-1.9V.5h2.73Zm0,2.59v15c3.85-.14,6.66-3.6,6.66-7.48A7.29,7.29,0,0,0,158.83,8.1ZM169.59.5h2.74V25.7h-2.74Z"/>
      <path class="cls-1"
            d="M197.1,19l2.16,1.59a12.57,12.57,0,0,1-10.8,5.57c-8.28,0-13.9-5.86-13.9-13.1A13.18,13.18,0,0,1,187.81,0a13.32,13.32,0,0,1,11.63,6.84L180,20.23a11.25,11.25,0,0,0,8.43,3.38A10.18,10.18,0,0,0,197.1,19Zm-18.58-1L195.73,6.19A10.51,10.51,0,0,0,177.3,13.1,10.32,10.32,0,0,0,178.52,18Z"/>
      <path class="cls-1"
            d="M3.24,36.5v3L2.88,58.32,6.41,39.56,7,36.5h4.35V61.7H8.64V58.42L9,39.74,5.54,58.32,4.86,61.7H.5V36.5Z"/>
      <path class="cls-1" d="M14.11,36.5h8.5v2.59H16.85V61.7H14.11Z"/>
      <path class="cls-1"
            d="M24.26,36.5h1.66A10.12,10.12,0,0,1,27,56.7v5H24.26ZM27,39.17v14.9c3.74-.22,6.41-3.67,6.41-7.45A7.22,7.22,0,0,0,27,39.17Z"/>
      <path class="cls-1"
            d="M40.79,41.51A10.11,10.11,0,0,1,40,61.7H38.05V36.5h2.74Zm0,2.59v15c3.85-.14,6.66-3.6,6.66-7.48A7.29,7.29,0,0,0,40.79,44.1Zm10.76-7.6h2.74V61.7H51.55Z"/>
    </g>
  </g>
</svg>
