<svg xmlns="http://www.w3.org/2000/svg" width="35" height="46" viewBox="0 0 35 46">
  <metadata><?xpacket begin="﻿" id="W5M0MpCehiHzreSzNTczkc9d"?>
<x:xmpmeta xmlns:x="adobe:ns:meta/" x:xmptk="Adobe XMP Core 5.6-c140 79.160451, 2017/05/06-01:08:21        ">
   <rdf:RDF xmlns:rdf="http://www.w3.org/1999/02/22-rdf-syntax-ns#">
      <rdf:Description rdf:about=""/>
   </rdf:RDF>
</x:xmpmeta>
                                                                                                    
                                                                                                    
                                                                                                    
                                                                                                    
                                                                                                    
                                                                                                    
                                                                                                    
                                                                                                    
                                                                                                    
                                                                                                    
                                                                                                    
                                                                                                    
                                                                                                    
                                                                                                    
                                                                                                    
                                                                                                    
                                                                                                    
                                                                                                    
                                                                                                    
                                                                                                    
                           
<?xpacket end="w"?></metadata>
<defs>
    <style>
      .cls-1 {
        fill: #810101;
        fill-rule: evenodd;
      }
    </style>
  </defs>
  <path id="Forma_1" data-name="Forma 1" class="cls-1" d="M408.23,271.882l-7.268-3.662a2.018,2.018,0,0,1-1.112-1.813v-2.592c0.175-.215.358-0.46,0.547-0.729a17.579,17.579,0,0,0,2.248-4.446,3.044,3.044,0,0,0,1.77-2.773V252.8a3.072,3.072,0,0,0-.76-2.013V246.71a6.914,6.914,0,0,0-1.592-5c-1.563-1.8-4.1-2.707-7.539-2.707s-5.975.911-7.538,2.706a6.916,6.916,0,0,0-1.592,5v4.077a3.073,3.073,0,0,0-.761,2.013v3.067a3.057,3.057,0,0,0,1.139,2.383,16.14,16.14,0,0,0,2.666,5.549v2.537a2.028,2.028,0,0,1-1.048,1.778l-6.788,3.731a6.92,6.92,0,0,0-3.577,6.073V280.4c0,3.639,11.447,4.6,17.5,4.6s17.5-.961,17.5-4.6v-2.333A6.884,6.884,0,0,0,408.23,271.882Z" transform="translate(-377.031 -239)"/>
</svg>
