<?xml version="1.0" encoding="utf-8"?>
<!-- Generator: Adobe Illustrator 22.1.0, SVG Export Plug-In . SVG Version: 6.00 Build 0)  -->
<svg version="1.1" id="Layer_1" xmlns="http://www.w3.org/2000/svg" xmlns:xlink="http://www.w3.org/1999/xlink" x="0px" y="0px"
	 viewBox="0 0 226.2 33.1" style="enable-background:new 0 0 226.2 33.1;" xml:space="preserve">
<style type="text/css">
	.st0{fill: white;}
</style>
<g>
	<path class="st0" d="M16.8,16.4c-0.8,1.4-1.6,2.6-2.3,3.7c-0.7,1.1-1.3,2.1-1.8,2.9c-0.5,0.8-0.9,1.6-1.2,2.2
		c-0.3,0.6-0.4,1.2-0.4,1.6s0.2,0.7,0.6,0.7c0.3,0,0.6-0.1,0.9-0.3c0.4-0.2,0.7-0.4,1.2-0.7c0.4-0.3,0.8-0.6,1.2-1
		c0.4-0.4,0.8-0.8,1.2-1.2c0.5-0.5,0.9-1,1.4-1.5c0.5-0.5,0.9-1,1.3-1.5c0.4-0.5,0.8-0.9,1.1-1.3c0.3-0.4,0.6-0.7,0.8-1l0.3,0.2
		c-0.5,0.7-1.2,1.5-2,2.4c-0.8,0.9-1.6,1.9-2.5,2.8c-1.1,1.1-2.1,2-3,2.6c-0.9,0.6-1.8,0.9-2.7,0.9c-0.6,0-1.2-0.2-1.5-0.6
		c-0.4-0.4-0.6-0.9-0.6-1.4c0-0.4,0-0.8,0.1-1.1c0.1-0.3,0.2-0.6,0.3-0.7l-0.1-0.1c-0.4,0.4-0.8,0.8-1.2,1.3
		c-0.4,0.5-0.9,0.9-1.4,1.3c-0.5,0.4-1.1,0.7-1.6,1s-1.2,0.4-1.9,0.4c-0.7,0-1.2-0.2-1.5-0.6C0.8,27,0.7,26.6,0.7,26
		c0-0.8,0.4-2,1.3-3.5c0.9-1.5,2.1-3.5,3.6-6l3.4-0.1c-1.7,2.6-3.1,4.7-4.1,6.4c-1.1,1.7-1.6,2.9-1.6,3.7c0,0.3,0.1,0.5,0.2,0.6
		c0.1,0.2,0.3,0.3,0.6,0.3c0.4,0,0.9-0.2,1.5-0.5C6,26.5,6.6,26,7.2,25.4c0.6-0.6,1.2-1.2,1.8-2c0.6-0.7,1.2-1.5,1.6-2.3l2.8-4.5
		L16.8,16.4z"/>
	<path class="st0" d="M45.4,19.5c-0.7,0.9-1.4,1.8-2.3,2.6c-0.8,0.8-1.7,1.5-2.6,2c-0.9,0.6-1.8,1-2.7,1.4c-0.9,0.4-2,0.7-3,1
		c-1,0.7-1.9,1.1-2.8,1.4c-0.9,0.2-1.7,0.3-2.3,0.3c-1.2,0-2.1-0.3-2.8-1c-0.7-0.6-1.1-1.6-1.1-2.9c0-0.9,0.2-1.9,0.7-2.8
		c0.4-1,1.1-1.9,2.1-2.8c0.5-0.5,1.1-0.9,1.7-1.2s1.1-0.7,1.7-0.9c0.6-0.2,1.1-0.4,1.6-0.5c0.5-0.1,1-0.2,1.3-0.2
		c0.6,0,1.1,0.1,1.4,0.3c0.3,0.2,0.5,0.4,0.7,0.7c0-0.1,0.1-0.4,0.1-0.7c0-0.4,0-0.6,0-0.8c0-1.2-0.2-2.4-0.5-3.5
		C36.1,10.8,35.6,9.8,35,9c-0.7-0.8-1.5-1.4-2.5-1.9c-1-0.4-2.1-0.6-3.4-0.6c-0.9,0-1.7,0.1-2.4,0.4c-0.7,0.2-1.4,0.5-2.2,0.9
		l-0.1-0.3c1.1-0.7,2.2-1.2,3.2-1.5c1-0.3,2.1-0.5,3.3-0.5c1.2,0,2.4,0.2,3.4,0.6c1.1,0.4,2,1,2.8,1.9c0.8,0.9,1.4,1.9,1.9,3.1
		c0.5,1.2,0.7,2.5,0.7,3.8c0,1.2-0.1,2.5-0.3,3.7c-0.2,1.2-0.6,2.4-1.3,3.6c-0.4,0.7-0.8,1.4-1.3,2.1c-0.5,0.6-1.1,1.2-1.7,1.7l0,0
		c0.9-0.3,1.8-0.6,2.7-0.9c0.9-0.4,1.7-0.8,2.4-1.3c1.8-1.2,3.4-2.7,4.9-4.5L45.4,19.5z M29.8,27.9c0.4,0,0.9-0.2,1.5-0.5
		c0.5-0.3,1.1-0.8,1.6-1.5c0.4-0.5,0.9-1.1,1.3-1.8c0.4-0.7,0.8-1.4,1.1-2.1c0.3-0.7,0.6-1.4,0.8-2.1s0.3-1.3,0.3-1.9
		c0-0.6-0.1-1-0.4-1.3c-0.3-0.2-0.6-0.4-1-0.4c-0.6,0-1.3,0.3-2,0.8c-0.7,0.6-1.5,1.4-2.2,2.6c-0.4,0.6-0.7,1.1-1,1.7
		c-0.3,0.6-0.5,1.2-0.7,1.8c-0.2,0.6-0.4,1.1-0.5,1.6c-0.1,0.5-0.2,0.9-0.2,1.2c0,0.6,0.1,1.1,0.3,1.4
		C28.9,27.7,29.2,27.9,29.8,27.9z"/>
	<path class="st0" d="M54.5,16.7l3.3-0.2c-0.2,0.4-0.5,0.8-0.8,1.4c-0.4,0.5-0.8,1.1-1.2,1.8s-0.9,1.3-1.3,2c-0.4,0.7-0.8,1.3-1.2,2
		c-0.4,0.6-0.7,1.2-0.9,1.8c-0.2,0.5-0.3,1-0.3,1.4c0,0.5,0.3,0.8,0.8,0.8c0.5,0,1.2-0.3,2.1-0.9c0.9-0.6,1.8-1.4,2.8-2.4
		c0.4-0.4,0.8-0.8,1.2-1.3c0.4-0.5,0.8-0.9,1.2-1.4c0.4-0.5,0.7-0.9,1.1-1.3c0.3-0.4,0.6-0.7,0.8-1l0.2,0.1
		c-0.6,0.7-1.2,1.6-1.9,2.5c-0.7,0.9-1.6,1.9-2.6,2.9s-2,1.9-3,2.5s-2,1-3,1c-0.7,0-1.2-0.2-1.6-0.5c-0.4-0.4-0.6-0.8-0.6-1.3
		c0-0.2,0-0.3,0-0.5c0-0.1,0.1-0.3,0.1-0.4h-0.1c-0.7,0.7-1.4,1.4-2.2,1.9c-0.8,0.5-1.7,0.8-2.7,0.8c-0.5,0-0.9-0.1-1.3-0.3
		c-0.4-0.2-0.7-0.5-0.9-0.8c-0.2-0.3-0.4-0.7-0.5-1.1c-0.1-0.4-0.2-0.8-0.2-1.3c0-1,0.3-2.1,0.9-3.1c0.6-1,1.3-2,2.2-2.8
		c0.9-0.8,1.9-1.5,2.9-2c1.1-0.5,2.1-0.8,3.1-0.8c0.7,0,1.3,0.2,1.8,0.5c0.4,0.3,0.8,0.8,1.1,1.5L54.5,16.7z M44.9,24.9
		c0,0.6,0.1,1.2,0.3,1.6c0.2,0.5,0.6,0.7,1.3,0.7c0.4,0,0.9-0.2,1.4-0.6c0.5-0.4,1-0.8,1.4-1.3c0.5-0.5,0.9-1.1,1.3-1.8
		c0.4-0.7,0.8-1.3,1.1-2c0.3-0.7,0.6-1.3,0.7-1.9c0.2-0.6,0.3-1.1,0.3-1.5c0-0.6-0.1-1-0.3-1.3c-0.2-0.3-0.6-0.5-1.2-0.5
		c-0.5,0-1,0.1-1.5,0.4c-0.5,0.3-1,0.7-1.4,1.2c-0.5,0.5-0.9,1-1.3,1.6c-0.4,0.6-0.8,1.2-1.1,1.9c-0.3,0.6-0.5,1.3-0.7,1.8
		C44.9,23.9,44.9,24.5,44.9,24.9z"/>
	<path class="st0" d="M75.5,25.2c0-1,0.3-2,0.8-3c0.6-1,1.2-1.8,1.9-2.6l0,0c-0.5,0.4-1,0.8-1.6,1.4c-0.6,0.6-1.2,1.2-1.7,1.7
		c-0.2,0.1-0.4,0.3-0.6,0.6c-0.2,0.2-0.4,0.5-0.6,0.7c-0.2,0.3-0.4,0.5-0.7,0.8c-0.2,0.3-0.4,0.5-0.6,0.8c-0.3,0.4-0.5,0.7-0.8,1.1
		c-0.2,0.4-0.4,0.7-0.4,0.9l-3.5,0.2l4.9-8.4l0,0c-0.6,0.6-1.1,1.2-1.5,1.6c-0.4,0.4-0.9,0.9-1.4,1.3c-0.3,0.3-0.7,0.6-1.1,1
		c-0.4,0.4-0.9,0.8-1.4,1.1c-0.5,0.4-1,0.8-1.5,1.2c-0.5,0.4-1,0.7-1.5,1.1c-0.7,0.4-1.4,0.8-2.2,1.1c-0.7,0.3-1.5,0.4-2.3,0.4
		c-1.3,0-2.2-0.3-2.7-0.8c-0.5-0.5-0.8-1.2-0.8-1.9c0-0.6,0.2-1.1,0.5-1.5c0.3-0.4,0.8-0.6,1.5-0.6c0.4,0,0.7,0.1,1,0.4
		c0.3,0.2,0.4,0.6,0.4,1c0,0.4-0.1,0.7-0.4,1c-0.3,0.3-0.6,0.5-1,0.5c0,0.5,0.1,0.9,0.4,1.2c0.3,0.3,0.6,0.4,1.1,0.4
		c0.6,0,1.3-0.2,2.1-0.6c0.8-0.4,1.7-1.1,2.7-2.2c0.5-0.5,0.9-1,1.2-1.6c0.3-0.6,0.6-1.1,0.8-1.6c0.2-0.5,0.3-1,0.4-1.5
		C67,19.8,67,19.4,67,19c0-0.6-0.1-1.1-0.3-1.5c-0.2-0.4-0.6-0.6-1.2-0.6c-0.3,0-0.5,0-0.8,0.1c-0.2,0.1-0.5,0.3-0.9,0.6
		c-0.3,0.2-0.5,0.5-0.8,0.8c-0.3,0.3-0.6,0.7-0.8,1l-0.3-0.2c0.3-0.4,0.6-0.8,0.9-1.2c0.3-0.4,0.6-0.7,0.9-0.9c0.5-0.4,1-0.8,1.5-1
		c0.5-0.2,1-0.3,1.6-0.3c0.8,0,1.5,0.3,2.1,0.8c0.6,0.5,0.8,1.2,0.8,2.2c0,0.9-0.3,1.8-0.8,2.7c-0.3,0.6-0.7,1.1-1,1.5
		c-0.4,0.4-0.7,0.8-1.1,1.2l0.1,0.1c0.5-0.4,0.9-0.7,1.4-1.1c0.4-0.4,0.9-0.8,1.4-1.3c0.6-0.6,1.4-1.3,2.2-2.2
		c0.9-0.9,1.7-2,2.5-3.2l3.4-0.2c-0.4,0.7-0.9,1.3-1.2,1.9c-0.3,0.5-0.7,1-1,1.6c-0.3,0.5-0.6,1-0.8,1.3c-0.4,0.6-0.8,1.3-1.2,2
		c-0.4,0.7-0.8,1.3-1.2,2h0c0.4-0.6,0.9-1.2,1.4-1.7c0.5-0.5,1-1.1,1.6-1.6c0.6-0.6,1.4-1.3,2.4-2.1c0.9-0.9,2-1.7,3.2-2.4
		c1.3-0.8,2.7-1.2,4-1.2c0.8,0,1.4,0.2,2,0.6c0.5,0.4,0.8,0.9,0.8,1.6c0,0.6-0.2,1.1-0.7,1.5c-0.4,0.4-1,0.6-1.6,0.6
		c-0.3,0-0.6,0-0.8-0.1c0.1-0.2,0.2-0.5,0.4-1c0.1-0.4,0.2-0.9,0.2-1.5c0-0.3-0.1-0.6-0.2-0.8c-0.1-0.3-0.4-0.4-0.8-0.4
		c-0.5,0-1,0.2-1.5,0.5c-0.5,0.3-1.1,0.9-1.8,1.7c-1,1.2-1.6,2.3-2,3.4c-0.4,1-0.6,1.9-0.6,2.7c0,0.7,0.2,1.3,0.6,1.7
		c0.4,0.4,0.9,0.6,1.6,0.6c0.7,0,1.6-0.2,2.5-0.7c0.9-0.5,2-1.2,3-2.2c1.3-1.2,2.7-2.7,4.2-4.8l0.2,0.2c-0.7,0.9-1.4,1.8-2.1,2.7
		c-0.7,0.9-1.4,1.6-2.1,2.3c-1.5,1.4-2.9,2.4-4.1,3c-1.2,0.6-2.4,0.8-3.5,0.8c-0.9,0-1.6-0.3-2.1-0.8C75.8,26.9,75.5,26.2,75.5,25.2
		z"/>
	<path class="st0" d="M103.5,19.4c-0.7,0.9-1.4,1.8-2.1,2.7c-0.8,0.9-1.7,1.8-2.7,2.8c-1.5,1.3-2.9,2.2-4.2,2.7
		c-1.4,0.5-2.6,0.8-3.8,0.8c-1.2,0-2.2-0.4-2.9-1.1c-0.7-0.7-1.1-1.7-1.1-2.8c0-1,0.3-2,0.9-3c0.6-1,1.4-1.9,2.3-2.7
		c0.9-0.8,2-1.4,3.1-1.9c1.1-0.5,2.2-0.7,3.2-0.7c0.9,0,1.6,0.2,2.1,0.5c0.5,0.4,0.8,0.8,0.8,1.5c0,0.5-0.2,1-0.5,1.4
		c-0.4,0.4-0.8,0.8-1.4,1.2c-0.6,0.3-1.2,0.6-1.9,0.9c-0.7,0.3-1.4,0.5-2.1,0.7c-0.7,0.2-1.3,0.4-1.9,0.5c-0.6,0.1-1.1,0.2-1.5,0.3
		c-0.1,0.4-0.2,0.8-0.2,1.2c0,0.9,0.3,1.7,0.8,2.2c0.5,0.6,1.2,0.9,2.1,0.9c0.9,0,1.9-0.3,3-0.8c1.1-0.5,2.2-1.3,3.2-2.3
		c0.8-0.8,1.6-1.6,2.4-2.5c0.8-0.9,1.4-1.7,2-2.4L103.5,19.4z M96.5,17.2c0-0.3-0.1-0.5-0.2-0.6c-0.2-0.1-0.4-0.2-0.6-0.2
		c-0.5,0-1.1,0.2-1.7,0.7c-0.6,0.4-1.2,1-1.7,1.6c-0.5,0.7-1,1.3-1.4,2c-0.4,0.7-0.7,1.3-0.8,1.9c0.9-0.2,1.7-0.5,2.5-0.8
		c0.8-0.4,1.5-0.8,2.1-1.3c0.6-0.5,1.1-1,1.5-1.6C96.3,18.3,96.5,17.7,96.5,17.2z"/>
	<path class="st0" d="M134.7,4.9c-0.3,0.5-0.6,1-0.8,1.4c-0.3,0.4-0.5,0.8-0.8,1.2c-0.4,0.5-0.9,0.9-1.3,1.2c-0.5,0.3-1,0.4-1.6,0.4
		c-0.6,0-1.1-0.1-1.5-0.2c-0.5-0.1-1-0.3-1.5-0.5c-0.6-0.2-1.1-0.3-1.5-0.4c-0.4-0.1-0.8-0.2-1.1-0.2c-0.5,0-0.8,0.1-1.1,0.4
		c-0.3,0.3-0.5,0.8-0.6,1.5l-1.1,9.6c-0.1,0.7-0.2,1.2-0.3,1.8c-0.1,0.5-0.3,1.1-0.7,1.8c-0.3,0.6-0.8,1.2-1.3,2
		c0.7-0.3,1.4-0.5,2-0.8c0.6-0.3,1.3-0.7,2-1.2c0.6-0.4,1.3-1,1.9-1.6c0.7-0.6,1.2-1.3,1.7-2l0.3,0.3c-0.6,0.7-1.2,1.4-1.8,2
		c-0.6,0.6-1.3,1.2-2,1.6c-0.5,0.3-1,0.6-1.6,0.9c-0.5,0.3-1,0.5-1.4,0.7s-0.8,0.3-1.1,0.4c-0.2,0.1-0.4,0.1-0.4,0.1
		c-0.7,0.7-1.6,1.4-2.7,2c-0.6,0.3-1.3,0.6-1.9,0.8c-0.7,0.2-1.4,0.3-2.1,0.3c-1.3,0-2.3-0.3-2.9-1c-0.7-0.7-1-1.7-1-2.9
		c0-1,0.3-2.1,1-3.2c0.6-1.1,1.6-2.1,2.9-3.1c0.8-0.6,1.7-1.1,2.7-1.5c1-0.4,1.9-0.5,2.7-0.5c0.4,0,0.8,0,1.3,0.1
		c0.4,0.1,0.8,0.2,1.2,0.5c0.3,0.2,0.6,0.4,0.8,0.8c0.2,0.3,0.4,0.7,0.5,1.2h0.1l1.1-9.3c0.1-0.5,0.1-0.9,0.3-1.4
		c0.1-0.5,0.4-0.9,0.7-1.4c0.3-0.4,0.8-0.6,1.2-0.7c0.5-0.1,0.9-0.2,1.3-0.2c0.5,0,1,0.1,1.5,0.2c0.5,0.1,1,0.3,1.5,0.5
		c0.5,0.2,1,0.3,1.4,0.5c0.4,0.2,0.9,0.3,1.2,0.3c0.4,0,0.7-0.1,1-0.2c0.3-0.1,0.5-0.3,0.8-0.5c0.2-0.2,0.3-0.4,0.5-0.6
		c0.2-0.2,0.4-0.5,0.6-0.8L134.7,4.9z M117.4,16.4c-0.6,0-1.2,0.3-1.8,0.8c-0.7,0.5-1.3,1.2-2,2.2c-0.4,0.5-0.7,1.1-1,1.7
		c-0.3,0.6-0.6,1.2-0.8,1.8c-0.2,0.6-0.4,1.2-0.6,1.7c-0.1,0.6-0.2,1-0.2,1.4c0,0.6,0.1,1.1,0.3,1.4c0.2,0.3,0.6,0.5,1.1,0.5
		c0.6,0,1.3-0.3,2-0.9c0.7-0.6,1.5-1.5,2.2-2.6c0.7-1.2,1.3-2.3,1.7-3.4c0.4-1.1,0.6-2.1,0.6-2.8C118.9,17,118.4,16.4,117.4,16.4z"
		/>
	<path class="st0" d="M142.6,19.5c-0.4,0.6-0.9,1.1-1.5,1.5c-0.6,0.4-1.2,0.7-1.9,0.7c-0.5,0-0.9-0.1-1.3-0.3
		c-0.4-0.2-0.7-0.5-1-0.9c-0.3,1.1-0.7,2.1-1.3,3c-0.6,0.9-1.3,1.8-2.1,2.5c-0.8,0.7-1.8,1.3-2.8,1.7c-1,0.4-2.1,0.6-3.2,0.6
		c-1.2,0-2.1-0.3-2.8-1c-0.7-0.7-1.1-1.6-1.1-2.8c0-1.1,0.3-2.2,0.9-3.2c0.6-1,1.3-1.9,2.2-2.7c0.9-0.8,1.9-1.4,3-1.9
		c1.1-0.5,2.2-0.7,3.3-0.7c1.2,0,2.1,0.3,2.7,0.9c0.7,0.6,1.1,1.4,1.2,2.2c0.1,0.6,0.3,1.2,0.7,1.5c0.4,0.4,0.9,0.6,1.5,0.6
		c0.6,0,1.1-0.2,1.6-0.5c0.5-0.3,1.1-0.9,1.6-1.5L142.6,19.5z M127.7,27.9c0.5,0,1.1-0.2,1.6-0.5c0.5-0.4,1-0.8,1.5-1.4
		c0.5-0.6,0.9-1.2,1.4-2c0.4-0.7,0.8-1.5,1.1-2.2c0.3-0.7,0.5-1.4,0.7-2.1c0.2-0.7,0.3-1.2,0.3-1.7c0-0.5-0.1-0.9-0.3-1.2
		c-0.2-0.3-0.6-0.4-1.1-0.4c-0.5,0-1.1,0.2-1.6,0.5c-0.5,0.4-1,0.8-1.5,1.4c-0.5,0.6-0.9,1.2-1.4,2s-0.8,1.5-1.1,2.2
		c-0.3,0.7-0.5,1.4-0.7,2.1c-0.2,0.7-0.3,1.2-0.3,1.7c0,0.5,0.1,0.9,0.3,1.2C126.9,27.7,127.2,27.9,127.7,27.9z"/>
	<path class="st0" d="M138.3,26.1c0,0.4,0.1,0.7,0.3,1.1c0.2,0.3,0.6,0.5,1.1,0.5c0.4,0,0.9-0.1,1.4-0.4c0.5-0.3,1-0.6,1.5-1
		c0.6-0.5,1.3-1.3,2.2-2.4c0.9-1.1,2-2.5,3.2-4.4c0.3-0.4,0.6-0.9,0.9-1.4c0.3-0.5,0.6-1,0.9-1.5l3.3-0.3c-0.7,1.1-1.3,2.1-1.9,3
		c-0.6,0.9-1.1,1.8-1.6,2.5c-0.7,1.2-1.3,2.1-1.7,2.9c-0.4,0.8-0.6,1.4-0.6,1.9c0,0.2,0,0.4,0.1,0.5c0.1,0.1,0.2,0.2,0.5,0.2
		c0.4,0,1.1-0.3,1.9-0.9c0.8-0.6,1.8-1.5,3-2.7c0.6-0.6,1.3-1.3,1.9-2.1c0.7-0.8,1.4-1.7,2.2-2.7l0.3,0.2c-0.7,1-1.5,1.9-2.2,2.7
		s-1.3,1.5-2,2.2c-1.3,1.4-2.5,2.4-3.4,3c-1,0.6-1.8,0.9-2.6,0.9c-0.7,0-1.2-0.2-1.6-0.6c-0.4-0.4-0.5-0.9-0.5-1.6
		c0-0.4,0.1-0.8,0.2-1.2c0.1-0.4,0.3-0.8,0.5-1.1l-0.1-0.1c-0.6,0.7-1.1,1.3-1.5,1.8c-0.4,0.4-0.9,0.9-1.3,1.3
		c-1.1,1-2.2,1.5-3.4,1.5c-0.8,0-1.5-0.2-2.1-0.7c-0.6-0.5-0.9-1.1-0.9-2c0-0.6,0.2-1.1,0.5-1.5s0.8-0.6,1.5-0.6
		c0.4,0,0.7,0.1,1,0.4s0.4,0.6,0.4,1c0,0.3-0.1,0.6-0.4,1C139.1,26,138.8,26.1,138.3,26.1z"/>
	<path class="st0" d="M162.8,23.1c0.5-0.1,1.1-0.3,1.7-0.5c0.7-0.3,1.3-0.6,1.9-1c0.4-0.3,0.9-0.6,1.4-1s1-0.9,1.6-1.6l0.2,0.2
		c-0.6,0.7-1.2,1.3-1.7,1.7c-0.5,0.4-1,0.8-1.6,1.1c-0.6,0.4-1.2,0.7-1.8,0.9c-0.6,0.3-1.2,0.5-1.9,0.6l-0.1,0.4
		c-0.1,0.4-0.4,0.8-0.7,1.3c-0.3,0.5-0.8,1-1.4,1.5c-0.7,0.6-1.5,1-2.4,1.2c-0.8,0.2-1.6,0.3-2.1,0.3c-0.4,0-0.8-0.1-1.2-0.1
		c-0.4-0.1-0.7-0.2-1.1-0.4c-0.3-0.2-0.6-0.5-0.8-0.9c-0.2-0.4-0.3-0.8-0.3-1.3c0-0.4,0.1-0.8,0.2-1.2s0.3-0.9,0.6-1.5
		c0.1-0.2,0.2-0.4,0.4-0.7s0.3-0.5,0.4-0.7c0.1-0.2,0.3-0.4,0.4-0.6c0.1-0.2,0.2-0.3,0.3-0.4l2.4-3.7l3.5-0.3l-3.6,5.2
		c-0.8,1.1-1.3,2.1-1.6,2.8c-0.3,0.7-0.5,1.3-0.5,1.9c0,0.3,0.1,0.7,0.3,1c0.2,0.3,0.5,0.5,1,0.5c0.6,0,1.1-0.1,1.5-0.4
		c0.5-0.3,0.8-0.6,1.2-1.1c0.4-0.6,0.7-1.2,0.8-1.7c0.1-0.5,0.2-1,0.3-1.3c-0.1-0.1-0.2-0.2-0.3-0.4c-0.1-0.2-0.2-0.5-0.2-0.8
		c0-0.6,0.2-1,0.5-1.3c0.3-0.3,0.7-0.4,1.1-0.4c0.4,0,0.7,0.2,1,0.5c0.3,0.3,0.5,0.8,0.5,1.5c0,0.3,0,0.5,0,0.7L162.8,23.1z"/>
	<path class="st0" d="M180.9,24.2c-0.3,0.3-0.7,0.7-1.2,1.2c-0.5,0.5-1,0.9-1.6,1.4c-0.5,0.4-1,0.7-1.6,0.9s-1.2,0.4-1.8,0.4
		c-0.7,0-1.3-0.2-1.6-0.6c-0.3-0.4-0.5-0.9-0.5-1.6c0-0.4,0-0.7,0.1-0.9c0.1-0.2,0.2-0.5,0.3-0.7l-0.1-0.1c-0.4,0.4-0.8,0.9-1.2,1.2
		c-0.4,0.4-0.8,0.7-1.2,1.1c-0.7,0.6-1.3,1-2,1.2s-1.2,0.4-1.8,0.4c-0.7,0-1.2-0.2-1.6-0.6c-0.4-0.4-0.5-0.9-0.5-1.6
		c0-0.5,0.1-1.1,0.4-1.7c0.3-0.7,0.7-1.4,1.2-2.3l3.2-5.5l3.4-0.1l-2.9,4.5c-0.3,0.5-0.7,1-1,1.5c-0.3,0.5-0.6,0.9-0.8,1.3
		c-0.4,0.7-0.6,1.2-0.8,1.6c-0.2,0.4-0.2,0.8-0.2,1.1c0,0.3,0.1,0.5,0.2,0.7c0.1,0.2,0.3,0.3,0.6,0.3c0.4,0,1-0.2,1.7-0.7
		c0.7-0.5,1.7-1.3,2.8-2.6c0.7-0.8,1.3-1.6,1.7-2.3c0.5-0.7,1-1.5,1.5-2.4l1.7-2.7l3.4-0.3l-2.7,4.2c-0.2,0.3-0.5,0.8-0.9,1.3
		c-0.3,0.5-0.6,1-0.9,1.5c-0.3,0.6-0.6,1.2-0.9,1.7s-0.4,1-0.4,1.4c0,0.2,0.1,0.4,0.2,0.6c0.1,0.2,0.3,0.2,0.6,0.2
		c0.3,0,0.7-0.1,1.2-0.4c0.5-0.3,1.1-0.7,1.7-1.2c0.6-0.5,1.2-1.1,1.8-1.9c0.6-0.7,1.3-1.7,2-2.8c0.4-0.7,0.9-1.4,1.3-2.1
		c0.4-0.7,0.9-1.5,1.4-2.3l3.3-0.3c-0.5,0.8-1,1.6-1.4,2.3c-0.4,0.7-0.8,1.3-1.2,2c-0.4,0.6-0.7,1.1-1.1,1.8c-0.4,0.6-0.7,1.2-1,1.7
		c-0.3,0.6-0.6,1.1-0.8,1.6c-0.2,0.5-0.2,0.8-0.2,1.1c0,0.2,0,0.4,0.1,0.5c0.1,0.1,0.2,0.2,0.5,0.2c0.4,0,1.1-0.3,2.1-1
		c0.9-0.7,2-1.6,3.1-2.9c0.6-0.6,1.2-1.3,1.9-2.1s1.3-1.6,2-2.5l0.3,0.2c-1.5,1.9-2.8,3.5-4,4.8c-1.3,1.3-2.4,2.3-3.3,3
		s-1.9,1-2.8,1c-0.7,0-1.2-0.2-1.6-0.6c-0.4-0.4-0.6-0.9-0.6-1.5c0-0.4,0-0.7,0.1-0.9C180.7,24.9,180.8,24.6,180.9,24.2L180.9,24.2z
		"/>
	<path class="st0" d="M205.9,19.4c-0.7,0.9-1.4,1.8-2.1,2.7c-0.8,0.9-1.7,1.8-2.7,2.8c-1.5,1.3-2.9,2.2-4.2,2.7
		c-1.4,0.5-2.6,0.8-3.8,0.8c-1.2,0-2.2-0.4-2.9-1.1c-0.7-0.7-1.1-1.7-1.1-2.8c0-1,0.3-2,0.9-3c0.6-1,1.4-1.9,2.3-2.7
		c0.9-0.8,2-1.4,3.1-1.9c1.1-0.5,2.2-0.7,3.2-0.7c0.9,0,1.6,0.2,2.1,0.5c0.5,0.4,0.8,0.8,0.8,1.5c0,0.5-0.2,1-0.5,1.4
		c-0.4,0.4-0.8,0.8-1.4,1.2c-0.6,0.3-1.2,0.6-1.9,0.9c-0.7,0.3-1.4,0.5-2.1,0.7c-0.7,0.2-1.3,0.4-1.9,0.5c-0.6,0.1-1.1,0.2-1.5,0.3
		c-0.1,0.4-0.2,0.8-0.2,1.2c0,0.9,0.3,1.7,0.8,2.2c0.5,0.6,1.2,0.9,2.1,0.9c0.9,0,1.9-0.3,3-0.8c1.1-0.5,2.2-1.3,3.2-2.3
		c0.8-0.8,1.6-1.6,2.4-2.5c0.8-0.9,1.4-1.7,2-2.4L205.9,19.4z M198.9,17.2c0-0.3-0.1-0.5-0.2-0.6c-0.2-0.1-0.4-0.2-0.6-0.2
		c-0.5,0-1.1,0.2-1.7,0.7c-0.6,0.4-1.2,1-1.7,1.6c-0.5,0.7-1,1.3-1.4,2c-0.4,0.7-0.7,1.3-0.8,1.9c0.9-0.2,1.7-0.5,2.5-0.8
		c0.8-0.4,1.5-0.8,2.1-1.3c0.6-0.5,1.1-1,1.5-1.6C198.7,18.3,198.9,17.7,198.9,17.2z"/>
	<path class="st0" d="M202.9,26.2c0-0.5,0.2-0.9,0.5-1.3c0.4-0.4,0.8-0.5,1.3-0.5c0.5,0,0.9,0.2,1.3,0.5c0.4,0.4,0.5,0.8,0.5,1.3
		c0,0.5-0.2,0.9-0.5,1.3c-0.4,0.4-0.8,0.5-1.3,0.5c-0.5,0-0.9-0.2-1.3-0.5C203,27.1,202.9,26.7,202.9,26.2z"/>
	<path class="st0" d="M211.8,26.2c0-0.5,0.2-0.9,0.5-1.3c0.4-0.4,0.8-0.5,1.3-0.5c0.5,0,0.9,0.2,1.3,0.5c0.4,0.4,0.5,0.8,0.5,1.3
		c0,0.5-0.2,0.9-0.5,1.3c-0.4,0.4-0.8,0.5-1.3,0.5c-0.5,0-0.9-0.2-1.3-0.5C211.9,27.1,211.8,26.7,211.8,26.2z"/>
	<path class="st0" d="M220.7,26.2c0-0.5,0.2-0.9,0.5-1.3c0.4-0.4,0.8-0.5,1.3-0.5c0.5,0,0.9,0.2,1.3,0.5c0.4,0.4,0.5,0.8,0.5,1.3
		c0,0.5-0.2,0.9-0.5,1.3c-0.4,0.4-0.8,0.5-1.3,0.5c-0.5,0-0.9-0.2-1.3-0.5C220.8,27.1,220.7,26.7,220.7,26.2z"/>
</g>
</svg>
