<?xml version="1.0" encoding="utf-8"?>
<!-- Generator: Adobe Illustrator 22.1.0, SVG Export Plug-In . SVG Version: 6.00 Build 0)  -->
<svg version="1.1" id="Layer_1" xmlns="http://www.w3.org/2000/svg" xmlns:xlink="http://www.w3.org/1999/xlink" x="0px" y="0px"
	 viewBox="0 0 150 150" style="enable-background:new 0 0 150 150;" xml:space="preserve">
<style type="text/css">
	.st0{display:none;opacity:9.000000e-02;fill:none;stroke:#000000;stroke-width:2.4713;stroke-miterlimit:10;}
	.st1{fill:#AF1912;}
	.st2{fill:#7A0E0E;}
	.st3{fill:#FFFFFF;}
	.st4{display:none;fill:#C1C1C1;stroke:#C1C1C1;stroke-width:1.0926;stroke-miterlimit:10;}
	.st5{fill:#C1C1C1;}
	.st6{fill:#777777;}
	.st7{fill:none;}
	.st8{fill:none;stroke:#AF1912;stroke-width:2;stroke-linecap:round;stroke-miterlimit:10;}
	.st9{fill:none;stroke:#FFFFFF;stroke-width:0.5463;stroke-linecap:round;stroke-miterlimit:10;}
</style>
<rect x="0.6" y="0.4" class="st0" width="148.4" height="148.4"/>
<g id="косметика">
	<circle class="st1" cx="74.3" cy="74.9" r="74.4"/>
	<g>
		<g>
			<g>
				<path class="st2" d="M110.9,130.5H90.3c-7.2,0-13-5.8-13-13v-57c0-7.2,5.8-13,13-13h20.6c7.2,0,13,5.8,13,13v57
					C123.9,124.7,118.1,130.5,110.9,130.5z"/>
				<path class="st2" d="M107.6,50.7H93.5c-3.3,0-6-2.7-6-6v-9.4c0-3.3,2.7-6,6-6h14.1c3.3,0,6,2.7,6,6v9.4
					C113.6,48,110.9,50.7,107.6,50.7z"/>
				<g>
					<path class="st2" d="M109.9,29.6c0,0,2.8-10.7-6.9-13.1c-4.2-1.1-10.9-0.3-14.5,0.6c-0.7,0.2-2,0.4-2.9,0.4
						c-0.3,0-0.4,0.2-0.4,0.5l0.2,3.9c0,0.3,0.2,0.5,0.5,0.5c0.8,0,1.8,0,2.4,0.4c3.7,2.2,3,6.9,3,6.9H109.9z"/>
					<path class="st2" d="M88.1,17.1c-0.8,0.1-1.5,0.3-2.4,0.3c-0.3,0-0.5,0.2-0.5,0.5l0.2,3.9c0,0.3,0.2,0.5,0.5,0.5
						c0.8,0,1.8,0,2.4,0.4"/>
				</g>
			</g>
			<g>
				<path class="st3" d="M106.7,131.2H86.1c-7.2,0-13-5.8-13-13v-57c0-7.2,5.8-13,13-13h20.6c7.2,0,13,5.8,13,13v57
					C119.7,125.4,113.9,131.2,106.7,131.2z"/>
				<path class="st3" d="M103.4,51.4H89.4c-3.4,0-6.1-2.7-6.1-6.1V36c0-3.4,2.7-6.1,6.1-6.1h13.9c3.4,0,6.1,2.7,6.1,6.1v9.3
					C109.5,48.7,106.8,51.4,103.4,51.4z"/>
				<g>
					<path class="st3" d="M105,30.3c0.5,0,0.9-0.3,0.9-0.8c0.4-2.5,1.1-10.3-7.1-12.3c-4.2-1.1-8.7-0.7-14.5,0.5
						c0,0-1.2,0.2-2.1,0.4c-0.7,0.2-1.3,0.7-1.2,1.5l0.1,2.1c0,0.7,0.6,1.3,1.3,1.4c0.6,0,1.1,0.1,1.5,0.3c2.7,1.6,3,4.5,3,6
						c0,0.5,0.4,1,0.9,1H105z"/>
					<path class="st4" d="M83.9,17.8c-0.8,0.1-1.5,0.3-2.4,0.3c-0.3,0-0.5,0.2-0.5,0.5l0.2,3.9c0,0.3,0.2,0.5,0.5,0.5
						c0.8,0,1.8,0,2.4,0.4"/>
				</g>
			</g>
			<path class="st5" d="M78.9,65.2v49.6c0,6.8,3.5,12.4,8.1,13.3v0H87c-5.2,0-9.4-6-9.4-13.5V65c0-7.4,4.2-13.5,9.4-13.5H87v0.3
				C82.4,52.7,78.9,58.4,78.9,65.2z"/>
		</g>
		<g>
			<g>
				<g>
					<path class="st2" d="M75.2,36.7l-0.3,4.7l0,0.4l0,0.3l0,0.1l-7.8,65.4c0,0,0.1,14.1-0.2,14.3c-6.6,5.2-25,4.8-30.5-0.4
						c-0.3-0.3-0.4-13-0.4-13L25.9,42.1l0-0.2l0-0.1l0-0.4l-0.2-4.4L75.2,36.7z"/>
				</g>
				<path class="st2" d="M67.1,108c0,0-6.9,2.1-15.6,2.1s-15.7-2.2-15.7-2.2s7,1.5,15.7,1.5S67.1,108,67.1,108z"/>
				<path class="st2" d="M67.1,108c0,0-6.8,1.8-15.5,1.8s-15.8-1.9-15.8-1.9s7.1,1.3,15.8,1.3S67.1,108,67.1,108z"/>
				<g>
					<line class="st2" x1="74.9" y1="41.8" x2="25.8" y2="41.7"/>
					<polygon class="st2" points="74.9,41.4 74.9,41.8 74.9,42.1 74.9,42.1 25.9,42.1 25.8,41.9 25.8,41.7 25.8,41.4 					"/>
				</g>
			</g>
			<g>
				<g>
					<path class="st3" d="M70.4,41.8l-0.3,4.7l0,0.4l0,0.3l0,0.1l-7.8,65.4c0,0,0.1,14.1-0.2,14.3c-6.6,5.2-25,4.8-30.5-0.4
						c-0.3-0.3-0.4-13-0.4-13L21.1,47.2l0-0.2l0-0.1l0-0.4L20.9,42L70.4,41.8z"/>
				</g>
				<path class="st6" d="M62.3,112.2c0,0-6.9,2.1-15.6,2.1s-15.7-2.2-15.7-2.2s7,1.5,15.7,1.5S62.3,112.2,62.3,112.2z"/>
				<path class="st5" d="M62.3,112.2c0,0-6.8,1.8-15.5,1.8s-15.8-1.9-15.8-1.9s7.1,1.3,15.8,1.3S62.3,112.2,62.3,112.2z"/>
				<g>
					<line class="st7" x1="70.2" y1="45.9" x2="21.1" y2="45.9"/>
					<polygon class="st5" points="70.2,45.6 70.2,45.9 70.1,46.3 70.1,46.3 21.1,46.3 21.1,46.1 21.1,45.9 21.1,45.5 					"/>
				</g>
			</g>
			<g>
				<path class="st1" d="M46.4,104.7c-5.7,0-15-19.9-11.6-24.5c3.5-4.7,19.9-4.7,23.4,0C61.6,84.8,52.1,104.7,46.4,104.7z"/>
				<ellipse class="st3" cx="37.6" cy="82.3" rx="0.6" ry="1.5"/>
				<ellipse class="st3" cx="41.7" cy="87.7" rx="0.6" ry="1.5"/>
				<ellipse class="st3" cx="44.6" cy="82.9" rx="0.6" ry="1.5"/>
				<ellipse class="st3" cx="47.6" cy="89.5" rx="0.6" ry="1.5"/>
				<ellipse class="st3" cx="50.8" cy="84.3" rx="0.6" ry="1.5"/>
				<ellipse class="st3" cx="55.2" cy="81.5" rx="0.6" ry="1.5"/>
				<ellipse class="st3" cx="54" cy="89.8" rx="0.6" ry="1.5"/>
				<ellipse class="st3" cx="57.3" cy="86.7" rx="0.6" ry="1.5"/>
				<ellipse class="st3" cx="38.7" cy="92.3" rx="0.6" ry="1.5"/>
				<ellipse class="st3" cx="44" cy="94.5" rx="0.6" ry="1.5"/>
				<ellipse class="st3" cx="50.4" cy="94.7" rx="0.6" ry="1.5"/>
				<ellipse class="st3" cx="46.7" cy="98.9" rx="0.6" ry="1.5"/>
				<ellipse class="st3" cx="42.3" cy="99.5" rx="0.6" ry="1.5"/>
				<ellipse class="st3" cx="46.2" cy="104" rx="0.6" ry="1.5"/>
				<ellipse class="st3" cx="51.4" cy="100.5" rx="0.6" ry="1.5"/>
				<path class="st2" d="M43.7,75.8c0,0-3.8-1.7-8.4-1.4c0,0,0,0,0,0c4.1,1.4,4.6,2.3,4.6,2.3c0.1,0,0,0.1,0,0.1c0,0-5.1,1-8.2,0.6
					c0,0,0,0,0,0c4.7,1.6,9.1,1.8,9.1,1.8c0,0,0.1,0.1,0.1,0.1c0,0-0.8,0.8-1.1,2.7c0,0,0,0,0,0c3.7-1.2,5.9-3.1,5.9-3.1
					c0,0,0,0,0.1,0c2.5,1.5,3,1.6,7.1,2.3c0,0,0,0,0,0c-0.5-1.7-2.1-3.3-2.1-3.3c0-0.1,0-0.1,0.1-0.1c0,0,3,0.1,7.4-1.1c0,0,0,0,0,0
					c-6.5-0.2-7.2-0.4-7.2-0.4c0,0,1.4-1.4,4.9-2.8c0,0,0-0.1,0-0.1c-4.3,0.3-9.7,2.3-9.7,2.3C46.1,75.8,43.7,75.8,43.7,75.8z"/>
				<path class="st5" d="M43.7,75.3c0,0-3.8-1.7-8.4-1.4c0,0,0,0,0,0c4.1,1.4,4.6,2.3,4.6,2.3c0.1,0,0,0.1,0,0.1c0,0-5.1,1-8.2,0.6
					c0,0,0,0,0,0c4.7,1.6,9.1,1.8,9.1,1.8c0,0,0.1,0.1,0.1,0.1c0,0-0.8,0.8-1.1,2.7c0,0,0,0,0,0c3.7-1.2,5.9-3.1,5.9-3.1
					c0,0,0,0,0.1,0c2.5,1.5,3,1.6,7.1,2.3c0,0,0,0,0,0c-0.5-1.7-2.1-3.3-2.1-3.3c0-0.1,0-0.1,0.1-0.1c0,0,3,0.1,7.4-1.1c0,0,0,0,0,0
					c-6.5-0.2-7.2-0.4-7.2-0.4c0,0,1.4-1.4,4.9-2.8c0,0,0-0.1,0-0.1c-4.3,0.3-9.7,2.3-9.7,2.3C46.2,75.3,43.7,75.4,43.7,75.3z"/>
				<circle class="st1" cx="90.3" cy="97.1" r="8.4"/>
				<circle class="st1" cx="109.2" cy="94.3" r="8.4"/>
				<path class="st3" d="M84.5,97c-0.1,3.3,1.7,5.2,1.5,5.2c-0.2,0-2.3-1.9-2.2-5.2c0.2-3.2,2-4.7,2.2-4.7
					C86.2,92.3,84.5,94.2,84.5,97z"/>
				<path class="st3" d="M103.2,93.7c-0.1,3.3,1.7,5.2,1.5,5.2c-0.2,0-2.3-1.9-2.2-5.2c0.2-3.2,2-4.7,2.2-4.7
					C104.9,89,103.3,91,103.2,93.7z"/>
				<path class="st8" d="M96.3,65.3c0,0,12.5,10.3,11.7,26.6"/>
				<path class="st8" d="M96.3,65.3c6.4,13.1-1.1,20.4-5.6,26"/>
				<path class="st1" d="M95.6,65c0,0,1.2,6.2-0.8,8.5c-3.1,3.5-8.7,3.3-9.2,3.4c0-0.7,2.2-1.2,3.3-6.5C89.5,67.4,95.6,65,95.6,65z"
					/>
				<path class="st9" d="M95.6,64.8c-3.5,9.9-10.1,12.1-10.1,12.1"/>
			</g>
		</g>
	</g>
</g>
</svg>
