<?xml version="1.0" encoding="utf-8"?>
<!-- Generator: Adobe Illustrator 22.1.0, SVG Export Plug-In . SVG Version: 6.00 Build 0)  -->
<svg version="1.1" id="Layer_1" xmlns="http://www.w3.org/2000/svg" xmlns:xlink="http://www.w3.org/1999/xlink" x="0px" y="0px"
	 viewBox="0 0 150 150" style="enable-background:new 0 0 150 150;" xml:space="preserve">
<style type="text/css">
	.st0{display:none;opacity:9.000000e-02;fill:none;stroke:#000000;stroke-width:2.4713;stroke-miterlimit:10;}
	.st1{fill:#AF1912;}
	.st2{fill:#7A0E0E;}
	.st3{fill:none;stroke:#7A0E0E;stroke-width:2;stroke-miterlimit:10;}
	.st4{fill:none;stroke:#7A0E0E;stroke-width:2;stroke-linecap:round;stroke-miterlimit:10;}
	.st5{fill:#FFFFFF;}
	.st6{fill:none;stroke:#FFFFFF;stroke-width:2;stroke-linecap:round;stroke-miterlimit:10;}
</style>
<rect x="0.1" y="0.6" class="st0" width="149.1" height="149.1"/>
<g id="бдсм">
	<circle class="st1" cx="74.1" cy="75.4" r="74.5"/>
	<g>
		<g>
			<path class="st2" d="M56.5,72.4H35.9v-9.7c0-1.1,0.9-2,2-2h16.6c1.1,0,2,0.9,2,2V72.4z"/>
			<path class="st2" d="M59.9,71.7l-3.8,8c6,3.5,9.8,10.2,9.5,17.6c-0.5,10.7-9.6,19-20.3,18.5c-10.7-0.5-19-9.6-18.5-20.3
				c0.5-10.7,9.6-19,20.3-18.5c2.5,0.1,4.8,0.7,7,1.6l3.8-8c-3.2-1.4-6.7-2.3-10.4-2.5c-15.6-0.7-28.8,11.4-29.5,27
				c-0.7,15.6,11.4,28.8,27,29.6c15.6,0.7,28.8-11.4,29.6-27C74.9,86.6,69,76.7,59.9,71.7z M42.4,121.5c-1.2,0-2.2-1-2.2-2.2
				c0-1.2,1-2.2,2.2-2.2c1.2,0,2.2,1,2.2,2.2C44.6,120.5,43.6,121.5,42.4,121.5z"/>
			<line class="st2" x1="45.7" y1="61.8" x2="45.7" y2="53.7"/>
			<path class="st3" d="M45.8,57h-0.2c-2.5,0-4.6-2-4.6-4.6v-4.1c0-2.5,2-4.6,4.6-4.6h0.2c2.5,0,4.6,2,4.6,4.6v4.1
				C50.3,54.9,48.3,57,45.8,57z"/>
			<line class="st2" x1="45.6" y1="44.9" x2="45.6" y2="36.7"/>
			<path class="st3" d="M45.7,40h-0.2c-2.5,0-4.6-2-4.6-4.6v-4.1c0-2.5,2-4.6,4.6-4.6h0.2c2.5,0,4.6,2,4.6,4.6v4.1
				C50.3,37.9,48.2,40,45.7,40z"/>
			<line class="st2" x1="48.5" y1="31.4" x2="56.7" y2="31.4"/>
			<path class="st3" d="M54.4,31.6v-0.2c0-2.5,2-4.6,4.6-4.6H63c2.5,0,4.6,2,4.6,4.6v0.2c0,2.5-2,4.6-4.6,4.6h-4.1
				C56.4,36.2,54.4,34.2,54.4,31.6z"/>
			<line class="st2" x1="65.6" y1="31.4" x2="73.7" y2="31.4"/>
			<path class="st3" d="M71.8,31.4v-0.2c0-2.5,2-4.6,4.6-4.6h4.1c2.5,0,4.6,2,4.6,4.6v0.2c0,2.5-2,4.6-4.6,4.6h-4.1
				C73.8,36,71.8,33.9,71.8,31.4z"/>
			<line class="st2" x1="82.6" y1="31.4" x2="90.8" y2="31.4"/>
			<path class="st3" d="M89.2,31.4v-0.2c0-2.5,2-4.6,4.6-4.6h4.1c2.5,0,4.6,2,4.6,4.6v0.2c0,2.5-2,4.6-4.6,4.6h-4.1
				C91.2,36,89.2,33.9,89.2,31.4z"/>
			<line class="st2" x1="99.7" y1="31.4" x2="107.8" y2="31.4"/>
			<line class="st2" x1="111" y1="60.9" x2="111" y2="52.7"/>
			<path class="st3" d="M111,56h-0.2c-2.5,0-4.6-2-4.6-4.6v-4.1c0-2.5,2-4.6,4.6-4.6h0.2c2.5,0,4.6,2,4.6,4.6v4.1
				C115.6,54,113.6,56,111,56z"/>
			<line class="st2" x1="111" y1="45.1" x2="111" y2="36.9"/>
			<path class="st3" d="M111,40.2h-0.2c-2.5,0-4.6-2-4.6-4.6v-4.1c0-2.5,2-4.6,4.6-4.6h0.2c2.5,0,4.6,2,4.6,4.6v4.1
				C115.6,38.2,113.6,40.2,111,40.2z"/>
			<path class="st2" d="M99.6,72.6h20.6v-9.7c0-1.1-0.9-2-2-2h-16.6c-1.1,0-2,0.9-2,2V72.6z"/>
			<path class="st2" d="M81.6,97.9c0.7,15.6,13.9,27.7,29.6,27c15.6-0.7,27.7-13.9,27-29.6c-0.7-15.6-13.9-27.7-29.5-27
				c-3.7,0.2-7.2,1-10.4,2.5l3.8,8c2.1-0.9,4.5-1.5,7-1.6c10.7-0.5,19.8,7.8,20.3,18.5c0.5,10.7-7.8,19.8-18.5,20.3
				c-10.7,0.5-19.8-7.8-20.3-18.5c-0.3-7.4,3.5-14.1,9.5-17.6l-3.8-8C87.1,76.9,81.1,86.8,81.6,97.9z M111.4,119.6
				c0-1.2,1-2.2,2.2-2.2c1.2,0,2.2,1,2.2,2.2c0,1.2-1,2.2-2.2,2.2C112.4,121.7,111.4,120.8,111.4,119.6z"/>
			<g>
				<line class="st4" x1="45.7" y1="61.9" x2="45.7" y2="53.7"/>
				<line class="st4" x1="45.7" y1="44.9" x2="45.7" y2="36.8"/>
				<line class="st4" x1="48.6" y1="31.4" x2="56.7" y2="31.4"/>
				<line class="st4" x1="65.6" y1="31.4" x2="73.8" y2="31.4"/>
				<line class="st4" x1="82.7" y1="31.4" x2="90.8" y2="31.4"/>
				<line class="st4" x1="99.7" y1="31.4" x2="107.9" y2="31.4"/>
				<line class="st4" x1="111" y1="60.9" x2="111" y2="52.8"/>
				<line class="st4" x1="111" y1="45.1" x2="111" y2="37"/>
			</g>
		</g>
		<g>
			<path class="st5" d="M52.1,75.8H31.5v-9.7c0-1.1,0.9-2,2-2h16.6c1.1,0,2,0.9,2,2V75.8z"/>
			<path class="st5" d="M55.5,75.1l-3.8,8c6,3.5,9.8,10.2,9.5,17.6c-0.5,10.7-9.6,19-20.3,18.5c-10.7-0.5-19-9.6-18.5-20.3
				c0.5-10.7,9.6-19,20.3-18.5c2.5,0.1,4.8,0.7,7,1.6l3.8-8c-3.2-1.4-6.7-2.3-10.4-2.5c-15.6-0.7-28.8,11.4-29.5,27
				c-0.7,15.6,11.4,28.8,27,29.6c15.6,0.7,28.8-11.4,29.6-27C70.6,90,64.6,80.1,55.5,75.1z M38.1,124.9c-1.2,0-2.2-1-2.2-2.2
				c0-1.2,1-2.2,2.2-2.2s2.2,1,2.2,2.2C40.3,123.9,39.3,124.9,38.1,124.9z"/>
			<line class="st6" x1="41.3" y1="65.2" x2="41.3" y2="57.1"/>
			<path class="st6" d="M41.4,60.3h-0.2c-2.5,0-4.6-2-4.6-4.6v-4.1c0-2.5,2-4.6,4.6-4.6h0.2c2.5,0,4.6,2,4.6,4.6v4.1
				C46,58.3,43.9,60.3,41.4,60.3z"/>
			<line class="st6" x1="41.3" y1="48.2" x2="41.3" y2="40.1"/>
			<path class="st6" d="M41.4,43.3h-0.2c-2.5,0-4.6-2-4.6-4.6v-4.1c0-2.5,2-4.6,4.6-4.6h0.2c2.5,0,4.6,2,4.6,4.6v4.1
				C45.9,41.3,43.9,43.3,41.4,43.3z"/>
			<line class="st6" x1="44.1" y1="34.8" x2="52.3" y2="34.8"/>
			<path class="st6" d="M50,35v-0.2c0-2.5,2-4.6,4.6-4.6h4.1c2.5,0,4.6,2,4.6,4.6V35c0,2.5-2,4.6-4.6,4.6h-4.1
				C52,39.6,50,37.5,50,35z"/>
			<line class="st6" x1="61.2" y1="34.8" x2="69.3" y2="34.8"/>
			<path class="st6" d="M67.4,34.8v-0.2c0-2.5,2-4.6,4.6-4.6h4.1c2.5,0,4.6,2,4.6,4.6v0.2c0,2.5-2,4.6-4.6,4.6H72
				C69.5,39.4,67.4,37.3,67.4,34.8z"/>
			<line class="st6" x1="78.3" y1="34.8" x2="86.4" y2="34.8"/>
			<path class="st6" d="M84.8,34.8v-0.2c0-2.5,2-4.6,4.6-4.6h4.1c2.5,0,4.6,2,4.6,4.6v0.2c0,2.5-2,4.6-4.6,4.6h-4.1
				C86.9,39.3,84.8,37.3,84.8,34.8z"/>
			<line class="st6" x1="95.3" y1="34.8" x2="103.5" y2="34.8"/>
			<line class="st6" x1="106.6" y1="64.3" x2="106.6" y2="56.1"/>
			<path class="st6" d="M106.7,59.4h-0.2c-2.5,0-4.6-2-4.6-4.6v-4.1c0-2.5,2-4.6,4.6-4.6h0.2c2.5,0,4.6,2,4.6,4.6v4.1
				C111.2,57.3,109.2,59.4,106.7,59.4z"/>
			<line class="st6" x1="106.6" y1="48.5" x2="106.6" y2="40.3"/>
			<path class="st6" d="M106.7,43.6h-0.2c-2.5,0-4.6-2-4.6-4.6v-4.1c0-2.5,2-4.6,4.6-4.6h0.2c2.5,0,4.6,2,4.6,4.6V39
				C111.2,41.5,109.2,43.6,106.7,43.6z"/>
			<path class="st5" d="M95.2,76h20.6v-9.7c0-1.1-0.9-2-2-2H97.2c-1.1,0-2,0.9-2,2V76z"/>
			<path class="st5" d="M77.2,101.3c0.7,15.6,13.9,27.7,29.6,27c15.6-0.7,27.7-13.9,27-29.6c-0.7-15.6-13.9-27.7-29.5-27
				c-3.7,0.2-7.2,1-10.4,2.5l3.8,8c2.1-0.9,4.5-1.5,7-1.6c10.7-0.5,19.8,7.8,20.3,18.5c0.5,10.7-7.8,19.8-18.5,20.3
				c-10.7,0.5-19.8-7.8-20.3-18.5c-0.3-7.4,3.5-14.1,9.5-17.6l-3.8-8C82.7,80.3,76.7,90.2,77.2,101.3z M107,122.9
				c0-1.2,1-2.2,2.2-2.2s2.2,1,2.2,2.2c0,1.2-1,2.2-2.2,2.2S107,124.1,107,122.9z"/>
		</g>
	</g>
</g>
</svg>
