<?xml version="1.0" encoding="utf-8"?>
<!-- Generator: Adobe Illustrator 22.1.0, SVG Export Plug-In . SVG Version: 6.00 Build 0)  -->
<svg version="1.1" id="Layer_1" xmlns="http://www.w3.org/2000/svg" xmlns:xlink="http://www.w3.org/1999/xlink" x="0px" y="0px"
	 viewBox="0 0 500 500" style="enable-background:new 0 0 500 500;" xml:space="preserve">
<style type="text/css">
	.st0{fill:#AF1912;}
	.st1{fill:#7A0E0E;stroke:#FFFFFF;stroke-width:5;stroke-miterlimit:10;}
	.st2{fill:#FCFCFC;}
	.st3{fill:#7A0E0E;}
	.st4{fill:#F9F9F9;}
</style>
<g id="bdsm">
	<circle class="st0" cx="248.7" cy="250" r="248.7"/>
</g>
<g>
	<path class="st1" d="M191.5,189.5c-1.8,4-4.7,7.2-8.3,9.1l-39.3,15.5l-15.5-39.3c-1-3.9-0.7-8.2,1-12.3s4.7-7.1,8.3-9.1l4.7-1.9
		c4-1,8.2-0.7,12.3,1c5.4,2.3,9.1,6.8,10.7,12c4.9-2.4,10.7-2.7,16.1-0.4c4,1.8,7.2,4.7,9.1,8.3l1.8,4.6
		C193.5,181.1,193.3,185.5,191.5,189.5z"/>
	<g>
		<rect x="87.1" y="221.7" class="st2" width="317" height="185.5"/>
		<rect x="220.6" y="221.7" class="st3" width="50.1" height="185.5"/>
	</g>
	<g>
		
			<rect x="102.2" y="135.9" transform="matrix(0.9391 0.3437 -0.3437 0.9391 68.1474 -80.3404)" class="st2" width="317" height="32.4"/>
		
			<rect x="232.7" y="134.8" transform="matrix(0.9391 0.3437 -0.3437 0.9391 67.5993 -79.397)" class="st3" width="50.1" height="32.4"/>
	</g>
	<g>
		<path class="st2" d="M264,136.1c0,0,11.2-127.2-57.5-89.9C118.2,94.3,264,136.1,264,136.1z"/>
		<path class="st2" d="M264,135.9l0,0.1c0,0,0,0,0,0s0,0-0.1-0.1c0,0-0.1-0.1-0.2-0.1c-6.5-3.9-101.6-61.4-60-88c0,0,0,0,0,0
			c0.9-0.6,1.8-1.1,2.9-1.7c1.6-0.8,3.1-1.6,4.5-2.2c0,0,0,0,0.1,0C273.8,15.9,264.4,131.7,264,135.9z"/>
		<path class="st0" d="M264,136.1C264,136.1,263.9,136.1,264,136.1c-0.1,0-0.1-0.1-0.2-0.1c0,0-0.1-0.1-0.2-0.1
			c-6.5-3.9-101.6-61.4-60-88c0,0,0,0,0,0c36.1-13.4,57.2,73.8,60.3,88C264,136,264,136.1,264,136.1z"/>
	</g>
	<g>
		<path class="st4" d="M264,136.2c0,0,75.8-102.8,102.5-29.4C401,201.2,264,136.2,264,136.2z"/>
		<path class="st2" d="M264.1,136.1l-0.1,0.1c0,0,0,0,0,0s0.1,0,0.2,0c0.1,0,0.1,0,0.2,0c7.4,1.4,116.8,21.2,103.2-26.3c0,0,0,0,0,0
			c-0.3-1-0.6-2.1-1-3.1c-0.6-1.6-1.3-3.2-1.9-4.7c0,0,0,0,0-0.1C336.1,39.5,266.6,132.6,264.1,136.1z"/>
		<path class="st0" d="M264,136.2C264,136.2,264,136.2,264,136.2c0.1,0,0.1,0,0.2,0.1c0.1,0,0.1,0,0.2,0
			c7.4,1.4,116.8,21.2,103.2-26.3c0,0,0,0,0,0c-18.2-33.9-91.6,17.5-103.5,26.1C264.1,136.1,264,136.2,264,136.2z"/>
	</g>
	<path class="st1" d="M102.6,117.1c3.5,3.5,5.6,7.9,6.1,12.5v47.5H61.2c-4.5-0.6-8.9-2.6-12.4-6.1c-3.5-3.5-5.5-7.9-6.1-12.4v-5.7
		c0.6-4.5,2.6-8.9,6.1-12.4c4.7-4.7,10.9-6.7,17-6.3c-0.5-6.1,1.6-12.4,6.2-17c3.5-3.5,7.9-5.6,12.5-6.1l5.6,0
		C94.7,111.6,99.1,113.6,102.6,117.1z"/>
</g>
</svg>
