<svg xmlns="http://www.w3.org/2000/svg" width="71.5" height="31.1" viewBox="0 0 71.5 31.1">
  <metadata><?xpacket begin="﻿" id="W5M0MpCehiHzreSzNTczkc9d"?>
<x:xmpmeta xmlns:x="adobe:ns:meta/" x:xmptk="Adobe XMP Core 5.6-c140 79.160451, 2017/05/06-01:08:21        ">
   <rdf:RDF xmlns:rdf="http://www.w3.org/1999/02/22-rdf-syntax-ns#">
      <rdf:Description rdf:about=""/>
   </rdf:RDF>
</x:xmpmeta>
                                                                                                    
                                                                                                    
                                                                                                    
                                                                                                    
                                                                                                    
                                                                                                    
                                                                                                    
                                                                                                    
                                                                                                    
                                                                                                    
                                                                                                    
                                                                                                    
                                                                                                    
                                                                                                    
                                                                                                    
                                                                                                    
                                                                                                    
                                                                                                    
                                                                                                    
                                                                                                    
                           
<?xpacket end="w"?></metadata>
<defs>
    <style>
      .cls-1 {
        fill: #d0d0d0;
        fill-rule: evenodd;
      }
    </style>
  </defs>
  <path id="инкогнито" class="cls-1" d="M686.156,1362.82c-5.982.2-8.948,2.92-16.866,2.92s-10.884-2.72-16.866-2.92c-8.242-.28-21.76,2.67-18.353,12.97,2.511,7.59,7.284,16.6,15.889,17.93,7.83,1.21,11.7-3.46,17.149-8.03a2.657,2.657,0,0,1,4.363,0c5.45,4.57,9.318,9.24,17.149,8.03,8.6-1.33,13.378-10.34,15.888-17.93C707.916,1365.49,694.4,1362.54,686.156,1362.82Zm-34.687,18.91c-3.254-1.11-5.73-4.01-7.2-7.01,6.839-3.37,13.807-.99,17.176,5.86C658.45,1382.05,654.722,1382.84,651.469,1381.73Zm35.642,0c-3.253,1.11-6.982.32-9.972-1.15,3.369-6.85,10.337-9.23,17.176-5.86C692.841,1377.72,690.365,1380.62,687.111,1381.73Z" transform="translate(-633.531 -1362.81)"/>
</svg>
