<svg xmlns="http://www.w3.org/2000/svg" width="79.22" height="45.94" viewBox="0 0 79.22 45.94">
  <metadata><?xpacket begin="﻿" id="W5M0MpCehiHzreSzNTczkc9d"?>
<x:xmpmeta xmlns:x="adobe:ns:meta/" x:xmptk="Adobe XMP Core 5.6-c140 79.160451, 2017/05/06-01:08:21        ">
   <rdf:RDF xmlns:rdf="http://www.w3.org/1999/02/22-rdf-syntax-ns#">
      <rdf:Description rdf:about=""/>
   </rdf:RDF>
</x:xmpmeta>
                                                                                                    
                                                                                                    
                                                                                                    
                                                                                                    
                                                                                                    
                                                                                                    
                                                                                                    
                                                                                                    
                                                                                                    
                                                                                                    
                                                                                                    
                                                                                                    
                                                                                                    
                                                                                                    
                                                                                                    
                                                                                                    
                                                                                                    
                                                                                                    
                                                                                                    
                                                                                                    
                           
<?xpacket end="w"?></metadata>
<defs>
    <style>
      .cls-1 {
        fill: #d0d0d0;
        fill-rule: evenodd;
      }
    </style>
  </defs>
  <path id="доставка" class="cls-1" d="M1246.91,1393.8a6.6,6.6,0,1,0,6.96,6.59A6.785,6.785,0,0,0,1246.91,1393.8Zm0,9.46a2.869,2.869,0,1,1,3.03-2.87A2.95,2.95,0,0,1,1246.91,1403.26Zm36.71-9.46a6.6,6.6,0,1,0,6.96,6.59A6.778,6.778,0,0,0,1283.62,1393.8Zm0,9.46a2.869,2.869,0,1,1,3.02-2.87A2.952,2.952,0,0,1,1283.62,1403.26Zm-28.88-29.7a1.737,1.737,0,0,1-1.77,1.68H1228.5a1.737,1.737,0,0,1-1.77-1.68v-1.01a1.737,1.737,0,0,1,1.77-1.68h24.47a1.737,1.737,0,0,1,1.77,1.68v1.01Zm42.51,9.83c-2.55-.63-4.01-1.03-5.01-2.86l-3.35-6.42a7.245,7.245,0,0,0-5.79-3.33h-4.58a0.588,0.588,0,0,1-.62-0.58v-5.38a3.569,3.569,0,0,0-3.9-3.8h-37.35c-3.81,0-5.61,1.71-5.61,3.8v3.37a1,1,0,0,0,1.03,1.01h20.9a3.455,3.455,0,0,1,3.55,3.35v1.01a3.463,3.463,0,0,1-3.55,3.36h-20.9a0.929,0.929,0,0,0-1.03.97v1.16c0,0.92,1.34.92,1.34,0.92h14.07a3.454,3.454,0,0,1,3.54,3.36v1a3.46,3.46,0,0,1-3.54,3.36H1232.6s-1.56-.03-1.56,1.15v8.15a3.918,3.918,0,0,0,4.01,3.8h2.22c0.5,0,.57-0.26.57-0.4a9.084,9.084,0,0,1,18.14,0,0.311,0.311,0,0,0,.35.4h17.88a0.325,0.325,0,0,0,.34-0.4,9.084,9.084,0,0,1,18.14,0c0,0.14-.01.4,0.21,0.4h4.51a3.88,3.88,0,0,0,3.97-3.75v-7.13C1301.38,1383.91,1299.37,1383.91,1297.25,1383.39Zm-7.54-.34h-11.28a0.525,0.525,0,0,1-.53-0.43v-8.89s-0.02-.34.58-0.34h3.22a6.433,6.433,0,0,1,5.14,2.96l2.98,5.72a4.052,4.052,0,0,0,.41.61C1290.33,1382.82,1290.16,1383.05,1289.71,1383.05Zm-41.49,1.28a1.73,1.73,0,0,1-1.77,1.68h-22.52a1.724,1.724,0,0,1-1.77-1.68v-1a1.724,1.724,0,0,1,1.77-1.68h22.52a1.73,1.73,0,0,1,1.77,1.68v1Z" transform="translate(-1222.16 -1361.03)"/>
</svg>
