<svg xmlns="http://www.w3.org/2000/svg" width="60.031" height="55.97" viewBox="0 0 60.031 55.97">
  <metadata><?xpacket begin="﻿" id="W5M0MpCehiHzreSzNTczkc9d"?>
<x:xmpmeta xmlns:x="adobe:ns:meta/" x:xmptk="Adobe XMP Core 5.6-c140 79.160451, 2017/05/06-01:08:21        ">
   <rdf:RDF xmlns:rdf="http://www.w3.org/1999/02/22-rdf-syntax-ns#">
      <rdf:Description rdf:about=""/>
   </rdf:RDF>
</x:xmpmeta>
                                                                                                    
                                                                                                    
                                                                                                    
                                                                                                    
                                                                                                    
                                                                                                    
                                                                                                    
                                                                                                    
                                                                                                    
                                                                                                    
                                                                                                    
                                                                                                    
                                                                                                    
                                                                                                    
                                                                                                    
                                                                                                    
                                                                                                    
                                                                                                    
                                                                                                    
                                                                                                    
                           
<?xpacket end="w"?></metadata>
<defs>
    <style>
      .cls-1 {
        fill: #d0d0d0;
        fill-rule: evenodd;
      }
    </style>
  </defs>
  <path id="Forma_1" data-name="Forma 1" class="cls-1" d="M932.855,1376.83v22.43a3.745,3.745,0,0,0,3.75,3.74h18.754v-26.17h-22.5Zm52.509-14.95H973.5a14.343,14.343,0,0,0,2.093-1.67,7.8,7.8,0,0,0,0-11,7.953,7.953,0,0,0-11,0c-1.628,1.63-5.941,8.25-5.345,12.67h-0.27c0.593-4.42-3.72-11.04-5.344-12.67a7.963,7.963,0,0,0-11,0,7.808,7.808,0,0,0,0,11,14.566,14.566,0,0,0,2.1,1.67H932.855a3.752,3.752,0,0,0-3.751,3.74v5.61a1.866,1.866,0,0,0,1.875,1.86h24.38v-7.47h7.5v7.47h24.38a1.866,1.866,0,0,0,1.875-1.86v-5.61A3.749,3.749,0,0,0,985.364,1361.88Zm-30.227-.12a1.264,1.264,0,0,1-.693.12c-2.592,0-7.539-2.68-9.156-4.31a4.06,4.06,0,0,1,0-5.72,4.01,4.01,0,0,1,5.682,0C953.5,1354.38,956.011,1360.86,955.137,1361.76Zm8.635,0.12a1.263,1.263,0,0,1-.691-0.12c-0.873-.9,1.639-7.38,4.167-9.91a4.1,4.1,0,0,1,5.683,0,4.053,4.053,0,0,1,0,5.72C971.314,1359.2,966.367,1361.88,963.772,1361.88Zm-0.912,14.95V1403h18.754a3.743,3.743,0,0,0,3.75-3.74v-22.43h-22.5Z" transform="translate(-929.094 -1347.03)"/>
</svg>
