<svg xmlns="http://www.w3.org/2000/svg" width="54.031" height="54" viewBox="0 0 54.031 54">
  <metadata><?xpacket begin="﻿" id="W5M0MpCehiHzreSzNTczkc9d"?>
<x:xmpmeta xmlns:x="adobe:ns:meta/" x:xmptk="Adobe XMP Core 5.6-c140 79.160451, 2017/05/06-01:08:21        ">
   <rdf:RDF xmlns:rdf="http://www.w3.org/1999/02/22-rdf-syntax-ns#">
      <rdf:Description rdf:about=""/>
   </rdf:RDF>
</x:xmpmeta>
                                                                                                    
                                                                                                    
                                                                                                    
                                                                                                    
                                                                                                    
                                                                                                    
                                                                                                    
                                                                                                    
                                                                                                    
                                                                                                    
                                                                                                    
                                                                                                    
                                                                                                    
                                                                                                    
                                                                                                    
                                                                                                    
                                                                                                    
                                                                                                    
                                                                                                    
                                                                                                    
                           
<?xpacket end="w"?></metadata>
<defs>
    <style>
      .cls-1 {
        fill: #d0d0d0;
        fill-rule: evenodd;
      }
    </style>
  </defs>
  <path id="Forma_1" data-name="Forma 1" class="cls-1" d="M453.921,1673.87l-24.3-24.29A5.4,5.4,0,0,0,425.8,1648H406.882a5.4,5.4,0,0,0-5.4,5.4v18.9a5.333,5.333,0,0,0,1.594,3.82l24.316,24.3a5.4,5.4,0,0,0,7.633,0l18.912-18.9A5.4,5.4,0,0,0,453.921,1673.87Zm-42.986-12.37a4.05,4.05,0,1,1,4.053-4.05A4.047,4.047,0,0,1,410.935,1661.5Zm31.8,22.33L431.2,1695.36l-11.537-11.53a6.758,6.758,0,0,1,9.564-9.55l1.973,1.98,1.972-1.98A6.758,6.758,0,0,1,442.735,1683.83Z" transform="translate(-401.469 -1648)"/>
</svg>
