<svg xmlns="http://www.w3.org/2000/svg" width="63.781" height="70" viewBox="0 0 63.781 70">
  <metadata><?xpacket begin="﻿" id="W5M0MpCehiHzreSzNTczkc9d"?>
<x:xmpmeta xmlns:x="adobe:ns:meta/" x:xmptk="Adobe XMP Core 5.6-c140 79.160451, 2017/05/06-01:08:21        ">
   <rdf:RDF xmlns:rdf="http://www.w3.org/1999/02/22-rdf-syntax-ns#">
      <rdf:Description rdf:about=""/>
   </rdf:RDF>
</x:xmpmeta>
                                                                                                    
                                                                                                    
                                                                                                    
                                                                                                    
                                                                                                    
                                                                                                    
                                                                                                    
                                                                                                    
                                                                                                    
                                                                                                    
                                                                                                    
                                                                                                    
                                                                                                    
                                                                                                    
                                                                                                    
                                                                                                    
                                                                                                    
                                                                                                    
                                                                                                    
                                                                                                    
                           
<?xpacket end="w"?></metadata>
<defs>
    <style>
      .cls-1 {
        fill: #d0d0d0;
        fill-rule: evenodd;
      }
    </style>
  </defs>
  <path id="качество" class="cls-1" d="M423.358,1356.44a14.355,14.355,0,1,0,14.33,14.36A14.36,14.36,0,0,0,423.358,1356.44Zm2.047,22.56a2.047,2.047,0,1,1-4.094,0v-11.46l-0.6.61a2.049,2.049,0,0,1-2.9-2.9l4.1-4.11a2.049,2.049,0,0,1,3.494,1.45V1379Zm-2.047-35a26.73,26.73,0,1,0,26.613,26.8A26.787,26.787,0,0,0,423.358,1344Zm0,45.25a18.455,18.455,0,1,1,18.424-18.45A18.46,18.46,0,0,1,423.358,1389.25Zm31.71,14.83-7.018-15.07a30.746,30.746,0,0,1-17.195,11.58l5.66,12.23a2.049,2.049,0,0,0,1.855,1.18h0.09a2.054,2.054,0,0,0,1.833-1.35l3.26-9.04,8.96,3.27A2.05,2.05,0,0,0,455.068,1404.08Zm-56.4-15.07-7.018,15.07a2.049,2.049,0,0,0,.346,2.25,2.025,2.025,0,0,0,2.209.55l8.96-3.27,3.261,9.04a2.052,2.052,0,0,0,1.833,1.35h0.09a2.051,2.051,0,0,0,1.855-1.18l5.66-12.23A30.748,30.748,0,0,1,398.666,1389.01Z" transform="translate(-391.469 -1344)"/>
</svg>
