<svg xmlns="http://www.w3.org/2000/svg" width="60" height="60" viewBox="0 0 60 60">
  <metadata><?xpacket begin="﻿" id="W5M0MpCehiHzreSzNTczkc9d"?>
<x:xmpmeta xmlns:x="adobe:ns:meta/" x:xmptk="Adobe XMP Core 5.6-c140 79.160451, 2017/05/06-01:08:21        ">
   <rdf:RDF xmlns:rdf="http://www.w3.org/1999/02/22-rdf-syntax-ns#">
      <rdf:Description rdf:about=""/>
   </rdf:RDF>
</x:xmpmeta>
                                                                                                    
                                                                                                    
                                                                                                    
                                                                                                    
                                                                                                    
                                                                                                    
                                                                                                    
                                                                                                    
                                                                                                    
                                                                                                    
                                                                                                    
                                                                                                    
                                                                                                    
                                                                                                    
                                                                                                    
                                                                                                    
                                                                                                    
                                                                                                    
                                                                                                    
                                                                                                    
                           
<?xpacket end="w"?></metadata>
<defs>
    <style>
      .cls-1 {
        fill: #d0d0d0;
        fill-rule: evenodd;
      }
    </style>
  </defs>
  <path id="Forma_1" data-name="Forma 1" class="cls-1" d="M711.7,1657.51l-7.223-9.14a3.57,3.57,0,0,0-2.812-1.37H669.72a3.567,3.567,0,0,0-2.812,1.37l-7.223,9.14a7.482,7.482,0,0,0-1.372,3.96v15.1a15.838,15.838,0,0,1,29.49,8.21,16.041,16.041,0,0,1-6.353,12.79h27.122a4.516,4.516,0,0,0,4.5-4.54v-31.56A7.482,7.482,0,0,0,711.7,1657.51Zm-49.65-.07,2.392-3.03h11.826l1.61-2.68H666.548l1.766-2.23a1.773,1.773,0,0,1,1.406-.69h31.94a1.773,1.773,0,0,1,1.406.69l1.766,2.23H693.224l0.9,2.68h12.819l2.392,3.03h-47.29Zm9.88,14.04a13.316,13.316,0,0,0-10.29,21.6l-7.744,8.54a3.235,3.235,0,0,0,.2,4.54,3.172,3.172,0,0,0,4.5-.2l8.127-8.96A13.273,13.273,0,1,0,671.925,1671.48Zm0,22.06a8.76,8.76,0,1,1,8.68-8.76A8.719,8.719,0,0,1,671.925,1693.54Z" transform="translate(-653.062 -1647)"/>
</svg>
