<svg xmlns="http://www.w3.org/2000/svg" width="62.281" height="59.31" viewBox="0 0 62.281 59.31">
  <metadata><?xpacket begin="﻿" id="W5M0MpCehiHzreSzNTczkc9d"?>
<x:xmpmeta xmlns:x="adobe:ns:meta/" x:xmptk="Adobe XMP Core 5.6-c140 79.160451, 2017/05/06-01:08:21        ">
   <rdf:RDF xmlns:rdf="http://www.w3.org/1999/02/22-rdf-syntax-ns#">
      <rdf:Description rdf:about=""/>
   </rdf:RDF>
</x:xmpmeta>
                                                                                                    
                                                                                                    
                                                                                                    
                                                                                                    
                                                                                                    
                                                                                                    
                                                                                                    
                                                                                                    
                                                                                                    
                                                                                                    
                                                                                                    
                                                                                                    
                                                                                                    
                                                                                                    
                                                                                                    
                                                                                                    
                                                                                                    
                                                                                                    
                                                                                                    
                                                                                                    
                           
<?xpacket end="w"?></metadata>
<defs>
    <style>
      .cls-1 {
        fill: #d0d0d0;
        fill-rule: evenodd;
      }
    </style>
  </defs>
  <path id="поддержка" class="cls-1" d="M967.186,1644a30.864,30.864,0,0,0-5.418.48,13.9,13.9,0,0,1,4.1,2.76q0.657-.03,1.322-0.03a23.84,23.84,0,0,1,14.366,4.47c3.55,2.69,5.5,6.19,5.5,9.85a11.755,11.755,0,0,1-3.785,8.36l-0.749.75-0.158,1.03-1.324,8.66-6.53-4.41-1.117-.75-1.332.24a27.277,27.277,0,0,1-4.876.44,27.568,27.568,0,0,1-3.882-.27c-0.134.02-.267,0.04-0.4,0.07l-1.243,1.11c1.448,0.76,2.917,1.53,4.3,2.28,0.407,0.01.816,0.02,1.228,0.02a30.54,30.54,0,0,0,5.475-.49l8.911,6.02a1.528,1.528,0,0,0,.826.25,1.471,1.471,0,0,0,.581-0.12,1.438,1.438,0,0,0,.861-1.1l1.754-11.47a14.965,14.965,0,0,0,4.729-10.62C990.323,1651.85,979.965,1644,967.186,1644Zm4.491,40c-1.876-1.27-8.424-4.71-11.22-6.18l-0.059-.03a0.931,0.931,0,0,0-.431-0.1,0.9,0.9,0,0,0-.564.19,12.127,12.127,0,0,1-4.773,2.27,0.9,0.9,0,0,0-.657.55l-1.732,4.49-1.733-4.49a0.891,0.891,0,0,0-.656-0.55,12.121,12.121,0,0,1-4.773-2.27,0.9,0.9,0,0,0-.565-0.19,0.936,0.936,0,0,0-.431.1c-2.765,1.46-9.4,4.97-11.27,6.21-3.168,2.09-4.551,9.68-4.8,11.18a0.875,0.875,0,0,0,.041.44c0.114,0.32,3.02,7.7,24.184,7.7s24.071-7.38,24.184-7.7a0.875,0.875,0,0,0,.041-0.44C975.8,1691.11,974.428,1685.87,971.677,1684Zm-37.028-13.35h2.939a1.986,1.986,0,0,0,2-1.97v-8.34a1.965,1.965,0,0,0-1-1.7c0.656-6.83,3.338-11.56,13.647-11.56,5.92,0,9.616,1.49,11.63,4.69a16.061,16.061,0,0,1,2,6.88,1.953,1.953,0,0,0-.979,1.69v8.34a1.976,1.976,0,0,0,1.56,1.92c-1.3.83-3.977,1.69-9.529,1.69-0.45,0-.919-0.01-1.407-0.02a1.719,1.719,0,0,0-1.522-.91h-2.449a1.685,1.685,0,1,0,0,3.37h2.449a1.729,1.729,0,0,0,1.389-.7c0.516,0.01,1.021.02,1.509,0.02,6.259,0,10.238-1.05,11.848-3.13,0.069-.09.131-0.18,0.189-0.27h0.9a1.986,1.986,0,0,0,2-1.97v-8.34a1.986,1.986,0,0,0-2-1.97h-1.105a18.282,18.282,0,0,0-2.418-8.08c-2.552-4.06-7.154-6.03-14.069-6.03s-11.517,1.97-14.07,6.03a18.281,18.281,0,0,0-2.417,8.08h-1.105a1.986,1.986,0,0,0-2,1.97v8.34A1.986,1.986,0,0,0,934.649,1670.65Zm6.021-.08c2.752,5.97,8.646,8.57,11.571,8.57a13.2,13.2,0,0,0,7.882-3.59c-1.007.07-2.083,0.1-3.232,0.1h-0.855a3.377,3.377,0,0,1-2.043.68h-2.449a3.291,3.291,0,1,1,0-6.58h2.449a3.347,3.347,0,0,1,2.326.93h0.6a27.29,27.29,0,0,0,6.609-.63,3.507,3.507,0,0,1-.273-1.37v-8.34a3.534,3.534,0,0,1,.894-2.34,13.333,13.333,0,0,0-1.67-5.38c-1.688-2.69-4.942-3.94-10.241-3.94-4.395,0-7.431.9-9.279,2.74-1.433,1.43-2.264,3.48-2.652,6.56a3.525,3.525,0,0,1,.914,2.36v8.34A3.5,3.5,0,0,1,940.67,1670.57Z" transform="translate(-928.031 -1644)"/>
</svg>
