<svg xmlns="http://www.w3.org/2000/svg" viewBox="0 0 214.16 69.08">
  <defs>
    <style>.cls-1{fill: white;}</style>
  </defs>
  <title>Asset 1</title>
  <g id="Layer_2" data-name="Layer 2">
    <g id="Layer_1-2" data-name="Layer 1">
      <path class="cls-1"
            d="M4.47,24.1A13.68,13.68,0,0,1,.38,14.25,13.31,13.31,0,0,1,4.52,4.5,13.57,13.57,0,0,1,14.46.38a13.45,13.45,0,0,1,9.89,4.1,13.35,13.35,0,0,1,4.11,9.77,13.74,13.74,0,0,1-4.07,9.87,13,13,0,0,1-9.72,4.19h-.54A13,13,0,0,1,4.47,24.1Zm22.8-9.77a12.47,12.47,0,0,0-3.76-9.11,12.31,12.31,0,0,0-9.07-3.8,12.37,12.37,0,0,0-9.09,3.8,12.45,12.45,0,0,0-3.78,9.11,12.49,12.49,0,0,0,3.78,9.12,12.29,12.29,0,0,0,9.07,3.82,12.29,12.29,0,0,0,9.07-3.82A12.49,12.49,0,0,0,27.27,14.33Z"/>
      <path class="cls-1" d="M45.77,11.72v1H39.58V27.88H38.43V12.73H32.24v-1Z"/>
      <path class="cls-1" d="M50.22,11.68h1.39v5.2l6.15-5.2h1.73l-7.42,6.48,9.29,9.72H59.55L51.61,19.6v8.28H50.22Z"/>
      <path class="cls-1"
            d="M65.77,35.08V11.68h1.42v4a7.38,7.38,0,0,1,3-3.17,8.54,8.54,0,0,1,4.3-1.19,8.57,8.57,0,0,1,8.57,8.5,8.15,8.15,0,0,1-2.51,6,8.24,8.24,0,0,1-6.06,2.51,8.37,8.37,0,0,1-4.21-1.17A8,8,0,0,1,67.19,24V35.08Zm1.35-15.26a7.13,7.13,0,0,0,2.22,5.23,7.15,7.15,0,0,0,5.25,2.22,7,7,0,0,0,5.2-2.22,7.48,7.48,0,0,0,0-10.53,7.2,7.2,0,0,0-10.44,0A7.28,7.28,0,0,0,67.12,19.82Z"/>
      <path class="cls-1"
            d="M87.07,19.71a8.07,8.07,0,0,1,2.52-5.92,8.56,8.56,0,0,1,12.11,0,8.11,8.11,0,0,1,2.5,5.94,8.34,8.34,0,0,1-2.45,6,7.9,7.9,0,0,1-5.94,2.56h-.36a7.92,7.92,0,0,1-5.88-2.58A8.3,8.3,0,0,1,87.07,19.71Zm16,.09a7.32,7.32,0,0,0-2.18-5.28,7,7,0,0,0-5.2-2.23,7.11,7.11,0,0,0-5.24,2.25,7.31,7.31,0,0,0-2.21,5.28,7.16,7.16,0,0,0,2.21,5.23,7.18,7.18,0,0,0,5.26,2.22,7,7,0,0,0,5.2-2.22A7.24,7.24,0,0,0,103.05,19.8Z"/>
      <path class="cls-1"
            d="M109.19,11.68h3.26a3.11,3.11,0,0,1,2.32,1,3.54,3.54,0,0,1,.92,2.54,2.76,2.76,0,0,1-1.34,2.45,4.52,4.52,0,0,1,2.43,1.87,5.78,5.78,0,0,1,1,3.35,4.83,4.83,0,0,1-1.54,3.47,5.12,5.12,0,0,1-3.78,1.57h-3.26Zm3.12,1-1.74,0v4.61l1.81,0a2,2,0,0,0,1.51-.67,2.19,2.19,0,0,0,.65-1.58,2.34,2.34,0,0,0-.68-1.64A2.11,2.11,0,0,0,112.31,12.67Zm0,5.58-1.77,0v8.68l1.77,0a4,4,0,0,0,3-1.28,4.26,4.26,0,0,0,1.25-3.08,4.2,4.2,0,0,0-1.25-3.06A4,4,0,0,0,112.34,18.25Z"/>
      <path class="cls-1"
            d="M130.52,28.49h-.4a7.86,7.86,0,0,1-5.88-2.56,8.76,8.76,0,0,1-2.51-6.17,8.09,8.09,0,0,1,2.52-5.94,8.53,8.53,0,0,1,6.23-2.5A8.65,8.65,0,0,1,137,14.41l-11.3,11.16a6.79,6.79,0,0,0,4.39,1.73,7.48,7.48,0,0,0,3.87-1,8.5,8.5,0,0,0,2.83-2.64l0,2A8.14,8.14,0,0,1,130.52,28.49Zm-.11-15.94a7,7,0,0,0-5.07,2.22,7,7,0,0,0-2.22,5.09,6.65,6.65,0,0,0,1.67,4.82l10.4-10.33A6.67,6.67,0,0,0,130.41,12.55Z"/>
      <path class="cls-1" d="M153.85,11.68h1.39v16.2h-1.39v-6h-11v6h-1.38V11.68h1.38v9h11Z"/>
      <path class="cls-1" d="M173.61,11.68h1.15v16.2h-1.15V21.8h-11v6.08h-1.15V11.68h1.15v9.11h11Z"/>
      <path class="cls-1"
            d="M181.08,11.68h1.31v5.57h1.77a5,5,0,0,1,3.71,1.58,5.2,5.2,0,0,1,1.54,3.75,5,5,0,0,1-1.58,3.72,5.18,5.18,0,0,1-3.78,1.57h-3Zm1.31,6.55V26.9h1.5a4,4,0,0,0,3-1.28,4.16,4.16,0,0,0,1.26-3,4.23,4.23,0,0,0-1.27-3.06,4,4,0,0,0-2.94-1.32Zm10-6.55h1.34v16.2h-1.34Z"/>
      <path class="cls-1"
            d="M207.74,28.31h-.4a7.92,7.92,0,0,1-5.89-2.55,8.38,8.38,0,0,1-2.46-6,8.09,8.09,0,0,1,2.52-5.94,8.51,8.51,0,0,1,6.23-2.5,8.33,8.33,0,0,1,6.37,2.95L202.8,25.43a7.29,7.29,0,0,0,4.5,1.87,7.48,7.48,0,0,0,3.87-1A8.41,8.41,0,0,0,214,23.67V25.5A8.11,8.11,0,0,1,207.74,28.31Zm-.31-16a7,7,0,0,0-5.08,2.21,7,7,0,0,0-2.21,5.1,7.39,7.39,0,0,0,1.91,5l10.47-10.41A7.53,7.53,0,0,0,207.43,12.33Z"/>
      <path class="cls-1" d="M15.25,45.72V61.88H14V47.73L2.29,61.88H1.12V45.72H2.39V59.78L14,45.72Z"/>
      <path class="cls-1" d="M28.71,46.84h-6v15H21.37V45.72h7.34Z"/>
      <path class="cls-1"
            d="M33.39,69.08V45.68h1.15v4a7.41,7.41,0,0,1,3-3.17,8.57,8.57,0,0,1,4.31-1.19A8.26,8.26,0,0,1,48,47.79a8.43,8.43,0,0,1,0,12,8.26,8.26,0,0,1-6.06,2.51,8.44,8.44,0,0,1-4.22-1.17A8,8,0,0,1,34.54,58V69.08Zm1.08-15.26a7.55,7.55,0,0,0,7.47,7.45,7,7,0,0,0,5.2-2.21,7.48,7.48,0,0,0,0-10.54,7,7,0,0,0-5.2-2.23,7.13,7.13,0,0,0-5.24,2.25A7.31,7.31,0,0,0,34.47,53.82Z"/>
      <path class="cls-1"
            d="M55.67,45.68h1.16v5.58h1.76a5,5,0,0,1,3.71,1.59,5.17,5.17,0,0,1,1.55,3.74,5,5,0,0,1-1.59,3.72,5.15,5.15,0,0,1-3.78,1.57H55.67Zm1.16,6.55v8.68h1.69a4,4,0,0,0,2.95-1.28,4.16,4.16,0,0,0,1.26-3,4.24,4.24,0,0,0-1.28-3.06,4,4,0,0,0-2.93-1.32Zm10.22-6.55h1.12v16.2H67.05Z"/>
      <path class="cls-1"
            d="M4.2,24.36A14,14,0,0,1,0,14.25a13.71,13.71,0,0,1,4.25-10A14,14,0,0,1,14.46,0,13.85,13.85,0,0,1,24.62,4.21a13.72,13.72,0,0,1,4.22,10,14.06,14.06,0,0,1-4.18,10.13,13.43,13.43,0,0,1-10,4.31h-.56A13.33,13.33,0,0,1,4.2,24.36Zm23.42-10A12.81,12.81,0,0,0,23.75,5a12.62,12.62,0,0,0-9.31-3.9A12.7,12.7,0,0,0,5.1,5a12.79,12.79,0,0,0-3.88,9.36A12.84,12.84,0,0,0,5.1,23.7a12.67,12.67,0,0,0,9.32,3.92,12.67,12.67,0,0,0,9.32-3.92A12.88,12.88,0,0,0,27.62,14.33Z"/>
      <path class="cls-1" d="M45.77,11.25v1h-6V27.88H38.26V12.29l-6,0v-1Z"/>
      <path class="cls-1"
            d="M74.53,12.53a7.25,7.25,0,1,1-7.16,7.25,7.21,7.21,0,0,1,7.16-7.25m0-1a8.25,8.25,0,1,0,8.16,8.25,8.21,8.21,0,0,0-8.16-8.25Z"/>
      <path class="cls-1"
            d="M95.63,12.55a7.25,7.25,0,1,1-7.15,7.25,7.2,7.2,0,0,1,7.15-7.25m0-1a8.25,8.25,0,1,0,8.16,8.25,8.21,8.21,0,0,0-8.16-8.25Z"/>
      <path class="cls-1" d="M173.61,11.68H175v16.2h-1.39v-6h-11v6h-1.39V11.68h1.39v9h11Z"/>
      <path class="cls-1"
            d="M207.72,28.36h-.4a7.89,7.89,0,0,1-5.88-2.55,8.79,8.79,0,0,1-2.51-6.17,8.09,8.09,0,0,1,2.52-5.94,8.49,8.49,0,0,1,6.23-2.5,8.65,8.65,0,0,1,6.48,3.09l-11.3,11.16a6.79,6.79,0,0,0,4.39,1.73,7.58,7.58,0,0,0,3.87-1A8.6,8.6,0,0,0,214,23.55l0,2A8.13,8.13,0,0,1,207.72,28.36Zm-.11-15.93a7,7,0,0,0-5.07,2.21,7,7,0,0,0-2.22,5.1A6.62,6.62,0,0,0,202,24.55l10.4-10.32A6.63,6.63,0,0,0,207.61,12.43Z"/>
      <path class="cls-1"
            d="M33.22,69.08V45.68h1.42v4a7.36,7.36,0,0,1,3-3.17A8.57,8.57,0,0,1,42,45.28a8.26,8.26,0,0,1,6.06,2.51,8.44,8.44,0,0,1,0,12A8.29,8.29,0,0,1,42,62.28a8.44,8.44,0,0,1-4.22-1.17A8,8,0,0,1,34.64,58V69.08Zm1.35-15.26A7.56,7.56,0,0,0,42,61.27a7,7,0,0,0,5.2-2.22,7.46,7.46,0,0,0,0-10.52A7,7,0,0,0,42,46.29a7.13,7.13,0,0,0-5.24,2.25A7.31,7.31,0,0,0,34.57,53.82Z"/>
      <path class="cls-1"
            d="M55.51,45.68h1.32v5.57h1.76a5,5,0,0,1,3.71,1.59,5.17,5.17,0,0,1,1.55,3.74,5.07,5.07,0,0,1-1.59,3.73,5.18,5.18,0,0,1-3.78,1.56h-3Zm1.32,6.55V60.9h1.49a4,4,0,0,0,3-1.28,4.16,4.16,0,0,0,1.26-3,4.24,4.24,0,0,0-1.28-3.06,4,4,0,0,0-2.94-1.32Zm10-6.55h1.35v16.2H66.82Z"/>
    </g>
  </g>
</svg>
