<?xml version="1.0" encoding="utf-8"?>
<!-- Generator: Adobe Illustrator 22.1.0, SVG Export Plug-In . SVG Version: 6.00 Build 0)  -->
<svg version="1.1" id="Layer_1" xmlns="http://www.w3.org/2000/svg" xmlns:xlink="http://www.w3.org/1999/xlink" x="0px" y="0px"
	 viewBox="0 0 998.6 170.6" style="enable-background:new 0 0 998.6 170.6;" xml:space="preserve">
<style type="text/css">
	.st0{fill:url(#SVGID_1_);}
	.st1{fill:url(#SVGID_2_);}
	.st2{fill:url(#SVGID_3_);}
	.st3{fill:url(#SVGID_4_);}
	.st4{fill:url(#SVGID_5_);}
	.st5{fill:url(#SVGID_6_);}
	.st6{fill:#6600FF;}
</style>
<g>
	<g>
		<linearGradient id="SVGID_1_" gradientUnits="userSpaceOnUse" x1="859.8854" y1="4.0922" x2="859.8854" y2="166.8942">
			<stop  offset="0" style="stop-color:#FFFF00"/>
			<stop  offset="0.501" style="stop-color:#FF00DE"/>
			<stop  offset="1" style="stop-color:#6600FF"/>
		</linearGradient>
		<polygon class="st0" points="875.9,13.5 847.1,42.3 880.3,75.5 880.3,166.9 839.5,166.9 839.5,4.1 880.3,4.1 880.3,17.9 		"/>
		<linearGradient id="SVGID_2_" gradientUnits="userSpaceOnUse" x1="919.0775" y1="4.0922" x2="919.0775" y2="77.054">
			<stop  offset="0" style="stop-color:#FFFF00"/>
			<stop  offset="0.9457" style="stop-color:#FF00DE"/>
		</linearGradient>
		<polygon class="st1" points="939.5,4.1 939.5,77.1 898.7,36.3 898.7,4.1 		"/>
		<linearGradient id="SVGID_3_" gradientUnits="userSpaceOnUse" x1="919.0775" y1="93.932" x2="919.0775" y2="166.8942">
			<stop  offset="3.030849e-02" style="stop-color:#FF00DE"/>
			<stop  offset="1" style="stop-color:#6600FF"/>
		</linearGradient>
		<polygon class="st2" points="898.7,93.9 939.5,134.7 939.5,166.9 898.7,166.9 		"/>
		<linearGradient id="SVGID_4_" gradientUnits="userSpaceOnUse" x1="978.3173" y1="4.0922" x2="978.3173" y2="166.8942">
			<stop  offset="0" style="stop-color:#FFFF00"/>
			<stop  offset="0.501" style="stop-color:#FF00DE"/>
			<stop  offset="1" style="stop-color:#6600FF"/>
		</linearGradient>
		<polygon class="st3" points="998.7,4.1 998.7,166.9 957.9,166.9 957.9,153.2 962.2,157.5 991.1,128.6 957.9,95.5 957.9,4.1 		"/>
		<linearGradient id="SVGID_5_" gradientUnits="userSpaceOnUse" x1="889.4815" y1="17.8622" x2="889.4815" y2="93.932">
			<stop  offset="0" style="stop-color:#FFFF00"/>
			<stop  offset="0.8201" style="stop-color:#FF00DE"/>
		</linearGradient>
		<polygon class="st4" points="880.3,17.9 898.7,36.3 898.7,93.9 880.3,75.5 		"/>
		<linearGradient id="SVGID_6_" gradientUnits="userSpaceOnUse" x1="948.6975" y1="77.054" x2="948.6975" y2="153.172">
			<stop  offset="0.3055" style="stop-color:#FF00DE"/>
			<stop  offset="1" style="stop-color:#6600FF"/>
		</linearGradient>
		<polygon class="st5" points="957.9,95.5 957.9,153.2 939.5,134.7 939.5,77.1 		"/>
	</g>
	<g>
		<path class="st6" d="M61.2,52.9v13.3c-24.4-1.9-42.1,13.3-47.9,32.6v68.1H0V55.3h11.9v25.8C20,64.6,39.1,51.8,61.2,52.9z"/>
		<path class="st6" d="M123,52.7c42.3,0,56.7,35.1,50.9,64.4H81.2c1.6,28.4,25.1,40.2,50,40.2c13.5,0,27-3.5,36.5-9.1v13
			c-10,5.3-24.2,8.1-38.4,8.1c-32.6,0-61.4-18.1-61.4-58.4C67.9,72.7,96.1,52.7,123,52.7z M124,64.8c-21.9,0-41.6,14.2-42.8,40.7
			h81.2C164.2,89.7,155.4,64.8,124,64.8z"/>
		<path class="st6" d="M209.8,83.6c-4.9,0-9.3-3-9.3-9.1c0-5.8,4.4-9.1,9.3-9.1c5.1,0,9.3,3.3,9.3,9.1
			C219.1,80.6,214.9,83.6,209.8,83.6z M209.8,168.8c-4.9,0-9.3-3.3-9.3-9.1s4.4-9.1,9.3-9.1c5.1,0,9.3,3.3,9.3,9.1
			S214.9,168.8,209.8,168.8z"/>
		<path class="st6" d="M398.4,4.1v162.8h-53.5V109h-44.2v57.9H247V4.1h53.7V62h44.2V4.1H398.4z"/>
		<path class="st6" d="M476.8,4.1v162.8H423V4.1H476.8z"/>
		<path class="st6" d="M584.7,0.4c19.1,0,37.7,3.7,52.6,9.8V58c-11.2-7-28.1-10.9-42.8-10.9c-23.7,0-44.7,10.7-44.7,38.4
			c0,30.7,22.8,37.2,34.7,37.2c2.6,0,4.7-0.2,6.5-0.5V76h50.2v83.7c-17.7,7-36.7,10.9-55.4,10.9c-47,0-91.2-27.2-91.2-85.1
			C494.7,25.7,539.1,0.4,584.7,0.4z"/>
		<path class="st6" d="M814.2,4.1v162.8h-53.5V109h-44.2v57.9h-53.7V4.1h53.7V62h44.2V4.1H814.2z"/>
	</g>
</g>
</svg>
