<svg xmlns="http://www.w3.org/2000/svg" width="33.469" height="22.62" viewBox="0 0 33.469 22.62">
  <metadata><?xpacket begin="﻿" id="W5M0MpCehiHzreSzNTczkc9d"?>
<x:xmpmeta xmlns:x="adobe:ns:meta/" x:xmptk="Adobe XMP Core 5.6-c140 79.160451, 2017/05/06-01:08:21        ">
   <rdf:RDF xmlns:rdf="http://www.w3.org/1999/02/22-rdf-syntax-ns#">
      <rdf:Description rdf:about=""/>
   </rdf:RDF>
</x:xmpmeta>
                                                                                                    
                                                                                                    
                                                                                                    
                                                                                                    
                                                                                                    
                                                                                                    
                                                                                                    
                                                                                                    
                                                                                                    
                                                                                                    
                                                                                                    
                                                                                                    
                                                                                                    
                                                                                                    
                                                                                                    
                                                                                                    
                                                                                                    
                                                                                                    
                                                                                                    
                                                                                                    
                           
<?xpacket end="w"?></metadata>
<defs>
    <style>
      .cls-1 {
        fill: #d0d0d0;
        fill-rule: evenodd;
      }
    </style>
  </defs>
  <path id="Forma_1" data-name="Forma 1" class="cls-1" d="M222.685,1071.94h0.007a1.24,1.24,0,0,0,.7-0.21l0.055-.03,0.036-.03,0.638-.53,15.221-12.7a0.187,0.187,0,0,0-.143-0.07H206.082a0.149,0.149,0,0,0-.11.04l15.924,13.27A1.228,1.228,0,0,0,222.685,1071.94Zm-16.78-11.77v18.82l11.407-9.32Zm22.08,9.57,11.4,9.25v-18.76Zm-3.623,3.02a2.651,2.651,0,0,1-1.672.58,2.594,2.594,0,0,1-1.674-.58l-2.612-2.18-12.5,10.21v0.03a0.18,0.18,0,0,0,.179.18H239.2a0.18,0.18,0,0,0,.177-0.18v-0.03l-12.488-10.14Z" transform="translate(-205.906 -1058.38)"/>
</svg>
