<svg xmlns="http://www.w3.org/2000/svg" width="38" height="31.69" viewBox="0 0 38 31.69">
  <metadata><?xpacket begin="﻿" id="W5M0MpCehiHzreSzNTczkc9d"?>
<x:xmpmeta xmlns:x="adobe:ns:meta/" x:xmptk="Adobe XMP Core 5.6-c140 79.160451, 2017/05/06-01:08:21        ">
   <rdf:RDF xmlns:rdf="http://www.w3.org/1999/02/22-rdf-syntax-ns#">
      <rdf:Description rdf:about=""/>
   </rdf:RDF>
</x:xmpmeta>
                                                                                                    
                                                                                                    
                                                                                                    
                                                                                                    
                                                                                                    
                                                                                                    
                                                                                                    
                                                                                                    
                                                                                                    
                                                                                                    
                                                                                                    
                                                                                                    
                                                                                                    
                                                                                                    
                                                                                                    
                                                                                                    
                                                                                                    
                                                                                                    
                                                                                                    
                                                                                                    
                           
<?xpacket end="w"?></metadata>
<defs>
    <style>
      .cls-1 {
        fill: #d0d0d0;
        fill-rule: evenodd;
      }
    </style>
  </defs>
  <path id="Forma_1" data-name="Forma 1" class="cls-1" d="M224.21,999.783c6.406,0.064,10.418-.339,10.96,6.847h7.811c0-11.135-9.592-12.637-18.974-12.637s-18.973,1.5-18.973,12.637h7.75C213.384,999.306,217.859,999.72,224.21,999.783Zm-15.3,10.427c1.9,0,3.485.12,3.837-1.78a4.846,4.846,0,0,0,.074-0.88H205C205,1010.37,206.747,1010.21,208.908,1010.21Zm26.312-2.66h-0.073a4.176,4.176,0,0,0,.083.88c0.371,1.75,1.952,1.64,3.847,1.64,2.172,0,3.931.15,3.931-2.52H235.22Zm-3.815-1.92v-1.12c0-.5-0.571-0.54-1.274-0.54h-1.149c-0.7,0-1.274.04-1.274,0.54v1.71h-8.133v-1.71c0-.5-0.57-0.54-1.273-0.54h-1.15c-0.7,0-1.274.04-1.274,0.54v2.09c-1.853,1.95-7.915,10.25-8.135,11.26l0,6.71a1.115,1.115,0,0,0,1.109,1.12h29.574a1.114,1.114,0,0,0,1.109-1.12v-6.74c-0.218-.98-6.279-9.28-8.132-11.23v-0.97Zm-12.231,13.13a1.09,1.09,0,1,1,1.078-1.09A1.086,1.086,0,0,1,219.174,1018.76Zm0-3.74a1.09,1.09,0,1,1,1.078-1.09A1.086,1.086,0,0,1,219.174,1015.02Zm0-3.75a1.09,1.09,0,1,1,1.078-1.09A1.079,1.079,0,0,1,219.174,1011.27Zm4.436,7.49a1.09,1.09,0,1,1,1.078-1.09A1.086,1.086,0,0,1,223.61,1018.76Zm0-3.74a1.09,1.09,0,1,1,1.078-1.09A1.086,1.086,0,0,1,223.61,1015.02Zm0-3.75a1.09,1.09,0,1,1,1.078-1.09A1.079,1.079,0,0,1,223.61,1011.27Zm4.436,7.49a1.09,1.09,0,1,1,1.078-1.09A1.086,1.086,0,0,1,228.046,1018.76Zm0-3.74a1.09,1.09,0,1,1,1.078-1.09A1.086,1.086,0,0,1,228.046,1015.02Zm0-3.75a1.09,1.09,0,1,1,1.078-1.09A1.079,1.079,0,0,1,228.046,1011.27Z" transform="translate(-205 -994)"/>
</svg>
