<svg xmlns="http://www.w3.org/2000/svg" width="29.97" height="29.97" viewBox="0 0 29.97 29.97">
  <metadata><?xpacket begin="﻿" id="W5M0MpCehiHzreSzNTczkc9d"?>
<x:xmpmeta xmlns:x="adobe:ns:meta/" x:xmptk="Adobe XMP Core 5.6-c140 79.160451, 2017/05/06-01:08:21        ">
   <rdf:RDF xmlns:rdf="http://www.w3.org/1999/02/22-rdf-syntax-ns#">
      <rdf:Description rdf:about=""/>
   </rdf:RDF>
</x:xmpmeta>
                                                                                                    
                                                                                                    
                                                                                                    
                                                                                                    
                                                                                                    
                                                                                                    
                                                                                                    
                                                                                                    
                                                                                                    
                                                                                                    
                                                                                                    
                                                                                                    
                                                                                                    
                                                                                                    
                                                                                                    
                                                                                                    
                                                                                                    
                                                                                                    
                                                                                                    
                                                                                                    
                           
<?xpacket end="w"?></metadata>
<defs>
    <style>
      .cls-1 {
        fill: #d0d0d0;
        fill-rule: evenodd;
      }
    </style>
  </defs>
  <path id="Forma_1" data-name="Forma 1" class="cls-1" d="M1624.45,1230.02h-26.8a1.6,1.6,0,0,0-1.6,1.59v26.8a1.6,1.6,0,0,0,1.6,1.59h26.8a1.6,1.6,0,0,0,1.6-1.59v-26.8A1.6,1.6,0,0,0,1624.45,1230.02Zm-4.51,16.89a32.5,32.5,0,0,1,2.42,2.42,7.115,7.115,0,0,1,.86,1.25,0.894,0.894,0,0,1-.54,1.39h-3.6a2.767,2.767,0,0,1-2.28-.93c-0.5-.51-0.96-1.05-1.44-1.57a3.544,3.544,0,0,0-.65-0.57,0.745,0.745,0,0,0-1.19.29,3.714,3.714,0,0,0-.38,1.67,0.952,0.952,0,0,1-1.14,1.11,9.194,9.194,0,0,1-5.14-1.11,11.128,11.128,0,0,1-3.46-3.23,43.156,43.156,0,0,1-4.55-8.12c-0.29-.63-0.08-0.98.62-0.99,1.18-.02,2.35-0.02,3.52,0a1.045,1.045,0,0,1,.98.73,21.567,21.567,0,0,0,2.38,4.41,3.552,3.552,0,0,0,.9.99,0.543,0.543,0,0,0,.93-0.27,3.227,3.227,0,0,0,.21-0.93,14.051,14.051,0,0,0-.06-3.24,1.352,1.352,0,0,0-1.16-1.24c-0.34-.06-0.29-0.19-0.12-0.39a1.281,1.281,0,0,1,1.1-.54l4.06-.01a0.977,0.977,0,0,1,.87,1.06v4.51a1.328,1.328,0,0,0,.58,1.15,0.8,0.8,0,0,0,.81-0.4,14.022,14.022,0,0,0,2.28-3.51c0.28-.55.51-1.13,0.74-1.71a0.892,0.892,0,0,1,.92-0.63l3.91,0.01a1.94,1.94,0,0,1,.34.02,0.681,0.681,0,0,1,.64,1.04,9.652,9.652,0,0,1-1.56,2.69c-0.65.9-1.34,1.77-1.99,2.68A1.229,1.229,0,0,0,1619.94,1246.91Z" transform="translate(-1596.06 -1230.03)"/>
</svg>
