<?xml version="1.0" encoding="iso-8859-1"?>
<!-- Generator: Adobe Illustrator 19.0.0, SVG Export Plug-In . SVG Version: 6.00 Build 0)  -->
<svg xmlns="http://www.w3.org/2000/svg" xmlns:xlink="http://www.w3.org/1999/xlink" version="1.1" id="Capa_1" x="0px" y="0px" viewBox="0 0 392 392" style="enable-background:new 0 0 392 392;" xml:space="preserve" width="512px" height="512px">
<g>
	<g>
		<path d="M72.033,188.16c-1.415-1.719-3.262-3.03-5.351-3.8l-4.32-0.76h-30.92c-6.935,0.13-12.452,5.858-12.322,12.794    c0.059,3.153,1.302,6.168,3.482,8.446c2.343,2.35,5.522,3.673,8.84,3.68h15.44h17.6l5.84-2.68    C75.677,201.43,76.443,193.515,72.033,188.16z" fill="#810101"/>
	</g>
</g>
<g>
	<g>
		<path d="M357.082,0H68.402c-8.758,0.109-15.801,7.241-15.8,16v36c10.36,0,18.56-1.08,26.68,7.04    c9.354,9.392,9.323,24.587-0.069,33.941c-1.69,1.683-3.622,3.105-5.731,4.219c-6.88,3.52-13.12,2.76-20.84,2.76V172    c6.84,0,13.8-0.76,20,2.4c11.929,5.778,16.917,20.132,11.139,32.061c-1.158,2.392-2.706,4.574-4.579,6.459    c-8,8-16.52,7.04-26.68,7.04V292c6.84,0,13.8-0.76,20,2.36c11.929,5.777,16.917,20.132,11.139,32.061    c-1.158,2.392-2.706,4.574-4.579,6.459c-8,8-16.32,7.04-26.68,7.04v36c-0.044,8.836,7.083,16.036,15.92,16.08    c0.027,0,0.054,0,0.08,0h288.68c8.681-0.108,15.692-7.119,15.8-15.8V16C372.883,7.241,365.84,0.109,357.082,0z M313.682,309.56    c-7.04,17.88-33.8,26.64-50.28,26.8c-16.48,0.16-18.56-4-28.2-13.88l-23.32-24.6l-4-4.88c-44-50-64-114.8-70.04-180    c-0.476-4.744-0.597-9.518-0.36-14.28c0.173-18.251,11.41-34.57,28.4-41.24c10.994-5.003,23.502-5.533,34.88-1.48    c9.28,3.64,12,9.48,14.48,15.64c6.727,15.301,11.33,31.451,13.68,48c3.56,25.92-12,29.64-23.2,32.4    c-3.321,0.329-6.448,1.718-8.92,3.96c-6.2,8-1.32,32.84,1.76,41.2l4.4,10.44l1.72,3.6l10.32,15.52c21.64,26.32,20,14,35.6,9.44    c23.4-6.84,31.16,4.36,42.28,20.36l0.8,1.16l11.72,18.28C311.122,285.6,318.722,296.72,313.682,309.56z" fill="#810101"/>
	</g>
</g>
<g>
	<g>
		<path d="M70.322,306.44l-3.64-2.08l-4.32-0.76h-30.92c-6.926,0.391-12.223,6.323-11.831,13.249    c0.361,6.379,5.452,11.471,11.831,11.831h30.92c6.937-0.024,12.541-5.666,12.517-12.603    C74.866,312.347,73.196,308.816,70.322,306.44z" fill="#810101"/>
	</g>
</g>
<g>
	<g>
		<path d="M71.959,67.917c-2.385-2.885-5.933-4.556-9.677-4.557h-30.84c-6.926,0.391-12.223,6.323-11.831,13.249    c0.36,6.379,5.452,11.471,11.831,11.831h15.44h17.28l2.48-0.76l3.64-2.08C75.628,81.18,76.379,73.263,71.959,67.917z" fill="#810101"/>
	</g>
</g>
<g>
</g>
<g>
</g>
<g>
</g>
<g>
</g>
<g>
</g>
<g>
</g>
<g>
</g>
<g>
</g>
<g>
</g>
<g>
</g>
<g>
</g>
<g>
</g>
<g>
</g>
<g>
</g>
<g>
</g>
</svg>
