<?xml version="1.0" encoding="iso-8859-1"?>
<!-- Generator: Adobe Illustrator 16.0.0, SVG Export Plug-In . SVG Version: 6.00 Build 0)  -->
<!DOCTYPE svg PUBLIC "-//W3C//DTD SVG 1.1//EN" "http://www.w3.org/Graphics/SVG/1.1/DTD/svg11.dtd">
<svg xmlns="http://www.w3.org/2000/svg" xmlns:xlink="http://www.w3.org/1999/xlink" version="1.1" id="Capa_1" x="0px" y="0px" width="512px" height="512px" viewBox="0 0 545.588 545.588" style="enable-background:new 0 0 545.588 545.588;" xml:space="preserve">
<g>
	<g>
		<path d="M500.446,491.766V292.34c0-12.47-7.114-28.286-17.403-35.333L288.866,123.227c-10.289-7.048-26.986-6.99-37.237,0.115    L69.77,249.375c-10.242,7.105-18.762,22.969-18.762,35.439v206.951c0,12.47,10.528,24.872,22.998,24.872h406.369    C492.844,516.638,500.446,504.235,500.446,491.766z M278.635,462.964l-1.684,0.975    c-104.824-42.313-145.216-140.052-99.048-182.376c46.158-42.314,99.048,15.138,99.048,15.138h0.383    c0,0,52.891-57.452,99.058-15.138C422.55,323.887,383.459,420.649,278.635,462.964z" fill="#810101"/>
		<path d="M535.713,208.601L288.876,39.938c-10.299-7.038-26.89-6.904-37.074,0.296L9.545,211.441    c-10.175,7.191-12.604,21.286-5.403,31.46l0.593,0.842c7.201,10.184,21.286,12.604,31.47,5.403L250.999,97.341    c10.184-7.201,26.804-7.363,37.131-0.383l221.63,149.959c10.328,6.99,24.365,4.284,31.347-6.043l0.583-0.861    C548.689,229.705,546.002,215.629,535.713,208.601z" fill="#810101"/>
		<path d="M424.654,113.97c10.078,7.334,18.417,2.707,18.417-9.763V47.76c0-12.46-10.423-18.81-22.893-18.81H382.55    c-12.469,0-22.576,7.382-22.576,18.81s8.176,25.704,18.254,33.029L424.654,113.97z" fill="#810101"/>
	</g>
</g>
<g>
</g>
<g>
</g>
<g>
</g>
<g>
</g>
<g>
</g>
<g>
</g>
<g>
</g>
<g>
</g>
<g>
</g>
<g>
</g>
<g>
</g>
<g>
</g>
<g>
</g>
<g>
</g>
<g>
</g>
</svg>
