<?xml version="1.0" encoding="iso-8859-1"?>
<!-- Generator: Adobe Illustrator 18.1.1, SVG Export Plug-In . SVG Version: 6.00 Build 0)  -->
<svg xmlns="http://www.w3.org/2000/svg" xmlns:xlink="http://www.w3.org/1999/xlink" version="1.1" id="Capa_1" x="0px" y="0px" viewBox="0 0 25.772 25.772" style="enable-background:new 0 0 25.772 25.772;" xml:space="preserve" width="512px" height="512px">
<g>
	<g>
		<path d="M19.135,12.068h1.651c-0.067-0.805-0.332-1.146-0.456-1.266    C19.833,10.327,19.292,11.115,19.135,12.068z" fill="#810101"/>
		<path d="M10.052,14.449c0,0.493,0.164,0.799,0.429,0.799c0.425,0,0.562-0.483,0.601-0.69    c0.022-0.104,0.034-0.214,0.034-0.313v-0.939C10.052,13.445,10.052,14.189,10.052,14.449z" fill="#810101"/>
		<path d="M25.646,13.741l-1.519-2.396l0.9-2.689c0.123-0.367-0.029-0.77-0.364-0.963l-2.458-1.416    l-0.453-2.801c-0.061-0.381-0.383-0.666-0.77-0.682l-2.834-0.111l-1.703-2.27c-0.232-0.311-0.65-0.414-0.998-0.246l-2.561,1.219    l-2.562-1.219C9.976,0.001,9.558,0.105,9.326,0.413l-1.703,2.27L4.789,2.794C4.403,2.81,4.08,3.095,4.02,3.476L3.567,6.277    L1.109,7.693C0.774,7.886,0.621,8.288,0.744,8.656l0.9,2.689l-1.518,2.396c-0.207,0.326-0.155,0.754,0.124,1.021l2.047,1.963    l-0.23,2.826c-0.031,0.387,0.213,0.74,0.585,0.848l2.725,0.785l1.11,2.611c0.15,0.355,0.532,0.561,0.91,0.479l2.779-0.57    l2.195,1.797c0.149,0.121,0.332,0.184,0.515,0.184s0.365-0.063,0.515-0.184l2.195-1.797l2.779,0.57    c0.377,0.08,0.76-0.123,0.91-0.479l1.11-2.611l2.725-0.785c0.372-0.107,0.616-0.461,0.585-0.848l-0.23-2.826l2.047-1.963    C25.801,14.495,25.853,14.068,25.646,13.741z M5.269,16.789c-0.584,0-1.186-0.183-1.534-0.467c-0.12-0.099-0.167-0.26-0.119-0.407    l0.26-0.791c0.036-0.111,0.122-0.199,0.231-0.237c0.109-0.04,0.231-0.025,0.329,0.039c0.209,0.136,0.545,0.281,0.859,0.281    c0.382,0,0.593-0.206,0.593-0.581c0-0.309-0.049-0.56-0.68-0.986c-0.634-0.4-1.488-1.07-1.488-2.18    c0-1.256,0.94-2.203,2.188-2.203c0.48,0,0.928,0.129,1.369,0.396c0.15,0.091,0.218,0.275,0.16,0.442l-0.272,0.791    c-0.038,0.11-0.125,0.197-0.236,0.233C6.817,11.156,6.696,11.14,6.6,11.073c-0.245-0.167-0.441-0.235-0.677-0.235    c-0.437,0-0.471,0.361-0.471,0.472c0,0.245,0.029,0.394,0.656,0.823c0.649,0.418,1.526,1.119,1.526,2.315    C7.635,15.849,6.684,16.789,5.269,16.789z M12.592,16.707c-0.004,0-0.007,0-0.01,0h-0.941c-0.158,0-0.296-0.099-0.35-0.24    c-0.312,0.228-0.683,0.35-1.083,0.35c-1.119,0-1.931-0.95-1.931-2.259c0-1.559,1.09-2.612,2.808-2.759    c-0.03-0.883-0.335-0.96-0.673-0.96c-0.32,0-0.615,0.093-0.878,0.275c-0.098,0.067-0.224,0.084-0.335,0.047    c-0.113-0.039-0.201-0.129-0.236-0.243l-0.231-0.737c-0.049-0.154,0.008-0.322,0.14-0.417c0.353-0.253,1.033-0.507,1.759-0.507    c1.03,0,2.259,0.471,2.259,2.709v2.865c0,0.564,0.018,1.016,0.053,1.344c0.021,0.047,0.034,0.102,0.034,0.157    C12.976,16.542,12.783,16.72,12.592,16.707z M16.109,16.332c0,0.207-0.168,0.375-0.375,0.375h-1.051    c-0.207,0-0.375-0.168-0.375-0.375V7.954c0-0.207,0.168-0.375,0.375-0.375h1.051c0.207,0,0.375,0.168,0.375,0.375V16.332z     M22.14,13.155c-0.016,0.194-0.178,0.346-0.374,0.346h-2.673c0.098,1.707,0.868,1.707,1.17,1.707c0.439,0,0.741-0.11,0.917-0.203    c0.102-0.054,0.225-0.058,0.33-0.01c0.106,0.048,0.184,0.144,0.21,0.257l0.178,0.764c0.039,0.168-0.04,0.34-0.192,0.418    c-0.424,0.221-1.049,0.356-1.633,0.356c-1.738,0-2.776-1.38-2.776-3.69c0-2.298,1.05-3.842,2.612-3.842    c1.372,0,2.259,1.283,2.259,3.269C22.167,12.798,22.153,12.984,22.14,13.155z" fill="#810101"/>
	</g>
</g>
<g>
</g>
<g>
</g>
<g>
</g>
<g>
</g>
<g>
</g>
<g>
</g>
<g>
</g>
<g>
</g>
<g>
</g>
<g>
</g>
<g>
</g>
<g>
</g>
<g>
</g>
<g>
</g>
<g>
</g>
</svg>
