<svg xmlns="http://www.w3.org/2000/svg" width="13.999" height="13.963" viewBox="0 0 12 11.969">
  <metadata><?xpacket begin="﻿" id="W5M0MpCehiHzreSzNTczkc9d"?>
<x:xmpmeta xmlns:x="adobe:ns:meta/" x:xmptk="Adobe XMP Core 5.6-c140 79.160451, 2017/05/06-01:08:21        ">
   <rdf:RDF xmlns:rdf="http://www.w3.org/1999/02/22-rdf-syntax-ns#">
      <rdf:Description rdf:about=""/>
   </rdf:RDF>
</x:xmpmeta>
                                                                                                    
                                                                                                    
                                                                                                    
                                                                                                    
                                                                                                    
                                                                                                    
                                                                                                    
                                                                                                    
                                                                                                    
                                                                                                    
                                                                                                    
                                                                                                    
                                                                                                    
                                                                                                    
                                                                                                    
                                                                                                    
                                                                                                    
                                                                                                    
                                                                                                    
                                                                                                    
                           
<?xpacket end="w"?></metadata>
<defs>
    <style>
      .cls-1 {
        fill: #ebebeb;
        fill-rule: evenodd;
      }
    </style>
  </defs>
  <path id="Forma_1" data-name="Forma 1" class="cls-1" d="M518.712,786.3l-0.994-.994a1.056,1.056,0,0,0-1.491,0l-6.608,6.609-0.026.028a32.4,32.4,0,0,0-1.145,3.18,0.352,0.352,0,0,0,.449.449c3.287-1.163,3.126-1.089,3.207-1.171l6.608-6.609A1.055,1.055,0,0,0,518.712,786.3Zm-4.225,1.741,0.5,0.5-4.123,4.123-0.5-.5Zm-5.131,6.622,0.657-1.856,1.2,1.2Zm2.5-1.008-0.5-.5,4.123-4.123,0.5,0.5Zm4.619-4.62-1.491-1.492,0.5-.5,1.491,1.492Zm1.74-1.74-0.745.746-1.492-1.492,0.746-.746a0.352,0.352,0,0,1,.5,0l0.994,0.994A0.351,0.351,0,0,1,518.215,787.3Zm0.454,9H507.374a0.352,0.352,0,1,0,0,.7h11.295A0.352,0.352,0,1,0,518.669,796.3Z" transform="translate(-507.031 -785.031)"/>
</svg>
