<svg xmlns="http://www.w3.org/2000/svg" width="14.09" height="13.938" viewBox="0 0 14.09 13.938">
  <metadata><?xpacket begin="﻿" id="W5M0MpCehiHzreSzNTczkc9d"?>
<x:xmpmeta xmlns:x="adobe:ns:meta/" x:xmptk="Adobe XMP Core 5.6-c140 79.160451, 2017/05/06-01:08:21        ">
   <rdf:RDF xmlns:rdf="http://www.w3.org/1999/02/22-rdf-syntax-ns#">
      <rdf:Description rdf:about=""/>
   </rdf:RDF>
</x:xmpmeta>
                                                                                                    
                                                                                                    
                                                                                                    
                                                                                                    
                                                                                                    
                                                                                                    
                                                                                                    
                                                                                                    
                                                                                                    
                                                                                                    
                                                                                                    
                                                                                                    
                                                                                                    
                                                                                                    
                                                                                                    
                                                                                                    
                                                                                                    
                                                                                                    
                                                                                                    
                                                                                                    
                           
<?xpacket end="w"?></metadata>
<defs>
    <style>
      .cls-1 {
        fill: #810101;
        fill-rule: evenodd;
      }
    </style>
  </defs>
  <path id="Forma_1" data-name="Forma 1" class="cls-1" d="M1029.65,339.512l-1.17-1.155a1.249,1.249,0,0,0-1.75,0c-0.3.306-7.32,7.255-7.74,7.672q-0.015.015-.03,0.033a33.232,33.232,0,0,0-1.34,3.69,0.4,0.4,0,0,0,.09.425,0.417,0.417,0,0,0,.43.1c3.86-1.349,3.67-1.264,3.76-1.359,0.26-.259,7.15-7.082,7.75-7.671A1.22,1.22,0,0,0,1029.65,339.512Zm-4.96,2.019,0.59,0.578-4.84,4.785-0.58-.577Zm-6.01,7.688,0.77-2.155c0.1,0.1,1.16,1.151,1.41,1.393Zm2.93-1.17-0.58-.577,4.83-4.786,0.58,0.577Zm5.42-5.363-1.75-1.732,0.58-.577,1.75,1.732Zm2.04-2.02-0.88.865-1.75-1.731,0.88-.866a0.412,0.412,0,0,1,.58,0l1.17,1.155A0.407,0.407,0,0,1,1029.07,340.666Zm0.53,10.446h-13.24a0.409,0.409,0,1,0,0,.817h13.24A0.409,0.409,0,1,0,1029.6,351.112Z" transform="translate(-1015.94 -338)"/>
</svg>
