<svg xmlns="http://www.w3.org/2000/svg" xmlns:xlink="http://www.w3.org/1999/xlink" width="32" height="31" viewBox="0 0 32 31">
  <metadata><?xpacket begin="﻿" id="W5M0MpCehiHzreSzNTczkc9d"?>
<x:xmpmeta xmlns:x="adobe:ns:meta/" x:xmptk="Adobe XMP Core 5.6-c140 79.160451, 2017/05/06-01:08:21        ">
   <rdf:RDF xmlns:rdf="http://www.w3.org/1999/02/22-rdf-syntax-ns#">
      <rdf:Description rdf:about=""/>
   </rdf:RDF>
</x:xmpmeta>





















<?xpacket end="w"?></metadata>
<defs>
    <style>
      .cls-1 {
        fill: #0d0d0d;
        fill-rule: evenodd;
        filter: url(#filter);
      }
    </style>
    <filter id="filter" x="37" y="587" width="32" height="31" filterUnits="userSpaceOnUse">
      <feOffset result="offset" dy="1" in="SourceAlpha"/>
      <feGaussianBlur result="blur" stdDeviation="1.732"/>
      <feFlood result="flood" flood-color="#2f2e2e" flood-opacity="0.2"/>
      <feComposite result="composite" operator="in" in2="blur"/>
      <feBlend result="blend" in="SourceGraphic"/>
    </filter>
  </defs>
  <path id="instagram" class="cls-1" d="M42.665,588H62.087a3.337,3.337,0,0,1,3.354,3.3v19.114a3.336,3.336,0,0,1-3.354,3.3H42.665a3.337,3.337,0,0,1-3.355-3.3V591.3A3.338,3.338,0,0,1,42.665,588Zm15.68,2.856a1.171,1.171,0,0,0-1.176,1.159v2.77a1.171,1.171,0,0,0,1.176,1.16H61.3a1.172,1.172,0,0,0,1.176-1.16v-2.77a1.172,1.172,0,0,0-1.176-1.159H58.346Zm4.141,8.019h-2.3a7.4,7.4,0,0,1,.336,2.207,8.132,8.132,0,0,1-16.246,0,7.429,7.429,0,0,1,.336-2.207h-2.4v10.862a1.032,1.032,0,0,0,1.038,1.022h18.2a1.031,1.031,0,0,0,1.037-1.022V598.875ZM52.4,595.8a5.011,5.011,0,1,0,5.249,5.006A5.131,5.131,0,0,0,52.4,595.8Z" transform="translate(-37 -587)"/>
</svg>
